<svg xmlns="http://www.w3.org/2000/svg" xmlns:xlink="http://www.w3.org/1999/xlink" width="500pt" height="317pt" viewBox="0 0 500 316.8"><g id="graph0" class="graph" transform="scale(1 1) rotate(0) translate(4 312.8)"><title>Taskflow</title><polygon fill="#fff" stroke="transparent" points="-4 4 -4 -312.8 496 -312.8 496 4 -4 4"/><g id="clust1" class="cluster"><title>cluster_p0x7ffee9223970</title><polygon fill="none" stroke="#000" points="8 -8 8 -300.8 334 -300.8 334 -8 8 -8"/><text x="171" y="-284.2" fill="#000" font-family="Times,serif" font-size="14" text-anchor="middle">Taskflow: F2</text></g><g id="clust2" class="cluster"><title>cluster_p0x7ffee92238d0</title><polygon fill="none" stroke="#000" points="342 -152 342 -300.8 484 -300.8 484 -152 342 -152"/><text x="413" y="-284.2" fill="#000" font-family="Times,serif" font-size="14" text-anchor="middle">Taskflow: F1</text></g><g id="node1" class="node"><title>p0x7f816f402b60</title><ellipse cx="138" cy="-250" fill="none" stroke="#000" rx="27" ry="18"/><text x="138" y="-245.8" fill="#000" font-family="Times,serif" font-size="14" text-anchor="middle">f2A</text></g><g id="node2" class="node"><title>p0x7f816f402d80</title><ellipse cx="113" cy="-178" fill="none" stroke="#000" rx="27" ry="18"/><text x="113" y="-173.8" fill="#000" font-family="Times,serif" font-size="14" text-anchor="middle">f2C</text></g><g id="edge1" class="edge"><title>p0x7f816f402b60-&gt;p0x7f816f402d80</title><path fill="none" stroke="#000" d="M131.8202,-232.2022C129.0047,-224.0936 125.6087,-214.3129 122.4809,-205.3049"/><polygon fill="#000" stroke="#000" points="125.695 -203.892 119.109 -195.593 119.082 -206.188 125.695 -203.892"/></g><g id="node4" class="node"><title>p0x7f816f402fa0</title><polygon fill="none" stroke="#00f" points="161.86 -124 20.14 -124 16.14 -120 16.14 -88 157.86 -88 161.86 -92 161.86 -124"/><polyline fill="none" stroke="#00f" points="157.86 -120 16.14 -120"/><polyline fill="none" stroke="#00f" points="157.86 -120 157.86 -88"/><polyline fill="none" stroke="#00f" points="157.86 -120 161.86 -124"/><text x="89" y="-101.8" fill="#000" font-family="Times,serif" font-size="14" text-anchor="middle">module [Taskflow: F1]</text></g><g id="edge3" class="edge"><title>p0x7f816f402d80-&gt;p0x7f816f402fa0</title><path fill="none" stroke="#000" d="M107.0674,-160.2022C104.4049,-152.2146 101.2015,-142.6045 98.2362,-133.7087"/><polygon fill="#000" stroke="#000" points="101.514 -132.473 95.031 -124.093 94.873 -134.687 101.514 -132.473"/></g><g id="node6" class="node"><title>p0x7f816f402fa1</title><polygon fill="none" stroke="#00f" points="325.86 -124 184.14 -124 180.14 -120 180.14 -88 321.86 -88 325.86 -92 325.86 -124"/><polyline fill="none" stroke="#00f" points="321.86 -120 180.14 -120"/><polyline fill="none" stroke="#00f" points="321.86 -120 321.86 -88"/><polyline fill="none" stroke="#00f" points="321.86 -120 325.86 -124"/><text x="253" y="-101.8" fill="#000" font-family="Times,serif" font-size="14" text-anchor="middle">module [Taskflow: F1]</text></g><g id="edge6" class="edge"><title>p0x7f816f402d80-&gt;p0x7f816f402fa1</title><path fill="none" stroke="#000" d="M134.5682,-166.9078C154.2238,-156.7992 183.8723,-141.5514 208.5865,-128.8412"/><polygon fill="#000" stroke="#000" points="210.494 -131.796 217.786 -124.11 207.292 -125.571 210.494 -131.796"/></g><g id="node3" class="node"><title>p0x7f816f402c70</title><ellipse cx="66" cy="-250" fill="none" stroke="#000" rx="27" ry="18"/><text x="66" y="-245.8" fill="#000" font-family="Times,serif" font-size="14" text-anchor="middle">f2B</text></g><g id="edge2" class="edge"><title>p0x7f816f402c70-&gt;p0x7f816f402d80</title><path fill="none" stroke="#000" d="M76.9009,-233.3008C82.7736,-224.3043 90.1366,-213.0247 96.6787,-203.0029"/><polygon fill="#000" stroke="#000" points="99.623 -204.896 102.158 -194.609 93.761 -201.069 99.623 -204.896"/></g><g id="node5" class="node"><title>p0x7f816f402e90</title><ellipse cx="171" cy="-34" fill="none" stroke="#000" rx="27" ry="18"/><text x="171" y="-29.8" fill="#000" font-family="Times,serif" font-size="14" text-anchor="middle">f2D</text></g><g id="edge5" class="edge"><title>p0x7f816f402fa0-&gt;p0x7f816f402e90</title><path fill="none" stroke="#000" d="M109.6921,-87.8314C120.9484,-77.9478 134.9369,-65.6652 146.7085,-55.3291"/><polygon fill="#000" stroke="#000" points="149.238 -57.766 154.443 -48.538 144.619 -52.506 149.238 -57.766"/></g><g id="edge4" class="edge"><title>p0x7f816f402fa1-&gt;p0x7f816f402e90</title><path fill="none" stroke="#000" d="M232.3079,-87.8314C221.0516,-77.9478 207.0631,-65.6652 195.2915,-55.3291"/><polygon fill="#000" stroke="#000" points="197.381 -52.506 187.557 -48.538 192.762 -57.766 197.381 -52.506"/></g><g id="node7" class="node"><title>p0x7f816f402830</title><ellipse cx="449" cy="-250" fill="none" stroke="#000" rx="27" ry="18"/><text x="449" y="-245.8" fill="#000" font-family="Times,serif" font-size="14" text-anchor="middle">f1A</text></g><g id="node8" class="node"><title>p0x7f816f402a50</title><ellipse cx="413" cy="-178" fill="none" stroke="#000" rx="27" ry="18"/><text x="413" y="-173.8" fill="#000" font-family="Times,serif" font-size="14" text-anchor="middle">f1C</text></g><g id="edge7" class="edge"><title>p0x7f816f402830-&gt;p0x7f816f402a50</title><path fill="none" stroke="#000" d="M440.2854,-232.5708C436.0403,-224.0807 430.8464,-213.6929 426.1337,-204.2674"/><polygon fill="#000" stroke="#000" points="429.237 -202.648 421.634 -195.269 422.976 -205.778 429.237 -202.648"/></g><g id="node9" class="node"><title>p0x7f816f402940</title><ellipse cx="377" cy="-250" fill="none" stroke="#000" rx="27" ry="18"/><text x="377" y="-245.8" fill="#000" font-family="Times,serif" font-size="14" text-anchor="middle">f1B</text></g><g id="edge8" class="edge"><title>p0x7f816f402940-&gt;p0x7f816f402a50</title><path fill="none" stroke="#000" d="M385.7146,-232.5708C389.9597,-224.0807 395.1536,-213.6929 399.8663,-204.2674"/><polygon fill="#000" stroke="#000" points="403.024 -205.778 404.366 -195.269 396.763 -202.648 403.024 -205.778"/></g></g></svg>