<svg xmlns="http://www.w3.org/2000/svg" xmlns:xlink="http://www.w3.org/1999/xlink" width="1236" height="472" viewBox="0 0 927 354.4"><g id="graph0" class="graph" transform="scale(1 1) rotate(0) translate(4 350.4)"><title>Taskflow</title><polygon fill="#fff" stroke="transparent" points="-4 4 -4 -350.4 923 -350.4 923 4 -4 4"/><g id="clust1" class="cluster"><title>cluster_error1</title><polygon fill="none" stroke="#000" points="8 -134.8 8 -338.4 151 -338.4 151 -134.8 8 -134.8"/><text x="79.5" y="-321.8" fill="#000" font-family="Times,serif" font-size="14" text-anchor="middle">error1: no source tasks</text></g><g id="clust2" class="cluster"><title>cluster_fix1</title><polygon fill="none" stroke="#000" points="159 -8 159 -338.4 301 -338.4 301 -8 159 -8"/><text x="230" y="-321.8" fill="#000" font-family="Times,serif" font-size="14" text-anchor="middle">fix1: adds a source</text></g><g id="clust3" class="cluster"><title>cluster_error2</title><polygon fill="none" stroke="#000" points="309 -134.8 309 -338.4 451 -338.4 451 -134.8 309 -134.8"/><text x="380" y="-321.8" fill="#000" font-family="Times,serif" font-size="14" text-anchor="middle">error2: race on D</text></g><g id="clust4" class="cluster"><title>cluster_fix2</title><polygon fill="none" stroke="#000" points="459 -8 459 -338.4 689 -338.4 689 -8 459 -8"/><text x="574" y="-321.8" fill="#000" font-family="Times,serif" font-size="14" text-anchor="middle">fix2: adds an auxiliary task</text></g><g id="clust5" class="cluster"><title>cluster_risky</title><polygon fill="none" stroke="#000" points="697 -134.8 697 -338.4 911 -338.4 911 -134.8 697 -134.8"/><text x="804" y="-321.8" fill="#000" font-family="Times,serif" font-size="14" text-anchor="middle">risky: X might be raced</text></g><g id="node1" class="node"><title>e1A</title><polygon fill="#7fffd4" stroke="#000" points="64 -305.6 37 -287.6 64 -269.6 91 -287.6 64 -305.6"/><text x="64" y="-283.4" fill="#000" font-family="Times,serif" font-size="14" text-anchor="middle">A</text></g><g id="edge1" class="edge"><title>e1A-&gt;e1A</title><path fill="none" stroke="#000" stroke-dasharray="5 2" d="M82.4896,-293.6233C95.7706,-295.5843 109,-293.5766 109,-287.6 109,-283.1643 101.7127,-280.9147 92.5255,-280.8514"/><polygon fill="#000" stroke="#000" points="92.211 -277.365 82.49 -281.577 92.716 -284.347 92.211 -277.365"/><text x="112.5" y="-283.4" fill="#000" font-family="Times,serif" font-size="14" text-anchor="middle">0</text></g><g id="node2" class="node"><title>e1B</title><ellipse cx="43" cy="-160.8" fill="none" stroke="#000" rx="27" ry="18"/><text x="43" y="-156.6" fill="#000" font-family="Times,serif" font-size="14" text-anchor="middle">B</text></g><g id="edge2" class="edge"><title>e1A-&gt;e1B</title><path fill="none" stroke="#000" stroke-dasharray="5 2" d="M61.2976,-271.2827C57.8663,-250.5641 51.8898,-214.4774 47.7035,-189.2004"/><polygon fill="#000" stroke="#000" points="51.119 -188.399 46.032 -179.106 44.213 -189.543 51.119 -188.399"/><text x="57.5" y="-220" fill="#000" font-family="Times,serif" font-size="14" text-anchor="middle">1</text></g><g id="node3" class="node"><title>e1C</title><ellipse cx="115" cy="-160.8" fill="none" stroke="#000" rx="27" ry="18"/><text x="115" y="-156.6" fill="#000" font-family="Times,serif" font-size="14" text-anchor="middle">C</text></g><g id="edge3" class="edge"><title>e1A-&gt;e1C</title><path fill="none" stroke="#000" stroke-dasharray="5 2" d="M69.8503,-273.0544C78.2024,-252.2888 93.6905,-213.7813 104.1697,-187.7271"/><polygon fill="#000" stroke="#000" points="107.431 -188.998 107.915 -178.414 100.937 -186.386 107.431 -188.998"/><text x="95.5" y="-220" fill="#000" font-family="Times,serif" font-size="14" text-anchor="middle">2</text></g><g id="node4" class="node"><title>f1S</title><ellipse cx="215" cy="-287.6" fill="none" stroke="#000" rx="27" ry="18"/><text x="215" y="-283.4" fill="#000" font-family="Times,serif" font-size="14" text-anchor="middle">S</text></g><g id="node5" class="node"><title>f1A</title><polygon fill="#7fffd4" stroke="#000" points="215 -178.8 188 -160.8 215 -142.8 242 -160.8 215 -178.8"/><text x="215" y="-156.6" fill="#000" font-family="Times,serif" font-size="14" text-anchor="middle">A</text></g><g id="edge4" class="edge"><title>f1S-&gt;f1A</title><path fill="none" stroke="#000" d="M215,-269.4327C215,-248.4352 215,-213.6261 215,-189.079"/><polygon fill="#000" stroke="#000" points="218.5 -188.934 215 -178.934 211.5 -188.934 218.5 -188.934"/></g><g id="edge5" class="edge"><title>f1A-&gt;f1A</title><path fill="none" stroke="#000" stroke-dasharray="5 2" d="M233.4896,-166.8233C246.7706,-168.7843 260,-166.7766 260,-160.8 260,-156.3643 252.7127,-154.1147 243.5255,-154.0514"/><polygon fill="#000" stroke="#000" points="243.211 -150.565 233.49 -154.777 243.716 -157.547 243.211 -150.565"/><text x="263.5" y="-156.6" fill="#000" font-family="Times,serif" font-size="14" text-anchor="middle">0</text></g><g id="node6" class="node"><title>f1B</title><ellipse cx="194" cy="-34" fill="none" stroke="#000" rx="27" ry="18"/><text x="194" y="-29.8" fill="#000" font-family="Times,serif" font-size="14" text-anchor="middle">B</text></g><g id="edge6" class="edge"><title>f1A-&gt;f1B</title><path fill="none" stroke="#000" stroke-dasharray="5 2" d="M212.2976,-144.4827C208.8663,-123.7641 202.8898,-87.6774 198.7035,-62.4004"/><polygon fill="#000" stroke="#000" points="202.119 -61.599 197.032 -52.306 195.213 -62.743 202.119 -61.599"/><text x="208.5" y="-93.2" fill="#000" font-family="Times,serif" font-size="14" text-anchor="middle">1</text></g><g id="node7" class="node"><title>f1C</title><ellipse cx="266" cy="-34" fill="none" stroke="#000" rx="27" ry="18"/><text x="266" y="-29.8" fill="#000" font-family="Times,serif" font-size="14" text-anchor="middle">C</text></g><g id="edge7" class="edge"><title>f1A-&gt;f1C</title><path fill="none" stroke="#000" stroke-dasharray="5 2" d="M220.8503,-146.2544C229.2024,-125.4888 244.6905,-86.9813 255.1697,-60.9271"/><polygon fill="#000" stroke="#000" points="258.431 -62.198 258.915 -51.614 251.937 -59.586 258.431 -62.198"/><text x="246.5" y="-93.2" fill="#000" font-family="Times,serif" font-size="14" text-anchor="middle">2</text></g><g id="node8" class="node"><title>e2C</title><polygon fill="#7fffd4" stroke="#000" points="416 -305.6 389 -287.6 416 -269.6 443 -287.6 416 -305.6"/><text x="416" y="-283.4" fill="#000" font-family="Times,serif" font-size="14" text-anchor="middle">C</text></g><g id="node9" class="node"><title>e2D</title><ellipse cx="344" cy="-160.8" fill="none" stroke="#000" rx="27" ry="18"/><text x="344" y="-156.6" fill="#000" font-family="Times,serif" font-size="14" text-anchor="middle">D</text></g><g id="edge9" class="edge"><title>e2C-&gt;e2D</title><path fill="none" stroke="#000" stroke-dasharray="5 2" d="M408.5659,-274.5078C396.867,-253.9046 373.935,-213.5189 358.789,-186.845"/><polygon fill="#000" stroke="#000" points="361.769 -185.005 353.788 -178.037 355.682 -188.461 361.769 -185.005"/><text x="386.5" y="-220" fill="#000" font-family="Times,serif" font-size="14" text-anchor="middle">0</text></g><g id="node10" class="node"><title>e2F</title><ellipse cx="416" cy="-160.8" fill="none" stroke="#000" rx="27" ry="18"/><text x="416" y="-156.6" fill="#000" font-family="Times,serif" font-size="14" text-anchor="middle">F</text></g><g id="edge10" class="edge"><title>e2C-&gt;e2F</title><path fill="none" stroke="#000" stroke-dasharray="5 2" d="M416,-269.4327C416,-248.4352 416,-213.6261 416,-189.079"/><polygon fill="#000" stroke="#000" points="419.5 -188.934 416 -178.934 412.5 -188.934 419.5 -188.934"/><text x="419.5" y="-220" fill="#000" font-family="Times,serif" font-size="14" text-anchor="middle">1</text></g><g id="node11" class="node"><title>e2E</title><ellipse cx="344" cy="-287.6" fill="none" stroke="#000" rx="27" ry="18"/><text x="344" y="-283.4" fill="#000" font-family="Times,serif" font-size="14" text-anchor="middle">E</text></g><g id="edge8" class="edge"><title>e2E-&gt;e2D</title><path fill="none" stroke="#000" d="M344,-269.4327C344,-248.4352 344,-213.6261 344,-189.079"/><polygon fill="#000" stroke="#000" points="347.5 -188.934 344 -178.934 340.5 -188.934 347.5 -188.934"/></g><g id="node12" class="node"><title>f2C</title><polygon fill="#7fffd4" stroke="#000" points="614 -305.6 587 -287.6 614 -269.6 641 -287.6 614 -305.6"/><text x="614" y="-283.4" fill="#000" font-family="Times,serif" font-size="14" text-anchor="middle">C</text></g><g id="node14" class="node"><title>f2Daux</title><ellipse cx="574" cy="-160.8" fill="none" stroke="#000" rx="35.333" ry="18"/><text x="574" y="-156.6" fill="#000" font-family="Times,serif" font-size="14" text-anchor="middle">D-aux</text></g><g id="edge12" class="edge"><title>f2C-&gt;f2Daux</title><path fill="none" stroke="#000" stroke-dasharray="5 2" d="M609.2544,-272.5564C602.714,-251.8233 590.815,-214.1035 582.665,-188.268"/><polygon fill="#000" stroke="#000" points="585.985 -187.159 579.639 -178.675 579.31 -189.265 585.985 -187.159"/><text x="598.5" y="-220" fill="#000" font-family="Times,serif" font-size="14" text-anchor="middle">0</text></g><g id="node15" class="node"><title>f2F</title><ellipse cx="654" cy="-160.8" fill="none" stroke="#000" rx="27" ry="18"/><text x="654" y="-156.6" fill="#000" font-family="Times,serif" font-size="14" text-anchor="middle">F</text></g><g id="edge13" class="edge"><title>f2C-&gt;f2F</title><path fill="none" stroke="#000" stroke-dasharray="5 2" d="M618.7456,-272.5564C625.286,-251.8233 637.185,-214.1035 645.335,-188.268"/><polygon fill="#000" stroke="#000" points="648.69 -189.265 648.361 -178.675 642.015 -187.159 648.69 -189.265"/><text x="638.5" y="-220" fill="#000" font-family="Times,serif" font-size="14" text-anchor="middle">1</text></g><g id="node13" class="node"><title>f2D</title><ellipse cx="534" cy="-34" fill="none" stroke="#000" rx="27" ry="18"/><text x="534" y="-29.8" fill="#000" font-family="Times,serif" font-size="14" text-anchor="middle">D</text></g><g id="edge14" class="edge"><title>f2Daux-&gt;f2D</title><path fill="none" stroke="#000" d="M568.3538,-142.9016C561.6833,-121.756 550.5103,-86.3376 542.7241,-61.6553"/><polygon fill="#000" stroke="#000" points="545.964 -60.291 539.617 -51.807 539.288 -62.397 545.964 -60.291"/></g><g id="node16" class="node"><title>f2E</title><ellipse cx="494" cy="-160.8" fill="none" stroke="#000" rx="27" ry="18"/><text x="494" y="-156.6" fill="#000" font-family="Times,serif" font-size="14" text-anchor="middle">E</text></g><g id="edge11" class="edge"><title>f2E-&gt;f2D</title><path fill="none" stroke="#000" d="M499.5618,-143.169C506.2408,-121.9967 517.5196,-86.2429 525.3414,-61.4478"/><polygon fill="#000" stroke="#000" points="528.686 -62.48 528.356 -51.89 522.01 -60.374 528.686 -62.48"/></g><g id="node17" class="node"><title>rP</title><polygon fill="#7fffd4" stroke="#000" points="855 -305.6 828 -287.6 855 -269.6 882 -287.6 855 -305.6"/><text x="855" y="-283.4" fill="#000" font-family="Times,serif" font-size="14" text-anchor="middle">P</text></g><g id="node19" class="node"><title>rQ</title><ellipse cx="876" cy="-160.8" fill="none" stroke="#000" rx="27" ry="18"/><text x="876" y="-156.6" fill="#000" font-family="Times,serif" font-size="14" text-anchor="middle">Q</text></g><g id="edge18" class="edge"><title>rP-&gt;rQ</title><path fill="none" stroke="#000" stroke-dasharray="5 2" d="M857.7024,-271.2827C861.1337,-250.5641 867.1102,-214.4774 871.2965,-189.2004"/><polygon fill="#000" stroke="#000" points="874.787 -189.543 872.968 -179.106 867.881 -188.399 874.787 -189.543"/><text x="869.5" y="-220" fill="#000" font-family="Times,serif" font-size="14" text-anchor="middle">0</text></g><g id="node20" class="node"><title>rX</title><ellipse cx="804" cy="-160.8" fill="none" stroke="#000" rx="27" ry="18"/><text x="804" y="-156.6" fill="#000" font-family="Times,serif" font-size="14" text-anchor="middle">X</text></g><g id="edge15" class="edge"><title>rP-&gt;rX</title><path fill="none" stroke="#000" stroke-dasharray="5 2" d="M849.1497,-273.0544C840.7976,-252.2888 825.3095,-213.7813 814.8303,-187.7271"/><polygon fill="#000" stroke="#000" points="818.063 -186.386 811.085 -178.414 811.569 -188.998 818.063 -186.386"/><text x="835.5" y="-220" fill="#000" font-family="Times,serif" font-size="14" text-anchor="middle">1</text></g><g id="node18" class="node"><title>rM</title><polygon fill="#7fffd4" stroke="#000" points="762 -305.6 734.002 -287.6 762 -269.6 789.998 -287.6 762 -305.6"/><text x="762" y="-283.4" fill="#000" font-family="Times,serif" font-size="14" text-anchor="middle">M</text></g><g id="edge16" class="edge"><title>rM-&gt;rX</title><path fill="none" stroke="#000" stroke-dasharray="5 2" d="M766.9829,-272.5564C773.8503,-251.8233 786.3443,-214.1035 794.9018,-188.268"/><polygon fill="#000" stroke="#000" points="798.257 -189.269 798.079 -178.675 791.612 -187.068 798.257 -189.269"/><text x="788.5" y="-220" fill="#000" font-family="Times,serif" font-size="14" text-anchor="middle">0</text></g><g id="node21" class="node"><title>rN</title><ellipse cx="732" cy="-160.8" fill="none" stroke="#000" rx="27" ry="18"/><text x="732" y="-156.6" fill="#000" font-family="Times,serif" font-size="14" text-anchor="middle">N</text></g><g id="edge17" class="edge"><title>rM-&gt;rN</title><path fill="none" stroke="#000" stroke-dasharray="5 2" d="M758.2611,-271.7971C753.3465,-251.0247 744.6312,-214.1878 738.5959,-188.6787"/><polygon fill="#000" stroke="#000" points="741.979 -187.777 736.271 -178.852 735.167 -189.389 741.979 -187.777"/><text x="751.5" y="-220" fill="#000" font-family="Times,serif" font-size="14" text-anchor="middle">1</text></g></g></svg>