<svg xmlns="http://www.w3.org/2000/svg" xmlns:xlink="http://www.w3.org/1999/xlink" width="281pt" height="79pt" viewBox="0 0 280.58 78.8"><g id="graph0" class="graph" transform="scale(1 1) rotate(0) translate(4 74.8)"><title>Taskflow</title><polygon fill="#fff" stroke="transparent" points="-4 4 -4 -74.8 276.577 -74.8 276.577 4 -4 4"/><g id="node1" class="node"><title>cond</title><polygon fill="#7fffd4" stroke="#000" points="133.156 -36 90.844 -18 133.156 0 175.468 -18 133.156 -36"/><text x="133.156" y="-13.8" fill="#000" font-family="Times,serif" font-size="14" text-anchor="middle">cond</text></g><g id="edge2" class="edge"><title>cond-&gt;cond</title><path fill="none" stroke="#000" stroke-dasharray="5 2" d="M123.3587,-32.0417C119.6948,-42.9126 122.9605,-54 133.1558,-54 140.1651,-54 143.899,-48.7595 144.3576,-41.9516"/><polygon fill="#000" stroke="#000" points="147.822 -41.452 142.953 -32.042 140.891 -42.434 147.822 -41.452"/><text x="133.156" y="-58.2" fill="#000" font-family="Times,serif" font-size="14" text-anchor="middle">0</text></g><g id="node3" class="node"><title>stop</title><ellipse cx="245.444" cy="-18" fill="none" stroke="#000" rx="27.266" ry="18"/><text x="245.444" y="-13.8" fill="#000" font-family="Times,serif" font-size="14" text-anchor="middle">stop</text></g><g id="edge3" class="edge"><title>cond-&gt;stop</title><path fill="none" stroke="#000" stroke-dasharray="5 2" d="M175.6073,-18C186.3205,-18 197.7421,-18 208.1787,-18"/><polygon fill="#000" stroke="#000" points="208.224 -21.5 218.224 -18 208.224 -14.5 208.224 -21.5"/><text x="196.812" y="-22.2" fill="#000" font-family="Times,serif" font-size="14" text-anchor="middle">1</text></g><g id="node2" class="node"><title>init</title><ellipse cx="27" cy="-18" fill="none" stroke="#000" rx="27" ry="18"/><text x="27" y="-13.8" fill="#000" font-family="Times,serif" font-size="14" text-anchor="middle">init</text></g><g id="edge1" class="edge"><title>init-&gt;cond</title><path fill="none" stroke="#000" d="M54.0623,-18C62.2725,-18 71.5862,-18 80.8676,-18"/><polygon fill="#000" stroke="#000" points="80.873 -21.5 90.873 -18 80.873 -14.5 80.873 -21.5"/></g></g></svg>