<svg xmlns="http://www.w3.org/2000/svg" xmlns:xlink="http://www.w3.org/1999/xlink" width="1639pt" height="761pt" viewBox="0 0 1638.81 761"><g id="graph0" class="graph" transform="scale(1 1) rotate(0) translate(4 757)"><title>Taskflow</title><polygon fill="#fff" stroke="transparent" points="-4 4 -4 -757 1634.806 -757 1634.806 4 -4 4"/><g id="clust1" class="cluster"><title>cluster_p0x55f824e16950</title><polygon fill="none" stroke="#a020f0" points="548.72 -321 548.72 -506 1090.14 -506 1090.14 -321 548.72 -321"/><text x="819.43" y="-489.4" fill="#000" font-family="Times,serif" font-size="14" text-anchor="middle">cudaFlow: h2d_constant</text></g><g id="clust2" class="cluster"><title>cluster_p0x55f824e16ea0</title><polygon fill="none" stroke="#a020f0" points="523.529 -560 523.529 -745 1085.086 -745 1085.086 -560 523.529 -560"/><text x="804.307" y="-728.4" fill="#000" font-family="Times,serif" font-size="14" text-anchor="middle">cudaFlow: [0]mis_h2d</text></g><g id="clust3" class="cluster"><title>cluster_p0x55f824e170c0</title><polygon fill="none" stroke="#a020f0" points="8 -126 8 -257 673.257 -257 673.257 -126 8 -126"/><text x="340.628" y="-240.4" fill="#000" font-family="Times,serif" font-size="14" text-anchor="middle">cudaFlow: [0]mis_loop_k</text></g><g id="clust4" class="cluster"><title>cluster_p0x55f824e173f0</title><polygon fill="none" stroke="#a020f0" points="737.054 -46 737.054 -123 1294.032 -123 1294.032 -46 737.054 -46"/><text x="1015.543" y="-106.4" fill="#000" font-family="Times,serif" font-size="14" text-anchor="middle">cudaFlow: [0]mis_loop_end</text></g><g id="node1" class="node"><title>p0x55f824e15da0</title><ellipse cx="826.362" cy="-241" fill="none" stroke="#000" rx="68.924" ry="18"/><text x="826.362" y="-236.8" fill="#000" font-family="Times,serif" font-size="14" text-anchor="middle">new_net_mask</text></g><g id="node2" class="node"><title>p0x55f824e16950</title><polygon fill="#0ff" stroke="#000" points="1081.968 -365 1078.968 -369 1057.968 -369 1054.968 -365 991.657 -365 991.657 -329 1081.968 -329 1081.968 -365"/><text x="1036.813" y="-342.8" fill="#000" font-family="Times,serif" font-size="14" text-anchor="middle">h2d_constant</text></g><g id="edge1" class="edge"><title>p0x55f824e15da0-&gt;p0x55f824e16950</title><path fill="none" stroke="#000" d="M876.6076,-253.5936C889.4499,-257.5339 903.0494,-262.3562 915.1767,-268 947.5051,-283.0449 981.2869,-305.6183 1005.0221,-322.7877"/><polygon fill="#000" stroke="#000" points="1003.155 -325.759 1013.291 -328.845 1007.292 -320.112 1003.155 -325.759"/></g><g id="node4" class="node"><title>p0x55f824e16fb0</title><ellipse cx="1230.206" cy="-239" fill="none" stroke="#000" rx="65.516" ry="18"/><text x="1230.206" y="-234.8" fill="#000" font-family="Times,serif" font-size="14" text-anchor="middle">mis_loop_beg</text></g><g id="edge3" class="edge"><title>p0x55f824e16950-&gt;p0x55f824e16fb0</title><path fill="none" stroke="#000" d="M1069.1822,-328.9232C1103.0389,-310.0161 1156.1508,-280.3559 1192.0311,-260.3186"/><polygon fill="#000" stroke="#000" points="1194.187 -263.123 1201.211 -255.192 1190.774 -257.012 1194.187 -263.123"/></g><g id="node3" class="node"><title>p0x55f824e160d0</title><ellipse cx="826.362" cy="-295" fill="none" stroke="#000" rx="60.839" ry="18"/><text x="826.362" y="-290.8" fill="#000" font-family="Times,serif" font-size="14" text-anchor="middle">new_pin2net</text></g><g id="edge2" class="edge"><title>p0x55f824e160d0-&gt;p0x55f824e16950</title><path fill="none" stroke="#000" d="M873.3294,-306.6051C905.2767,-314.4989 947.686,-324.9778 981.3041,-333.2845"/><polygon fill="#000" stroke="#000" points="980.886 -336.786 991.434 -335.787 982.565 -329.991 980.886 -336.786"/></g><g id="node16" class="node"><title>p0x55f824e170c0</title><polygon fill="#0ff" stroke="#000" points="665.477 -196 662.477 -200 641.477 -200 638.477 -196 566.6 -196 566.6 -160 665.477 -160 665.477 -196"/><text x="616.038" y="-173.8" fill="#000" font-family="Times,serif" font-size="14" text-anchor="middle">[0]mis_loop_k</text></g><g id="edge15" class="edge"><title>p0x55f824e16fb0-&gt;p0x55f824e170c0</title><path fill="none" stroke="#000" d="M1168.1721,-232.8387C1049.5354,-221.0555 791.9477,-195.4716 675.4178,-183.8977"/><polygon fill="#000" stroke="#000" points="675.557 -180.394 665.26 -182.889 674.865 -187.36 675.557 -180.394"/></g><g id="node5" class="node"><title>p0x7f4ad8000e70</title><ellipse cx="616.038" cy="-455" fill="none" stroke="#000" rx="59.137" ry="18"/><text x="616.038" y="-450.8" fill="#000" font-family="Times,serif" font-size="14" text-anchor="middle">h2d_pin2net</text></g><g id="edge4" class="edge"><title>p0x7f4ad8000e70-&gt;p0x55f824e16950</title><path fill="none" stroke="#000" d="M661.9349,-443.4674C720.6736,-428.6785 825.5582,-402.1723 915.1767,-379 936.8871,-373.3864 960.7532,-367.1271 981.5518,-361.6434"/><polygon fill="#000" stroke="#000" points="982.717 -364.956 991.493 -359.02 980.931 -358.188 982.717 -364.956"/></g><g id="node6" class="node"><title>p0x7f4ad8000f30</title><ellipse cx="616.038" cy="-401" fill="none" stroke="#000" rx="55.626" ry="18"/><text x="616.038" y="-396.8" fill="#000" font-family="Times,serif" font-size="14" text-anchor="middle">h2d_fv2pin</text></g><g id="edge5" class="edge"><title>p0x7f4ad8000f30-&gt;p0x55f824e16950</title><path fill="none" stroke="#000" d="M668.0554,-394.3244C747.8664,-384.0818 899.8496,-364.5771 981.5616,-354.0906"/><polygon fill="#000" stroke="#000" points="982.176 -357.541 991.649 -352.796 981.285 -350.598 982.176 -357.541"/></g><g id="node7" class="node"><title>p0x7f4ad8001140</title><ellipse cx="616.038" cy="-347" fill="none" stroke="#000" rx="52.196" ry="18"/><text x="616.038" y="-342.8" fill="#000" font-family="Times,serif" font-size="14" text-anchor="middle">h2d_pin2v</text></g><g id="edge6" class="edge"><title>p0x7f4ad8001140-&gt;p0x55f824e16950</title><path fill="none" stroke="#000" d="M668.4788,-347C748.3384,-347 899.7493,-347 981.3641,-347"/><polygon fill="#000" stroke="#000" points="981.442 -350.5 991.442 -347 981.442 -343.5 981.442 -350.5"/></g><g id="node8" class="node"><title>p0x55f824e16a60</title><ellipse cx="272.122" cy="-532" fill="none" stroke="#000" rx="67.759" ry="18"/><text x="272.122" y="-527.8" fill="#000" font-family="Times,serif" font-size="14" text-anchor="middle">[0]shuffle_beg</text></g><g id="node9" class="node"><title>p0x55f824e16b70</title><ellipse cx="435.765" cy="-532" fill="none" stroke="#000" rx="58.529" ry="18"/><text x="435.765" y="-527.8" fill="#000" font-family="Times,serif" font-size="14" text-anchor="middle">[0]shuffle_k</text></g><g id="edge7" class="edge"><title>p0x55f824e16a60-&gt;p0x55f824e16b70</title><path fill="none" stroke="#000" d="M340.0993,-532C348.8725,-532 357.8644,-532 366.6555,-532"/><polygon fill="#000" stroke="#000" points="366.858 -535.5 376.858 -532 366.858 -528.5 366.858 -535.5"/></g><g id="node10" class="node"><title>p0x55f824e16c80</title><ellipse cx="616.038" cy="-532" fill="none" stroke="#000" rx="67.759" ry="18"/><text x="616.038" y="-527.8" fill="#000" font-family="Times,serif" font-size="14" text-anchor="middle">[0]shuffle_end</text></g><g id="edge8" class="edge"><title>p0x55f824e16b70-&gt;p0x55f824e16c80</title><path fill="none" stroke="#000" d="M494.793,-532C508.5097,-532 523.3218,-532 537.7241,-532"/><polygon fill="#000" stroke="#000" points="538.117 -535.5 548.117 -532 538.117 -528.5 538.117 -535.5"/></g><g id="node11" class="node"><title>p0x55f824e16d90</title><ellipse cx="826.362" cy="-533" fill="none" stroke="#000" rx="88.602" ry="18"/><text x="826.362" y="-528.8" fill="#000" font-family="Times,serif" font-size="14" text-anchor="middle">[0]mis_parallel_beg</text></g><g id="edge9" class="edge"><title>p0x55f824e16c80-&gt;p0x55f824e16d90</title><path fill="none" stroke="#000" d="M684.0339,-532.3233C697.881,-532.3891 712.7147,-532.4597 727.3872,-532.5294"/><polygon fill="#000" stroke="#000" points="727.489 -536.03 737.505 -532.577 727.522 -529.03 727.489 -536.03"/></g><g id="node12" class="node"><title>p0x55f824e16ea0</title><polygon fill="#0ff" stroke="#000" points="1076.861 -604 1073.861 -608 1052.861 -608 1049.861 -604 996.764 -604 996.764 -568 1076.861 -568 1076.861 -604"/><text x="1036.813" y="-581.8" fill="#000" font-family="Times,serif" font-size="14" text-anchor="middle">[0]mis_h2d</text></g><g id="edge10" class="edge"><title>p0x55f824e16d90-&gt;p0x55f824e16ea0</title><path fill="none" stroke="#000" d="M882.2065,-547.0639C914.7309,-555.2548 955.3954,-565.4959 986.8562,-573.4189"/><polygon fill="#000" stroke="#000" points="986.173 -576.856 996.725 -575.904 987.883 -570.068 986.173 -576.856"/></g><g id="edge11" class="edge"><title>p0x55f824e16ea0-&gt;p0x55f824e16fb0</title><path fill="none" stroke="#000" d="M1062.6531,-567.88C1081.0924,-553.8493 1105.375,-532.9791 1121.4483,-510 1177.0413,-430.5222 1210.2836,-318.4799 1223.5327,-266.9365"/><polygon fill="#000" stroke="#000" points="1226.943 -267.727 1225.987 -257.175 1220.154 -266.02 1226.943 -267.727"/></g><g id="node13" class="node"><title>p0x7f4ad8004530</title><ellipse cx="616.038" cy="-694" fill="none" stroke="#000" rx="84.519" ry="18"/><text x="616.038" y="-689.8" fill="#000" font-family="Times,serif" font-size="14" text-anchor="middle">[0]h2d_ordered_vs</text></g><g id="edge12" class="edge"><title>p0x7f4ad8004530-&gt;p0x55f824e16ea0</title><path fill="none" stroke="#000" d="M670.9333,-680.2011C730.9581,-665.0782 829.9678,-640.0322 915.1767,-618 938.7344,-611.9087 964.8304,-605.0572 986.7912,-599.2614"/><polygon fill="#000" stroke="#000" points="987.792 -602.617 996.566 -596.679 986.004 -595.849 987.792 -602.617"/></g><g id="node14" class="node"><title>p0x7f4ad8006d10</title><ellipse cx="616.038" cy="-640" fill="none" stroke="#000" rx="81.09" ry="18"/><text x="616.038" y="-635.8" fill="#000" font-family="Times,serif" font-size="14" text-anchor="middle">[0]h2d_dependent</text></g><g id="edge13" class="edge"><title>p0x7f4ad8006d10-&gt;p0x55f824e16ea0</title><path fill="none" stroke="#000" d="M686.4664,-630.9616C771.375,-620.0649 911.9455,-602.0248 986.6029,-592.4436"/><polygon fill="#000" stroke="#000" points="987.214 -595.894 996.687 -591.149 986.323 -588.951 987.214 -595.894"/></g><g id="node15" class="node"><title>p0x7f4ad8006df0</title><ellipse cx="616.038" cy="-586" fill="none" stroke="#000" rx="72.914" ry="18"/><text x="616.038" y="-581.8" fill="#000" font-family="Times,serif" font-size="14" text-anchor="middle">[0]h2d_selected</text></g><g id="edge14" class="edge"><title>p0x7f4ad8006df0-&gt;p0x55f824e16ea0</title><path fill="none" stroke="#000" d="M688.8511,-586C773.8196,-586 912.1,-586 986.1697,-586"/><polygon fill="#000" stroke="#000" points="986.618 -589.5 996.618 -586 986.618 -582.5 986.618 -589.5"/></g><g id="node17" class="node"><title>p0x55f824e171d0</title><ellipse cx="826.362" cy="-149" fill="none" stroke="#000" rx="88.629" ry="18"/><text x="826.362" y="-144.8" fill="#000" font-family="Times,serif" font-size="14" text-anchor="middle">[0]mis_loop_update</text></g><g id="edge16" class="edge"><title>p0x55f824e170c0-&gt;p0x55f824e171d0</title><path fill="none" stroke="#000" d="M665.3498,-171.2008C688.3896,-168.024 716.468,-164.1525 742.6854,-160.5376"/><polygon fill="#000" stroke="#000" points="743.2 -164 752.628 -159.167 742.244 -157.065 743.2 -164"/></g><g id="node21" class="node"><title>p0x55f824e172e0</title><polygon fill="#7fffd4" stroke="#000" points="1036.813 -167 952.041 -149 1036.813 -131 1121.584 -149 1036.813 -167"/><text x="1036.813" y="-144.8" fill="#000" font-family="Times,serif" font-size="14" text-anchor="middle">[0]mis_cond</text></g><g id="edge20" class="edge"><title>p0x55f824e171d0-&gt;p0x55f824e172e0</title><path fill="none" stroke="#000" d="M915.307,-149C924.0151,-149 932.8756,-149 941.6421,-149"/><polygon fill="#000" stroke="#000" points="941.875 -152.5 951.875 -149 941.875 -145.5 941.875 -152.5"/></g><g id="node18" class="node"><title>p0x7f4ad8007e00</title><ellipse cx="72.621" cy="-206" fill="none" stroke="#000" rx="56.743" ry="18"/><text x="72.621" y="-201.8" fill="#000" font-family="Times,serif" font-size="14" text-anchor="middle">[0]h2d_size</text></g><g id="node19" class="node"><title>p0x7f4ad8007d00</title><polygon fill="#000" stroke="#fff" points="305.17 -224 243.073 -224 239.073 -220 239.073 -188 301.17 -188 305.17 -192 305.17 -224"/><polyline fill="none" stroke="#fff" points="301.17 -220 239.073 -220"/><polyline fill="none" stroke="#fff" points="301.17 -220 301.17 -188"/><polyline fill="none" stroke="#fff" points="301.17 -220 305.17 -224"/><text x="272.122" y="-201.8" fill="#fff" font-family="Times,serif" font-size="14" text-anchor="middle">[0]mis_k</text></g><g id="edge17" class="edge"><title>p0x7f4ad8007e00-&gt;p0x7f4ad8007d00</title><path fill="none" stroke="#000" d="M129.2563,-206C160.8564,-206 199.6048,-206 228.7712,-206"/><polygon fill="#000" stroke="#000" points="229.052 -209.5 239.052 -206 229.052 -202.5 229.052 -209.5"/></g><g id="edge18" class="edge"><title>p0x7f4ad8007d00-&gt;p0x55f824e170c0</title><path fill="none" stroke="#000" d="M305.4102,-203.2898C363.4128,-198.5675 483.7429,-188.7708 556.4337,-182.8527"/><polygon fill="#000" stroke="#000" points="557.117 -186.309 566.8 -182.009 556.549 -179.332 557.117 -186.309"/></g><g id="node20" class="node"><title>p0x7f4ad8007b80</title><ellipse cx="272.122" cy="-152" fill="none" stroke="#000" rx="56.743" ry="18"/><text x="272.122" y="-147.8" fill="#000" font-family="Times,serif" font-size="14" text-anchor="middle">[0]d2h_size</text></g><g id="edge19" class="edge"><title>p0x7f4ad8007b80-&gt;p0x55f824e170c0</title><path fill="none" stroke="#000" d="M327.3777,-156.1773C390.1897,-160.9259 492.3357,-168.6481 556.768,-173.5192"/><polygon fill="#000" stroke="#000" points="556.538 -177.012 566.773 -174.276 557.066 -170.032 556.538 -177.012"/></g><g id="edge21" class="edge"><title>p0x55f824e172e0-&gt;p0x55f824e16fb0</title><path fill="none" stroke="#000" stroke-dasharray="5 2" d="M1106.1383,-152.3149C1119.9225,-154.698 1133.9789,-158.4304 1146.4483,-164.2 1170.9291,-175.5272 1193.4137,-196.4598 1208.909,-213.3063"/><polygon fill="#000" stroke="#000" points="1206.667 -216.051 1215.932 -221.188 1211.893 -211.394 1206.667 -216.051"/><text x="1142.948" y="-169.2" fill="#000" font-family="Times,serif" font-size="14" text-anchor="middle">0</text></g><g id="node22" class="node"><title>p0x55f824e173f0</title><polygon fill="#0ff" stroke="#000" points="1285.859 -90 1282.859 -94 1261.859 -94 1258.859 -90 1174.553 -90 1174.553 -54 1285.859 -54 1285.859 -90"/><text x="1230.206" y="-67.8" fill="#000" font-family="Times,serif" font-size="14" text-anchor="middle">[0]mis_loop_end</text></g><g id="edge22" class="edge"><title>p0x55f824e172e0-&gt;p0x55f824e173f0</title><path fill="none" stroke="#000" stroke-dasharray="5 2" d="M1079.6507,-140.0228C1093.24,-136.6059 1108.1765,-132.2462 1121.4483,-127 1129.9194,-123.6515 1131.3702,-121.4088 1139.4483,-117.2 1153.7907,-109.7274 1169.528,-101.7967 1183.8118,-94.6992"/><polygon fill="#000" stroke="#000" points="1185.551 -97.743 1192.959 -90.169 1182.445 -91.471 1185.551 -97.743"/><text x="1142.948" y="-122.2" fill="#000" font-family="Times,serif" font-size="14" text-anchor="middle">1</text></g><g id="node23" class="node"><title>p0x55f824e1aa20</title><ellipse cx="1384.227" cy="-72" fill="none" stroke="#000" rx="51.028" ry="18"/><text x="1384.227" y="-67.8" fill="#000" font-family="Times,serif" font-size="14" text-anchor="middle">[0]hpwl_k</text></g><g id="edge23" class="edge"><title>p0x55f824e173f0-&gt;p0x55f824e1aa20</title><path fill="none" stroke="#000" d="M1286.2468,-72C1298.0217,-72 1310.5047,-72 1322.4753,-72"/><polygon fill="#000" stroke="#000" points="1322.832 -75.5 1332.832 -72 1322.832 -68.5 1322.832 -75.5"/></g><g id="node25" class="node"><title>p0x55f824e1ab30</title><ellipse cx="1551.648" cy="-126" fill="none" stroke="#000" rx="64.849" ry="18"/><text x="1551.648" y="-121.8" fill="#000" font-family="Times,serif" font-size="14" text-anchor="middle">del_net_mask</text></g><g id="edge25" class="edge"><title>p0x55f824e1aa20-&gt;p0x55f824e1ab30</title><path fill="none" stroke="#000" d="M1422.2174,-84.2534C1445.1284,-91.6432 1474.6307,-101.1588 1499.6809,-109.2385"/><polygon fill="#000" stroke="#000" points="1498.804 -112.633 1509.396 -112.372 1500.953 -105.971 1498.804 -112.633"/></g><g id="node26" class="node"><title>p0x55f824e1ac40</title><ellipse cx="1551.648" cy="-72" fill="none" stroke="#000" rx="59.694" ry="18"/><text x="1551.648" y="-67.8" fill="#000" font-family="Times,serif" font-size="14" text-anchor="middle">del_fnet2pin</text></g><g id="edge26" class="edge"><title>p0x55f824e1aa20-&gt;p0x55f824e1ac40</title><path fill="none" stroke="#000" d="M1435.8249,-72C1450.1887,-72 1466.0392,-72 1481.2837,-72"/><polygon fill="#000" stroke="#000" points="1481.715 -75.5 1491.715 -72 1481.715 -68.5 1481.715 -75.5"/></g><g id="node27" class="node"><title>p0x55f824e1ad50</title><ellipse cx="1551.648" cy="-18" fill="none" stroke="#000" rx="79.315" ry="18"/><text x="1551.648" y="-13.8" fill="#000" font-family="Times,serif" font-size="14" text-anchor="middle">del_fnet2pin_ofst</text></g><g id="edge27" class="edge"><title>p0x55f824e1aa20-&gt;p0x55f824e1ad50</title><path fill="none" stroke="#000" d="M1422.2174,-59.7466C1444.0095,-52.7177 1471.7648,-43.7656 1495.9802,-35.9551"/><polygon fill="#000" stroke="#000" points="1497.32 -39.201 1505.763 -32.8 1495.171 -32.538 1497.32 -39.201"/></g><g id="node24" class="node"><title>p0x7f4ad8008470</title><ellipse cx="826.362" cy="-72" fill="none" stroke="#000" rx="81.117" ry="18"/><text x="826.362" y="-67.8" fill="#000" font-family="Times,serif" font-size="14" text-anchor="middle">p0x7f4ad8008470</text></g><g id="edge24" class="edge"><title>p0x7f4ad8008470-&gt;p0x55f824e173f0</title><path fill="none" stroke="#000" d="M908.086,-72C983.6537,-72 1094.5346,-72 1164.5115,-72"/><polygon fill="#000" stroke="#000" points="1164.53 -75.5 1174.53 -72 1164.53 -68.5 1164.53 -75.5"/></g></g></svg>