<svg xmlns="http://www.w3.org/2000/svg" xmlns:xlink="http://www.w3.org/1999/xlink" width="703pt" height="44pt" viewBox="0 0 702.66 44"><g id="graph0" class="graph" transform="scale(1 1) rotate(0) translate(4 40)"><title>G</title><polygon fill="#fff" stroke="transparent" points="-4 4 -4 -40 698.664 -40 698.664 4 -4 4"/><g id="node1" class="node"><title>a</title><ellipse cx="39.192" cy="-18" fill="none" stroke="#000" rx="39.386" ry="18"/><text x="39.192" y="-13.8" fill="#000" font-family="Times,serif" font-size="14" text-anchor="middle">1/2 (H)</text></g><g id="node2" class="node"><title>b</title><ellipse cx="160.548" cy="-18" fill="none" stroke="#000" rx="46.328" ry="18"/><text x="160.548" y="-13.8" fill="#000" font-family="Times,serif" font-size="14" text-anchor="middle">1/4 (HH)</text></g><g id="edge1" class="edge"><title>a-&gt;b</title><path fill="none" stroke="#000" d="M78.5931,-18C86.7511,-18 95.4967,-18 104.1269,-18"/><polygon fill="#000" stroke="#000" points="104.163 -21.5 114.163 -18 104.163 -14.5 104.163 -21.5"/></g><g id="node3" class="node"><title>c</title><ellipse cx="295.847" cy="-18" fill="none" stroke="#000" rx="53.27" ry="18"/><text x="295.847" y="-13.8" fill="#000" font-family="Times,serif" font-size="14" text-anchor="middle">1/8 (HHH)</text></g><g id="edge2" class="edge"><title>b-&gt;c</title><path fill="none" stroke="#000" d="M206.7319,-18C214.9853,-18 223.7142,-18 232.3524,-18"/><polygon fill="#000" stroke="#000" points="232.417 -21.5 242.417 -18 232.417 -14.5 232.417 -21.5"/></g><g id="node4" class="node"><title>d</title><ellipse cx="449.917" cy="-18" fill="none" stroke="#000" rx="64.87" ry="18"/><text x="449.917" y="-13.8" fill="#000" font-family="Times,serif" font-size="14" text-anchor="middle">1/16 (HHHH)</text></g><g id="edge3" class="edge"><title>c-&gt;d</title><path fill="none" stroke="#000" d="M349.3006,-18C357.5464,-18 366.1911,-18 374.8038,-18"/><polygon fill="#000" stroke="#000" points="374.874 -21.5 384.874 -18 374.874 -14.5 374.874 -21.5"/></g><g id="node5" class="node"><title>e</title><ellipse cx="622.758" cy="-18" fill="none" stroke="#000" rx="71.812" ry="18"/><text x="622.758" y="-13.8" fill="#000" font-family="Times,serif" font-size="14" text-anchor="middle">1/32 (HHHHH)</text></g><g id="edge4" class="edge"><title>d-&gt;e</title><path fill="none" stroke="#000" d="M515.2604,-18C523.484,-18 531.9787,-18 540.4214,-18"/><polygon fill="#000" stroke="#000" points="540.672 -21.5 550.672 -18 540.672 -14.5 540.672 -21.5"/></g></g></svg>