<svg xmlns="http://www.w3.org/2000/svg" xmlns:xlink="http://www.w3.org/1999/xlink" width="1054pt" height="173pt" viewBox="0 0 1054 172.8"><g id="graph0" class="graph" transform="scale(1 1) rotate(0) translate(4 168.8)"><title>Taskflow</title><polygon fill="#fff" stroke="transparent" points="-4 4 -4 -168.8 1050 -168.8 1050 4 -4 4"/><g id="clust1" class="cluster"><title>cluster_p0x7ffee0bae020</title><polygon fill="none" stroke="#000" points="8 -8 8 -156.8 176 -156.8 176 -8 8 -8"/><text x="92" y="-140.2" fill="#000" font-family="Times,serif" font-size="14" text-anchor="middle">Taskflow: F4</text></g><g id="clust2" class="cluster"><title>cluster_p0x7ffee0badd80</title><polygon fill="none" stroke="#000" points="184 -8 184 -156.8 496 -156.8 496 -8 184 -8"/><text x="340" y="-140.2" fill="#000" font-family="Times,serif" font-size="14" text-anchor="middle">Taskflow: F2</text></g><g id="clust3" class="cluster"><title>cluster_p0x7ffee0badce0</title><polygon fill="none" stroke="#000" points="504 -80 504 -156.8 790 -156.8 790 -80 504 -80"/><text x="647" y="-140.2" fill="#000" font-family="Times,serif" font-size="14" text-anchor="middle">Taskflow: F1</text></g><g id="clust4" class="cluster"><title>cluster_p0x7ffee0bade20</title><polygon fill="none" stroke="#000" points="798 -80 798 -156.8 1038 -156.8 1038 -80 798 -80"/><text x="918" y="-140.2" fill="#000" font-family="Times,serif" font-size="14" text-anchor="middle">Taskflow: F3</text></g><g id="node1" class="node"><title>p0x7f9ec5801238</title><polygon fill="none" stroke="#00f" points="168.36 -124 19.64 -124 15.64 -120 15.64 -88 164.36 -88 168.36 -92 168.36 -124"/><polyline fill="none" stroke="#00f" points="164.36 -120 15.64 -120"/><polyline fill="none" stroke="#00f" points="164.36 -120 164.36 -88"/><polyline fill="none" stroke="#00f" points="164.36 -120 168.36 -124"/><text x="92" y="-101.8" fill="#000" font-family="Times,serif" font-size="14" text-anchor="middle">module3 [Taskflow: F3]</text></g><g id="node2" class="node"><title>p0x7f9ec5801338</title><polygon fill="none" stroke="#00f" points="168.36 -52 19.64 -52 15.64 -48 15.64 -16 164.36 -16 168.36 -20 168.36 -52"/><polyline fill="none" stroke="#00f" points="164.36 -48 15.64 -48"/><polyline fill="none" stroke="#00f" points="164.36 -48 164.36 -16"/><polyline fill="none" stroke="#00f" points="164.36 -48 168.36 -52"/><text x="92" y="-29.8" fill="#000" font-family="Times,serif" font-size="14" text-anchor="middle">module2 [Taskflow: F2]</text></g><g id="edge1" class="edge"><title>p0x7f9ec5801238-&gt;p0x7f9ec5801338</title><path fill="none" stroke="#000" d="M92,-87.8314C92,-80.131 92,-70.9743 92,-62.4166"/><polygon fill="#000" stroke="#000" points="95.5 -62.413 92 -52.413 88.5 -62.413 95.5 -62.413"/></g><g id="node3" class="node"><title>p0x7f9ec5800a38</title><ellipse cx="461" cy="-106" fill="none" stroke="#000" rx="27" ry="18"/><text x="461" y="-101.8" fill="#000" font-family="Times,serif" font-size="14" text-anchor="middle">f2A</text></g><g id="node4" class="node"><title>p0x7f9ec5801038</title><ellipse cx="389" cy="-34" fill="none" stroke="#000" rx="27" ry="18"/><text x="389" y="-29.8" fill="#000" font-family="Times,serif" font-size="14" text-anchor="middle">f2C</text></g><g id="edge2" class="edge"><title>p0x7f9ec5800a38-&gt;p0x7f9ec5801038</title><path fill="none" stroke="#000" d="M445.7307,-90.7307C435.803,-80.803 422.6847,-67.6847 411.5637,-56.5637"/><polygon fill="#000" stroke="#000" points="413.793 -53.844 404.247 -49.247 408.844 -58.793 413.793 -53.844"/></g><g id="node5" class="node"><title>p0x7f9ec5801138</title><ellipse cx="389" cy="-106" fill="none" stroke="#000" rx="27" ry="18"/><text x="389" y="-101.8" fill="#000" font-family="Times,serif" font-size="14" text-anchor="middle">f2B</text></g><g id="edge3" class="edge"><title>p0x7f9ec5801138-&gt;p0x7f9ec5801038</title><path fill="none" stroke="#000" d="M389,-87.8314C389,-80.131 389,-70.9743 389,-62.4166"/><polygon fill="#000" stroke="#000" points="392.5 -62.413 389 -52.413 385.5 -62.413 392.5 -62.413"/></g><g id="node6" class="node"><title>p0x7f9ec5800f38</title><polygon fill="none" stroke="#00f" points="344.36 -124 195.64 -124 191.64 -120 191.64 -88 340.36 -88 344.36 -92 344.36 -124"/><polyline fill="none" stroke="#00f" points="340.36 -120 191.64 -120"/><polyline fill="none" stroke="#00f" points="340.36 -120 340.36 -88"/><polyline fill="none" stroke="#00f" points="340.36 -120 344.36 -124"/><text x="268" y="-101.8" fill="#000" font-family="Times,serif" font-size="14" text-anchor="middle">module1 [Taskflow: F1]</text></g><g id="edge4" class="edge"><title>p0x7f9ec5800f38-&gt;p0x7f9ec5801038</title><path fill="none" stroke="#000" d="M298.5334,-87.8314C317.4252,-76.5899 341.5325,-62.2451 360.1101,-51.1907"/><polygon fill="#000" stroke="#000" points="361.935 -54.178 368.739 -46.056 358.355 -48.162 361.935 -54.178"/></g><g id="node7" class="node"><title>p0xa</title><ellipse cx="755" cy="-106" fill="none" stroke="#000" rx="27" ry="18"/><text x="755" y="-101.8" fill="#000" font-family="Times,serif" font-size="14" text-anchor="middle">f1A</text></g><g id="node8" class="node"><title>p0xb</title><ellipse cx="683" cy="-106" fill="none" stroke="#000" rx="27" ry="18"/><text x="683" y="-101.8" fill="#000" font-family="Times,serif" font-size="14" text-anchor="middle">f1B</text></g><g id="node9" class="node"><title>p0xc</title><ellipse cx="611" cy="-106" fill="none" stroke="#000" rx="27" ry="18"/><text x="611" y="-101.8" fill="#000" font-family="Times,serif" font-size="14" text-anchor="middle">f1C</text></g><g id="node10" class="node"><title>p0xd</title><ellipse cx="539" cy="-106" fill="none" stroke="#000" rx="27" ry="18"/><text x="539" y="-101.8" fill="#000" font-family="Times,serif" font-size="14" text-anchor="middle">f1D</text></g><g id="node11" class="node"><title>p0x7f9ec5800e38</title><polygon fill="none" stroke="#00f" points="1030.36 -124 881.64 -124 877.64 -120 877.64 -88 1026.36 -88 1030.36 -92 1030.36 -124"/><polyline fill="none" stroke="#00f" points="1026.36 -120 877.64 -120"/><polyline fill="none" stroke="#00f" points="1026.36 -120 1026.36 -88"/><polyline fill="none" stroke="#00f" points="1026.36 -120 1030.36 -124"/><text x="954" y="-101.8" fill="#000" font-family="Times,serif" font-size="14" text-anchor="middle">module2 [Taskflow: F2]</text></g><g id="node12" class="node"><title>p0x7f9ec5800d38</title><ellipse cx="833" cy="-106" fill="none" stroke="#000" rx="27" ry="18"/><text x="833" y="-101.8" fill="#000" font-family="Times,serif" font-size="14" text-anchor="middle">f3A</text></g></g></svg>