<svg xmlns="http://www.w3.org/2000/svg" xmlns:xlink="http://www.w3.org/1999/xlink" width="1592pt" height="632pt" viewBox="0 0 1592 632"><g id="graph0" class="graph" transform="scale(1 1) rotate(0) translate(4 628)"><title>Taskflow</title><polygon fill="#fff" stroke="transparent" points="-4 4 -4 -628 1588 -628 1588 4 -4 4"/><g id="node1" class="node"><title>p0x7f95e780b0d0</title><ellipse cx="27" cy="-138" fill="none" stroke="#000" rx="27" ry="18"/><text x="27" y="-133.8" fill="#000" font-family="Times,serif" font-size="14" text-anchor="middle">0</text></g><g id="node2" class="node"><title>p0x7f95e780ac50</title><ellipse cx="117" cy="-258" fill="none" stroke="#000" rx="27" ry="18"/><text x="117" y="-253.8" fill="#000" font-family="Times,serif" font-size="14" text-anchor="middle">4</text></g><g id="edge1" class="edge"><title>p0x7f95e780b0d0-&gt;p0x7f95e780ac50</title><path fill="none" stroke="#000" d="M39.1378,-154.1837C54.4362,-174.5816 80.8762,-209.8349 98.6483,-233.5311"/><polygon fill="#000" stroke="#000" points="95.967 -235.789 104.767 -241.689 101.567 -231.589 95.967 -235.789"/></g><g id="node3" class="node"><title>p0x7f95e780ab30</title><ellipse cx="117" cy="-312" fill="none" stroke="#000" rx="27" ry="18"/><text x="117" y="-307.8" fill="#000" font-family="Times,serif" font-size="14" text-anchor="middle">5</text></g><g id="edge2" class="edge"><title>p0x7f95e780b0d0-&gt;p0x7f95e780ab30</title><path fill="none" stroke="#000" d="M36.2192,-154.9645C41.6676,-165.2581 48.5449,-178.7338 54,-191 72.1788,-231.8768 65.6491,-247.4711 90,-285 91.0825,-286.6683 92.2821,-288.3164 93.5564,-289.9261"/><polygon fill="#000" stroke="#000" points="91.094 -292.424 100.355 -297.57 96.325 -287.772 91.094 -292.424"/></g><g id="node4" class="node"><title>p0x7f95e780a8f0</title><ellipse cx="207" cy="-174" fill="none" stroke="#000" rx="27" ry="18"/><text x="207" y="-169.8" fill="#000" font-family="Times,serif" font-size="14" text-anchor="middle">7</text></g><g id="edge3" class="edge"><title>p0x7f95e780b0d0-&gt;p0x7f95e780a8f0</title><path fill="none" stroke="#000" d="M50.0975,-128.569C74.1941,-120.158 112.7447,-110.7671 144,-122 160.1573,-127.8068 175.122,-139.7506 186.4088,-150.7283"/><polygon fill="#000" stroke="#000" points="184.111 -153.384 193.605 -158.087 189.115 -148.49 184.111 -153.384"/></g><g id="node5" class="node"><title>p0x7f95e780a7d0</title><ellipse cx="297" cy="-182" fill="none" stroke="#000" rx="27" ry="18"/><text x="297" y="-177.8" fill="#000" font-family="Times,serif" font-size="14" text-anchor="middle">8</text></g><g id="edge4" class="edge"><title>p0x7f95e780b0d0-&gt;p0x7f95e780a7d0</title><path fill="none" stroke="#000" d="M52.1633,-131.0644C92.1045,-121.3491 171.8506,-107.2733 234,-130 250.1248,-135.8965 265.0878,-147.8451 276.3817,-158.803"/><polygon fill="#000" stroke="#000" points="274.082 -161.457 283.584 -166.144 279.079 -156.555 274.082 -161.457"/></g><g id="edge18" class="edge"><title>p0x7f95e780ac50-&gt;p0x7f95e780a8f0</title><path fill="none" stroke="#000" d="M133.0902,-242.9825C147.1683,-229.843 167.7927,-210.5935 183.6799,-195.7654"/><polygon fill="#000" stroke="#000" points="186.127 -198.269 191.049 -188.887 181.35 -193.152 186.127 -198.269"/></g><g id="edge19" class="edge"><title>p0x7f95e780ac50-&gt;p0x7f95e780a7d0</title><path fill="none" stroke="#000" d="M140.1634,-248.2199C171.7555,-234.881 228.519,-210.9142 264.3979,-195.7653"/><polygon fill="#000" stroke="#000" points="266.075 -198.857 273.925 -191.743 263.352 -192.408 266.075 -198.857"/></g><g id="node7" class="node"><title>p0x7f95e780aa10</title><ellipse cx="207" cy="-388" fill="none" stroke="#000" rx="27" ry="18"/><text x="207" y="-383.8" fill="#000" font-family="Times,serif" font-size="14" text-anchor="middle">6</text></g><g id="edge17" class="edge"><title>p0x7f95e780ac50-&gt;p0x7f95e780aa10</title><path fill="none" stroke="#000" d="M133.0847,-272.8303C136.8512,-276.6348 140.7185,-280.8339 144,-285 163.3203,-309.5288 181.4866,-340.3849 193.3007,-361.9006"/><polygon fill="#000" stroke="#000" points="190.273 -363.66 198.111 -370.788 196.429 -360.327 190.273 -363.66"/></g><g id="node8" class="node"><title>p0x7f95e780a6b0</title><ellipse cx="297" cy="-334" fill="none" stroke="#000" rx="27" ry="18"/><text x="297" y="-329.8" fill="#000" font-family="Times,serif" font-size="14" text-anchor="middle">9</text></g><g id="edge20" class="edge"><title>p0x7f95e780ac50-&gt;p0x7f95e780a6b0</title><path fill="none" stroke="#000" d="M140.1634,-267.7801C171.7555,-281.119 228.519,-305.0858 264.3979,-320.2347"/><polygon fill="#000" stroke="#000" points="263.352 -323.592 273.925 -324.257 266.075 -317.143 263.352 -323.592"/></g><g id="edge21" class="edge"><title>p0x7f95e780ab30-&gt;p0x7f95e780a8f0</title><path fill="none" stroke="#000" d="M133.182,-297.245C136.9455,-293.4382 140.7871,-289.2193 144,-285 164.4385,-258.1598 182.8495,-223.9841 194.4154,-200.6915"/><polygon fill="#000" stroke="#000" points="197.696 -201.95 198.939 -191.428 191.406 -198.878 197.696 -201.95"/></g><g id="edge22" class="edge"><title>p0x7f95e780ab30-&gt;p0x7f95e780a6b0</title><path fill="none" stroke="#000" d="M143.5596,-315.2462C174.4011,-319.0157 225.4655,-325.2569 260.1378,-329.4946"/><polygon fill="#000" stroke="#000" points="259.981 -333.001 270.331 -330.74 260.83 -326.053 259.981 -333.001"/></g><g id="node11" class="node"><title>p0x7f95e780a470</title><ellipse cx="387" cy="-236" fill="none" stroke="#000" rx="27" ry="18"/><text x="387" y="-231.8" fill="#000" font-family="Times,serif" font-size="14" text-anchor="middle">11</text></g><g id="edge23" class="edge"><title>p0x7f95e780ab30-&gt;p0x7f95e780a470</title><path fill="none" stroke="#000" d="M141.917,-304.9863C190.2164,-291.391 296.6845,-261.4221 352.0358,-245.8418"/><polygon fill="#000" stroke="#000" points="353.073 -249.186 361.751 -243.107 351.176 -242.448 353.073 -249.186"/></g><g id="node12" class="node"><title>p0x7f95e780a110</title><ellipse cx="657" cy="-342" fill="none" stroke="#000" rx="27" ry="18"/><text x="657" y="-337.8" fill="#000" font-family="Times,serif" font-size="14" text-anchor="middle">14</text></g><g id="edge24" class="edge"><title>p0x7f95e780ab30-&gt;p0x7f95e780a110</title><path fill="none" stroke="#000" d="M123.1557,-329.5712C141.3748,-378.0292 199.906,-510 297,-510 297,-510 297,-510 477,-510 535.0387,-510 551.7498,-491.7922 594,-452 618.7821,-428.6597 636.6174,-393.3633 646.8528,-369.0817"/><polygon fill="#000" stroke="#000" points="650.13 -370.315 650.649 -359.733 643.644 -367.681 650.13 -370.315"/></g><g id="edge29" class="edge"><title>p0x7f95e780a8f0-&gt;p0x7f95e780a7d0</title><path fill="none" stroke="#000" d="M234.003,-176.4003C242.1903,-177.128 251.3292,-177.9404 260.051,-178.7156"/><polygon fill="#000" stroke="#000" points="259.745 -182.202 270.016 -179.601 260.365 -175.23 259.745 -182.202"/></g><g id="edge30" class="edge"><title>p0x7f95e780a8f0-&gt;p0x7f95e780a6b0</title><path fill="none" stroke="#000" d="M216.6316,-191.1228C232.3977,-219.1515 263.8114,-274.998 282.3511,-307.9576"/><polygon fill="#000" stroke="#000" points="279.485 -310 287.438 -317 285.586 -306.569 279.485 -310"/></g><g id="node13" class="node"><title>p0x7f95e780a590</title><ellipse cx="297" cy="-125" fill="none" stroke="#000" rx="27" ry="18"/><text x="297" y="-120.8" fill="#000" font-family="Times,serif" font-size="14" text-anchor="middle">10</text></g><g id="edge31" class="edge"><title>p0x7f95e780a8f0-&gt;p0x7f95e780a590</title><path fill="none" stroke="#000" d="M228.3287,-162.3877C239.8734,-156.1023 254.3238,-148.2348 266.9867,-141.3405"/><polygon fill="#000" stroke="#000" points="268.715 -144.385 275.824 -136.529 265.368 -138.237 268.715 -144.385"/></g><g id="node15" class="node"><title>p0x7f95e780a230</title><ellipse cx="567" cy="-152" fill="none" stroke="#000" rx="27" ry="18"/><text x="567" y="-147.8" fill="#000" font-family="Times,serif" font-size="14" text-anchor="middle">13</text></g><g id="edge32" class="edge"><title>p0x7f95e780a8f0-&gt;p0x7f95e780a230</title><path fill="none" stroke="#000" d="M215.5206,-156.577C225.6336,-138.1228 244.4071,-110.0276 270,-98 361.0196,-55.2247 482.4678,-106.9213 537.5815,-135.4925"/><polygon fill="#000" stroke="#000" points="535.987 -138.608 546.462 -140.196 539.263 -132.423 535.987 -138.608"/></g><g id="edge33" class="edge"><title>p0x7f95e780a7d0-&gt;p0x7f95e780a470</title><path fill="none" stroke="#000" d="M317.4224,-194.2534C329.3897,-201.4338 344.7024,-210.6215 357.9143,-218.5486"/><polygon fill="#000" stroke="#000" points="356.283 -221.651 366.658 -223.795 359.884 -215.649 356.283 -221.651"/></g><g id="edge36" class="edge"><title>p0x7f95e780a7d0-&gt;p0x7f95e780a110</title><path fill="none" stroke="#000" d="M323.666,-185.9148C347.8089,-189.979 384.0688,-197.3918 414,-209 473.9295,-232.2424 483.5968,-249.1709 540,-280 569.2048,-295.9629 602.7983,-313.7007 626.4752,-326.1002"/><polygon fill="#000" stroke="#000" points="624.863 -329.207 635.346 -330.739 628.107 -323.004 624.863 -329.207"/></g><g id="node14" class="node"><title>p0x7f95e780a350</title><ellipse cx="477" cy="-388" fill="none" stroke="#000" rx="27" ry="18"/><text x="477" y="-383.8" fill="#000" font-family="Times,serif" font-size="14" text-anchor="middle">12</text></g><g id="edge34" class="edge"><title>p0x7f95e780a7d0-&gt;p0x7f95e780a350</title><path fill="none" stroke="#000" d="M308.894,-198.1731C321.2593,-214.773 341.3757,-241.1866 360,-263 391.5231,-299.9208 430.4456,-340.6099 454.4954,-365.2313"/><polygon fill="#000" stroke="#000" points="452.253 -367.944 461.753 -372.636 457.252 -363.044 452.253 -367.944"/></g><g id="edge35" class="edge"><title>p0x7f95e780a7d0-&gt;p0x7f95e780a230</title><path fill="none" stroke="#000" d="M323.8757,-179.0138C372.4958,-173.6116 475.1137,-162.2096 530.2014,-156.0887"/><polygon fill="#000" stroke="#000" points="530.681 -159.557 540.233 -154.974 529.908 -152.6 530.681 -159.557"/></g><g id="node6" class="node"><title>p0x7f95e780afb0</title><ellipse cx="27" cy="-386" fill="none" stroke="#000" rx="27" ry="18"/><text x="27" y="-381.8" fill="#000" font-family="Times,serif" font-size="14" text-anchor="middle">1</text></g><g id="edge5" class="edge"><title>p0x7f95e780afb0-&gt;p0x7f95e780ab30</title><path fill="none" stroke="#000" d="M44.3529,-371.7321C57.7997,-360.6758 76.6239,-345.1981 91.741,-332.7685"/><polygon fill="#000" stroke="#000" points="94.199 -335.279 99.7 -326.224 89.753 -329.872 94.199 -335.279"/></g><g id="edge7" class="edge"><title>p0x7f95e780afb0-&gt;p0x7f95e780a8f0</title><path fill="none" stroke="#000" d="M33.4058,-368.229C47.3727,-329.8034 80.1062,-241.583 90,-231 102.218,-217.931 144.0917,-199.2191 174.2557,-186.8466"/><polygon fill="#000" stroke="#000" points="175.631 -190.066 183.585 -183.068 173.003 -183.578 175.631 -190.066"/></g><g id="edge6" class="edge"><title>p0x7f95e780afb0-&gt;p0x7f95e780aa10</title><path fill="none" stroke="#000" d="M48.8801,-396.593C60.7449,-401.7523 75.8415,-407.3945 90,-410 113.6037,-414.3437 120.3378,-414.0127 144,-410 154.2576,-408.2605 165.0713,-405.0341 174.7886,-401.5781"/><polygon fill="#000" stroke="#000" points="176.32 -404.741 184.449 -397.946 173.857 -398.189 176.32 -404.741"/></g><g id="edge8" class="edge"><title>p0x7f95e780afb0-&gt;p0x7f95e780a6b0</title><path fill="none" stroke="#000" d="M43.9331,-400.1235C55.9525,-409.1893 72.9256,-420.1428 90,-425 151.7059,-442.5538 178.0163,-446.3301 234,-415 256.2101,-402.5706 273.2512,-378.788 283.9756,-360.1947"/><polygon fill="#000" stroke="#000" points="287.118 -361.745 288.865 -351.295 280.982 -358.374 287.118 -361.745"/></g><g id="edge25" class="edge"><title>p0x7f95e780aa10-&gt;p0x7f95e780a6b0</title><path fill="none" stroke="#000" d="M227.4224,-375.7466C239.3897,-368.5662 254.7024,-359.3785 267.9143,-351.4514"/><polygon fill="#000" stroke="#000" points="269.884 -354.351 276.658 -346.205 266.283 -348.349 269.884 -354.351"/></g><g id="edge28" class="edge"><title>p0x7f95e780aa10-&gt;p0x7f95e780a110</title><path fill="none" stroke="#000" d="M224.1413,-402.2495C254.7731,-426.215 321.8228,-472 387,-472 387,-472 387,-472 477,-472 534.0865,-472 548.7348,-453.7839 594,-419 612.6047,-404.7033 629.2041,-383.8978 640.6876,-367.5169"/><polygon fill="#000" stroke="#000" points="643.791 -369.178 646.521 -358.941 638.003 -365.241 643.791 -369.178"/></g><g id="edge26" class="edge"><title>p0x7f95e780aa10-&gt;p0x7f95e780a590</title><path fill="none" stroke="#000" d="M208.9735,-369.9968C214.0193,-329.4167 229.9349,-228.6109 270,-155 271.3818,-152.4613 273.0193,-149.9618 274.7942,-147.5548"/><polygon fill="#000" stroke="#000" points="277.523 -149.746 281.186 -139.805 272.123 -145.292 277.523 -149.746"/></g><g id="edge27" class="edge"><title>p0x7f95e780aa10-&gt;p0x7f95e780a350</title><path fill="none" stroke="#000" d="M234.1248,-388C282.7438,-388 384.7806,-388 439.8565,-388"/><polygon fill="#000" stroke="#000" points="439.893 -391.5 449.893 -388 439.893 -384.5 439.893 -391.5"/></g><g id="edge37" class="edge"><title>p0x7f95e780a6b0-&gt;p0x7f95e780a470</title><path fill="none" stroke="#000" d="M311.4601,-318.2546C326.1106,-302.3018 348.9384,-277.4449 365.6669,-259.2293"/><polygon fill="#000" stroke="#000" points="368.686 -261.116 372.873 -251.383 363.531 -256.381 368.686 -261.116"/></g><g id="edge40" class="edge"><title>p0x7f95e780a6b0-&gt;p0x7f95e780a110</title><path fill="none" stroke="#000" d="M314.9993,-347.8754C342.3357,-367.8917 396.785,-403.707 450,-415 513.268,-428.4264 536.0355,-422.692 594,-394 609.0774,-386.5368 623.7091,-374.8247 635.0707,-364.404"/><polygon fill="#000" stroke="#000" points="637.538 -366.888 642.379 -357.464 632.718 -361.812 637.538 -366.888"/></g><g id="edge38" class="edge"><title>p0x7f95e780a6b0-&gt;p0x7f95e780a350</title><path fill="none" stroke="#000" d="M321.6508,-341.3952C352.936,-350.7808 407.0786,-367.0236 442.4671,-377.6401"/><polygon fill="#000" stroke="#000" points="441.775 -381.087 452.359 -380.608 443.786 -374.382 441.775 -381.087"/></g><g id="edge39" class="edge"><title>p0x7f95e780a6b0-&gt;p0x7f95e780a230</title><path fill="none" stroke="#000" d="M318.3741,-322.6818C356.8566,-301.9412 439.7691,-255.5832 504,-208 517.9488,-197.6665 532.4978,-184.8854 544.0957,-174.1437"/><polygon fill="#000" stroke="#000" points="546.716 -176.485 551.61 -167.088 541.924 -171.382 546.716 -176.485"/></g><g id="node9" class="node"><title>p0x7f95e780ae90</title><ellipse cx="27" cy="-218" fill="none" stroke="#000" rx="27" ry="18"/><text x="27" y="-213.8" fill="#000" font-family="Times,serif" font-size="14" text-anchor="middle">2</text></g><g id="edge9" class="edge"><title>p0x7f95e780ae90-&gt;p0x7f95e780ab30</title><path fill="none" stroke="#000" d="M41.3795,-233.5622C54.0629,-247.2239 73.1051,-267.5772 90,-285 91.4191,-286.4634 92.8868,-287.9648 94.371,-289.474"/><polygon fill="#000" stroke="#000" points="92.253 -292.309 101.781 -296.944 97.223 -287.38 92.253 -292.309"/></g><g id="edge11" class="edge"><title>p0x7f95e780ae90-&gt;p0x7f95e780a8f0</title><path fill="none" stroke="#000" d="M38.8765,-201.6783C50.2055,-187.6212 68.6715,-168.3229 90,-160 117.0144,-149.4584 149.9842,-154.8831 174.0317,-161.8247"/><polygon fill="#000" stroke="#000" points="173.16 -165.219 183.748 -164.851 175.241 -158.536 173.16 -165.219"/></g><g id="edge12" class="edge"><title>p0x7f95e780ae90-&gt;p0x7f95e780a7d0</title><path fill="none" stroke="#000" d="M37.0523,-200.9974C47.8239,-184.5857 66.5777,-160.6976 90,-150 148.2281,-123.4056 172.0328,-130.9427 234,-147 246.6798,-150.2857 259.5245,-156.7371 270.2789,-163.2156"/><polygon fill="#000" stroke="#000" points="268.451 -166.201 278.771 -168.595 272.197 -160.287 268.451 -166.201"/></g><g id="edge10" class="edge"><title>p0x7f95e780ae90-&gt;p0x7f95e780aa10</title><path fill="none" stroke="#000" d="M38.9703,-234.3248C43.9199,-241.4197 49.5331,-249.9386 54,-258 73.0938,-292.459 61.8438,-311.4459 90,-339 112.1333,-360.66 145.2548,-373.3093 170.6138,-380.3115"/><polygon fill="#000" stroke="#000" points="170.047 -383.78 180.605 -382.893 171.798 -377.002 170.047 -383.78"/></g><g id="node10" class="node"><title>p0x7f95e780ad70</title><ellipse cx="27" cy="-285" fill="none" stroke="#000" rx="27" ry="18"/><text x="27" y="-280.8" fill="#000" font-family="Times,serif" font-size="14" text-anchor="middle">3</text></g><g id="edge13" class="edge"><title>p0x7f95e780ad70-&gt;p0x7f95e780ac50</title><path fill="none" stroke="#000" d="M52.07,-277.479C61.5102,-274.6469 72.4169,-271.3749 82.564,-268.3308"/><polygon fill="#000" stroke="#000" points="83.803 -271.613 92.376 -265.387 81.791 -264.909 83.803 -271.613"/></g><g id="edge14" class="edge"><title>p0x7f95e780ad70-&gt;p0x7f95e780ab30</title><path fill="none" stroke="#000" d="M52.07,-292.521C61.5102,-295.3531 72.4169,-298.6251 82.564,-301.6692"/><polygon fill="#000" stroke="#000" points="81.791 -305.091 92.376 -304.613 83.803 -298.387 81.791 -305.091"/></g><g id="edge16" class="edge"><title>p0x7f95e780ad70-&gt;p0x7f95e780a8f0</title><path fill="none" stroke="#000" d="M37.962,-268.5477C54.0364,-244.6329 82.8711,-202.6015 90,-198 113.6741,-182.719 145.1821,-176.8984 169.5365,-174.8005"/><polygon fill="#000" stroke="#000" points="170.093 -178.271 179.83 -174.095 169.614 -171.287 170.093 -178.271"/></g><g id="edge15" class="edge"><title>p0x7f95e780ad70-&gt;p0x7f95e780aa10</title><path fill="none" stroke="#000" d="M34.3464,-302.3401C43.9489,-322.6841 62.8083,-355.7012 90,-372 113.8958,-386.3232 145.3901,-389.9486 169.6829,-390.1976"/><polygon fill="#000" stroke="#000" points="169.977 -393.695 179.946 -390.11 169.917 -386.696 169.977 -393.695"/></g><g id="edge47" class="edge"><title>p0x7f95e780a470-&gt;p0x7f95e780a110</title><path fill="none" stroke="#000" d="M404.8988,-249.8409C408.1023,-252.6995 411.2816,-255.8152 414,-259 433.9425,-282.3645 424.1248,-301.4447 450,-318 501.9114,-351.2135 576.3907,-350.8525 620.4199,-346.8925"/><polygon fill="#000" stroke="#000" points="620.797 -350.372 630.395 -345.886 620.094 -343.408 620.797 -350.372"/></g><g id="edge45" class="edge"><title>p0x7f95e780a470-&gt;p0x7f95e780a350</title><path fill="none" stroke="#000" d="M401.4998,-251.2039C405.8796,-256.2888 410.4602,-262.1557 414,-268 435.892,-304.1444 428.108,-319.8556 450,-356 451.8252,-359.0135 453.9271,-362.033 456.1356,-364.9481"/><polygon fill="#000" stroke="#000" points="453.483 -367.234 462.5 -372.796 458.92 -362.825 453.483 -367.234"/></g><g id="edge46" class="edge"><title>p0x7f95e780a470-&gt;p0x7f95e780a230</title><path fill="none" stroke="#000" d="M409.4332,-225.5312C441.2695,-210.6742 499.6877,-183.4124 535.7518,-166.5825"/><polygon fill="#000" stroke="#000" points="537.268 -169.737 544.85 -162.337 534.308 -163.394 537.268 -169.737"/></g><g id="node16" class="node"><title>p0x7f95e7809ed0</title><ellipse cx="747" cy="-198" fill="none" stroke="#000" rx="27" ry="18"/><text x="747" y="-193.8" fill="#000" font-family="Times,serif" font-size="14" text-anchor="middle">16</text></g><g id="edge48" class="edge"><title>p0x7f95e780a470-&gt;p0x7f95e7809ed0</title><path fill="none" stroke="#000" d="M413.7644,-233.1749C477.2873,-226.4697 637.2577,-209.5839 709.9842,-201.9072"/><polygon fill="#000" stroke="#000" points="710.482 -205.374 720.059 -200.844 709.747 -198.413 710.482 -205.374"/></g><g id="edge57" class="edge"><title>p0x7f95e780a110-&gt;p0x7f95e7809ed0</title><path fill="none" stroke="#000" d="M666.9391,-325.1383C672.1247,-316.2319 678.5138,-305.0849 684,-295 700.7178,-264.2686 699.3834,-253.2641 720,-225 721.172,-223.3933 722.4401,-221.7924 723.7656,-220.2179"/><polygon fill="#000" stroke="#000" points="726.515 -222.398 730.694 -212.662 721.356 -217.667 726.515 -222.398"/></g><g id="node17" class="node"><title>p0x7f95e7809db0</title><ellipse cx="837" cy="-75" fill="none" stroke="#000" rx="27" ry="18"/><text x="837" y="-70.8" fill="#000" font-family="Times,serif" font-size="14" text-anchor="middle">17</text></g><g id="edge58" class="edge"><title>p0x7f95e780a110-&gt;p0x7f95e7809db0</title><path fill="none" stroke="#000" d="M668.0232,-325.0986C673.3731,-316.3688 679.5818,-305.3922 684,-295 706.4528,-242.188 688.0515,-218.671 720,-171 737.08,-145.5146 750.2595,-147.4325 774,-128 786.7272,-117.5823 800.7416,-105.8217 812.3146,-96.0302"/><polygon fill="#000" stroke="#000" points="814.893 -98.433 820.257 -89.296 810.366 -93.094 814.893 -98.433"/></g><g id="node19" class="node"><title>p0x7f95e7809810</title><ellipse cx="1107" cy="-381" fill="none" stroke="#000" rx="27" ry="18"/><text x="1107" y="-376.8" fill="#000" font-family="Times,serif" font-size="14" text-anchor="middle">22</text></g><g id="edge60" class="edge"><title>p0x7f95e780a110-&gt;p0x7f95e7809810</title><path fill="none" stroke="#000" d="M678.5727,-353.0549C707.5593,-367.2282 761.1013,-391.0426 810,-400 903.103,-417.0548 1015.0455,-399.9713 1071.1881,-388.8746"/><polygon fill="#000" stroke="#000" points="1072.225 -392.236 1081.328 -386.815 1070.831 -385.376 1072.225 -392.236"/></g><g id="node21" class="node"><title>p0x7f95e7809930</title><ellipse cx="1107" cy="-549" fill="none" stroke="#000" rx="27" ry="18"/><text x="1107" y="-544.8" fill="#000" font-family="Times,serif" font-size="14" text-anchor="middle">21</text></g><g id="edge59" class="edge"><title>p0x7f95e780a110-&gt;p0x7f95e7809930</title><path fill="none" stroke="#000" d="M673.0293,-356.7261C718.4143,-397.2632 853.3889,-509.9383 990,-547 1016.0142,-554.0575 1046.491,-554.3367 1069.8168,-552.968"/><polygon fill="#000" stroke="#000" points="1070.264 -556.445 1079.989 -552.242 1069.765 -549.463 1070.264 -556.445"/></g><g id="edge41" class="edge"><title>p0x7f95e780a590-&gt;p0x7f95e780a470</title><path fill="none" stroke="#000" d="M311.2291,-140.3835C315.4133,-145.0206 319.9521,-150.1642 324,-155 339.4372,-173.4424 356.1128,-194.9592 368.4276,-211.1793"/><polygon fill="#000" stroke="#000" points="365.964 -213.724 374.785 -219.592 371.548 -209.504 365.964 -213.724"/></g><g id="edge42" class="edge"><title>p0x7f95e780a590-&gt;p0x7f95e780a110</title><path fill="none" stroke="#000" d="M320.8179,-133.6711C373.7677,-153.709 503.6907,-207.1443 594,-280 608.7942,-291.935 624.0213,-306.8356 635.7987,-319.0378"/><polygon fill="#000" stroke="#000" points="633.572 -321.776 643.001 -326.608 638.644 -316.951 633.572 -321.776"/></g><g id="edge43" class="edge"><title>p0x7f95e780a590-&gt;p0x7f95e7809ed0</title><path fill="none" stroke="#000" d="M313.5735,-110.6337C343.8446,-85.9233 411.0533,-38 477,-38 477,-38 477,-38 567,-38 646.6305,-38 707.4027,-126.5556 733.3028,-171.9037"/><polygon fill="#000" stroke="#000" points="730.375 -173.84 738.295 -180.877 736.492 -170.437 730.375 -173.84"/></g><g id="edge44" class="edge"><title>p0x7f95e780a590-&gt;p0x7f95e7809db0</title><path fill="none" stroke="#000" d="M306.7952,-108.0228C317.7469,-90.3694 336.9983,-62.9867 360,-46 404.9466,-12.807 421.1254,0 477,0 477,0 477,0 657,0 715.1141,0 776.2258,-33.7225 810.1849,-55.9425"/><polygon fill="#000" stroke="#000" points="808.361 -58.933 818.617 -61.592 812.257 -53.118 808.361 -58.933"/></g><g id="edge49" class="edge"><title>p0x7f95e780a350-&gt;p0x7f95e780a230</title><path fill="none" stroke="#000" d="M483.7646,-370.2616C499.3742,-329.3298 537.9958,-228.0556 556.6236,-179.2092"/><polygon fill="#000" stroke="#000" points="559.987 -180.213 560.28 -169.622 553.446 -177.719 559.987 -180.213"/></g><g id="edge50" class="edge"><title>p0x7f95e780a350-&gt;p0x7f95e7809db0</title><path fill="none" stroke="#000" d="M488.6438,-371.5861C520.8807,-327.1305 615.8274,-202.7259 720,-128 734.2038,-117.8113 774.891,-100.2244 804.2971,-88.122"/><polygon fill="#000" stroke="#000" points="805.849 -91.269 813.783 -84.247 803.202 -84.789 805.849 -91.269"/></g><g id="node18" class="node"><title>p0x7f95e7809a50</title><ellipse cx="1017" cy="-465" fill="none" stroke="#000" rx="27" ry="18"/><text x="1017" y="-460.8" fill="#000" font-family="Times,serif" font-size="14" text-anchor="middle">20</text></g><g id="edge51" class="edge"><title>p0x7f95e780a350-&gt;p0x7f95e7809a50</title><path fill="none" stroke="#000" d="M479.2176,-406.1897C484.2523,-440.4565 499.4323,-515.3191 540,-562 578.6028,-606.42 598.1501,-624 657,-624 657,-624 657,-624 837,-624 895.8499,-624 910.5824,-601.7268 954,-562 975.9686,-541.8989 993.6251,-512.5381 1004.5939,-491.3898"/><polygon fill="#000" stroke="#000" points="1007.792 -492.82 1009.154 -482.314 1001.537 -489.678 1007.792 -492.82"/></g><g id="edge52" class="edge"><title>p0x7f95e780a350-&gt;p0x7f95e7809810</title><path fill="none" stroke="#000" d="M485.7054,-405.1228C508.0473,-446.3984 571.7054,-548 657,-548 657,-548 657,-548 837,-548 920.7504,-548 918.095,-480.9395 990,-438 1017.6209,-421.5056 1050.71,-405.7267 1074.6404,-394.9697"/><polygon fill="#000" stroke="#000" points="1076.256 -398.082 1083.972 -390.821 1073.412 -391.685 1076.256 -398.082"/></g><g id="edge53" class="edge"><title>p0x7f95e780a230-&gt;p0x7f95e780a110</title><path fill="none" stroke="#000" d="M575.1456,-169.1963C590.9021,-202.4599 625.65,-275.8166 644.4054,-315.4115"/><polygon fill="#000" stroke="#000" points="641.364 -317.167 648.808 -324.706 647.69 -314.17 641.364 -317.167"/></g><g id="edge54" class="edge"><title>p0x7f95e780a230-&gt;p0x7f95e7809ed0</title><path fill="none" stroke="#000" d="M593.2603,-156.3501C617.1302,-160.5486 653.217,-167.5089 684,-176 693.8637,-178.7208 704.4201,-182.1828 714.0171,-185.5507"/><polygon fill="#000" stroke="#000" points="713.007 -188.907 723.602 -188.991 715.372 -182.319 713.007 -188.907"/></g><g id="edge55" class="edge"><title>p0x7f95e780a230-&gt;p0x7f95e7809db0</title><path fill="none" stroke="#000" d="M590.5832,-143.0214C620.406,-131.8916 673.4821,-112.8274 720,-100 746.741,-92.6261 777.4222,-86.1422 800.6554,-81.6265"/><polygon fill="#000" stroke="#000" points="801.6 -85.009 810.765 -79.694 800.286 -78.134 801.6 -85.009"/></g><g id="node20" class="node"><title>p0x7f95e7809c90</title><ellipse cx="837" cy="-373" fill="none" stroke="#000" rx="27" ry="18"/><text x="837" y="-368.8" fill="#000" font-family="Times,serif" font-size="14" text-anchor="middle">18</text></g><g id="edge56" class="edge"><title>p0x7f95e780a230-&gt;p0x7f95e7809c90</title><path fill="none" stroke="#000" d="M583.9074,-166.1838C612.0349,-189.7467 670.2676,-238.3858 720,-279 751.4121,-304.6528 787.8779,-333.8603 811.6401,-352.817"/><polygon fill="#000" stroke="#000" points="809.485 -355.575 819.486 -359.072 813.849 -350.102 809.485 -355.575"/></g><g id="edge65" class="edge"><title>p0x7f95e7809ed0-&gt;p0x7f95e7809db0</title><path fill="none" stroke="#000" d="M760.9539,-182.4349C765.3044,-177.3307 770.0057,-171.5437 774,-166 791.9571,-141.0772 792.0429,-131.9228 810,-107 812.0595,-104.1415 814.3071,-101.2184 816.5976,-98.3575"/><polygon fill="#000" stroke="#000" points="819.367 -100.501 823.046 -90.565 813.974 -96.038 819.367 -100.501"/></g><g id="edge67" class="edge"><title>p0x7f95e7809ed0-&gt;p0x7f95e7809810</title><path fill="none" stroke="#000" d="M771.7411,-190.7607C812.1263,-180.3738 893.7465,-165.4471 954,-194 1024.6583,-227.4835 1073.5366,-311.3496 1094.8908,-354.4754"/><polygon fill="#000" stroke="#000" points="1091.76 -356.04 1099.261 -363.522 1098.063 -352.995 1091.76 -356.04"/></g><g id="node23" class="node"><title>p0x7f95e7809b70</title><ellipse cx="927" cy="-221" fill="none" stroke="#000" rx="27" ry="18"/><text x="927" y="-216.8" fill="#000" font-family="Times,serif" font-size="14" text-anchor="middle">19</text></g><g id="edge66" class="edge"><title>p0x7f95e7809ed0-&gt;p0x7f95e7809b70</title><path fill="none" stroke="#000" d="M773.5596,-201.3937C804.4011,-205.3346 855.4655,-211.8595 890.1378,-216.2898"/><polygon fill="#000" stroke="#000" points="889.968 -219.797 900.331 -217.592 890.856 -212.853 889.968 -219.797"/></g><g id="node24" class="node"><title>p0x7f95e78096f0</title><ellipse cx="1197" cy="-221" fill="none" stroke="#000" rx="27" ry="18"/><text x="1197" y="-216.8" fill="#000" font-family="Times,serif" font-size="14" text-anchor="middle">23</text></g><g id="edge68" class="edge"><title>p0x7f95e7809ed0-&gt;p0x7f95e78096f0</title><path fill="none" stroke="#000" d="M768.5449,-187.0995C780.4393,-181.6908 795.6682,-175.7397 810,-173 833.5731,-168.4937 840.0015,-172.7334 864,-173 904.0074,-173.4445 914.1971,-170.9353 954,-175 1034.9125,-183.2629 1054.1675,-192.4473 1134,-208 1142.7455,-209.7038 1152.1588,-211.6082 1160.9742,-213.4227"/><polygon fill="#000" stroke="#000" points="1160.47 -216.893 1170.972 -215.494 1161.89 -210.038 1160.47 -216.893"/></g><g id="edge70" class="edge"><title>p0x7f95e7809db0-&gt;p0x7f95e7809a50</title><path fill="none" stroke="#000" d="M842.524,-92.7694C852.5939,-124.495 875.198,-192.7382 900,-248 932.0434,-319.3965 977.9982,-399.5023 1001.6467,-439.4559"/><polygon fill="#000" stroke="#000" points="998.766 -441.459 1006.886 -448.266 1004.783 -437.882 998.766 -441.459"/></g><g id="edge69" class="edge"><title>p0x7f95e7809db0-&gt;p0x7f95e7809b70</title><path fill="none" stroke="#000" d="M847.3241,-91.7481C862.9736,-117.1349 892.8197,-165.5519 911.2084,-195.3826"/><polygon fill="#000" stroke="#000" points="908.292 -197.322 916.519 -203.998 914.251 -193.648 908.292 -197.322"/></g><g id="edge71" class="edge"><title>p0x7f95e7809db0-&gt;p0x7f95e78096f0</title><path fill="none" stroke="#000" d="M863.1085,-69.5783C918.3383,-59.6354 1048.9054,-44.3524 1134,-101 1165.9234,-122.2515 1182.7342,-165.0831 1190.7359,-193.4026"/><polygon fill="#000" stroke="#000" points="1187.362 -194.336 1193.297 -203.113 1194.131 -192.551 1187.362 -194.336"/></g><g id="node25" class="node"><title>p0x7f95e7809150</title><ellipse cx="1467" cy="-273" fill="none" stroke="#000" rx="27" ry="18"/><text x="1467" y="-268.8" fill="#000" font-family="Times,serif" font-size="14" text-anchor="middle">28</text></g><g id="edge72" class="edge"><title>p0x7f95e7809db0-&gt;p0x7f95e7809150</title><path fill="none" stroke="#000" d="M861.3098,-66.7465C872.9153,-63.0444 887.0634,-58.8739 900,-56 951.2955,-44.6047 964.454,-39 1017,-39 1017,-39 1017,-39 1287,-39 1389.9581,-39 1442.1682,-183.0803 1459.8784,-245.1261"/><polygon fill="#000" stroke="#000" points="1456.576 -246.317 1462.609 -255.027 1463.324 -244.456 1456.576 -246.317"/></g><g id="edge82" class="edge"><title>p0x7f95e7809a50-&gt;p0x7f95e7809810</title><path fill="none" stroke="#000" d="M1033.0902,-449.9825C1047.1683,-436.843 1067.7927,-417.5935 1083.6799,-402.7654"/><polygon fill="#000" stroke="#000" points="1086.127 -405.269 1091.049 -395.887 1081.35 -400.152 1086.127 -405.269"/></g><g id="edge81" class="edge"><title>p0x7f95e7809a50-&gt;p0x7f95e7809930</title><path fill="none" stroke="#000" d="M1033.0902,-480.0175C1047.1683,-493.157 1067.7927,-512.4065 1083.6799,-527.2346"/><polygon fill="#000" stroke="#000" points="1081.35 -529.848 1091.049 -534.112 1086.127 -524.731 1081.35 -529.848"/></g><g id="edge83" class="edge"><title>p0x7f95e7809a50-&gt;p0x7f95e78096f0</title><path fill="none" stroke="#000" d="M1040.5478,-456.0531C1070.7796,-444.1531 1120.9084,-422.8902 1134,-408 1174.4052,-362.0435 1189.0968,-289.178 1194.2867,-249.3288"/><polygon fill="#000" stroke="#000" points="1197.78 -249.591 1195.487 -239.247 1190.829 -248.763 1197.78 -249.591"/></g><g id="node26" class="node"><title>p0x7f95e78095d0</title><ellipse cx="1197" cy="-427" fill="none" stroke="#000" rx="27" ry="18"/><text x="1197" y="-422.8" fill="#000" font-family="Times,serif" font-size="14" text-anchor="middle">24</text></g><g id="edge84" class="edge"><title>p0x7f95e7809a50-&gt;p0x7f95e78095d0</title><path fill="none" stroke="#000" d="M1043.0485,-459.7836C1066.7757,-455.0019 1102.7722,-447.6721 1134,-441 1142.9163,-439.0949 1152.5297,-436.9864 1161.4962,-434.9963"/><polygon fill="#000" stroke="#000" points="1162.274 -438.409 1171.273 -432.817 1160.751 -431.577 1162.274 -438.409"/></g><g id="edge89" class="edge"><title>p0x7f95e7809810-&gt;p0x7f95e78096f0</title><path fill="none" stroke="#000" d="M1116.6316,-363.8772C1132.3977,-335.8485 1163.8114,-280.002 1182.3511,-247.0424"/><polygon fill="#000" stroke="#000" points="1185.585 -248.431 1187.438 -238 1179.485 -245 1185.585 -248.431"/></g><g id="edge92" class="edge"><title>p0x7f95e7809810-&gt;p0x7f95e7809150</title><path fill="none" stroke="#000" d="M1133.6668,-377.5561C1186.7158,-370.0962 1308.5873,-349.8977 1404,-311 1416.3824,-305.952 1429.173,-298.6779 1439.9672,-291.8426"/><polygon fill="#000" stroke="#000" points="1442.053 -294.661 1448.512 -286.263 1438.226 -288.8 1442.053 -294.661"/></g><g id="edge90" class="edge"><title>p0x7f95e7809810-&gt;p0x7f95e78095d0</title><path fill="none" stroke="#000" d="M1128.7865,-392.1353C1140.0625,-397.8986 1154.0163,-405.0306 1166.3599,-411.3395"/><polygon fill="#000" stroke="#000" points="1164.917 -414.533 1175.414 -415.967 1168.103 -408.3 1164.917 -414.533"/></g><g id="node27" class="node"><title>p0x7f95e7809390</title><ellipse cx="1287" cy="-385" fill="none" stroke="#000" rx="27" ry="18"/><text x="1287" y="-380.8" fill="#000" font-family="Times,serif" font-size="14" text-anchor="middle">26</text></g><g id="edge91" class="edge"><title>p0x7f95e7809810-&gt;p0x7f95e7809390</title><path fill="none" stroke="#000" d="M1134.3381,-381.6075C1165.1765,-382.2928 1215.5008,-383.4111 1249.8771,-384.175"/><polygon fill="#000" stroke="#000" points="1249.919 -387.677 1259.994 -384.4 1250.075 -380.678 1249.919 -387.677"/></g><g id="edge74" class="edge"><title>p0x7f95e7809c90-&gt;p0x7f95e7809930</title><path fill="none" stroke="#000" d="M848.3113,-389.3877C871.1278,-421.082 925.9848,-490.6722 990,-525 1014.6733,-538.2309 1045.8663,-544.1814 1069.8384,-546.8508"/><polygon fill="#000" stroke="#000" points="1069.67 -550.351 1079.962 -547.833 1070.347 -543.384 1069.67 -550.351"/></g><g id="edge73" class="edge"><title>p0x7f95e7809c90-&gt;p0x7f95e7809b70</title><path fill="none" stroke="#000" d="M844.6546,-355.6428C855.5364,-331.6933 876.7543,-287.5571 900,-253 901.9664,-250.0767 904.1561,-247.1133 906.414,-244.2297"/><polygon fill="#000" stroke="#000" points="909.19 -246.364 912.829 -236.414 903.779 -241.923 909.19 -246.364"/></g><g id="edge75" class="edge"><title>p0x7f95e7809c90-&gt;p0x7f95e78096f0</title><path fill="none" stroke="#000" d="M860.0673,-363.2605C922.1697,-337.0395 1093.0242,-264.9009 1164.6921,-234.6411"/><polygon fill="#000" stroke="#000" points="1166.274 -237.773 1174.125 -230.658 1163.551 -231.324 1166.274 -237.773"/></g><g id="edge76" class="edge"><title>p0x7f95e7809c90-&gt;p0x7f95e78095d0</title><path fill="none" stroke="#000" d="M858.1035,-384.4685C882.5365,-398.2749 923.3442,-422.9978 954,-450 972.4491,-466.2503 967.6638,-481.7268 990,-492 1052.6484,-520.8142 1131.5514,-475.1784 1171.4245,-446.837"/><polygon fill="#000" stroke="#000" points="1173.53 -449.633 1179.549 -440.914 1169.407 -443.977 1173.53 -449.633"/></g><g id="edge85" class="edge"><title>p0x7f95e7809930-&gt;p0x7f95e78095d0</title><path fill="none" stroke="#000" d="M1120.9285,-533.4165C1125.2777,-528.3113 1129.9846,-522.5284 1134,-517 1151.8296,-492.4521 1152.1704,-483.5479 1170,-459 1172.0704,-456.1494 1174.3247,-453.2312 1176.619,-450.373"/><polygon fill="#000" stroke="#000" points="1179.388 -452.517 1183.072 -442.584 1173.997 -448.052 1179.388 -452.517"/></g><g id="edge87" class="edge"><title>p0x7f95e7809930-&gt;p0x7f95e7809390</title><path fill="none" stroke="#000" d="M1124.0464,-534.7936C1136.6841,-524.2947 1154.3568,-509.6826 1170,-497 1193.8313,-477.6789 1201.5867,-474.9494 1224,-454 1239.2559,-439.7406 1255.0996,-422.3739 1267.0821,-408.6309"/><polygon fill="#000" stroke="#000" points="1269.775 -410.867 1273.657 -401.009 1264.475 -406.295 1269.775 -410.867"/></g><g id="node29" class="node"><title>p0x7f95e78094b0</title><ellipse cx="1377" cy="-192" fill="none" stroke="#000" rx="27" ry="18"/><text x="1377" y="-187.8" fill="#000" font-family="Times,serif" font-size="14" text-anchor="middle">25</text></g><g id="edge86" class="edge"><title>p0x7f95e7809930-&gt;p0x7f95e78094b0</title><path fill="none" stroke="#000" d="M1131.2922,-540.8553C1176.0918,-524.4266 1271.0585,-482.7282 1314,-412 1350.7031,-351.547 1328.3612,-324.3308 1350,-257 1354.1477,-244.0941 1359.771,-230.1672 1364.8121,-218.5279"/><polygon fill="#000" stroke="#000" points="1368.022 -219.923 1368.864 -209.362 1361.62 -217.092 1368.022 -219.923"/></g><g id="node30" class="node"><title>p0x7f95e7809030</title><ellipse cx="1557" cy="-273" fill="none" stroke="#000" rx="27" ry="18"/><text x="1557" y="-268.8" fill="#000" font-family="Times,serif" font-size="14" text-anchor="middle">29</text></g><g id="edge88" class="edge"><title>p0x7f95e7809930-&gt;p0x7f95e7809030</title><path fill="none" stroke="#000" d="M1134.1403,-549C1169.376,-549 1232.7813,-549 1287,-549 1287,-549 1287,-549 1377,-549 1494.5323,-549 1539.3491,-371.2316 1552.4651,-301.0313"/><polygon fill="#000" stroke="#000" points="1555.924 -301.569 1554.24 -291.109 1549.034 -300.337 1555.924 -301.569"/></g><g id="node22" class="node"><title>p0x7f95e7809ff0</title><ellipse cx="747" cy="-252" fill="none" stroke="#000" rx="27" ry="18"/><text x="747" y="-247.8" fill="#000" font-family="Times,serif" font-size="14" text-anchor="middle">15</text></g><g id="edge61" class="edge"><title>p0x7f95e7809ff0-&gt;p0x7f95e7809db0</title><path fill="none" stroke="#000" d="M763.5446,-237.5045C767.2971,-233.6898 771.0428,-229.4023 774,-225 800.3199,-185.8189 819.123,-133.8739 829.0076,-102.5242"/><polygon fill="#000" stroke="#000" points="832.425 -103.317 832.016 -92.73 825.734 -101.262 832.425 -103.317"/></g><g id="edge64" class="edge"><title>p0x7f95e7809ff0-&gt;p0x7f95e7809810</title><path fill="none" stroke="#000" d="M770.8994,-260.564C833.2933,-282.9218 1001.244,-343.1041 1073.3549,-368.9438"/><polygon fill="#000" stroke="#000" points="1072.278 -372.276 1082.873 -372.354 1074.64 -365.686 1072.278 -372.276"/></g><g id="edge62" class="edge"><title>p0x7f95e7809ff0-&gt;p0x7f95e7809c90</title><path fill="none" stroke="#000" d="M760.9025,-267.6024C765.2504,-272.7086 769.963,-278.4873 774,-284 791.703,-308.174 792.297,-316.826 810,-341 812.0816,-343.8425 814.3428,-346.7557 816.641,-349.6109"/><polygon fill="#000" stroke="#000" points="814.02 -351.934 823.097 -357.398 819.409 -347.466 814.02 -351.934"/></g><g id="edge63" class="edge"><title>p0x7f95e7809ff0-&gt;p0x7f95e7809b70</title><path fill="none" stroke="#000" d="M773.1735,-247.4923C804.1009,-242.166 855.7457,-233.2716 890.5692,-227.2742"/><polygon fill="#000" stroke="#000" points="891.534 -230.66 900.795 -225.513 890.346 -223.761 891.534 -230.66"/></g><g id="edge77" class="edge"><title>p0x7f95e7809b70-&gt;p0x7f95e7809a50</title><path fill="none" stroke="#000" d="M933.8696,-238.5099C939.3877,-252.6462 947.295,-273.0649 954,-291 973.2696,-342.5441 994.9559,-403.0066 1007.199,-437.3796"/><polygon fill="#000" stroke="#000" points="1004.033 -438.922 1010.682 -447.171 1010.628 -436.576 1004.033 -438.922"/></g><g id="edge78" class="edge"><title>p0x7f95e7809b70-&gt;p0x7f95e78096f0</title><path fill="none" stroke="#000" d="M953.6292,-217.8991C964.8408,-216.7405 978.0377,-215.5683 990,-215 1053.9279,-211.9627 1070.0721,-211.9627 1134,-215 1142.5045,-215.4041 1151.6329,-216.1133 1160.2284,-216.9059"/><polygon fill="#000" stroke="#000" points="1160.077 -220.408 1170.371 -217.899 1160.759 -213.441 1160.077 -220.408"/></g><g id="edge79" class="edge"><title>p0x7f95e7809b70-&gt;p0x7f95e7809390</title><path fill="none" stroke="#000" d="M949.5196,-231.2589C1011.2665,-259.3881 1183.4107,-337.8093 1255.0668,-370.4526"/><polygon fill="#000" stroke="#000" points="1253.938 -373.784 1264.489 -374.745 1256.84 -367.414 1253.938 -373.784"/></g><g id="node28" class="node"><title>p0x7f95e7809270</title><ellipse cx="1377" cy="-284" fill="none" stroke="#000" rx="27" ry="18"/><text x="1377" y="-279.8" fill="#000" font-family="Times,serif" font-size="14" text-anchor="middle">27</text></g><g id="edge80" class="edge"><title>p0x7f95e7809b70-&gt;p0x7f95e7809270</title><path fill="none" stroke="#000" d="M953.4695,-224.7057C1030.1397,-235.4396 1252.5019,-266.5703 1340.5153,-278.8921"/><polygon fill="#000" stroke="#000" points="1340.175 -282.379 1350.564 -280.299 1341.146 -275.446 1340.175 -282.379"/></g><g id="edge95" class="edge"><title>p0x7f95e78096f0-&gt;p0x7f95e7809150</title><path fill="none" stroke="#000" d="M1223.5927,-224.9578C1263.114,-230.9903 1339.6118,-243.2458 1404,-257 1413.1407,-258.9526 1422.9615,-261.3166 1432.0655,-263.6214"/><polygon fill="#000" stroke="#000" points="1431.408 -267.066 1441.965 -266.173 1433.155 -260.288 1431.408 -267.066"/></g><g id="edge94" class="edge"><title>p0x7f95e78096f0-&gt;p0x7f95e7809390</title><path fill="none" stroke="#000" d="M1206.2926,-237.9332C1222.0566,-266.6588 1254.1371,-325.1165 1272.754,-359.0406"/><polygon fill="#000" stroke="#000" points="1269.744 -360.83 1277.623 -367.913 1275.88 -357.463 1269.744 -360.83"/></g><g id="edge93" class="edge"><title>p0x7f95e78096f0-&gt;p0x7f95e78094b0</title><path fill="none" stroke="#000" d="M1223.5596,-216.721C1254.4897,-211.7378 1305.7592,-203.4777 1340.4363,-197.8908"/><polygon fill="#000" stroke="#000" points="1341.309 -201.296 1350.625 -196.249 1340.195 -194.385 1341.309 -201.296"/></g><g id="edge102" class="edge"><title>p0x7f95e7809150-&gt;p0x7f95e7809030</title><path fill="none" stroke="#000" d="M1494.003,-273C1502.0277,-273 1510.9665,-273 1519.5309,-273"/><polygon fill="#000" stroke="#000" points="1519.705 -276.5 1529.705 -273 1519.705 -269.5 1519.705 -276.5"/></g><g id="edge96" class="edge"><title>p0x7f95e78095d0-&gt;p0x7f95e7809390</title><path fill="none" stroke="#000" d="M1219.2472,-416.618C1230.1728,-411.5194 1243.5267,-405.2875 1255.482,-399.7084"/><polygon fill="#000" stroke="#000" points="1257.115 -402.809 1264.697 -395.408 1254.155 -396.465 1257.115 -402.809"/></g><g id="edge100" class="edge"><title>p0x7f95e7809390-&gt;p0x7f95e7809150</title><path fill="none" stroke="#000" d="M1314.0763,-382.4747C1339.1611,-379.0625 1376.6178,-371.15 1404,-353 1424.7044,-339.2763 1441.6597,-316.5177 1452.7442,-298.7761"/><polygon fill="#000" stroke="#000" points="1455.848 -300.405 1457.994 -290.03 1449.847 -296.803 1455.848 -300.405"/></g><g id="edge99" class="edge"><title>p0x7f95e7809390-&gt;p0x7f95e7809270</title><path fill="none" stroke="#000" d="M1301.0625,-369.2188C1315.857,-352.6161 1339.2984,-326.3096 1356.225,-307.3141"/><polygon fill="#000" stroke="#000" points="1358.996 -309.465 1363.036 -299.67 1353.77 -304.808 1358.996 -309.465"/></g><g id="edge101" class="edge"><title>p0x7f95e7809270-&gt;p0x7f95e7809150</title><path fill="none" stroke="#000" d="M1404.003,-280.6996C1412.2647,-279.6899 1421.4954,-278.5617 1430.2888,-277.4869"/><polygon fill="#000" stroke="#000" points="1430.825 -280.948 1440.326 -276.26 1429.976 -273.999 1430.825 -280.948"/></g><g id="edge97" class="edge"><title>p0x7f95e78094b0-&gt;p0x7f95e7809150</title><path fill="none" stroke="#000" d="M1393.0902,-206.4812C1406.9542,-218.9587 1427.1669,-237.1502 1442.9519,-251.3567"/><polygon fill="#000" stroke="#000" points="1440.971 -254.283 1450.746 -258.371 1445.654 -249.08 1440.971 -254.283"/></g><g id="edge98" class="edge"><title>p0x7f95e78094b0-&gt;p0x7f95e7809030</title><path fill="none" stroke="#000" d="M1399.4332,-202.0949C1431.0479,-216.3215 1488.8756,-242.344 1524.9954,-258.5979"/><polygon fill="#000" stroke="#000" points="1524.012 -261.993 1534.568 -262.905 1526.885 -255.61 1524.012 -261.993"/></g></g></svg>