<svg xmlns="http://www.w3.org/2000/svg" xmlns:xlink="http://www.w3.org/1999/xlink" width="1063pt" height="1037pt" viewBox="0 0 1063 1036.8"><g id="graph0" class="graph" transform="scale(1 1) rotate(0) translate(4 1032.8)"><title>Taskflow</title><polygon fill="#fff" stroke="transparent" points="-4 4 -4 -1032.8 1059 -1032.8 1059 4 -4 4"/><g id="clust1" class="cluster"><title>cluster_p0x7fd36b804d90</title><polygon fill="none" stroke="#00f" points="206 -80 206 -988 611 -988 611 -80 206 -80"/><text x="408.5" y="-971.4" fill="#000" font-family="Times,serif" font-size="14" text-anchor="middle">Subflow: 3</text></g><g id="clust2" class="cluster"><title>cluster_p0x7fd36c005e90</title><polygon fill="none" stroke="#00f" points="276 -152 276 -955.2 603 -955.2 603 -152 276 -152"/><text x="439.5" y="-938.6" fill="#000" font-family="Times,serif" font-size="14" text-anchor="middle">Subflow: 3</text></g><g id="clust3" class="cluster"><title>cluster_p0x7fd36c005c50</title><polygon fill="none" stroke="#00f" points="369 -224 369 -922.4 595 -922.4 595 -224 369 -224"/><text x="482" y="-905.8" fill="#000" font-family="Times,serif" font-size="14" text-anchor="middle">Subflow: 4</text></g><g id="clust4" class="cluster"><title>cluster_p0x7fd36c005a10</title><polygon fill="none" stroke="#00f" points="439 -296 439 -889.6 587 -889.6 587 -296 439 -296"/><text x="513" y="-873" fill="#000" font-family="Times,serif" font-size="14" text-anchor="middle">Subflow: 6</text></g><g id="clust5" class="cluster"><title>cluster_p0x7fd36c005470</title><polygon fill="none" stroke="#00f" points="447 -380.8 447 -856.8 579 -856.8 579 -380.8 447 -380.8"/><text x="513" y="-840.2" fill="#000" font-family="Times,serif" font-size="14" text-anchor="middle">Subflow: 9</text></g><g id="clust6" class="cluster"><title>cluster_p0x7fd36c005590</title><polygon fill="none" stroke="#00f" points="455 -465.6 455 -824 571 -824 571 -465.6 455 -465.6"/><text x="513" y="-807.4" fill="#000" font-family="Times,serif" font-size="14" text-anchor="middle">Subflow: 11</text></g><g id="clust7" class="cluster"><title>cluster_p0x7fd36c0057d0</title><polygon fill="none" stroke="#00f" points="463 -537.6 463 -791.2 563 -791.2 563 -537.6 463 -537.6"/><text x="513" y="-774.6" fill="#000" font-family="Times,serif" font-size="14" text-anchor="middle">Subflow: 12</text></g><g id="clust8" class="cluster"><title>cluster_p0x7fd36c005350</title><polygon fill="none" stroke="#00f" points="471 -609.6 471 -758.4 555 -758.4 555 -609.6 471 -609.6"/><text x="513" y="-741.8" fill="#000" font-family="Times,serif" font-size="14" text-anchor="middle">Subflow: 13</text></g><g id="clust9" class="cluster"><title>cluster_p0x7fd36c005b30</title><polygon fill="none" stroke="#00f" points="284 -224 284 -372.8 361 -372.8 361 -224 284 -224"/><text x="322.5" y="-356.2" fill="#000" font-family="Times,serif" font-size="14" text-anchor="middle">Subflow: 4</text></g><g id="clust10" class="cluster"><title>cluster_p0x7fd36b804eb0</title><polygon fill="none" stroke="#00f" points="619 -8 619 -1020.8 1047 -1020.8 1047 -8 619 -8"/><text x="833" y="-1004.2" fill="#000" font-family="Times,serif" font-size="14" text-anchor="middle">Subflow: 4</text></g><g id="clust11" class="cluster"><title>cluster_p0x7fd36b00dc30</title><polygon fill="none" stroke="#00f" points="689 -80 689 -988 1039 -988 1039 -80 689 -80"/><text x="864" y="-971.4" fill="#000" font-family="Times,serif" font-size="14" text-anchor="middle">Subflow: 15</text></g><g id="clust12" class="cluster"><title>cluster_p0x7fd36b00de70</title><polygon fill="none" stroke="#00f" points="697 -152 697 -955.2 1031 -955.2 1031 -152 697 -152"/><text x="864" y="-938.6" fill="#000" font-family="Times,serif" font-size="14" text-anchor="middle">Subflow: 17</text></g><g id="clust13" class="cluster"><title>cluster_p0x7fd36b00df90</title><polygon fill="none" stroke="#00f" points="705 -224 705 -922.4 1023 -922.4 1023 -224 705 -224"/><text x="864" y="-905.8" fill="#000" font-family="Times,serif" font-size="14" text-anchor="middle">Subflow: 19</text></g><g id="clust14" class="cluster"><title>cluster_p0x7fd36b00e0b0</title><polygon fill="none" stroke="#00f" points="805 -296 805 -889.6 1015 -889.6 1015 -296 805 -296"/><text x="910" y="-873" fill="#000" font-family="Times,serif" font-size="14" text-anchor="middle">Subflow: 20</text></g><g id="clust15" class="cluster"><title>cluster_p0x7fd36b00e410</title><polygon fill="none" stroke="#00f" points="875 -380.8 875 -856.8 1007 -856.8 1007 -380.8 875 -380.8"/><text x="941" y="-840.2" fill="#000" font-family="Times,serif" font-size="14" text-anchor="middle">Subflow: 21</text></g><g id="clust16" class="cluster"><title>cluster_p0x7fd36b00e650</title><polygon fill="none" stroke="#00f" points="883 -465.6 883 -824 999 -824 999 -465.6 883 -465.6"/><text x="941" y="-807.4" fill="#000" font-family="Times,serif" font-size="14" text-anchor="middle">Subflow: 24</text></g><g id="clust17" class="cluster"><title>cluster_p0x7fd36b00e770</title><polygon fill="none" stroke="#00f" points="891 -537.6 891 -791.2 991 -791.2 991 -537.6 891 -537.6"/><text x="941" y="-774.6" fill="#000" font-family="Times,serif" font-size="14" text-anchor="middle">Subflow: 26</text></g><g id="clust18" class="cluster"><title>cluster_p0x7fd36b00e890</title><polygon fill="none" stroke="#00f" points="899 -609.6 899 -758.4 983 -758.4 983 -609.6 899 -609.6"/><text x="941" y="-741.8" fill="#000" font-family="Times,serif" font-size="14" text-anchor="middle">Subflow: 27</text></g><g id="clust19" class="cluster"><title>cluster_p0x7fd36b00e1d0</title><polygon fill="none" stroke="#00f" points="713 -296 713 -457.6 797 -457.6 797 -296 713 -296"/><text x="755" y="-441" fill="#000" font-family="Times,serif" font-size="14" text-anchor="middle">Subflow: 20</text></g><g id="node1" class="node"><title>p0x7fd36b804c70</title><ellipse cx="27" cy="-707.6" fill="none" stroke="#000" rx="27" ry="18"/><text x="27" y="-703.4" fill="#000" font-family="Times,serif" font-size="14" text-anchor="middle">0</text></g><g id="node2" class="node"><title>p0x7fd36b804a30</title><ellipse cx="99" cy="-707.6" fill="none" stroke="#000" rx="27" ry="18"/><text x="99" y="-703.4" fill="#000" font-family="Times,serif" font-size="14" text-anchor="middle">1</text></g><g id="node3" class="node"><title>p0x7fd36b804b50</title><ellipse cx="171" cy="-707.6" fill="none" stroke="#000" rx="27" ry="18"/><text x="171" y="-703.4" fill="#000" font-family="Times,serif" font-size="14" text-anchor="middle">2</text></g><g id="node4" class="node"><title>p0x7fd36b804d90</title><ellipse cx="280" cy="-106" fill="none" stroke="#000" rx="27" ry="18"/><text x="280" y="-101.8" fill="#000" font-family="Times,serif" font-size="14" text-anchor="middle">3</text></g><g id="node5" class="node"><title>p0x7fd36c005e90</title><ellipse cx="322" cy="-178" fill="none" stroke="#000" rx="27" ry="18"/><text x="322" y="-173.8" fill="#000" font-family="Times,serif" font-size="14" text-anchor="middle">3</text></g><g id="edge1" class="edge"><title>p0x7fd36c005e90-&gt;p0x7fd36b804d90</title><path fill="none" stroke="#000" d="M312.0466,-160.937C306.9729,-152.2393 300.6966,-141.4799 295.047,-131.7948"/><polygon fill="#000" stroke="#000" points="297.944 -129.815 289.882 -122.941 291.897 -133.342 297.944 -129.815"/></g><g id="node6" class="node"><title>p0x7fd36c005c50</title><ellipse cx="404" cy="-250" fill="none" stroke="#000" rx="27" ry="18"/><text x="404" y="-245.8" fill="#000" font-family="Times,serif" font-size="14" text-anchor="middle">4</text></g><g id="edge2" class="edge"><title>p0x7fd36c005c50-&gt;p0x7fd36c005e90</title><path fill="none" stroke="#000" d="M387.4061,-235.4297C375.6246,-225.0851 359.616,-211.0286 346.3855,-199.4116"/><polygon fill="#000" stroke="#000" points="348.393 -196.517 338.569 -192.549 343.774 -201.777 348.393 -196.517"/></g><g id="node7" class="node"><title>p0x7fd36c005a10</title><ellipse cx="479" cy="-322" fill="none" stroke="#000" rx="27" ry="18"/><text x="479" y="-317.8" fill="#000" font-family="Times,serif" font-size="14" text-anchor="middle">6</text></g><g id="edge3" class="edge"><title>p0x7fd36c005a10-&gt;p0x7fd36c005c50</title><path fill="none" stroke="#000" d="M463.46,-307.0816C452.901,-296.945 438.7556,-283.3654 426.9108,-271.9944"/><polygon fill="#000" stroke="#000" points="429.158 -269.3 419.52 -264.899 424.31 -274.349 429.158 -269.3"/></g><g id="node8" class="node"><title>p0x7fd36c005470</title><ellipse cx="486" cy="-406.8" fill="none" stroke="#000" rx="27" ry="18"/><text x="486" y="-402.6" fill="#000" font-family="Times,serif" font-size="14" text-anchor="middle">9</text></g><g id="edge4" class="edge"><title>p0x7fd36c005470-&gt;p0x7fd36c005a10</title><path fill="none" stroke="#000" d="M484.5155,-388.8161C483.5937,-377.6492 482.389,-363.0547 481.3406,-350.3553"/><polygon fill="#000" stroke="#000" points="484.817 -349.928 480.507 -340.25 477.841 -350.504 484.817 -349.928"/></g><g id="node9" class="node"><title>p0x7fd36c005590</title><ellipse cx="494" cy="-491.6" fill="none" stroke="#000" rx="27" ry="18"/><text x="494" y="-487.4" fill="#000" font-family="Times,serif" font-size="14" text-anchor="middle">11</text></g><g id="edge5" class="edge"><title>p0x7fd36c005590-&gt;p0x7fd36c005470</title><path fill="none" stroke="#000" d="M492.3034,-473.6161C491.2499,-462.4492 489.8731,-447.8547 488.675,-435.1553"/><polygon fill="#000" stroke="#000" points="492.146 -434.677 487.722 -425.05 485.176 -435.335 492.146 -434.677"/></g><g id="node10" class="node"><title>p0x7fd36c0057d0</title><ellipse cx="502" cy="-563.6" fill="none" stroke="#000" rx="27" ry="18"/><text x="502" y="-559.4" fill="#000" font-family="Times,serif" font-size="14" text-anchor="middle">12</text></g><g id="edge6" class="edge"><title>p0x7fd36c0057d0-&gt;p0x7fd36c005590</title><path fill="none" stroke="#000" d="M499.9813,-545.4314C499.1257,-537.731 498.1083,-528.5743 497.1574,-520.0166"/><polygon fill="#000" stroke="#000" points="500.629 -519.566 496.046 -510.013 493.672 -520.339 500.629 -519.566"/></g><g id="node11" class="node"><title>p0x7fd36c005350</title><ellipse cx="506" cy="-635.6" fill="none" stroke="#000" rx="27" ry="18"/><text x="506" y="-631.4" fill="#000" font-family="Times,serif" font-size="14" text-anchor="middle">13</text></g><g id="edge7" class="edge"><title>p0x7fd36c005350-&gt;p0x7fd36c0057d0</title><path fill="none" stroke="#000" d="M504.9906,-617.4314C504.5628,-609.731 504.0541,-600.5743 503.5787,-592.0166"/><polygon fill="#000" stroke="#000" points="507.072 -591.804 503.023 -582.013 500.083 -592.192 507.072 -591.804"/></g><g id="node12" class="node"><title>p0x7fd36c005230</title><ellipse cx="506" cy="-707.6" fill="none" stroke="#000" rx="27" ry="18"/><text x="506" y="-703.4" fill="#000" font-family="Times,serif" font-size="14" text-anchor="middle">14</text></g><g id="edge8" class="edge"><title>p0x7fd36c005230-&gt;p0x7fd36c005350</title><path fill="none" stroke="#000" d="M506,-689.4314C506,-681.731 506,-672.5743 506,-664.0166"/><polygon fill="#000" stroke="#000" points="509.5 -664.013 506 -654.013 502.5 -664.013 509.5 -664.013"/></g><g id="node13" class="node"><title>p0x7fd36c0058f0</title><ellipse cx="404" cy="-322" fill="none" stroke="#000" rx="27" ry="18"/><text x="404" y="-317.8" fill="#000" font-family="Times,serif" font-size="14" text-anchor="middle">6</text></g><g id="edge9" class="edge"><title>p0x7fd36c0058f0-&gt;p0x7fd36c005c50</title><path fill="none" stroke="#000" d="M404,-303.8314C404,-296.131 404,-286.9743 404,-278.4166"/><polygon fill="#000" stroke="#000" points="407.5 -278.413 404 -268.413 400.5 -278.413 407.5 -278.413"/></g><g id="node14" class="node"><title>p0x7fd36c005b30</title><ellipse cx="322" cy="-250" fill="none" stroke="#000" rx="27" ry="18"/><text x="322" y="-245.8" fill="#000" font-family="Times,serif" font-size="14" text-anchor="middle">4</text></g><g id="edge10" class="edge"><title>p0x7fd36c005b30-&gt;p0x7fd36c005e90</title><path fill="none" stroke="#000" d="M322,-231.8314C322,-224.131 322,-214.9743 322,-206.4166"/><polygon fill="#000" stroke="#000" points="325.5 -206.413 322 -196.413 318.5 -206.413 325.5 -206.413"/></g><g id="node15" class="node"><title>p0x7fd36c0056b0</title><ellipse cx="322" cy="-322" fill="none" stroke="#000" rx="27" ry="18"/><text x="322" y="-317.8" fill="#000" font-family="Times,serif" font-size="14" text-anchor="middle">7</text></g><g id="edge11" class="edge"><title>p0x7fd36c0056b0-&gt;p0x7fd36c005b30</title><path fill="none" stroke="#000" d="M322,-303.8314C322,-296.131 322,-286.9743 322,-278.4166"/><polygon fill="#000" stroke="#000" points="325.5 -278.413 322 -268.413 318.5 -278.413 325.5 -278.413"/></g><g id="node16" class="node"><title>p0x7fd36c005d70</title><ellipse cx="241" cy="-178" fill="none" stroke="#000" rx="27" ry="18"/><text x="241" y="-173.8" fill="#000" font-family="Times,serif" font-size="14" text-anchor="middle">3</text></g><g id="edge12" class="edge"><title>p0x7fd36c005d70-&gt;p0x7fd36b804d90</title><path fill="none" stroke="#000" d="M250.2425,-160.937C254.9537,-152.2393 260.7817,-141.4799 266.0278,-131.7948"/><polygon fill="#000" stroke="#000" points="269.139 -133.4 270.824 -122.941 262.983 -130.066 269.139 -133.4"/></g><g id="node17" class="node"><title>p0x7fd36b804eb0</title><ellipse cx="690" cy="-34" fill="none" stroke="#000" rx="27" ry="18"/><text x="690" y="-29.8" fill="#000" font-family="Times,serif" font-size="14" text-anchor="middle">4</text></g><g id="node18" class="node"><title>p0x7fd36b00dc30</title><ellipse cx="729" cy="-106" fill="none" stroke="#000" rx="27" ry="18"/><text x="729" y="-101.8" fill="#000" font-family="Times,serif" font-size="14" text-anchor="middle">15</text></g><g id="edge13" class="edge"><title>p0x7fd36b00dc30-&gt;p0x7fd36b804eb0</title><path fill="none" stroke="#000" d="M719.7575,-88.937C715.0463,-80.2393 709.2183,-69.4799 703.9722,-59.7948"/><polygon fill="#000" stroke="#000" points="707.016 -58.066 699.176 -50.941 700.861 -61.401 707.016 -58.066"/></g><g id="node19" class="node"><title>p0x7fd36b00de70</title><ellipse cx="740" cy="-178" fill="none" stroke="#000" rx="27" ry="18"/><text x="740" y="-173.8" fill="#000" font-family="Times,serif" font-size="14" text-anchor="middle">17</text></g><g id="edge14" class="edge"><title>p0x7fd36b00de70-&gt;p0x7fd36b00dc30</title><path fill="none" stroke="#000" d="M737.2242,-159.8314C736.0297,-152.0125 734.6058,-142.6923 733.2812,-134.0221"/><polygon fill="#000" stroke="#000" points="736.707 -133.27 731.737 -123.913 729.787 -134.327 736.707 -133.27"/></g><g id="node20" class="node"><title>p0x7fd36b00df90</title><ellipse cx="755" cy="-250" fill="none" stroke="#000" rx="27" ry="18"/><text x="755" y="-245.8" fill="#000" font-family="Times,serif" font-size="14" text-anchor="middle">19</text></g><g id="edge15" class="edge"><title>p0x7fd36b00df90-&gt;p0x7fd36b00de70</title><path fill="none" stroke="#000" d="M751.2149,-231.8314C749.568,-223.9266 747.6015,-214.4872 745.7784,-205.7365"/><polygon fill="#000" stroke="#000" points="749.198 -204.989 743.732 -195.913 742.345 -206.417 749.198 -204.989"/></g><g id="node21" class="node"><title>p0x7fd36b00e0b0</title><ellipse cx="840" cy="-322" fill="none" stroke="#000" rx="27" ry="18"/><text x="840" y="-317.8" fill="#000" font-family="Times,serif" font-size="14" text-anchor="middle">20</text></g><g id="edge16" class="edge"><title>p0x7fd36b00e0b0-&gt;p0x7fd36b00df90</title><path fill="none" stroke="#000" d="M823.2067,-307.7751C810.7499,-297.2234 793.5734,-282.674 779.5741,-270.8157"/><polygon fill="#000" stroke="#000" points="781.651 -267.988 771.758 -264.195 777.127 -273.329 781.651 -267.988"/></g><g id="node22" class="node"><title>p0x7fd36b00e410</title><ellipse cx="915" cy="-406.8" fill="none" stroke="#000" rx="27" ry="18"/><text x="915" y="-402.6" fill="#000" font-family="Times,serif" font-size="14" text-anchor="middle">21</text></g><g id="edge17" class="edge"><title>p0x7fd36b00e410-&gt;p0x7fd36b00e0b0</title><path fill="none" stroke="#000" d="M901.2438,-391.2464C889.8972,-378.4171 873.6238,-360.0173 860.7034,-345.4086"/><polygon fill="#000" stroke="#000" points="863.17 -342.914 853.923 -337.742 857.926 -347.552 863.17 -342.914"/></g><g id="node23" class="node"><title>p0x7fd36b00e650</title><ellipse cx="922" cy="-491.6" fill="none" stroke="#000" rx="27" ry="18"/><text x="922" y="-487.4" fill="#000" font-family="Times,serif" font-size="14" text-anchor="middle">24</text></g><g id="edge18" class="edge"><title>p0x7fd36b00e650-&gt;p0x7fd36b00e410</title><path fill="none" stroke="#000" d="M920.5155,-473.6161C919.5937,-462.4492 918.389,-447.8547 917.3406,-435.1553"/><polygon fill="#000" stroke="#000" points="920.817 -434.728 916.506 -425.05 913.841 -435.304 920.817 -434.728"/></g><g id="node24" class="node"><title>p0x7fd36b00e770</title><ellipse cx="930" cy="-563.6" fill="none" stroke="#000" rx="27" ry="18"/><text x="930" y="-559.4" fill="#000" font-family="Times,serif" font-size="14" text-anchor="middle">26</text></g><g id="edge19" class="edge"><title>p0x7fd36b00e770-&gt;p0x7fd36b00e650</title><path fill="none" stroke="#000" d="M927.9813,-545.4314C927.1257,-537.731 926.1083,-528.5743 925.1574,-520.0166"/><polygon fill="#000" stroke="#000" points="928.629 -519.566 924.046 -510.013 921.672 -520.339 928.629 -519.566"/></g><g id="node25" class="node"><title>p0x7fd36b00e890</title><ellipse cx="934" cy="-635.6" fill="none" stroke="#000" rx="27" ry="18"/><text x="934" y="-631.4" fill="#000" font-family="Times,serif" font-size="14" text-anchor="middle">27</text></g><g id="edge20" class="edge"><title>p0x7fd36b00e890-&gt;p0x7fd36b00e770</title><path fill="none" stroke="#000" d="M932.9906,-617.4314C932.5628,-609.731 932.0541,-600.5743 931.5787,-592.0166"/><polygon fill="#000" stroke="#000" points="935.072 -591.804 931.023 -582.013 928.083 -592.192 935.072 -591.804"/></g><g id="node26" class="node"><title>p0x7fd36b00e9b0</title><ellipse cx="934" cy="-707.6" fill="none" stroke="#000" rx="27" ry="18"/><text x="934" y="-703.4" fill="#000" font-family="Times,serif" font-size="14" text-anchor="middle">28</text></g><g id="edge21" class="edge"><title>p0x7fd36b00e9b0-&gt;p0x7fd36b00e890</title><path fill="none" stroke="#000" d="M934,-689.4314C934,-681.731 934,-672.5743 934,-664.0166"/><polygon fill="#000" stroke="#000" points="937.5 -664.013 934 -654.013 930.5 -664.013 937.5 -664.013"/></g><g id="node27" class="node"><title>p0x7fd36b00e530</title><ellipse cx="840" cy="-406.8" fill="none" stroke="#000" rx="27" ry="18"/><text x="840" y="-402.6" fill="#000" font-family="Times,serif" font-size="14" text-anchor="middle">21</text></g><g id="edge22" class="edge"><title>p0x7fd36b00e530-&gt;p0x7fd36b00e0b0</title><path fill="none" stroke="#000" d="M840,-388.3997C840,-377.2112 840,-362.6983 840,-350.0954"/><polygon fill="#000" stroke="#000" points="843.5 -350.073 840 -340.073 836.5 -350.073 843.5 -350.073"/></g><g id="node28" class="node"><title>p0x7fd36b00e1d0</title><ellipse cx="755" cy="-322" fill="none" stroke="#000" rx="27" ry="18"/><text x="755" y="-317.8" fill="#000" font-family="Times,serif" font-size="14" text-anchor="middle">20</text></g><g id="edge23" class="edge"><title>p0x7fd36b00e1d0-&gt;p0x7fd36b00df90</title><path fill="none" stroke="#000" d="M755,-303.8314C755,-296.131 755,-286.9743 755,-278.4166"/><polygon fill="#000" stroke="#000" points="758.5 -278.413 755 -268.413 751.5 -278.413 758.5 -278.413"/></g><g id="node29" class="node"><title>p0x7fd36b00e2f0</title><ellipse cx="755" cy="-406.8" fill="none" stroke="#000" rx="27" ry="18"/><text x="755" y="-402.6" fill="#000" font-family="Times,serif" font-size="14" text-anchor="middle">22</text></g><g id="edge24" class="edge"><title>p0x7fd36b00e2f0-&gt;p0x7fd36b00e1d0</title><path fill="none" stroke="#000" d="M755,-388.3997C755,-377.2112 755,-362.6983 755,-350.0954"/><polygon fill="#000" stroke="#000" points="758.5 -350.073 755 -340.073 751.5 -350.073 758.5 -350.073"/></g><g id="node30" class="node"><title>p0x7fd36b00dd50</title><ellipse cx="654" cy="-106" fill="none" stroke="#000" rx="27" ry="18"/><text x="654" y="-101.8" fill="#000" font-family="Times,serif" font-size="14" text-anchor="middle">15</text></g><g id="edge25" class="edge"><title>p0x7fd36b00dd50-&gt;p0x7fd36b804eb0</title><path fill="none" stroke="#000" d="M662.7146,-88.5708C666.9597,-80.0807 672.1536,-69.6929 676.8663,-60.2674"/><polygon fill="#000" stroke="#000" points="680.024 -61.778 681.366 -51.269 673.763 -58.648 680.024 -61.778"/></g></g></svg>