<svg xmlns="http://www.w3.org/2000/svg" xmlns:xlink="http://www.w3.org/1999/xlink" width="1580pt" height="616" viewBox="0 0 1579.73 462.4"><g id="graph0" class="graph" transform="scale(1 1) rotate(0) translate(4 458.4)"><title>Taskflow</title><polygon fill="#fff" stroke="transparent" points="-4 4 -4 -458.4 1575.726 -458.4 1575.726 4 -4 4"/><g id="clust1" class="cluster"><title>cluster_p0x55764dbce0d0</title><polygon fill="none" stroke="#a020f0" points="120.548 -220.8 120.548 -369.6 521.548 -369.6 521.548 -220.8 120.548 -220.8"/><text x="321.048" y="-353" fill="#000" font-family="Times,serif" font-size="14" text-anchor="middle">cudaFlow: h2d</text></g><g id="clust2" class="cluster"><title>cluster_p0x55764dbce1e0</title><polygon fill="none" stroke="#a020f0" points="919.548 -136 919.548 -446.4 1209.548 -446.4 1209.548 -136 919.548 -136"/><text x="1064.548" y="-429.8" fill="#000" font-family="Times,serif" font-size="14" text-anchor="middle">cudaFlow: update_means</text></g><g id="clust3" class="cluster"><title>cluster_p0x55764dbce2f0</title><polygon fill="none" stroke="#a020f0" points="1217.548 -64 1217.548 -212.8 1422.548 -212.8 1422.548 -64 1217.548 -64"/><text x="1320.048" y="-196.2" fill="#000" font-family="Times,serif" font-size="14" text-anchor="middle">cudaFlow: d2h</text></g><g id="node1" class="node"><title>p0x55764dbcd960</title><ellipse cx="55.548" cy="-318.8" fill="none" stroke="#000" rx="55.597" ry="18"/><text x="55.548" y="-314.6" fill="#000" font-family="Times,serif" font-size="14" text-anchor="middle">allocate_px</text></g><g id="node2" class="node"><title>p0x55764dbce0d0</title><polygon fill="#0ff" stroke="#000" points="500.548 -264.8 497.548 -268.8 476.548 -268.8 473.548 -264.8 446.548 -264.8 446.548 -228.8 500.548 -228.8 500.548 -264.8"/><text x="473.548" y="-242.6" fill="#000" font-family="Times,serif" font-size="14" text-anchor="middle">h2d</text></g><g id="edge1" class="edge"><title>p0x55764dbcd960-&gt;p0x55764dbce0d0</title><path fill="none" stroke="#000" d="M95.3756,-306.1978C102.3878,-304.223 109.6496,-302.332 116.5483,-300.8 231.9014,-275.1827 370.9437,-258.0126 436.2421,-250.7395"/><polygon fill="#000" stroke="#000" points="436.888 -254.19 446.445 -249.617 436.122 -247.232 436.888 -254.19"/></g><g id="node7" class="node"><title>p0x55764dbce1e0</title><polygon fill="#0ff" stroke="#000" points="1201.632 -180 1198.632 -184 1177.632 -184 1174.632 -180 1105.464 -180 1105.464 -144 1201.632 -144 1201.632 -180"/><text x="1153.548" y="-157.8" fill="#000" font-family="Times,serif" font-size="14" text-anchor="middle">update_means</text></g><g id="edge8" class="edge"><title>p0x55764dbce0d0-&gt;p0x55764dbce1e0</title><path fill="none" stroke="#000" d="M500.6247,-243.4234C601.1153,-230.8916 954.1292,-186.8687 1094.9283,-169.3103"/><polygon fill="#000" stroke="#000" points="1095.603 -172.753 1105.093 -168.043 1094.736 -165.807 1095.603 -172.753"/></g><g id="node3" class="node"><title>p0x55764dbcda70</title><ellipse cx="587.548" cy="-318.8" fill="none" stroke="#000" rx="55.597" ry="18"/><text x="587.548" y="-314.6" fill="#000" font-family="Times,serif" font-size="14" text-anchor="middle">allocate_py</text></g><g id="edge2" class="edge"><title>p0x55764dbcda70-&gt;p0x55764dbce0d0</title><path fill="none" stroke="#000" d="M561.9644,-302.6418C546.4237,-292.8266 526.3518,-280.1496 509.2614,-269.3557"/><polygon fill="#000" stroke="#000" points="510.96 -266.289 500.636 -263.908 507.222 -272.207 510.96 -266.289"/></g><g id="node4" class="node"><title>p0x55764dbcdb80</title><ellipse cx="719.548" cy="-318.8" fill="none" stroke="#000" rx="58.465" ry="18"/><text x="719.548" y="-314.6" fill="#000" font-family="Times,serif" font-size="14" text-anchor="middle">allocate_mx</text></g><g id="edge3" class="edge"><title>p0x55764dbcdb80-&gt;p0x55764dbce0d0</title><path fill="none" stroke="#000" d="M677.2594,-306.4228C630.3593,-292.6959 555.4291,-270.7651 510.7036,-257.6747"/><polygon fill="#000" stroke="#000" points="511.41 -254.235 500.829 -254.785 509.443 -260.953 511.41 -254.235"/></g><g id="node5" class="node"><title>p0x55764dbcdc90</title><ellipse cx="853.548" cy="-318.8" fill="none" stroke="#000" rx="58.465" ry="18"/><text x="853.548" y="-314.6" fill="#000" font-family="Times,serif" font-size="14" text-anchor="middle">allocate_my</text></g><g id="edge4" class="edge"><title>p0x55764dbcdc90-&gt;p0x55764dbce0d0</title><path fill="none" stroke="#000" d="M810.4413,-306.5961C802.5255,-304.5329 794.3117,-302.5088 786.5483,-300.8 687.7352,-279.0507 569.7775,-260.7382 510.8791,-252.1087"/><polygon fill="#000" stroke="#000" points="511.325 -248.637 500.926 -250.66 510.317 -255.564 511.325 -248.637"/></g><g id="node6" class="node"><title>p0x55764dbcdda0</title><ellipse cx="1271.548" cy="-246.8" fill="none" stroke="#000" rx="54.451" ry="18"/><text x="1271.548" y="-242.6" fill="#000" font-family="Times,serif" font-size="14" text-anchor="middle">allocate_sx</text></g><g id="edge5" class="edge"><title>p0x55764dbcdda0-&gt;p0x55764dbce1e0</title><path fill="none" stroke="#000" d="M1242.9104,-231.3194C1233.3511,-225.8116 1222.7866,-219.3451 1213.5483,-212.8 1202.3877,-204.8931 1190.7708,-195.3923 1180.765,-186.7571"/><polygon fill="#000" stroke="#000" points="1182.954 -184.021 1173.125 -180.064 1178.341 -189.287 1182.954 -184.021"/></g><g id="node14" class="node"><title>p0x55764dbce2f0</title><polygon fill="#0ff" stroke="#000" points="1295.548 -108 1292.548 -112 1271.548 -112 1268.548 -108 1241.548 -108 1241.548 -72 1295.548 -72 1295.548 -108"/><text x="1268.548" y="-85.8" fill="#000" font-family="Times,serif" font-size="14" text-anchor="middle">d2h</text></g><g id="edge13" class="edge"><title>p0x55764dbce1e0-&gt;p0x55764dbce2f0</title><path fill="none" stroke="#000" d="M1182.5676,-143.8314C1197.8382,-134.2706 1216.6943,-122.4651 1232.8533,-112.3481"/><polygon fill="#000" stroke="#000" points="1234.895 -115.2 1241.513 -106.926 1231.18 -109.266 1234.895 -115.2"/></g><g id="node8" class="node"><title>p0x55764dbcdeb0</title><ellipse cx="1398.548" cy="-246.8" fill="none" stroke="#000" rx="54.451" ry="18"/><text x="1398.548" y="-242.6" fill="#000" font-family="Times,serif" font-size="14" text-anchor="middle">allocate_sy</text></g><g id="edge6" class="edge"><title>p0x55764dbcdeb0-&gt;p0x55764dbce1e0</title><path fill="none" stroke="#000" d="M1367.6228,-231.9127C1357.3282,-227.591 1345.652,-223.3525 1334.5483,-220.8 1308.2856,-214.7628 1238.5305,-222.9026 1213.5483,-212.8 1199.7344,-207.2138 1186.7907,-197.1535 1176.4873,-187.451"/><polygon fill="#000" stroke="#000" points="1178.719 -184.735 1169.152 -180.181 1173.791 -189.707 1178.719 -184.735"/></g><g id="node9" class="node"><title>p0x55764dbcdfc0</title><ellipse cx="1521.548" cy="-246.8" fill="none" stroke="#000" rx="50.357" ry="18"/><text x="1521.548" y="-242.6" fill="#000" font-family="Times,serif" font-size="14" text-anchor="middle">allocate_c</text></g><g id="edge7" class="edge"><title>p0x55764dbcdfc0-&gt;p0x55764dbce1e0</title><path fill="none" stroke="#000" d="M1492.9949,-231.8209C1483.2788,-227.4369 1472.1827,-223.1845 1461.5483,-220.8 1434.6464,-214.7679 1239.2782,-222.7029 1213.5483,-212.8 1199.5405,-207.4088 1186.4957,-197.2753 1176.1713,-187.4687"/><polygon fill="#000" stroke="#000" points="1178.377 -184.724 1168.835 -180.117 1173.421 -189.668 1178.377 -184.724"/></g><g id="node10" class="node"><title>p0x7fc258000ba0</title><ellipse cx="473.548" cy="-318.8" fill="none" stroke="#000" rx="40.015" ry="18"/><text x="473.548" y="-314.6" fill="#000" font-family="Times,serif" font-size="14" text-anchor="middle">h2d_px</text></g><g id="edge9" class="edge"><title>p0x7fc258000ba0-&gt;p0x55764dbce0d0</title><path fill="none" stroke="#000" d="M473.5483,-300.6314C473.5483,-292.931 473.5483,-283.7743 473.5483,-275.2166"/><polygon fill="#000" stroke="#000" points="477.048 -275.213 473.548 -265.213 470.048 -275.213 477.048 -275.213"/></g><g id="node11" class="node"><title>p0x7fc258000c40</title><ellipse cx="375.548" cy="-318.8" fill="none" stroke="#000" rx="40.015" ry="18"/><text x="375.548" y="-314.6" fill="#000" font-family="Times,serif" font-size="14" text-anchor="middle">h2d_py</text></g><g id="edge10" class="edge"><title>p0x7fc258000c40-&gt;p0x55764dbce0d0</title><path fill="none" stroke="#000" d="M396.8128,-303.1771C409.6127,-293.7731 426.1775,-281.603 440.6389,-270.9783"/><polygon fill="#000" stroke="#000" points="442.88 -273.675 448.866 -264.934 438.735 -268.034 442.88 -273.675"/></g><g id="node12" class="node"><title>p0x7fc258000dd0</title><ellipse cx="274.548" cy="-318.8" fill="none" stroke="#000" rx="42.883" ry="18"/><text x="274.548" y="-314.6" fill="#000" font-family="Times,serif" font-size="14" text-anchor="middle">h2d_mx</text></g><g id="edge11" class="edge"><title>p0x7fc258000dd0-&gt;p0x55764dbce0d0</title><path fill="none" stroke="#000" d="M306.9639,-307.0717C342.5512,-294.1959 399.5691,-273.5663 436.7937,-260.0981"/><polygon fill="#000" stroke="#000" points="438.057 -263.363 446.269 -256.67 435.675 -256.781 438.057 -263.363"/></g><g id="node13" class="node"><title>p0x7fc258000ea0</title><ellipse cx="171.548" cy="-318.8" fill="none" stroke="#000" rx="42.883" ry="18"/><text x="171.548" y="-314.6" fill="#000" font-family="Times,serif" font-size="14" text-anchor="middle">h2d_my</text></g><g id="edge12" class="edge"><title>p0x7fc258000ea0-&gt;p0x55764dbce0d0</title><path fill="none" stroke="#000" d="M203.7244,-306.7465C209.9261,-304.6219 216.4044,-302.5375 222.5483,-300.8 297.629,-279.5673 387.3895,-262.1235 436.6494,-253.2146"/><polygon fill="#000" stroke="#000" points="437.3 -256.654 446.526 -251.445 436.066 -249.763 437.3 -256.654"/></g><g id="node20" class="node"><title>p0x55764dbce400</title><ellipse cx="1268.548" cy="-18" fill="none" stroke="#000" rx="27" ry="18"/><text x="1268.548" y="-13.8" fill="#000" font-family="Times,serif" font-size="14" text-anchor="middle">free</text></g><g id="edge19" class="edge"><title>p0x55764dbce2f0-&gt;p0x55764dbce400</title><path fill="none" stroke="#000" d="M1268.5483,-71.8314C1268.5483,-64.131 1268.5483,-54.9743 1268.5483,-46.4166"/><polygon fill="#000" stroke="#000" points="1272.048 -46.413 1268.548 -36.413 1265.048 -46.413 1272.048 -46.413"/></g><g id="node15" class="node"><title>p0x7fc2580032e0</title><ellipse cx="1164.548" cy="-395.6" fill="none" stroke="#000" rx="36.538" ry="18"/><text x="1164.548" y="-391.4" fill="#000" font-family="Times,serif" font-size="14" text-anchor="middle">zero_c</text></g><g id="node16" class="node"><title>p0x7fc2580034e0</title><polygon fill="#000" stroke="#fff" points="1137.548 -336.8 1087.548 -336.8 1083.548 -332.8 1083.548 -300.8 1133.548 -300.8 1137.548 -304.8 1137.548 -336.8"/><polyline fill="none" stroke="#fff" points="1133.548 -332.8 1083.548 -332.8"/><polyline fill="none" stroke="#fff" points="1133.548 -332.8 1133.548 -300.8"/><polyline fill="none" stroke="#fff" points="1133.548 -332.8 1137.548 -336.8"/><text x="1110.548" y="-314.6" fill="#fff" font-family="Times,serif" font-size="14" text-anchor="middle">cluster</text></g><g id="edge14" class="edge"><title>p0x7fc2580032e0-&gt;p0x7fc2580034e0</title><path fill="none" stroke="#000" d="M1152.5639,-378.5556C1145.699,-368.7921 1136.935,-356.3279 1129.1894,-345.3118"/><polygon fill="#000" stroke="#000" points="1131.866 -343.034 1123.252 -336.867 1126.14 -347.06 1131.866 -343.034"/></g><g id="node19" class="node"><title>p0x7fc258003580</title><polygon fill="#000" stroke="#fff" points="1177.741 -264.8 1089.356 -264.8 1085.356 -260.8 1085.356 -228.8 1173.741 -228.8 1177.741 -232.8 1177.741 -264.8"/><polyline fill="none" stroke="#fff" points="1173.741 -260.8 1085.356 -260.8"/><polyline fill="none" stroke="#fff" points="1173.741 -260.8 1173.741 -228.8"/><polyline fill="none" stroke="#fff" points="1173.741 -260.8 1177.741 -264.8"/><text x="1131.548" y="-242.6" fill="#fff" font-family="Times,serif" font-size="14" text-anchor="middle">new_centroid</text></g><g id="edge17" class="edge"><title>p0x7fc2580034e0-&gt;p0x7fc258003580</title><path fill="none" stroke="#000" d="M1115.8474,-300.6314C1118.1181,-292.8463 1120.8228,-283.5729 1123.3423,-274.9347"/><polygon fill="#000" stroke="#000" points="1126.738 -275.793 1126.178 -265.213 1120.018 -273.833 1126.738 -275.793"/></g><g id="node17" class="node"><title>p0x7fc258003380</title><ellipse cx="1068.548" cy="-395.6" fill="none" stroke="#000" rx="41.132" ry="18"/><text x="1068.548" y="-391.4" fill="#000" font-family="Times,serif" font-size="14" text-anchor="middle">zero_sx</text></g><g id="edge15" class="edge"><title>p0x7fc258003380-&gt;p0x7fc2580034e0</title><path fill="none" stroke="#000" d="M1078.2895,-377.7875C1083.4624,-368.3284 1089.9295,-356.503 1095.7122,-345.9287"/><polygon fill="#000" stroke="#000" points="1098.841 -347.502 1100.568 -337.049 1092.699 -344.144 1098.841 -347.502"/></g><g id="node18" class="node"><title>p0x7fc258003440</title><ellipse cx="968.548" cy="-395.6" fill="none" stroke="#000" rx="41.132" ry="18"/><text x="968.548" y="-391.4" fill="#000" font-family="Times,serif" font-size="14" text-anchor="middle">zero_sy</text></g><g id="edge16" class="edge"><title>p0x7fc258003440-&gt;p0x7fc2580034e0</title><path fill="none" stroke="#000" d="M994.5933,-381.5137C1016.9844,-369.4035 1049.5092,-351.8127 1074.4173,-338.3412"/><polygon fill="#000" stroke="#000" points="1076.086 -341.418 1083.216 -333.582 1072.755 -335.261 1076.086 -341.418"/></g><g id="edge18" class="edge"><title>p0x7fc258003580-&gt;p0x55764dbce1e0</title><path fill="none" stroke="#000" d="M1136.3219,-228.3997C1139.2246,-217.2112 1142.9897,-202.6983 1146.2594,-190.0954"/><polygon fill="#000" stroke="#000" points="1149.736 -190.632 1148.86 -180.073 1142.96 -188.874 1149.736 -190.632"/></g><g id="node21" class="node"><title>p0x7fc258005800</title><ellipse cx="1371.548" cy="-162" fill="none" stroke="#000" rx="42.883" ry="18"/><text x="1371.548" y="-157.8" fill="#000" font-family="Times,serif" font-size="14" text-anchor="middle">d2h_mx</text></g><g id="edge20" class="edge"><title>p0x7fc258005800-&gt;p0x55764dbce2f0</title><path fill="none" stroke="#000" d="M1349.4522,-146.5542C1335.8862,-137.0712 1318.2266,-124.7266 1302.869,-113.9912"/><polygon fill="#000" stroke="#000" points="1304.816 -111.082 1294.614 -108.221 1300.805 -116.819 1304.816 -111.082"/></g><g id="node22" class="node"><title>p0x7fc2580058a0</title><ellipse cx="1268.548" cy="-162" fill="none" stroke="#000" rx="42.883" ry="18"/><text x="1268.548" y="-157.8" fill="#000" font-family="Times,serif" font-size="14" text-anchor="middle">d2h_my</text></g><g id="edge21" class="edge"><title>p0x7fc2580058a0-&gt;p0x55764dbce2f0</title><path fill="none" stroke="#000" d="M1268.5483,-143.8314C1268.5483,-136.131 1268.5483,-126.9743 1268.5483,-118.4166"/><polygon fill="#000" stroke="#000" points="1272.048 -118.413 1268.548 -108.413 1265.048 -118.413 1272.048 -118.413"/></g></g></svg>