<svg xmlns="http://www.w3.org/2000/svg" xmlns:xlink="http://www.w3.org/1999/xlink" width="1056" height="287pt" viewBox="0 0 791.59 287"><g id="graph0" class="graph" transform="scale(1 1) rotate(0) translate(4 283)"><title>Taskflow</title><polygon fill="#fff" stroke="transparent" points="-4 4 -4 -283 787.591 -283 787.591 4 -4 4"/><g id="node1" class="node"><title>p0x562f9807bcc0</title><ellipse cx="58.232" cy="-261" fill="none" stroke="#000" rx="55.597" ry="18"/><text x="58.232" y="-256.8" fill="#000" font-family="Times,serif" font-size="14" text-anchor="middle">allocate_px</text></g><g id="node2" class="node"><title>p0x562f9807b550</title><polygon fill="#0ff" stroke="#000" points="234.939 -198 231.939 -202 210.939 -202 207.939 -198 180.939 -198 180.939 -162 234.939 -162 234.939 -198"/><text x="207.939" y="-175.8" fill="#000" font-family="Times,serif" font-size="14" text-anchor="middle">h2d</text></g><g id="edge1" class="edge"><title>p0x562f9807bcc0-&gt;p0x562f9807b550</title><path fill="none" stroke="#000" d="M91.1563,-246.4257C99.4928,-242.5471 108.3745,-238.2497 116.4639,-234 135.0603,-224.2305 155.2179,-212.4641 171.8658,-202.4118"/><polygon fill="#000" stroke="#000" points="173.995 -205.213 180.721 -197.027 170.358 -199.232 173.995 -205.213"/></g><g id="node7" class="node"><title>p0x562f9807b440</title><polygon fill="#0ff" stroke="#000" points="395.541 -117 392.541 -121 371.541 -121 368.541 -117 299.373 -117 299.373 -81 395.541 -81 395.541 -117"/><text x="347.457" y="-94.8" fill="#000" font-family="Times,serif" font-size="14" text-anchor="middle">update_means</text></g><g id="edge8" class="edge"><title>p0x562f9807b550-&gt;p0x562f9807b440</title><path fill="none" stroke="#000" d="M235.1097,-167.2341C243.9231,-162.908 253.6775,-157.9211 262.4146,-153 279.1019,-143.6012 297.0739,-132.3622 312.1781,-122.5773"/><polygon fill="#000" stroke="#000" points="314.248 -125.406 320.708 -117.009 310.421 -119.544 314.248 -125.406"/></g><g id="node3" class="node"><title>p0x562f9807bbb0</title><ellipse cx="58.232" cy="-207" fill="none" stroke="#000" rx="55.597" ry="18"/><text x="58.232" y="-202.8" fill="#000" font-family="Times,serif" font-size="14" text-anchor="middle">allocate_py</text></g><g id="edge2" class="edge"><title>p0x562f9807bbb0-&gt;p0x562f9807b550</title><path fill="none" stroke="#000" d="M106.8376,-198.2339C127.6805,-194.4748 151.6323,-190.1551 170.9897,-186.6639"/><polygon fill="#000" stroke="#000" points="171.717 -190.089 180.937 -184.87 170.474 -183.201 171.717 -190.089"/></g><g id="node4" class="node"><title>p0x562f9807baa0</title><ellipse cx="58.232" cy="-153" fill="none" stroke="#000" rx="58.465" ry="18"/><text x="58.232" y="-148.8" fill="#000" font-family="Times,serif" font-size="14" text-anchor="middle">allocate_mx</text></g><g id="edge3" class="edge"><title>p0x562f9807baa0-&gt;p0x562f9807b550</title><path fill="none" stroke="#000" d="M108.916,-162.141C129.2426,-165.8069 152.2329,-169.9532 170.9412,-173.3273"/><polygon fill="#000" stroke="#000" points="170.388 -176.784 180.85 -175.114 171.63 -169.895 170.388 -176.784"/></g><g id="node5" class="node"><title>p0x562f9807b990</title><ellipse cx="58.232" cy="-99" fill="none" stroke="#000" rx="58.465" ry="18"/><text x="58.232" y="-94.8" fill="#000" font-family="Times,serif" font-size="14" text-anchor="middle">allocate_my</text></g><g id="edge4" class="edge"><title>p0x562f9807b990-&gt;p0x562f9807b550</title><path fill="none" stroke="#000" d="M92.6778,-113.61C100.6429,-117.3592 108.9744,-121.5888 116.4639,-126 134.0048,-136.3313 136.0587,-142.4416 153.4639,-153 159.2848,-156.5311 165.6307,-159.9969 171.8674,-163.206"/><polygon fill="#000" stroke="#000" points="170.344 -166.357 180.853 -167.702 173.476 -160.097 170.344 -166.357"/></g><g id="node6" class="node"><title>p0x562f9807b880</title><ellipse cx="207.939" cy="-126" fill="none" stroke="#000" rx="54.451" ry="18"/><text x="207.939" y="-121.8" fill="#000" font-family="Times,serif" font-size="14" text-anchor="middle">allocate_sx</text></g><g id="edge5" class="edge"><title>p0x562f9807b880-&gt;p0x562f9807b440</title><path fill="none" stroke="#000" d="M255.1735,-116.859C266.1791,-114.7292 278.0227,-112.4372 289.4348,-110.2286"/><polygon fill="#000" stroke="#000" points="290.168 -113.652 299.321 -108.316 288.838 -106.779 290.168 -113.652"/></g><g id="node10" class="node"><title>p0x562f9807b330</title><polygon fill="#7fffd4" stroke="#000" points="517.045 -117 438.453 -99 517.045 -81 595.637 -99 517.045 -117"/><text x="517.045" y="-94.8" fill="#000" font-family="Times,serif" font-size="14" text-anchor="middle">converged?</text></g><g id="edge9" class="edge"><title>p0x562f9807b440-&gt;p0x562f9807b330</title><path fill="none" stroke="#000" d="M395.7848,-100.6323C401.7501,-100.784 407.764,-100.9132 413.4988,-101 421.1465,-101.1158 429.1117,-101.1378 437.0777,-101.0942"/><polygon fill="#000" stroke="#000" points="437.176 -104.594 447.145 -101.006 437.114 -97.594 437.176 -104.594"/></g><g id="node8" class="node"><title>p0x562f9807b770</title><ellipse cx="207.939" cy="-72" fill="none" stroke="#000" rx="54.451" ry="18"/><text x="207.939" y="-67.8" fill="#000" font-family="Times,serif" font-size="14" text-anchor="middle">allocate_sy</text></g><g id="edge6" class="edge"><title>p0x562f9807b770-&gt;p0x562f9807b440</title><path fill="none" stroke="#000" d="M255.1735,-81.141C266.1791,-83.2708 278.0227,-85.5628 289.4348,-87.7714"/><polygon fill="#000" stroke="#000" points="288.838 -91.221 299.321 -89.684 290.168 -84.348 288.838 -91.221"/></g><g id="node9" class="node"><title>p0x562f9807b660</title><ellipse cx="207.939" cy="-18" fill="none" stroke="#000" rx="50.357" ry="18"/><text x="207.939" y="-13.8" fill="#000" font-family="Times,serif" font-size="14" text-anchor="middle">allocate_c</text></g><g id="edge7" class="edge"><title>p0x562f9807b660-&gt;p0x562f9807b440</title><path fill="none" stroke="#000" d="M238.4906,-32.4354C246.3711,-36.3508 254.7811,-40.7006 262.4146,-45 279.1019,-54.3988 297.0739,-65.6378 312.1781,-75.4227"/><polygon fill="#000" stroke="#000" points="310.421 -78.456 320.708 -80.991 314.248 -72.594 310.421 -78.456"/></g><g id="edge10" class="edge"><title>p0x562f9807b330-&gt;p0x562f9807b440</title><path fill="none" stroke="#000" stroke-dasharray="5 2" d="M485.887,-88.0854C465.3868,-82.2053 437.9274,-76.7907 413.4988,-80.2 410.9677,-80.5532 408.3975,-80.9792 405.8123,-81.4631"/><polygon fill="#000" stroke="#000" points="404.873 -78.084 395.819 -83.586 406.328 -84.932 404.873 -78.084"/><text x="416.999" y="-85.2" fill="#000" font-family="Times,serif" font-size="14" text-anchor="middle">0</text></g><g id="node11" class="node"><title>p0x562f9807b220</title><polygon fill="#0ff" stroke="#000" points="692.591 -117 689.591 -121 668.591 -121 665.591 -117 638.591 -117 638.591 -81 692.591 -81 692.591 -117"/><text x="665.591" y="-94.8" fill="#000" font-family="Times,serif" font-size="14" text-anchor="middle">d2h</text></g><g id="edge11" class="edge"><title>p0x562f9807b330-&gt;p0x562f9807b220</title><path fill="none" stroke="#000" stroke-dasharray="5 2" d="M595.6678,-99C607.1343,-99 618.462,-99 628.5529,-99"/><polygon fill="#000" stroke="#000" points="628.575 -102.5 638.575 -99 628.575 -95.5 628.575 -102.5"/><text x="617.091" y="-103.2" fill="#000" font-family="Times,serif" font-size="14" text-anchor="middle">1</text></g><g id="node12" class="node"><title>p0x562f9807b110</title><ellipse cx="756.591" cy="-99" fill="none" stroke="#000" rx="27" ry="18"/><text x="756.591" y="-94.8" fill="#000" font-family="Times,serif" font-size="14" text-anchor="middle">free</text></g><g id="edge12" class="edge"><title>p0x562f9807b220-&gt;p0x562f9807b110</title><path fill="none" stroke="#000" d="M692.8942,-99C701.1725,-99 710.4129,-99 719.2317,-99"/><polygon fill="#000" stroke="#000" points="719.308 -102.5 729.307 -99 719.307 -95.5 719.308 -102.5"/></g></g></svg>