<svg xmlns="http://www.w3.org/2000/svg" xmlns:xlink="http://www.w3.org/1999/xlink" width="532pt" height="281pt" viewBox="0 0 532.35 281"><g id="graph0" class="graph" transform="scale(1 1) rotate(0) translate(4 277)"><title>Taskflow</title><polygon fill="#fff" stroke="transparent" points="-4 4 -4 -277 528.355 -277 528.355 4 -4 4"/><g id="clust1" class="cluster"><title>cluster_p0x5558af971240</title><polygon fill="none" stroke="#a020f0" points="8 -98 8 -229 442.355 -229 442.355 -98 8 -98"/><text x="225.177" y="-212.4" fill="#000" font-family="Times,serif" font-size="14" text-anchor="middle">cudaFlow: cudaFlow</text></g><g id="node1" class="node"><title>p0x5558af970f10</title><ellipse cx="276.426" cy="-255" fill="none" stroke="#000" rx="50.357" ry="18"/><text x="276.426" y="-250.8" fill="#000" font-family="Times,serif" font-size="14" text-anchor="middle">allocate_a</text></g><g id="node2" class="node"><title>p0x5558af971240</title><polygon fill="#0ff" stroke="#000" points="434.46 -143 431.46 -147 410.46 -147 407.46 -143 363.041 -143 363.041 -107 434.46 -107 434.46 -143"/><text x="398.75" y="-120.8" fill="#000" font-family="Times,serif" font-size="14" text-anchor="middle">cudaFlow</text></g><g id="edge1" class="edge"><title>p0x5558af970f10-&gt;p0x5558af971240</title><path fill="none" stroke="#000" d="M312.5934,-242.4273C317.7706,-239.7653 322.8047,-236.6364 327.1458,-233 353.6709,-210.7805 374.1703,-176.2749 386.3097,-152.2674"/><polygon fill="#000" stroke="#000" points="389.592 -153.522 390.845 -143.002 383.305 -150.445 389.592 -153.522"/></g><g id="node5" class="node"><title>p0x5558af971350</title><ellipse cx="497.355" cy="-125" fill="none" stroke="#000" rx="27" ry="18"/><text x="497.355" y="-120.8" fill="#000" font-family="Times,serif" font-size="14" text-anchor="middle">free</text></g><g id="edge4" class="edge"><title>p0x5558af971240-&gt;p0x5558af971350</title><path fill="none" stroke="#000" d="M434.6277,-125C442.9134,-125 451.7466,-125 460.0899,-125"/><polygon fill="#000" stroke="#000" points="460.318 -128.5 470.318 -125 460.318 -121.5 460.318 -128.5"/></g><g id="node3" class="node"><title>p0x5558af971020</title><ellipse cx="276.426" cy="-72" fill="none" stroke="#000" rx="50.941" ry="18"/><text x="276.426" y="-67.8" fill="#000" font-family="Times,serif" font-size="14" text-anchor="middle">allocate_b</text></g><g id="edge2" class="edge"><title>p0x5558af971020-&gt;p0x5558af971240</title><path fill="none" stroke="#000" d="M308.5653,-85.9251C322.2691,-91.8626 338.5034,-98.8965 353.3954,-105.3489"/><polygon fill="#000" stroke="#000" points="352.38 -108.723 362.948 -109.488 355.163 -102.3 352.38 -108.723"/></g><g id="node4" class="node"><title>p0x5558af971130</title><ellipse cx="276.426" cy="-18" fill="none" stroke="#000" rx="50.357" ry="18"/><text x="276.426" y="-13.8" fill="#000" font-family="Times,serif" font-size="14" text-anchor="middle">allocate_c</text></g><g id="edge3" class="edge"><title>p0x5558af971130-&gt;p0x5558af971240</title><path fill="none" stroke="#000" d="M307.5408,-32.336C314.2858,-36.0421 321.1797,-40.3222 327.1458,-45 346.8818,-60.4743 365.6515,-81.7811 379.019,-98.5151"/><polygon fill="#000" stroke="#000" points="376.576 -101.073 385.493 -106.794 382.09 -96.761 376.576 -101.073"/></g><g id="node6" class="node"><title>p0x7f6fd8000b20</title><ellipse cx="55.465" cy="-178" fill="none" stroke="#000" rx="38.846" ry="18"/><text x="55.465" y="-173.8" fill="#000" font-family="Times,serif" font-size="14" text-anchor="middle">H2D_a</text></g><g id="node7" class="node"><title>p0x7f6fd8000db0</title><polygon fill="#000" stroke="#fff" points="189.595 -144 135.04 -144 131.04 -140 131.04 -108 185.595 -108 189.595 -112 189.595 -144"/><polyline fill="none" stroke="#fff" points="185.595 -140 131.04 -140"/><polyline fill="none" stroke="#fff" points="185.595 -140 185.595 -108"/><polyline fill="none" stroke="#fff" points="185.595 -140 189.595 -144"/><text x="160.318" y="-121.8" fill="#fff" font-family="Times,serif" font-size="14" text-anchor="middle">matmul</text></g><g id="edge5" class="edge"><title>p0x7f6fd8000b20-&gt;p0x7f6fd8000db0</title><path fill="none" stroke="#000" d="M82.1948,-164.7437C94.1079,-158.8356 108.3727,-151.7612 121.4337,-145.2838"/><polygon fill="#000" stroke="#000" points="123.277 -148.277 130.681 -140.698 120.167 -142.006 123.277 -148.277"/></g><g id="node9" class="node"><title>p0x7f6fd8000ce0</title><ellipse cx="276.426" cy="-126" fill="none" stroke="#000" rx="38.846" ry="18"/><text x="276.426" y="-121.8" fill="#000" font-family="Times,serif" font-size="14" text-anchor="middle">D2H_c</text></g><g id="edge8" class="edge"><title>p0x7f6fd8000db0-&gt;p0x7f6fd8000ce0</title><path fill="none" stroke="#000" d="M189.6168,-126C201.0667,-126 214.5132,-126 227.3582,-126"/><polygon fill="#000" stroke="#000" points="227.481 -129.5 237.481 -126 227.481 -122.5 227.481 -129.5"/></g><g id="node8" class="node"><title>p0x7f6fd8000c00</title><ellipse cx="55.465" cy="-124" fill="none" stroke="#000" rx="39.429" ry="18"/><text x="55.465" y="-119.8" fill="#000" font-family="Times,serif" font-size="14" text-anchor="middle">H2D_b</text></g><g id="edge6" class="edge"><title>p0x7f6fd8000c00-&gt;p0x7f6fd8000db0</title><path fill="none" stroke="#000" d="M95.1051,-124.7561C103.4235,-124.9148 112.1993,-125.0822 120.5233,-125.2409"/><polygon fill="#000" stroke="#000" points="120.692 -128.745 130.757 -125.436 120.826 -121.746 120.692 -128.745"/></g><g id="edge7" class="edge"><title>p0x7f6fd8000ce0-&gt;p0x5558af971240</title><path fill="none" stroke="#000" d="M315.4665,-125.6808C327.3748,-125.5835 340.5761,-125.4756 352.8925,-125.3749"/><polygon fill="#000" stroke="#000" points="353.011 -128.874 362.982 -125.292 352.954 -121.874 353.011 -128.874"/></g></g></svg>