<svg xmlns="http://www.w3.org/2000/svg" xmlns:xlink="http://www.w3.org/1999/xlink" width="766pt" height="188pt" viewBox="0 0 765.93 188"><g id="graph0" class="graph" transform="scale(1 1) rotate(0) translate(4 184)"><title>Taskflow</title><polygon fill="#fff" stroke="transparent" points="-4 4 -4 -184 761.931 -184 761.931 4 -4 4"/><g id="node1" class="node"><title>p0x563dc6ae1020</title><ellipse cx="378.466" cy="-162" fill="none" stroke="#000" rx="27" ry="18"/><text x="378.466" y="-157.8" fill="#000" font-family="Times,serif" font-size="14" text-anchor="middle">S</text></g><g id="node2" class="node"><title>p0x563dc6ae1460</title><ellipse cx="39.466" cy="-90" fill="none" stroke="#000" rx="39.431" ry="18"/><text x="39.466" y="-85.8" fill="#000" font-family="Times,serif" font-size="14" text-anchor="middle">chunk1</text></g><g id="edge1" class="edge"><title>p0x563dc6ae1020-&gt;p0x563dc6ae1460</title><path fill="none" stroke="#000" d="M351.7374,-158.5551C300.2047,-151.5777 183.7757,-134.1801 88.4656,-108 85.3195,-107.1358 82.0893,-106.1587 78.8608,-105.1176"/><polygon fill="#000" stroke="#000" points="79.861 -101.761 69.266 -101.851 77.605 -108.387 79.861 -101.761"/></g><g id="node3" class="node"><title>p0x563dc6ae1570</title><ellipse cx="136.466" cy="-90" fill="none" stroke="#000" rx="39.431" ry="18"/><text x="136.466" y="-85.8" fill="#000" font-family="Times,serif" font-size="14" text-anchor="middle">chunk2</text></g><g id="edge2" class="edge"><title>p0x563dc6ae1020-&gt;p0x563dc6ae1570</title><path fill="none" stroke="#000" d="M352.9836,-155.5584C315.872,-146.0218 244.8969,-127.1969 185.4656,-108 182.5415,-107.0555 179.5324,-106.0454 176.5122,-105.0037"/><polygon fill="#000" stroke="#000" points="177.513 -101.645 166.918 -101.61 175.179 -108.245 177.513 -101.645"/></g><g id="node4" class="node"><title>p0x563dc6ae1680</title><ellipse cx="233.466" cy="-90" fill="none" stroke="#000" rx="39.431" ry="18"/><text x="233.466" y="-85.8" fill="#000" font-family="Times,serif" font-size="14" text-anchor="middle">chunk3</text></g><g id="edge3" class="edge"><title>p0x563dc6ae1020-&gt;p0x563dc6ae1680</title><path fill="none" stroke="#000" d="M356.7576,-151.2209C333.7186,-139.7808 296.9276,-121.5122 269.5238,-107.9048"/><polygon fill="#000" stroke="#000" points="270.773 -104.618 260.26 -103.305 267.66 -110.887 270.773 -104.618"/></g><g id="node5" class="node"><title>p0x563dc6ae1790</title><ellipse cx="330.466" cy="-90" fill="none" stroke="#000" rx="39.431" ry="18"/><text x="330.466" y="-85.8" fill="#000" font-family="Times,serif" font-size="14" text-anchor="middle">chunk4</text></g><g id="edge4" class="edge"><title>p0x563dc6ae1020-&gt;p0x563dc6ae1790</title><path fill="none" stroke="#000" d="M367.3328,-145.3008C361.5654,-136.6496 354.3904,-125.8873 347.9071,-116.1623"/><polygon fill="#000" stroke="#000" points="350.667 -113.992 342.208 -107.613 344.843 -117.875 350.667 -113.992"/></g><g id="node6" class="node"><title>p0x563dc6ae18a0</title><ellipse cx="427.466" cy="-90" fill="none" stroke="#000" rx="39.431" ry="18"/><text x="427.466" y="-85.8" fill="#000" font-family="Times,serif" font-size="14" text-anchor="middle">chunk5</text></g><g id="edge5" class="edge"><title>p0x563dc6ae1020-&gt;p0x563dc6ae18a0</title><path fill="none" stroke="#000" d="M389.8303,-145.3008C395.7179,-136.6496 403.0423,-125.8873 409.6607,-116.1623"/><polygon fill="#000" stroke="#000" points="412.746 -117.85 415.479 -107.613 406.959 -113.911 412.746 -117.85"/></g><g id="node7" class="node"><title>p0x563dc6ae19b0</title><ellipse cx="524.466" cy="-90" fill="none" stroke="#000" rx="39.431" ry="18"/><text x="524.466" y="-85.8" fill="#000" font-family="Times,serif" font-size="14" text-anchor="middle">chunk6</text></g><g id="edge6" class="edge"><title>p0x563dc6ae1020-&gt;p0x563dc6ae19b0</title><path fill="none" stroke="#000" d="M400.3233,-151.2209C423.5211,-139.7808 460.5659,-121.5122 488.1587,-107.9048"/><polygon fill="#000" stroke="#000" points="490.065 -110.867 497.486 -103.305 486.969 -104.589 490.065 -110.867"/></g><g id="node8" class="node"><title>p0x563dc6ae1ac0</title><ellipse cx="621.466" cy="-90" fill="none" stroke="#000" rx="39.431" ry="18"/><text x="621.466" y="-85.8" fill="#000" font-family="Times,serif" font-size="14" text-anchor="middle">chunk7</text></g><g id="edge7" class="edge"><title>p0x563dc6ae1020-&gt;p0x563dc6ae1ac0</title><path fill="none" stroke="#000" d="M403.7712,-155.6517C440.9916,-146.1578 512.5694,-127.3028 572.4656,-108 575.3903,-107.0574 578.3998,-106.0488 581.4204,-105.0081"/><polygon fill="#000" stroke="#000" points="582.753 -108.249 591.015 -101.617 580.421 -101.649 582.753 -108.249"/></g><g id="node9" class="node"><title>p0x563dc6ae1bd0</title><ellipse cx="718.466" cy="-90" fill="none" stroke="#000" rx="39.431" ry="18"/><text x="718.466" y="-85.8" fill="#000" font-family="Times,serif" font-size="14" text-anchor="middle">chunk8</text></g><g id="edge8" class="edge"><title>p0x563dc6ae1020-&gt;p0x563dc6ae1bd0</title><path fill="none" stroke="#000" d="M405.2865,-158.5656C456.9978,-151.6061 573.8297,-134.2377 669.4656,-108 672.6119,-107.1368 675.8423,-106.1604 679.071,-105.1198"/><polygon fill="#000" stroke="#000" points="680.327 -108.389 688.666 -101.854 678.071 -101.763 680.327 -108.389"/></g><g id="node10" class="node"><title>p0x563dc6ae0f10</title><ellipse cx="378.466" cy="-18" fill="none" stroke="#000" rx="27" ry="18"/><text x="378.466" y="-13.8" fill="#000" font-family="Times,serif" font-size="14" text-anchor="middle">T</text></g><g id="edge9" class="edge"><title>p0x563dc6ae1460-&gt;p0x563dc6ae0f10</title><path fill="none" stroke="#000" d="M69.2663,-78.1492C75.5447,-75.9083 82.1735,-73.7283 88.4656,-72 178.005,-47.4051 286.1833,-30.5612 341.6823,-22.8265"/><polygon fill="#000" stroke="#000" points="342.307 -26.274 351.737 -21.445 341.354 -19.339 342.307 -26.274"/></g><g id="edge10" class="edge"><title>p0x563dc6ae1570-&gt;p0x563dc6ae0f10</title><path fill="none" stroke="#000" d="M166.9178,-78.3896C173.0297,-76.1793 179.4288,-73.95 185.4656,-72 240.0217,-54.3779 304.3053,-37.0692 343.1921,-26.9711"/><polygon fill="#000" stroke="#000" points="344.177 -30.332 352.984 -24.442 342.426 -23.554 344.177 -30.332"/></g><g id="edge11" class="edge"><title>p0x563dc6ae1680-&gt;p0x563dc6ae0f10</title><path fill="none" stroke="#000" d="M260.3992,-76.6261C285.0537,-64.3838 321.5309,-46.271 347.4057,-33.4228"/><polygon fill="#000" stroke="#000" points="349.017 -36.53 356.417 -28.948 345.904 -30.261 349.017 -36.53"/></g><g id="edge12" class="edge"><title>p0x563dc6ae1790-&gt;p0x563dc6ae0f10</title><path fill="none" stroke="#000" d="M342.085,-72.5708C347.948,-63.7763 355.1685,-52.9457 361.6271,-43.2577"/><polygon fill="#000" stroke="#000" points="364.649 -45.035 367.284 -34.773 358.824 -41.152 364.649 -45.035"/></g><g id="edge13" class="edge"><title>p0x563dc6ae18a0-&gt;p0x563dc6ae0f10</title><path fill="none" stroke="#000" d="M415.6041,-72.5708C409.6189,-63.7763 402.2481,-52.9457 395.6548,-43.2577"/><polygon fill="#000" stroke="#000" points="398.4 -41.071 389.88 -34.773 392.613 -45.009 398.4 -41.071"/></g><g id="edge14" class="edge"><title>p0x563dc6ae19b0-&gt;p0x563dc6ae0f10</title><path fill="none" stroke="#000" d="M497.3463,-76.6261C472.3748,-64.3114 435.3578,-46.0564 409.2783,-33.1953"/><polygon fill="#000" stroke="#000" points="410.724 -30.006 400.207 -28.722 407.628 -36.284 410.724 -30.006"/></g><g id="edge15" class="edge"><title>p0x563dc6ae1ac0-&gt;p0x563dc6ae0f10</title><path fill="none" stroke="#000" d="M591.0154,-78.3832C584.9034,-76.1735 578.5037,-73.9459 572.4656,-72 517.4827,-54.2806 452.6562,-36.9386 413.5991,-26.8687"/><polygon fill="#000" stroke="#000" points="414.327 -23.442 403.771 -24.348 412.588 -30.223 414.327 -23.442"/></g><g id="edge16" class="edge"><title>p0x563dc6ae1bd0-&gt;p0x563dc6ae0f10</title><path fill="none" stroke="#000" d="M688.6657,-78.1462C682.3873,-75.9055 675.7583,-73.7264 669.4656,-72 579.6201,-47.3509 471.0677,-30.5296 415.3764,-22.8127"/><polygon fill="#000" stroke="#000" points="415.668 -19.32 405.286 -21.434 414.721 -26.256 415.668 -19.32"/></g></g></svg>