<svg xmlns="http://www.w3.org/2000/svg" xmlns:xlink="http://www.w3.org/1999/xlink" width="410pt" height="229pt" viewBox="0 0 409.97 229"><g id="graph0" class="graph" transform="scale(1 1) rotate(0) translate(4 225)"><title>Taskflow</title><polygon fill="#fff" stroke="transparent" points="-4 4 -4 -225 405.973 -225 405.973 4 -4 4"/><g id="clust1" class="cluster"><title>cluster_p0x7ffeeca03810</title><polygon fill="none" stroke="#000" points="8 -8 8 -213 393.973 -213 393.973 -8 8 -8"/><text x="200.987" y="-196.4" fill="#000" font-family="Times,serif" font-size="14" text-anchor="middle">Taskflow</text></g><g id="clust2" class="cluster"><title>cluster_p0x7fbc40c02830</title><polygon fill="none" stroke="#00f" points="16 -16 16 -180 385.973 -180 385.973 -16 16 -16"/><text x="200.987" y="-163.4" fill="#000" font-family="Times,serif" font-size="14" text-anchor="middle">Subflow: A</text></g><g id="clust3" class="cluster"><title>cluster_p0x7fbc40d00240</title><polygon fill="none" stroke="#00f" points="24 -70 24 -147 295.973 -147 295.973 -70 24 -70"/><text x="159.987" y="-130.4" fill="#000" font-family="Times,serif" font-size="14" text-anchor="middle">Subflow: A2</text></g><g id="node1" class="node"><title>p0x7fbc40c02830</title><ellipse cx="350.973" cy="-96" fill="none" stroke="#000" rx="27" ry="18"/><text x="350.973" y="-91.8" fill="#000" font-family="Times,serif" font-size="14" text-anchor="middle">A</text></g><g id="node2" class="node"><title>p0x7fbc40d00120</title><ellipse cx="165.48" cy="-42" fill="none" stroke="#000" rx="27" ry="18"/><text x="165.48" y="-37.8" fill="#000" font-family="Times,serif" font-size="14" text-anchor="middle">A1</text></g><g id="node3" class="node"><title>p0x7fbc40d00240</title><ellipse cx="260.973" cy="-96" fill="none" stroke="#000" rx="27" ry="18"/><text x="260.973" y="-91.8" fill="#000" font-family="Times,serif" font-size="14" text-anchor="middle">A2</text></g><g id="edge1" class="edge"><title>p0x7fbc40d00120-&gt;p0x7fbc40d00240</title><path fill="none" stroke="#000" d="M186.2004,-53.7172C199.4649,-61.218 216.8786,-71.0652 231.5636,-79.3694"/><polygon fill="#000" stroke="#000" points="229.865 -82.43 240.293 -84.306 233.311 -76.337 229.865 -82.43"/></g><g id="edge2" class="edge"><title>p0x7fbc40d00240-&gt;p0x7fbc40c02830</title><path fill="none" stroke="#000" d="M287.9761,-96C296.0008,-96 304.9396,-96 313.5039,-96"/><polygon fill="#000" stroke="#000" points="313.678 -99.5 323.678 -96 313.678 -92.5 313.678 -99.5"/></g><g id="node4" class="node"><title>p0x7fbc40d00360</title><ellipse cx="64.493" cy="-96" fill="none" stroke="#000" rx="32.486" ry="18"/><text x="64.493" y="-91.8" fill="#000" font-family="Times,serif" font-size="14" text-anchor="middle">A2_1</text></g><g id="node5" class="node"><title>p0x7fbc40d00470</title><ellipse cx="165.48" cy="-96" fill="none" stroke="#000" rx="32.486" ry="18"/><text x="165.48" y="-91.8" fill="#000" font-family="Times,serif" font-size="14" text-anchor="middle">A2_2</text></g><g id="edge3" class="edge"><title>p0x7fbc40d00360-&gt;p0x7fbc40d00470</title><path fill="none" stroke="#000" d="M97.0019,-96C105.1184,-96 113.948,-96 122.4851,-96"/><polygon fill="#000" stroke="#000" points="122.686 -99.5 132.686 -96 122.686 -92.5 122.686 -99.5"/></g><g id="edge4" class="edge"><title>p0x7fbc40d00470-&gt;p0x7fbc40d00240</title><path fill="none" stroke="#000" d="M198.0761,-96C206.3732,-96 215.3512,-96 223.8553,-96"/><polygon fill="#000" stroke="#000" points="223.916 -99.5 233.916 -96 223.916 -92.5 223.916 -99.5"/></g></g></svg>