<svg xmlns="http://www.w3.org/2000/svg" xmlns:xlink="http://www.w3.org/1999/xlink" width="3271pt" height="289pt" viewBox="0 0 3270.74 289"><g id="graph0" class="graph" transform="scale(1 1) rotate(0) translate(4 285)"><title>Taskflow</title><polygon fill="#fff" stroke="transparent" points="-4 4 -4 -285 3266.745 -285 3266.745 4 -4 4"/><g id="node1" class="node"><title>[A33] bprop_tau2015_clk</title><ellipse cx="3151.139" cy="-167" fill="#000" stroke="#000" rx="111.712" ry="18"/><text x="3151.139" y="-162.8" fill="#fff" font-family="Times,serif" font-size="14" text-anchor="middle">[A33] bprop_tau2015_clk</text></g><g id="node2" class="node"><title>[A32] bprop_f1:CLK</title><ellipse cx="2909.63" cy="-167" fill="#000" stroke="#000" rx="93.808" ry="18"/><text x="2909.63" y="-162.8" fill="#fff" font-family="Times,serif" font-size="14" text-anchor="middle">[A32] bprop_f1:CLK</text></g><g id="edge1" class="edge"><title>[A32] bprop_f1:CLK-&gt;[A33] bprop_tau2015_clk</title><path fill="none" stroke="#000" d="M3003.6949,-167C3012.0721,-167 3020.6296,-167 3029.1951,-167"/><polygon fill="#000" stroke="#000" points="3029.244 -170.5 3039.244 -167 3029.244 -163.5 3029.244 -170.5"/></g><g id="node3" class="node"><title>[A31] bprop_f1:Q</title><ellipse cx="2696.548" cy="-126" fill="#000" stroke="#000" rx="81.628" ry="18"/><text x="2696.548" y="-121.8" fill="#fff" font-family="Times,serif" font-size="14" text-anchor="middle">[A31] bprop_f1:Q</text></g><g id="edge2" class="edge"><title>[A31] bprop_f1:Q-&gt;[A32] bprop_f1:CLK</title><path fill="none" stroke="#000" d="M2770.4756,-133.7641C2796.4644,-138.2898 2825.3185,-143.9515 2849.9835,-149.3917"/><polygon fill="#000" stroke="#000" points="2849.397 -152.847 2859.921 -151.624 2850.932 -146.017 2849.397 -152.847"/></g><g id="edge3" class="edge"><title>[A31] bprop_f1:Q-&gt;[A32] bprop_f1:CLK</title><path fill="none" stroke="#000" d="M2743.5734,-140.7581C2765.5373,-145.8454 2792.4699,-151.3541 2818.202,-156.0973"/><polygon fill="#000" stroke="#000" points="2817.907 -159.601 2828.371 -157.943 2819.157 -152.713 2817.907 -159.601"/></g><g id="node4" class="node"><title>[A30] bprop_u4:B</title><ellipse cx="2494.193" cy="-126" fill="#000" stroke="#000" rx="82.793" ry="18"/><text x="2494.193" y="-121.8" fill="#fff" font-family="Times,serif" font-size="14" text-anchor="middle">[A30] bprop_u4:B</text></g><g id="edge4" class="edge"><title>[A30] bprop_u4:B-&gt;[A31] bprop_f1:Q</title><path fill="none" stroke="#000" d="M2577.0821,-126C2586.1225,-126 2595.3645,-126 2604.5061,-126"/><polygon fill="#000" stroke="#000" points="2604.769 -129.5 2614.769 -126 2604.769 -122.5 2604.769 -129.5"/></g><g id="node5" class="node"><title>[A29] bprop_u2:A</title><ellipse cx="2494.193" cy="-18" fill="#000" stroke="#000" rx="83.356" ry="18"/><text x="2494.193" y="-13.8" fill="#fff" font-family="Times,serif" font-size="14" text-anchor="middle">[A29] bprop_u2:A</text></g><g id="edge5" class="edge"><title>[A29] bprop_u2:A-&gt;[A31] bprop_f1:Q</title><path fill="none" stroke="#000" d="M2551.7374,-31.0508C2560.8372,-34.6559 2569.7462,-39.2242 2577.3703,-45 2600.3619,-62.418 2590.3787,-81.582 2613.3703,-99 2618.453,-102.8506 2624.1068,-106.1644 2630.0075,-109.014"/><polygon fill="#000" stroke="#000" points="2628.871 -112.336 2639.437 -113.12 2631.666 -105.919 2628.871 -112.336"/></g><g id="node6" class="node"><title>[A28] bprop_u2:Y</title><ellipse cx="2291.837" cy="-18" fill="#000" stroke="#000" rx="83.356" ry="18"/><text x="2291.837" y="-13.8" fill="#fff" font-family="Times,serif" font-size="14" text-anchor="middle">[A28] bprop_u2:Y</text></g><g id="edge6" class="edge"><title>[A28] bprop_u2:Y-&gt;[A29] bprop_u2:A</title><path fill="none" stroke="#000" d="M2369.4942,-11.4148C2381.5976,-11.2424 2394.1764,-11.2052 2406.4844,-11.3035"/><polygon fill="#000" stroke="#000" points="2406.705 -14.806 2416.743 -11.418 2406.783 -7.806 2406.705 -14.806"/></g><g id="edge7" class="edge"><title>[A28] bprop_u2:Y-&gt;[A29] bprop_u2:A</title><path fill="none" stroke="#000" d="M2369.4942,-24.5852C2381.5976,-24.7576 2394.1764,-24.7948 2406.4844,-24.6965"/><polygon fill="#000" stroke="#000" points="2406.783 -28.194 2416.743 -24.582 2406.705 -21.194 2406.783 -28.194"/></g><g id="node7" class="node"><title>[A27] bprop_u3:A</title><ellipse cx="2089.481" cy="-18" fill="#000" stroke="#000" rx="83.356" ry="18"/><text x="2089.481" y="-13.8" fill="#fff" font-family="Times,serif" font-size="14" text-anchor="middle">[A27] bprop_u3:A</text></g><g id="edge8" class="edge"><title>[A27] bprop_u3:A-&gt;[A28] bprop_u2:Y</title><path fill="none" stroke="#000" d="M2172.6633,-18C2181.2034,-18 2189.9203,-18 2198.5599,-18"/><polygon fill="#000" stroke="#000" points="2198.651 -21.5 2208.651 -18 2198.651 -14.5 2198.651 -21.5"/></g><g id="node8" class="node"><title>[A26] bprop_u3:Y</title><ellipse cx="1887.126" cy="-18" fill="#000" stroke="#000" rx="83.356" ry="18"/><text x="1887.126" y="-13.8" fill="#fff" font-family="Times,serif" font-size="14" text-anchor="middle">[A26] bprop_u3:Y</text></g><g id="edge9" class="edge"><title>[A26] bprop_u3:Y-&gt;[A27] bprop_u3:A</title><path fill="none" stroke="#000" d="M1964.7832,-11.4148C1976.8866,-11.2424 1989.4654,-11.2052 2001.7734,-11.3035"/><polygon fill="#000" stroke="#000" points="2001.994 -14.806 2012.032 -11.418 2002.072 -7.806 2001.994 -14.806"/></g><g id="edge10" class="edge"><title>[A26] bprop_u3:Y-&gt;[A27] bprop_u3:A</title><path fill="none" stroke="#000" d="M1964.7832,-24.5852C1976.8866,-24.7576 1989.4654,-24.7948 2001.7734,-24.6965"/><polygon fill="#000" stroke="#000" points="2002.072 -28.194 2012.032 -24.582 2001.994 -21.194 2002.072 -28.194"/></g><g id="node9" class="node"><title>[A25] bprop_out</title><ellipse cx="1691.742" cy="-18" fill="#000" stroke="#000" rx="76.413" ry="18"/><text x="1691.742" y="-13.8" fill="#fff" font-family="Times,serif" font-size="14" text-anchor="middle">[A25] bprop_out</text></g><g id="edge11" class="edge"><title>[A25] bprop_out-&gt;[A26] bprop_u3:Y</title><path fill="none" stroke="#000" d="M1768.1219,-18C1776.5071,-18 1785.1125,-18 1793.6743,-18"/><polygon fill="#000" stroke="#000" points="1793.689 -21.5 1803.689 -18 1793.689 -14.5 1793.689 -21.5"/></g><g id="node10" class="node"><title>[A24] bprop_inp2</title><ellipse cx="3151.139" cy="-99" fill="#000" stroke="#000" rx="81.07" ry="18"/><text x="3151.139" y="-94.8" fill="#fff" font-family="Times,serif" font-size="14" text-anchor="middle">[A24] bprop_inp2</text></g><g id="node11" class="node"><title>[A23] bprop_u1:B</title><ellipse cx="2909.63" cy="-99" fill="#000" stroke="#000" rx="82.793" ry="18"/><text x="2909.63" y="-94.8" fill="#fff" font-family="Times,serif" font-size="14" text-anchor="middle">[A23] bprop_u1:B</text></g><g id="edge12" class="edge"><title>[A23] bprop_u1:B-&gt;[A24] bprop_inp2</title><path fill="none" stroke="#000" d="M2992.4055,-99C3014.0749,-99 3037.5609,-99 3059.6556,-99"/><polygon fill="#000" stroke="#000" points="3059.698 -102.5 3069.698 -99 3059.698 -95.5 3059.698 -102.5"/></g><g id="node12" class="node"><title>[A22] bprop_inp1</title><ellipse cx="3151.139" cy="-45" fill="#000" stroke="#000" rx="81.07" ry="18"/><text x="3151.139" y="-40.8" fill="#fff" font-family="Times,serif" font-size="14" text-anchor="middle">[A22] bprop_inp1</text></g><g id="node13" class="node"><title>[A21] bprop_u1:A</title><ellipse cx="2909.63" cy="-45" fill="#000" stroke="#000" rx="83.356" ry="18"/><text x="2909.63" y="-40.8" fill="#fff" font-family="Times,serif" font-size="14" text-anchor="middle">[A21] bprop_u1:A</text></g><g id="edge13" class="edge"><title>[A21] bprop_u1:A-&gt;[A22] bprop_inp1</title><path fill="none" stroke="#000" d="M2993.0815,-45C3014.5033,-45 3037.6617,-45 3059.4738,-45"/><polygon fill="#000" stroke="#000" points="3059.724 -48.5 3069.723 -45 3059.723 -41.5 3059.724 -48.5"/></g><g id="node14" class="node"><title>[A20] bprop_u1:Y</title><ellipse cx="2696.548" cy="-72" fill="#000" stroke="#000" rx="83.356" ry="18"/><text x="2696.548" y="-67.8" fill="#fff" font-family="Times,serif" font-size="14" text-anchor="middle">[A20] bprop_u1:Y</text></g><g id="edge15" class="edge"><title>[A20] bprop_u1:Y-&gt;[A23] bprop_u1:B</title><path fill="none" stroke="#000" d="M2778.017,-75.7421C2799.5228,-78.1723 2822.4735,-81.1714 2843.0872,-84.2602"/><polygon fill="#000" stroke="#000" points="2842.587 -87.724 2853.002 -85.782 2843.649 -80.805 2842.587 -87.724"/></g><g id="edge17" class="edge"><title>[A20] bprop_u1:Y-&gt;[A23] bprop_u1:B</title><path fill="none" stroke="#000" d="M2753.0905,-85.2051C2773.0843,-88.3505 2796.1163,-91.485 2818.2563,-94.1107"/><polygon fill="#000" stroke="#000" points="2818.016 -97.606 2828.352 -95.28 2818.821 -90.653 2818.016 -97.606"/></g><g id="edge14" class="edge"><title>[A20] bprop_u1:Y-&gt;[A21] bprop_u1:A</title><path fill="none" stroke="#000" d="M2753.0905,-58.7949C2772.9774,-55.6664 2795.8701,-52.5485 2817.901,-49.9314"/><polygon fill="#000" stroke="#000" points="2818.419 -53.395 2827.949 -48.766 2817.612 -46.442 2818.419 -53.395"/></g><g id="edge16" class="edge"><title>[A20] bprop_u1:Y-&gt;[A21] bprop_u1:A</title><path fill="none" stroke="#000" d="M2778.017,-68.2579C2799.5228,-65.8277 2822.4735,-62.8286 2843.0872,-59.7398"/><polygon fill="#000" stroke="#000" points="2843.649 -63.195 2853.002 -58.218 2842.587 -56.276 2843.649 -63.195"/></g><g id="node15" class="node"><title>[A19] bprop_u4:A</title><ellipse cx="2494.193" cy="-72" fill="#000" stroke="#000" rx="83.356" ry="18"/><text x="2494.193" y="-67.8" fill="#fff" font-family="Times,serif" font-size="14" text-anchor="middle">[A19] bprop_u4:A</text></g><g id="edge18" class="edge"><title>[A19] bprop_u4:A-&gt;[A20] bprop_u1:Y</title><path fill="none" stroke="#000" d="M2577.3742,-72C2585.9144,-72 2594.6313,-72 2603.2709,-72"/><polygon fill="#000" stroke="#000" points="2603.362 -75.5 2613.362 -72 2603.362 -68.5 2603.362 -75.5"/></g><g id="node16" class="node"><title>[A18] bprop_u4:Y</title><ellipse cx="2291.837" cy="-126" fill="#000" stroke="#000" rx="83.356" ry="18"/><text x="2291.837" y="-121.8" fill="#fff" font-family="Times,serif" font-size="14" text-anchor="middle">[A18] bprop_u4:Y</text></g><g id="edge20" class="edge"><title>[A18] bprop_u4:Y-&gt;[A30] bprop_u4:B</title><path fill="none" stroke="#000" d="M2369.4942,-119.4148C2381.6847,-119.2411 2394.3574,-119.2047 2406.75,-119.3056"/><polygon fill="#000" stroke="#000" points="2407.038 -122.809 2417.077 -119.423 2407.117 -115.809 2407.038 -122.809"/></g><g id="edge22" class="edge"><title>[A18] bprop_u4:Y-&gt;[A30] bprop_u4:B</title><path fill="none" stroke="#000" d="M2369.4942,-132.5852C2381.6847,-132.7589 2394.3574,-132.7953 2406.75,-132.6944"/><polygon fill="#000" stroke="#000" points="2407.117 -136.191 2417.077 -132.577 2407.038 -129.191 2407.117 -136.191"/></g><g id="edge19" class="edge"><title>[A18] bprop_u4:Y-&gt;[A19] bprop_u4:A</title><path fill="none" stroke="#000" d="M2331.3336,-109.9791C2356.1343,-102.1828 2388.9306,-93.073 2418.5892,-85.6207"/><polygon fill="#000" stroke="#000" points="2419.647 -88.965 2428.511 -83.161 2417.963 -82.17 2419.647 -88.965"/></g><g id="edge21" class="edge"><title>[A18] bprop_u4:Y-&gt;[A19] bprop_u4:A</title><path fill="none" stroke="#000" d="M2357.536,-114.8345C2386.0862,-107.8573 2418.9518,-98.9229 2445.2967,-90.9232"/><polygon fill="#000" stroke="#000" points="2446.531 -94.205 2455.052 -87.909 2444.464 -87.517 2446.531 -94.205"/></g><g id="node17" class="node"><title>[A17] bprop_f1:D</title><ellipse cx="2089.481" cy="-181" fill="#000" stroke="#000" rx="81.628" ry="18"/><text x="2089.481" y="-176.8" fill="#fff" font-family="Times,serif" font-size="14" text-anchor="middle">[A17] bprop_f1:D</text></g><g id="edge23" class="edge"><title>[A17] bprop_f1:D-&gt;[A32] bprop_f1:CLK</title><path fill="none" stroke="#000" d="M2167.3784,-175.5078C2316.0092,-169.6955 2640.0589,-163.998 2806.4736,-164.1003"/><polygon fill="#000" stroke="#000" points="2806.711 -167.601 2816.716 -164.114 2806.721 -160.601 2806.711 -167.601"/></g><g id="edge24" class="edge"><title>[A17] bprop_f1:D-&gt;[A32] bprop_f1:CLK</title><path fill="none" stroke="#000" d="M2170.365,-183.8467C2321.574,-184.5049 2646.5885,-179.0764 2810.6223,-173.276"/><polygon fill="#000" stroke="#000" points="2810.844 -176.77 2820.711 -172.911 2810.591 -169.775 2810.844 -176.77"/></g><g id="edge25" class="edge"><title>[A17] bprop_f1:D-&gt;[A18] bprop_u4:Y</title><path fill="none" stroke="#000" d="M2141.0679,-166.9789C2168.197,-159.6052 2201.6458,-150.5139 2230.1398,-142.7692"/><polygon fill="#000" stroke="#000" points="2231.262 -146.091 2239.993 -140.091 2229.425 -139.337 2231.262 -146.091"/></g><g id="node18" class="node"><title>[A16] fprop_f1:D</title><ellipse cx="1134.585" cy="-181" fill="none" stroke="#000" rx="79.901" ry="18"/><text x="1134.585" y="-176.8" fill="#000" font-family="Times,serif" font-size="14" text-anchor="middle">[A16] fprop_f1:D</text></g><g id="edge26" class="edge"><title>[A16] fprop_f1:D-&gt;[A17] bprop_f1:D</title><path fill="none" stroke="#000" d="M1214.7266,-181C1290.6901,-181 1407.9956,-181 1509.7712,-181 1509.7712,-181 1509.7712,-181 1691.7419,-181 1796.5347,-181 1916.8581,-181 1997.4721,-181"/><polygon fill="#000" stroke="#000" points="1997.593 -184.5 2007.593 -181 1997.593 -177.5 1997.593 -184.5"/></g><g id="node19" class="node"><title>[A15] fprop_u4:Y</title><ellipse cx="937.071" cy="-126" fill="none" stroke="#000" rx="81.628" ry="18"/><text x="937.071" y="-121.8" fill="#000" font-family="Times,serif" font-size="14" text-anchor="middle">[A15] fprop_u4:Y</text></g><g id="edge27" class="edge"><title>[A15] fprop_u4:Y-&gt;[A16] fprop_f1:D</title><path fill="none" stroke="#000" d="M987.9358,-140.1639C1014.3018,-147.5058 1046.6771,-156.521 1074.2952,-164.2116"/><polygon fill="#000" stroke="#000" points="1073.663 -167.668 1084.235 -166.979 1075.541 -160.925 1073.663 -167.668"/></g><g id="node20" class="node"><title>[A14] fprop_u4:A</title><ellipse cx="737.943" cy="-126" fill="none" stroke="#000" rx="81.628" ry="18"/><text x="737.943" y="-121.8" fill="#000" font-family="Times,serif" font-size="14" text-anchor="middle">[A14] fprop_u4:A</text></g><g id="edge28" class="edge"><title>[A14] fprop_u4:A-&gt;[A15] fprop_u4:Y</title><path fill="none" stroke="#000" d="M814.0769,-119.4189C826.0857,-119.2428 838.5765,-119.2044 850.7955,-119.3037"/><polygon fill="#000" stroke="#000" points="850.94 -122.805 860.979 -119.42 851.019 -115.806 850.94 -122.805"/></g><g id="edge29" class="edge"><title>[A14] fprop_u4:A-&gt;[A15] fprop_u4:Y</title><path fill="none" stroke="#000" d="M814.0769,-132.5811C826.0857,-132.7572 838.5765,-132.7956 850.7955,-132.6963"/><polygon fill="#000" stroke="#000" points="851.019 -136.194 860.979 -132.58 850.94 -129.195 851.019 -136.194"/></g><g id="node21" class="node"><title>[A13] fprop_u1:Y</title><ellipse cx="538.815" cy="-236" fill="none" stroke="#000" rx="81.628" ry="18"/><text x="538.815" y="-231.8" fill="#000" font-family="Times,serif" font-size="14" text-anchor="middle">[A13] fprop_u1:Y</text></g><g id="edge30" class="edge"><title>[A13] fprop_u1:Y-&gt;[A14] fprop_u4:A</title><path fill="none" stroke="#000" d="M569.492,-219.0536C604.089,-199.9419 660.4523,-168.8064 698.3458,-147.8737"/><polygon fill="#000" stroke="#000" points="700.496 -150.684 707.557 -142.785 697.112 -144.557 700.496 -150.684"/></g><g id="node22" class="node"><title>[A12] fprop_u1:A</title><ellipse cx="333.789" cy="-263" fill="none" stroke="#000" rx="81.628" ry="18"/><text x="333.789" y="-258.8" fill="#000" font-family="Times,serif" font-size="14" text-anchor="middle">[A12] fprop_u1:A</text></g><g id="edge31" class="edge"><title>[A12] fprop_u1:A-&gt;[A13] fprop_u1:Y</title><path fill="none" stroke="#000" d="M389.0018,-249.6631C407.4504,-246.6598 428.5166,-243.6727 448.9073,-241.1355"/><polygon fill="#000" stroke="#000" points="449.344 -244.608 458.849 -239.928 448.5 -237.659 449.344 -244.608"/></g><g id="edge32" class="edge"><title>[A12] fprop_u1:A-&gt;[A13] fprop_u1:Y</title><path fill="none" stroke="#000" d="M413.6443,-259.0851C433.4684,-256.7386 454.4824,-253.8835 473.516,-250.9373"/><polygon fill="#000" stroke="#000" points="474.24 -254.366 483.568 -249.342 473.143 -247.453 474.24 -254.366"/></g><g id="node23" class="node"><title>[A11] fprop_inp1</title><ellipse cx="105.164" cy="-263" fill="none" stroke="#000" rx="79.343" ry="18"/><text x="105.164" y="-258.8" fill="#000" font-family="Times,serif" font-size="14" text-anchor="middle">[A11] fprop_inp1</text></g><g id="edge33" class="edge"><title>[A11] fprop_inp1-&gt;[A12] fprop_u1:A</title><path fill="none" stroke="#000" d="M184.8048,-263C203.2658,-263 223.0594,-263 241.9946,-263"/><polygon fill="#000" stroke="#000" points="242.108 -266.5 252.108 -263 242.108 -259.5 242.108 -266.5"/></g><g id="node24" class="node"><title>[A10] fprop_u1:B</title><ellipse cx="333.789" cy="-209" fill="none" stroke="#000" rx="81.066" ry="18"/><text x="333.789" y="-204.8" fill="#000" font-family="Times,serif" font-size="14" text-anchor="middle">[A10] fprop_u1:B</text></g><g id="edge34" class="edge"><title>[A10] fprop_u1:B-&gt;[A13] fprop_u1:Y</title><path fill="none" stroke="#000" d="M413.0573,-212.8456C433.0204,-215.2012 454.2249,-218.078 473.4217,-221.0481"/><polygon fill="#000" stroke="#000" points="473.134 -224.546 483.559 -222.656 474.23 -217.633 473.134 -224.546"/></g><g id="edge35" class="edge"><title>[A10] fprop_u1:B-&gt;[A13] fprop_u1:Y</title><path fill="none" stroke="#000" d="M388.7321,-222.293C407.2843,-225.3175 428.5073,-228.3277 449.0381,-230.8807"/><polygon fill="#000" stroke="#000" points="448.698 -234.365 459.046 -232.095 449.541 -227.416 448.698 -234.365"/></g><g id="node25" class="node"><title>[A9] fprop_inp2</title><ellipse cx="105.164" cy="-209" fill="none" stroke="#000" rx="74.686" ry="18"/><text x="105.164" y="-204.8" fill="#000" font-family="Times,serif" font-size="14" text-anchor="middle">[A9] fprop_inp2</text></g><g id="edge36" class="edge"><title>[A9] fprop_inp2-&gt;[A10] fprop_u1:B</title><path fill="none" stroke="#000" d="M180.0242,-209C199.945,-209 221.6878,-209 242.3857,-209"/><polygon fill="#000" stroke="#000" points="242.45 -212.5 252.45 -209 242.45 -205.5 242.45 -212.5"/></g><g id="node26" class="node"><title>[A8] fprop_out</title><ellipse cx="1509.771" cy="-18" fill="none" stroke="#000" rx="69.529" ry="18"/><text x="1509.771" y="-13.8" fill="#000" font-family="Times,serif" font-size="14" text-anchor="middle">[A8] fprop_out</text></g><g id="edge37" class="edge"><title>[A8] fprop_out-&gt;[A25] bprop_out</title><path fill="none" stroke="#000" d="M1579.6054,-18C1588.034,-18 1596.7189,-18 1605.3485,-18"/><polygon fill="#000" stroke="#000" points="1605.435 -21.5 1615.435 -18 1605.435 -14.5 1605.435 -21.5"/></g><g id="node27" class="node"><title>[A7] fprop_u3:Y</title><ellipse cx="1327.271" cy="-18" fill="none" stroke="#000" rx="76.972" ry="18"/><text x="1327.271" y="-13.8" fill="#000" font-family="Times,serif" font-size="14" text-anchor="middle">[A7] fprop_u3:Y</text></g><g id="edge38" class="edge"><title>[A7] fprop_u3:Y-&gt;[A8] fprop_out</title><path fill="none" stroke="#000" d="M1404.1388,-18C1412.5879,-18 1421.2058,-18 1429.6928,-18"/><polygon fill="#000" stroke="#000" points="1429.96 -21.5 1439.96 -18 1429.96 -14.5 1429.96 -21.5"/></g><g id="node28" class="node"><title>[A6] fprop_u3:A</title><ellipse cx="1134.585" cy="-18" fill="none" stroke="#000" rx="76.972" ry="18"/><text x="1134.585" y="-13.8" fill="#000" font-family="Times,serif" font-size="14" text-anchor="middle">[A6] fprop_u3:A</text></g><g id="edge39" class="edge"><title>[A6] fprop_u3:A-&gt;[A7] fprop_u3:Y</title><path fill="none" stroke="#000" d="M1206.3345,-11.4494C1219.0833,-11.2385 1232.4478,-11.1949 1245.451,-11.3186"/><polygon fill="#000" stroke="#000" points="1245.738 -14.823 1255.783 -11.454 1245.83 -7.823 1245.738 -14.823"/></g><g id="edge40" class="edge"><title>[A6] fprop_u3:A-&gt;[A7] fprop_u3:Y</title><path fill="none" stroke="#000" d="M1206.3345,-24.5506C1219.0833,-24.7615 1232.4478,-24.8051 1245.451,-24.6814"/><polygon fill="#000" stroke="#000" points="1245.83 -28.177 1255.783 -24.546 1245.738 -21.177 1245.83 -28.177"/></g><g id="node29" class="node"><title>[A5] fprop_u2:Y</title><ellipse cx="937.071" cy="-18" fill="none" stroke="#000" rx="76.972" ry="18"/><text x="937.071" y="-13.8" fill="#000" font-family="Times,serif" font-size="14" text-anchor="middle">[A5] fprop_u2:Y</text></g><g id="edge41" class="edge"><title>[A5] fprop_u2:Y-&gt;[A6] fprop_u3:A</title><path fill="none" stroke="#000" d="M1014.0007,-18C1024.9476,-18 1036.2711,-18 1047.3961,-18"/><polygon fill="#000" stroke="#000" points="1047.541 -21.5 1057.541 -18 1047.541 -14.5 1047.541 -21.5"/></g><g id="node30" class="node"><title>[A4] fprop_u2:A</title><ellipse cx="737.943" cy="-18" fill="none" stroke="#000" rx="76.972" ry="18"/><text x="737.943" y="-13.8" fill="#000" font-family="Times,serif" font-size="14" text-anchor="middle">[A4] fprop_u2:A</text></g><g id="edge42" class="edge"><title>[A4] fprop_u2:A-&gt;[A5] fprop_u2:Y</title><path fill="none" stroke="#000" d="M809.5513,-11.4923C824.3181,-11.23 839.9777,-11.1807 855.0802,-11.3443"/><polygon fill="#000" stroke="#000" points="855.38 -14.849 865.429 -11.492 855.48 -7.85 855.38 -14.849"/></g><g id="edge43" class="edge"><title>[A4] fprop_u2:A-&gt;[A5] fprop_u2:Y</title><path fill="none" stroke="#000" d="M809.5513,-24.5077C824.3181,-24.77 839.9777,-24.8193 855.0802,-24.6557"/><polygon fill="#000" stroke="#000" points="855.48 -28.15 865.429 -24.508 855.38 -21.151 855.48 -28.15"/></g><g id="node31" class="node"><title>[A3] fprop_u4:B</title><ellipse cx="737.943" cy="-72" fill="none" stroke="#000" rx="76.409" ry="18"/><text x="737.943" y="-67.8" fill="#000" font-family="Times,serif" font-size="14" text-anchor="middle">[A3] fprop_u4:B</text></g><g id="edge44" class="edge"><title>[A3] fprop_u4:B-&gt;[A15] fprop_u4:Y</title><path fill="none" stroke="#000" d="M800.1291,-82.5557C828.6639,-89.5876 861.9903,-98.7654 888.6219,-106.9741"/><polygon fill="#000" stroke="#000" points="887.888 -110.412 898.477 -110.066 889.983 -103.733 887.888 -110.412"/></g><g id="edge45" class="edge"><title>[A3] fprop_u4:B-&gt;[A15] fprop_u4:Y</title><path fill="none" stroke="#000" d="M775.866,-87.7189C800.4003,-95.588 833.1675,-104.8468 862.7512,-112.3991"/><polygon fill="#000" stroke="#000" points="862.093 -115.843 872.645 -114.891 863.803 -109.055 862.093 -115.843"/></g><g id="node32" class="node"><title>[A2] fprop_f1:Q</title><ellipse cx="538.815" cy="-99" fill="none" stroke="#000" rx="75.244" ry="18"/><text x="538.815" y="-94.8" fill="#000" font-family="Times,serif" font-size="14" text-anchor="middle">[A2] fprop_f1:Q</text></g><g id="edge47" class="edge"><title>[A2] fprop_f1:Q-&gt;[A4] fprop_u2:A</title><path fill="none" stroke="#000" d="M571.5834,-82.7612C594.9349,-71.4833 627.2251,-56.4799 656.3787,-45 664.5466,-41.7837 673.2697,-38.6192 681.861,-35.6528"/><polygon fill="#000" stroke="#000" points="683.122 -38.921 691.468 -32.395 680.874 -32.292 683.122 -38.921"/></g><g id="edge46" class="edge"><title>[A2] fprop_f1:Q-&gt;[A3] fprop_u4:B</title><path fill="none" stroke="#000" d="M604.2924,-90.1218C622.645,-87.6333 642.7549,-84.9066 661.6755,-82.3412"/><polygon fill="#000" stroke="#000" points="662.306 -85.788 671.745 -80.976 661.365 -78.851 662.306 -85.788"/></g><g id="node33" class="node"><title>[A1] fprop_f1:CLK</title><ellipse cx="333.789" cy="-100" fill="none" stroke="#000" rx="87.423" ry="18"/><text x="333.789" y="-95.8" fill="#000" font-family="Times,serif" font-size="14" text-anchor="middle">[A1] fprop_f1:CLK</text></g><g id="edge50" class="edge"><title>[A1] fprop_f1:CLK-&gt;[A16] fprop_f1:D</title><path fill="none" stroke="#000" d="M411.3378,-108.407C426.5234,-111.3502 442.3574,-114.4256 457.2506,-117 668.9169,-153.5877 922.1132,-165.9524 1050.702,-173.2803"/><polygon fill="#000" stroke="#000" points="1050.687 -176.785 1060.872 -173.865 1051.089 -169.797 1050.687 -176.785"/></g><g id="edge51" class="edge"><title>[A1] fprop_f1:CLK-&gt;[A16] fprop_f1:D</title><path fill="none" stroke="#000" d="M371.2036,-116.3143C395.6141,-123.0598 428.2196,-129.9818 457.2506,-135 666.3701,-171.1474 916.0262,-183.6513 1046.0066,-184.7691"/><polygon fill="#000" stroke="#000" points="1046.278 -188.271 1056.3 -184.835 1046.323 -181.271 1046.278 -188.271"/></g><g id="edge48" class="edge"><title>[A1] fprop_f1:CLK-&gt;[A2] fprop_f1:Q</title><path fill="none" stroke="#000" d="M414.5262,-92.9934C428.7734,-92.7419 443.6089,-92.6686 457.862,-92.7793"/><polygon fill="#000" stroke="#000" points="458.083 -96.282 468.121 -92.892 458.16 -89.282 458.083 -96.282"/></g><g id="edge49" class="edge"><title>[A1] fprop_f1:CLK-&gt;[A2] fprop_f1:Q</title><path fill="none" stroke="#000" d="M415.9994,-106.23C430.1636,-106.329 444.8665,-106.2474 458.9671,-105.9906"/><polygon fill="#000" stroke="#000" points="459.189 -109.487 469.112 -105.773 459.039 -102.488 459.189 -109.487"/></g><g id="node34" class="node"><title>[A0] fprop_tau2015_clk</title><ellipse cx="105.164" cy="-100" fill="none" stroke="#000" rx="105.328" ry="18"/><text x="105.164" y="-95.8" fill="#000" font-family="Times,serif" font-size="14" text-anchor="middle">[A0] fprop_tau2015_clk</text></g><g id="edge52" class="edge"><title>[A0] fprop_tau2015_clk-&gt;[A1] fprop_f1:CLK</title><path fill="none" stroke="#000" d="M210.4424,-100C218.9408,-100 227.5062,-100 235.9491,-100"/><polygon fill="#000" stroke="#000" points="236.174 -103.5 246.174 -100 236.174 -96.5 236.174 -103.5"/></g></g></svg>