<svg xmlns="http://www.w3.org/2000/svg" xmlns:xlink="http://www.w3.org/1999/xlink" width="316pt" height="278pt" viewBox="0 0 316 277.6"><g id="graph0" class="graph" transform="scale(1 1) rotate(0) translate(4 273.6)"><title>Taskflow</title><polygon fill="#fff" stroke="transparent" points="-4 4 -4 -273.6 312 -273.6 312 4 -4 4"/><g id="clust1" class="cluster"><title>cluster_p0x7ffeecc59810</title><polygon fill="none" stroke="#000" points="8 -8 8 -261.6 300 -261.6 300 -8 8 -8"/><text x="154" y="-245" fill="#000" font-family="Times,serif" font-size="14" text-anchor="middle">Taskflow</text></g><g id="clust2" class="cluster"><title>cluster_p0x7fdc0dc02b60</title><polygon fill="none" stroke="#00f" points="150 -80 150 -228.8 292 -228.8 292 -80 150 -80"/><text x="221" y="-212.2" fill="#000" font-family="Times,serif" font-size="14" text-anchor="middle">Subflow: B</text></g><g id="node1" class="node"><title>p0x7fdc0dc02830</title><ellipse cx="78" cy="-178" fill="none" stroke="#000" rx="27" ry="18"/><text x="78" y="-173.8" fill="#000" font-family="Times,serif" font-size="14" text-anchor="middle">A</text></g><g id="node2" class="node"><title>p0x7fdc0dc02b60</title><ellipse cx="43" cy="-106" fill="none" stroke="#000" rx="27" ry="18"/><text x="43" y="-101.8" fill="#000" font-family="Times,serif" font-size="14" text-anchor="middle">B</text></g><g id="edge1" class="edge"><title>p0x7fdc0dc02830-&gt;p0x7fdc0dc02b60</title><path fill="none" stroke="#000" d="M69.5275,-160.5708C65.4003,-152.0807 60.3507,-141.6929 55.7689,-132.2674"/><polygon fill="#000" stroke="#000" points="58.914 -130.732 51.395 -123.269 52.619 -133.793 58.914 -130.732"/></g><g id="node3" class="node"><title>p0x7fdc0dc02940</title><ellipse cx="115" cy="-106" fill="none" stroke="#000" rx="27" ry="18"/><text x="115" y="-101.8" fill="#000" font-family="Times,serif" font-size="14" text-anchor="middle">C</text></g><g id="edge2" class="edge"><title>p0x7fdc0dc02830-&gt;p0x7fdc0dc02940</title><path fill="none" stroke="#000" d="M86.7685,-160.937C91.1279,-152.4537 96.4953,-142.0092 101.3753,-132.513"/><polygon fill="#000" stroke="#000" points="104.58 -133.935 106.037 -123.441 98.354 -130.735 104.58 -133.935"/></g><g id="node4" class="node"><title>p0x7fdc0dc02a50</title><ellipse cx="79" cy="-34" fill="none" stroke="#000" rx="27" ry="18"/><text x="79" y="-29.8" fill="#000" font-family="Times,serif" font-size="14" text-anchor="middle">D</text></g><g id="edge4" class="edge"><title>p0x7fdc0dc02b60-&gt;p0x7fdc0dc02a50</title><path fill="none" stroke="#000" d="M51.7146,-88.5708C55.9597,-80.0807 61.1536,-69.6929 65.8663,-60.2674"/><polygon fill="#000" stroke="#000" points="69.024 -61.778 70.366 -51.269 62.763 -58.648 69.024 -61.778"/></g><g id="edge3" class="edge"><title>p0x7fdc0dc02940-&gt;p0x7fdc0dc02a50</title><path fill="none" stroke="#000" d="M106.2854,-88.5708C102.0403,-80.0807 96.8464,-69.6929 92.1337,-60.2674"/><polygon fill="#000" stroke="#000" points="95.237 -58.648 87.634 -51.269 88.976 -61.778 95.237 -58.648"/></g><g id="node5" class="node"><title>p0x7fdc0de00120</title><ellipse cx="257" cy="-178" fill="none" stroke="#000" rx="27" ry="18"/><text x="257" y="-173.8" fill="#000" font-family="Times,serif" font-size="14" text-anchor="middle">B1</text></g><g id="node6" class="node"><title>p0x7fdc0de00360</title><ellipse cx="222" cy="-106" fill="none" stroke="#000" rx="27" ry="18"/><text x="222" y="-101.8" fill="#000" font-family="Times,serif" font-size="14" text-anchor="middle">B3</text></g><g id="edge5" class="edge"><title>p0x7fdc0de00120-&gt;p0x7fdc0de00360</title><path fill="none" stroke="#000" d="M248.5275,-160.5708C244.4003,-152.0807 239.3507,-141.6929 234.7689,-132.2674"/><polygon fill="#000" stroke="#000" points="237.914 -130.732 230.394 -123.269 231.619 -133.793 237.914 -130.732"/></g><g id="node7" class="node"><title>p0x7fdc0de00240</title><ellipse cx="185" cy="-178" fill="none" stroke="#000" rx="27" ry="18"/><text x="185" y="-173.8" fill="#000" font-family="Times,serif" font-size="14" text-anchor="middle">B2</text></g><g id="edge6" class="edge"><title>p0x7fdc0de00240-&gt;p0x7fdc0de00360</title><path fill="none" stroke="#000" d="M193.7685,-160.937C198.1279,-152.4537 203.4953,-142.0092 208.3753,-132.513"/><polygon fill="#000" stroke="#000" points="211.58 -133.935 213.037 -123.441 205.354 -130.735 211.58 -133.935"/></g></g></svg>