<svg xmlns="http://www.w3.org/2000/svg" xmlns:xlink="http://www.w3.org/1999/xlink" width="524" height="192" viewBox="0 0 393.08 144"><g id="graph0" class="graph" transform="scale(1 1) rotate(0) translate(4 140)"><title>Taskflow</title><polygon fill="#fff" stroke="transparent" points="-4 4 -4 -140 389.082 -140 389.082 4 -4 4"/><g id="node1" class="node"><title>Task1</title><ellipse cx="34.635" cy="-64" fill="none" stroke="#000" rx="34.771" ry="18"/><text x="34.635" y="-59.8" fill="#000" font-family="Times,serif" font-size="14" text-anchor="middle">Task1</text></g><g id="node2" class="node"><title>Task2</title><ellipse cx="139.906" cy="-118" fill="none" stroke="#000" rx="34.771" ry="18"/><text x="139.906" y="-113.8" fill="#000" font-family="Times,serif" font-size="14" text-anchor="middle">Task2</text></g><g id="edge1" class="edge"><title>Task1-&gt;Task2</title><path fill="none" stroke="#000" d="M59.3164,-76.6606C73.2064,-83.7857 90.7551,-92.7876 105.928,-100.5707"/><polygon fill="#000" stroke="#000" points="104.519 -103.782 115.014 -105.232 107.714 -97.553 104.519 -103.782"/></g><g id="node3" class="node"><title>Task3</title><ellipse cx="139.906" cy="-64" fill="none" stroke="#000" rx="34.771" ry="18"/><text x="139.906" y="-59.8" fill="#000" font-family="Times,serif" font-size="14" text-anchor="middle">Task3</text></g><g id="edge2" class="edge"><title>Task1-&gt;Task3</title><path fill="none" stroke="#000" d="M69.3964,-64C77.5712,-64 86.3987,-64 94.9498,-64"/><polygon fill="#000" stroke="#000" points="95.181 -67.5 105.181 -64 95.181 -60.5 95.181 -67.5"/></g><g id="node4" class="node"><title>Task4</title><ellipse cx="245.176" cy="-18" fill="none" stroke="#000" rx="34.771" ry="18"/><text x="245.176" y="-13.8" fill="#000" font-family="Times,serif" font-size="14" text-anchor="middle">Task4</text></g><g id="edge3" class="edge"><title>Task1-&gt;Task4</title><path fill="none" stroke="#000" d="M60.9982,-52.2629C74.0806,-46.8693 90.2606,-40.8333 105.2704,-37 136.6489,-28.9863 172.9035,-24.1835 200.6432,-21.4119"/><polygon fill="#000" stroke="#000" points="201.205 -24.874 210.83 -20.447 200.544 -17.906 201.205 -24.874"/></g><g id="node5" class="node"><title>Task5</title><ellipse cx="245.176" cy="-72" fill="none" stroke="#000" rx="34.771" ry="18"/><text x="245.176" y="-67.8" fill="#000" font-family="Times,serif" font-size="14" text-anchor="middle">Task5</text></g><g id="edge4" class="edge"><title>Task2-&gt;Task5</title><path fill="none" stroke="#000" d="M166.4697,-106.3923C179.4357,-100.7265 195.2256,-93.8268 209.2497,-87.6987"/><polygon fill="#000" stroke="#000" points="210.858 -90.815 218.62 -83.604 208.055 -84.401 210.858 -90.815"/></g><g id="edge5" class="edge"><title>Task3-&gt;Task5</title><path fill="none" stroke="#000" d="M174.375,-66.6195C182.7362,-67.2549 191.7944,-67.9433 200.5498,-68.6087"/><polygon fill="#000" stroke="#000" points="200.393 -72.107 210.629 -69.375 200.923 -65.127 200.393 -72.107"/></g><g id="node6" class="node"><title>Task6</title><ellipse cx="350.446" cy="-45" fill="none" stroke="#000" rx="34.771" ry="18"/><text x="350.446" y="-40.8" fill="#000" font-family="Times,serif" font-size="14" text-anchor="middle">Task6</text></g><g id="edge6" class="edge"><title>Task4-&gt;Task6</title><path fill="none" stroke="#000" d="M276.4755,-26.0278C286.7768,-28.6699 298.3905,-31.6486 309.3101,-34.4493"/><polygon fill="#000" stroke="#000" points="308.529 -37.862 319.086 -36.956 310.269 -31.082 308.529 -37.862"/></g><g id="edge7" class="edge"><title>Task5-&gt;Task6</title><path fill="none" stroke="#000" d="M276.4755,-63.9722C286.7768,-61.3301 298.3905,-58.3514 309.3101,-55.5507"/><polygon fill="#000" stroke="#000" points="310.269 -58.918 319.086 -53.044 308.529 -52.138 310.269 -58.918"/></g></g></svg>