<svg xmlns="http://www.w3.org/2000/svg" xmlns:xlink="http://www.w3.org/1999/xlink" width="638pt" height="392" viewBox="0 0 637.72 294"><g id="graph0" class="graph" transform="scale(1 1) rotate(0) translate(4 290)"><title>Taskflow</title><polygon fill="#fff" stroke="transparent" points="-4 4 -4 -290 633.72 -290 633.72 4 -4 4"/><g id="clust1" class="cluster"><title>cluster_p0x7ffee9223970</title><polygon fill="none" stroke="#000" points="8 -8 8 -139 621.72 -139 621.72 -8 8 -8"/><text x="314.86" y="-122.4" fill="#000" font-family="Times,serif" font-size="14" text-anchor="middle">Taskflow: F2</text></g><g id="clust2" class="cluster"><title>cluster_p0x7ffee92238d0</title><polygon fill="none" stroke="#000" points="8 -147 8 -278 168 -278 168 -147 8 -147"/><text x="88" y="-261.4" fill="#000" font-family="Times,serif" font-size="14" text-anchor="middle">Taskflow: F1</text></g><g id="node1" class="node"><title>p0x7f816f402b60</title><ellipse cx="43" cy="-88" fill="none" stroke="#000" rx="27" ry="18"/><text x="43" y="-83.8" fill="#000" font-family="Times,serif" font-size="14" text-anchor="middle">f2A</text></g><g id="node2" class="node"><title>p0x7f816f402d80</title><ellipse cx="133" cy="-61" fill="none" stroke="#000" rx="27" ry="18"/><text x="133" y="-56.8" fill="#000" font-family="Times,serif" font-size="14" text-anchor="middle">f2C</text></g><g id="edge1" class="edge"><title>p0x7f816f402b60-&gt;p0x7f816f402d80</title><path fill="none" stroke="#000" d="M68.07,-80.479C77.5102,-77.6469 88.4169,-74.3749 98.564,-71.3308"/><polygon fill="#000" stroke="#000" points="99.803 -74.613 108.376 -68.387 97.791 -67.909 99.803 -74.613"/></g><g id="node4" class="node"><title>p0x7f816f402fa0</title><polygon fill="none" stroke="#00f" points="341.79 -79 200.07 -79 196.07 -75 196.07 -43 337.79 -43 341.79 -47 341.79 -79"/><polyline fill="none" stroke="#00f" points="337.79 -75 196.07 -75"/><polyline fill="none" stroke="#00f" points="337.79 -75 337.79 -43"/><polyline fill="none" stroke="#00f" points="337.79 -75 341.79 -79"/><text x="268.93" y="-56.8" fill="#000" font-family="Times,serif" font-size="14" text-anchor="middle">module [Taskflow: F1]</text></g><g id="edge3" class="edge"><title>p0x7f816f402d80-&gt;p0x7f816f402fa0</title><path fill="none" stroke="#000" d="M160.1807,-61C167.8618,-61 176.6457,-61 185.8173,-61"/><polygon fill="#000" stroke="#000" points="185.888 -64.5 195.888 -61 185.888 -57.5 185.888 -64.5"/></g><g id="node3" class="node"><title>p0x7f816f402c70</title><ellipse cx="43" cy="-34" fill="none" stroke="#000" rx="27" ry="18"/><text x="43" y="-29.8" fill="#000" font-family="Times,serif" font-size="14" text-anchor="middle">f2B</text></g><g id="edge2" class="edge"><title>p0x7f816f402c70-&gt;p0x7f816f402d80</title><path fill="none" stroke="#000" d="M68.07,-41.521C77.5102,-44.3531 88.4169,-47.6251 98.564,-50.6692"/><polygon fill="#000" stroke="#000" points="97.791 -54.092 108.376 -53.613 99.803 -47.387 97.791 -54.092"/></g><g id="node6" class="node"><title>p0x7f816f402fa1</title><polygon fill="none" stroke="#00f" points="523.65 -79 381.93 -79 377.93 -75 377.93 -43 519.65 -43 523.65 -47 523.65 -79"/><polyline fill="none" stroke="#00f" points="519.65 -75 377.93 -75"/><polyline fill="none" stroke="#00f" points="519.65 -75 519.65 -43"/><polyline fill="none" stroke="#00f" points="519.65 -75 523.65 -79"/><text x="450.79" y="-56.8" fill="#000" font-family="Times,serif" font-size="14" text-anchor="middle">module [Taskflow: F1]</text></g><g id="edge5" class="edge"><title>p0x7f816f402fa0-&gt;p0x7f816f402fa1</title><path fill="none" stroke="#000" d="M341.8514,-61C350.3744,-61 359.1174,-61 367.7642,-61"/><polygon fill="#000" stroke="#000" points="367.852 -64.5 377.852 -61 367.852 -57.5 367.852 -64.5"/></g><g id="node5" class="node"><title>p0x7f816f402e90</title><ellipse cx="586.72" cy="-61" fill="none" stroke="#000" rx="27" ry="18"/><text x="586.72" y="-56.8" fill="#000" font-family="Times,serif" font-size="14" text-anchor="middle">f2D</text></g><g id="edge4" class="edge"><title>p0x7f816f402fa1-&gt;p0x7f816f402e90</title><path fill="none" stroke="#000" d="M523.9272,-61C532.7532,-61 541.4621,-61 549.4541,-61"/><polygon fill="#000" stroke="#000" points="549.497 -64.5 559.497 -61 549.497 -57.5 549.497 -64.5"/></g><g id="node7" class="node"><title>p0x7f816f402830</title><ellipse cx="43" cy="-227" fill="none" stroke="#000" rx="27" ry="18"/><text x="43" y="-222.8" fill="#000" font-family="Times,serif" font-size="14" text-anchor="middle">f1A</text></g><g id="node8" class="node"><title>p0x7f816f402a50</title><ellipse cx="133" cy="-200" fill="none" stroke="#000" rx="27" ry="18"/><text x="133" y="-195.8" fill="#000" font-family="Times,serif" font-size="14" text-anchor="middle">f1C</text></g><g id="edge6" class="edge"><title>p0x7f816f402830-&gt;p0x7f816f402a50</title><path fill="none" stroke="#000" d="M68.07,-219.479C77.5102,-216.6469 88.4169,-213.3749 98.564,-210.3308"/><polygon fill="#000" stroke="#000" points="99.803 -213.613 108.376 -207.387 97.791 -206.909 99.803 -213.613"/></g><g id="node9" class="node"><title>p0x7f816f402940</title><ellipse cx="43" cy="-173" fill="none" stroke="#000" rx="27" ry="18"/><text x="43" y="-168.8" fill="#000" font-family="Times,serif" font-size="14" text-anchor="middle">f1B</text></g><g id="edge7" class="edge"><title>p0x7f816f402940-&gt;p0x7f816f402a50</title><path fill="none" stroke="#000" d="M68.07,-180.521C77.5102,-183.3531 88.4169,-186.6251 98.564,-189.6692"/><polygon fill="#000" stroke="#000" points="97.791 -193.091 108.376 -192.613 99.803 -186.387 97.791 -193.091"/></g></g></svg>