<svg xmlns="http://www.w3.org/2000/svg" xmlns:xlink="http://www.w3.org/1999/xlink" width="448" height="317pt" viewBox="0 0 336 316.8"><g id="graph0" class="graph" transform="scale(1 1) rotate(0) translate(4 312.8)"><title>Taskflow</title><polygon fill="#fff" stroke="transparent" points="-4 4 -4 -312.8 332 -312.8 332 4 -4 4"/><g id="clust1" class="cluster"><title>cluster_p0x7ffee9223970</title><polygon fill="none" stroke="#000" points="8 -8 8 -300.8 170 -300.8 170 -8 8 -8"/><text x="89" y="-284.2" fill="#000" font-family="Times,serif" font-size="14" text-anchor="middle">Taskflow: F2</text></g><g id="clust2" class="cluster"><title>cluster_p0x7ffee92238d0</title><polygon fill="none" stroke="#000" points="178 -152 178 -300.8 320 -300.8 320 -152 178 -152"/><text x="249" y="-284.2" fill="#000" font-family="Times,serif" font-size="14" text-anchor="middle">Taskflow: F1</text></g><g id="node1" class="node"><title>p0x7f816f402b60</title><ellipse cx="125" cy="-250" fill="none" stroke="#000" rx="27" ry="18"/><text x="125" y="-245.8" fill="#000" font-family="Times,serif" font-size="14" text-anchor="middle">f2A</text></g><g id="node2" class="node"><title>p0x7f816f402d80</title><ellipse cx="89" cy="-178" fill="none" stroke="#000" rx="27" ry="18"/><text x="89" y="-173.8" fill="#000" font-family="Times,serif" font-size="14" text-anchor="middle">f2C</text></g><g id="edge1" class="edge"><title>p0x7f816f402b60-&gt;p0x7f816f402d80</title><path fill="none" stroke="#000" d="M116.2854,-232.5708C112.0403,-224.0807 106.8464,-213.6929 102.1337,-204.2674"/><polygon fill="#000" stroke="#000" points="105.237 -202.648 97.634 -195.269 98.976 -205.778 105.237 -202.648"/></g><g id="node4" class="node"><title>p0x7f816f402fa0</title><polygon fill="none" stroke="#00f" points="161.86 -124 20.14 -124 16.14 -120 16.14 -88 157.86 -88 161.86 -92 161.86 -124"/><polyline fill="none" stroke="#00f" points="157.86 -120 16.14 -120"/><polyline fill="none" stroke="#00f" points="157.86 -120 157.86 -88"/><polyline fill="none" stroke="#00f" points="157.86 -120 161.86 -124"/><text x="89" y="-101.8" fill="#000" font-family="Times,serif" font-size="14" text-anchor="middle">module [Taskflow: F1]</text></g><g id="edge3" class="edge"><title>p0x7f816f402d80-&gt;p0x7f816f402fa0</title><path fill="none" stroke="#000" d="M89,-159.8314C89,-152.131 89,-142.9743 89,-134.4166"/><polygon fill="#000" stroke="#000" points="92.5 -134.413 89 -124.413 85.5 -134.413 92.5 -134.413"/></g><g id="node3" class="node"><title>p0x7f816f402c70</title><ellipse cx="53" cy="-250" fill="none" stroke="#000" rx="27" ry="18"/><text x="53" y="-245.8" fill="#000" font-family="Times,serif" font-size="14" text-anchor="middle">f2B</text></g><g id="edge2" class="edge"><title>p0x7f816f402c70-&gt;p0x7f816f402d80</title><path fill="none" stroke="#000" d="M61.7146,-232.5708C65.9597,-224.0807 71.1536,-213.6929 75.8663,-204.2674"/><polygon fill="#000" stroke="#000" points="79.024 -205.778 80.366 -195.269 72.763 -202.648 79.024 -205.778"/></g><g id="node5" class="node"><title>p0x7f816f402e90</title><ellipse cx="89" cy="-34" fill="none" stroke="#000" rx="27" ry="18"/><text x="89" y="-29.8" fill="#000" font-family="Times,serif" font-size="14" text-anchor="middle">f2D</text></g><g id="edge4" class="edge"><title>p0x7f816f402fa0-&gt;p0x7f816f402e90</title><path fill="none" stroke="#000" d="M89,-87.8314C89,-80.131 89,-70.9743 89,-62.4166"/><polygon fill="#000" stroke="#000" points="92.5 -62.413 89 -52.413 85.5 -62.413 92.5 -62.413"/></g><g id="node6" class="node"><title>p0x7f816f402830</title><ellipse cx="285" cy="-250" fill="none" stroke="#000" rx="27" ry="18"/><text x="285" y="-245.8" fill="#000" font-family="Times,serif" font-size="14" text-anchor="middle">f1A</text></g><g id="node7" class="node"><title>p0x7f816f402a50</title><ellipse cx="249" cy="-178" fill="none" stroke="#000" rx="27" ry="18"/><text x="249" y="-173.8" fill="#000" font-family="Times,serif" font-size="14" text-anchor="middle">f1C</text></g><g id="edge5" class="edge"><title>p0x7f816f402830-&gt;p0x7f816f402a50</title><path fill="none" stroke="#000" d="M276.2854,-232.5708C272.0403,-224.0807 266.8464,-213.6929 262.1337,-204.2674"/><polygon fill="#000" stroke="#000" points="265.237 -202.648 257.634 -195.269 258.976 -205.778 265.237 -202.648"/></g><g id="node8" class="node"><title>p0x7f816f402940</title><ellipse cx="213" cy="-250" fill="none" stroke="#000" rx="27" ry="18"/><text x="213" y="-245.8" fill="#000" font-family="Times,serif" font-size="14" text-anchor="middle">f1B</text></g><g id="edge6" class="edge"><title>p0x7f816f402940-&gt;p0x7f816f402a50</title><path fill="none" stroke="#000" d="M221.7146,-232.5708C225.9597,-224.0807 231.1536,-213.6929 235.8663,-204.2674"/><polygon fill="#000" stroke="#000" points="239.024 -205.778 240.366 -195.269 232.763 -202.648 239.024 -205.778"/></g></g></svg>