<svg xmlns="http://www.w3.org/2000/svg" xmlns:xlink="http://www.w3.org/1999/xlink" width="890pt" height="194pt" viewBox="0 0 889.88 194"><g id="graph0" class="graph" transform="scale(1 1) rotate(0) translate(4 190)"><title>Taskflow</title><polygon fill="#fff" stroke="transparent" points="-4 4 -4 -190 885.877 -190 885.877 4 -4 4"/><g id="node1" class="node"><title>p0x7fecbdc02830</title><ellipse cx="27" cy="-96" fill="none" stroke="#000" rx="27" ry="18"/><text x="27" y="-91.8" fill="#000" font-family="Times,serif" font-size="14" text-anchor="middle">A</text></g><g id="node2" class="node"><title>p0x7fecbdc02940</title><ellipse cx="118" cy="-124" fill="none" stroke="#000" rx="27" ry="18"/><text x="118" y="-119.8" fill="#000" font-family="Times,serif" font-size="14" text-anchor="middle">B</text></g><g id="edge1" class="edge"><title>p0x7fecbdc02830-&gt;p0x7fecbdc02940</title><path fill="none" stroke="#000" d="M51.8661,-103.6511C61.6764,-106.6697 73.1102,-110.1878 83.6848,-113.4415"/><polygon fill="#000" stroke="#000" points="82.892 -116.859 93.479 -116.455 84.951 -110.169 82.892 -116.859"/></g><g id="node3" class="node"><title>p0x7fecbdc02d80</title><ellipse cx="118" cy="-70" fill="none" stroke="#000" rx="27" ry="18"/><text x="118" y="-65.8" fill="#000" font-family="Times,serif" font-size="14" text-anchor="middle">F</text></g><g id="edge2" class="edge"><title>p0x7fecbdc02830-&gt;p0x7fecbdc02d80</title><path fill="none" stroke="#000" d="M51.8661,-88.8954C61.5966,-86.1152 72.9244,-82.8787 83.4267,-79.8781"/><polygon fill="#000" stroke="#000" points="84.51 -83.209 93.164 -77.096 82.587 -76.478 84.51 -83.209"/></g><g id="node4" class="node"><title>p0x7fecbdc02a50</title><ellipse cx="237.813" cy="-168" fill="none" stroke="#000" rx="27" ry="18"/><text x="237.813" y="-163.8" fill="#000" font-family="Times,serif" font-size="14" text-anchor="middle">C</text></g><g id="edge3" class="edge"><title>p0x7fecbdc02940-&gt;p0x7fecbdc02a50</title><path fill="none" stroke="#000" d="M141.6711,-132.693C159.5234,-139.2491 184.2526,-148.3306 204.16,-155.6414"/><polygon fill="#000" stroke="#000" points="203.187 -159.013 213.781 -159.174 205.6 -152.442 203.187 -159.013"/></g><g id="node9" class="node"><title>p0x7fecbdc03600</title><polygon fill="#7fffd4" stroke="#000" points="237.813 -88 182.187 -70 237.813 -52 293.439 -70 237.813 -88"/><text x="237.813" y="-65.8" fill="#000" font-family="Times,serif" font-size="14" text-anchor="middle">cond_2</text></g><g id="edge7" class="edge"><title>p0x7fecbdc02d80-&gt;p0x7fecbdc03600</title><path fill="none" stroke="#000" d="M145.1874,-70C153.1985,-70 162.3356,-70 171.677,-70"/><polygon fill="#000" stroke="#000" points="171.85 -73.5 181.85 -70 171.85 -66.5 171.85 -73.5"/></g><g id="node5" class="node"><title>p0x7fecbdc02b60</title><ellipse cx="363.625" cy="-168" fill="none" stroke="#000" rx="27" ry="18"/><text x="363.625" y="-163.8" fill="#000" font-family="Times,serif" font-size="14" text-anchor="middle">D</text></g><g id="edge4" class="edge"><title>p0x7fecbdc02a50-&gt;p0x7fecbdc02b60</title><path fill="none" stroke="#000" d="M265.1123,-168C283.0004,-168 306.6161,-168 326.2412,-168"/><polygon fill="#000" stroke="#000" points="326.379 -171.5 336.379 -168 326.379 -164.5 326.379 -171.5"/></g><g id="node6" class="node"><title>p0x7fecbdc034f0</title><polygon fill="#7fffd4" stroke="#000" points="483.438 -157 427.812 -139 483.438 -121 539.064 -139 483.438 -157"/><text x="483.438" y="-134.8" fill="#000" font-family="Times,serif" font-size="14" text-anchor="middle">cond_1</text></g><g id="edge5" class="edge"><title>p0x7fecbdc02b60-&gt;p0x7fecbdc034f0</title><path fill="none" stroke="#000" d="M389.0347,-161.8498C404.1941,-158.1806 423.8241,-153.4293 441.2544,-149.2104"/><polygon fill="#000" stroke="#000" points="442.317 -152.554 451.212 -146.8 440.67 -145.751 442.317 -152.554"/></g><g id="edge11" class="edge"><title>p0x7fecbdc034f0-&gt;p0x7fecbdc02940</title><path fill="none" stroke="#000" stroke-dasharray="5 2" d="M433.9354,-136.9681C359.8942,-133.9289 221.9304,-128.266 155.5636,-125.5419"/><polygon fill="#000" stroke="#000" points="155.304 -122.028 145.169 -125.115 155.017 -129.023 155.304 -122.028"/><text x="315.125" y="-136.2" fill="#000" font-family="Times,serif" font-size="14" text-anchor="middle">0</text></g><g id="node7" class="node"><title>p0x7fecbdc02c70</title><ellipse cx="638.064" cy="-139" fill="none" stroke="#000" rx="27" ry="18"/><text x="638.064" y="-134.8" fill="#000" font-family="Times,serif" font-size="14" text-anchor="middle">E</text></g><g id="edge12" class="edge"><title>p0x7fecbdc034f0-&gt;p0x7fecbdc02c70</title><path fill="none" stroke="#000" stroke-dasharray="5 2" d="M539.2617,-139C559.7492,-139 582.4237,-139 600.8782,-139"/><polygon fill="#000" stroke="#000" points="600.931 -142.5 610.931 -139 600.931 -135.5 600.931 -142.5"/><text x="560.751" y="-143.2" fill="#000" font-family="Times,serif" font-size="14" text-anchor="middle">1</text></g><g id="node8" class="node"><title>p0x7fecbdc031c0</title><ellipse cx="763.877" cy="-139" fill="none" stroke="#000" rx="27" ry="18"/><text x="763.877" y="-134.8" fill="#000" font-family="Times,serif" font-size="14" text-anchor="middle">K</text></g><g id="edge6" class="edge"><title>p0x7fecbdc02c70-&gt;p0x7fecbdc031c0</title><path fill="none" stroke="#000" d="M665.3633,-139C683.2514,-139 706.8672,-139 726.4923,-139"/><polygon fill="#000" stroke="#000" points="726.63 -142.5 736.63 -139 726.63 -135.5 726.63 -142.5"/></g><g id="node10" class="node"><title>p0x7fecbdc02e90</title><ellipse cx="363.625" cy="-72" fill="none" stroke="#000" rx="27" ry="18"/><text x="363.625" y="-67.8" fill="#000" font-family="Times,serif" font-size="14" text-anchor="middle">G</text></g><g id="edge13" class="edge"><title>p0x7fecbdc03600-&gt;p0x7fecbdc02e90</title><path fill="none" stroke="#000" stroke-dasharray="5 2" d="M291.1687,-70.8482C303.0449,-71.037 315.3861,-71.2332 326.4456,-71.409"/><polygon fill="#000" stroke="#000" points="326.545 -74.911 336.599 -71.57 326.656 -67.912 326.545 -74.911"/><text x="315.125" y="-75.2" fill="#000" font-family="Times,serif" font-size="14" text-anchor="middle">0</text></g><g id="node11" class="node"><title>p0x7fecbdc02fa0</title><ellipse cx="363.625" cy="-18" fill="none" stroke="#000" rx="27" ry="18"/><text x="363.625" y="-13.8" fill="#000" font-family="Times,serif" font-size="14" text-anchor="middle">H</text></g><g id="edge14" class="edge"><title>p0x7fecbdc03600-&gt;p0x7fecbdc02fa0</title><path fill="none" stroke="#000" stroke-dasharray="5 2" d="M262.3694,-59.8504C281.9658,-51.751 309.5911,-40.3331 331.0374,-31.4691"/><polygon fill="#000" stroke="#000" points="332.5 -34.652 340.405 -27.597 329.827 -28.182 332.5 -34.652"/><text x="315.125" y="-44.2" fill="#000" font-family="Times,serif" font-size="14" text-anchor="middle">1</text></g><g id="node12" class="node"><title>p0x7fecbdc030b0</title><ellipse cx="483.438" cy="-18" fill="none" stroke="#000" rx="27" ry="18"/><text x="483.438" y="-13.8" fill="#000" font-family="Times,serif" font-size="14" text-anchor="middle">I</text></g><g id="edge8" class="edge"><title>p0x7fecbdc02fa0-&gt;p0x7fecbdc030b0</title><path fill="none" stroke="#000" d="M390.8129,-18C407.204,-18 428.3093,-18 446.2328,-18"/><polygon fill="#000" stroke="#000" points="446.359 -21.5 456.358 -18 446.358 -14.5 446.359 -21.5"/></g><g id="node13" class="node"><title>p0x7fecbdc03710</title><polygon fill="#7fffd4" stroke="#000" points="638.064 -36 582.438 -18 638.064 0 693.69 -18 638.064 -36"/><text x="638.064" y="-13.8" fill="#000" font-family="Times,serif" font-size="14" text-anchor="middle">cond_3</text></g><g id="edge9" class="edge"><title>p0x7fecbdc030b0-&gt;p0x7fecbdc03710</title><path fill="none" stroke="#000" d="M510.7263,-18C527.7911,-18 550.5542,-18 572.1125,-18"/><polygon fill="#000" stroke="#000" points="572.237 -21.5 582.237 -18 572.237 -14.5 572.237 -21.5"/></g><g id="edge15" class="edge"><title>p0x7fecbdc03710-&gt;p0x7fecbdc03710</title><path fill="none" stroke="#000" stroke-dasharray="5 2" d="M625.6542,-32.0417C621.0132,-42.9126 625.1498,-54 638.0638,-54 646.9423,-54 651.6719,-48.7595 652.2528,-41.9516"/><polygon fill="#000" stroke="#000" points="655.686 -41.266 650.473 -32.042 648.796 -42.503 655.686 -41.266"/><text x="638.064" y="-58.2" fill="#000" font-family="Times,serif" font-size="14" text-anchor="middle">0</text></g><g id="node14" class="node"><title>p0x7fecbdc032d0</title><ellipse cx="763.877" cy="-18" fill="none" stroke="#000" rx="27" ry="18"/><text x="763.877" y="-13.8" fill="#000" font-family="Times,serif" font-size="14" text-anchor="middle">L</text></g><g id="edge16" class="edge"><title>p0x7fecbdc03710-&gt;p0x7fecbdc032d0</title><path fill="none" stroke="#000" stroke-dasharray="5 2" d="M693.9798,-18C704.9879,-18 716.2851,-18 726.5005,-18"/><polygon fill="#000" stroke="#000" points="726.697 -21.5 736.697 -18 726.697 -14.5 726.697 -21.5"/><text x="715.377" y="-22.2" fill="#000" font-family="Times,serif" font-size="14" text-anchor="middle">1</text></g><g id="node15" class="node"><title>p0x7fecbdc033e0</title><ellipse cx="854.877" cy="-18" fill="none" stroke="#000" rx="27" ry="18"/><text x="854.877" y="-13.8" fill="#000" font-family="Times,serif" font-size="14" text-anchor="middle">M</text></g><g id="edge10" class="edge"><title>p0x7fecbdc032d0-&gt;p0x7fecbdc033e0</title><path fill="none" stroke="#000" d="M791.1796,-18C799.4579,-18 808.6984,-18 817.5171,-18"/><polygon fill="#000" stroke="#000" points="817.593 -21.5 827.593 -18 817.593 -14.5 817.593 -21.5"/></g></g></svg>