<svg xmlns="http://www.w3.org/2000/svg" xmlns:xlink="http://www.w3.org/1999/xlink" width="912" height="216" viewBox="0 0 684 162"><g id="graph0" class="graph" transform="scale(1 1) rotate(0) translate(4 158)"><title>Topology</title><polygon fill="#fff" stroke="transparent" points="-4 4 -4 -158 680 -158 680 4 -4 4"/><g id="clust1" class="cluster"><title>cluster_B</title><polygon fill="none" stroke="#00f" points="8 -69 8 -146 336 -146 336 -69 8 -69"/><text x="172" y="-129.4" fill="#000" font-family="Times,serif" font-size="14" text-anchor="middle">Subflow_B</text></g><g id="node1" class="node"><title>D</title><ellipse cx="389.5" cy="-41" fill="none" stroke="#000" rx="25.5" ry="18"/><text x="389.5" y="-36.8" fill="#000" font-family="Times,serif" font-size="14" text-anchor="middle">D</text></g><g id="node9" class="node"><title>X</title><ellipse cx="476.5" cy="-49" fill="none" stroke="#000" rx="25.5" ry="18"/><text x="476.5" y="-44.8" fill="#000" font-family="Times,serif" font-size="14" text-anchor="middle">X</text></g><g id="edge9" class="edge"><title>D-&gt;X</title><path fill="none" stroke="#000" d="M415.1323,-43.357C423.1856,-44.0975 432.2279,-44.929 440.8453,-45.7214"/><polygon fill="#000" stroke="#000" points="440.772 -49.229 451.051 -46.66 441.413 -42.259 440.772 -49.229"/></g><g id="node2" class="node"><title>C</title><ellipse cx="215.5" cy="-41" fill="none" stroke="#000" rx="25.5" ry="18"/><text x="215.5" y="-36.8" fill="#000" font-family="Times,serif" font-size="14" text-anchor="middle">C</text></g><g id="node3" class="node"><title>B</title><ellipse cx="302.5" cy="-95" fill="none" stroke="#000" rx="25.5" ry="18"/><text x="302.5" y="-90.8" fill="#000" font-family="Times,serif" font-size="14" text-anchor="middle">B</text></g><g id="edge1" class="edge"><title>C-&gt;B</title><path fill="none" stroke="#000" d="M234.8081,-52.9844C246.5222,-60.2552 261.6682,-69.6562 274.6623,-77.7215"/><polygon fill="#000" stroke="#000" points="272.904 -80.749 283.246 -83.049 276.595 -74.802 272.904 -80.749"/></g><g id="edge2" class="edge"><title>B-&gt;D</title><path fill="none" stroke="#000" d="M321.8081,-83.0156C333.5222,-75.7448 348.6682,-66.3438 361.6623,-58.2785"/><polygon fill="#000" stroke="#000" points="363.595 -61.198 370.246 -52.951 359.904 -55.251 363.595 -61.198"/></g><g id="node8" class="node"><title>E</title><ellipse cx="389.5" cy="-95" fill="none" stroke="#000" rx="25.5" ry="18"/><text x="389.5" y="-90.8" fill="#000" font-family="Times,serif" font-size="14" text-anchor="middle">E</text></g><g id="edge8" class="edge"><title>B-&gt;E</title><path fill="none" stroke="#000" d="M328.1323,-95C336.1144,-95 345.0679,-95 353.6164,-95"/><polygon fill="#000" stroke="#000" points="353.75 -98.5 363.75 -95 353.75 -91.5 353.75 -98.5"/></g><g id="node4" class="node"><title>B3</title><ellipse cx="215.5" cy="-95" fill="none" stroke="#000" rx="25.5" ry="18"/><text x="215.5" y="-90.8" fill="#000" font-family="Times,serif" font-size="14" text-anchor="middle">B3</text></g><g id="edge3" class="edge"><title>B3-&gt;B</title><path fill="none" stroke="#000" d="M241.1323,-95C249.1144,-95 258.0679,-95 266.6164,-95"/><polygon fill="#000" stroke="#000" points="266.75 -98.5 276.75 -95 266.75 -91.5 266.75 -98.5"/></g><g id="node5" class="node"><title>B2</title><ellipse cx="128.5" cy="-95" fill="none" stroke="#000" rx="25.5" ry="18"/><text x="128.5" y="-90.8" fill="#000" font-family="Times,serif" font-size="14" text-anchor="middle">B2</text></g><g id="edge4" class="edge"><title>B2-&gt;B3</title><path fill="none" stroke="#000" d="M154.1323,-95C162.1144,-95 171.0679,-95 179.6164,-95"/><polygon fill="#000" stroke="#000" points="179.75 -98.5 189.75 -95 179.75 -91.5 179.75 -98.5"/></g><g id="node6" class="node"><title>B1</title><ellipse cx="41.5" cy="-95" fill="none" stroke="#000" rx="25.5" ry="18"/><text x="41.5" y="-90.8" fill="#000" font-family="Times,serif" font-size="14" text-anchor="middle">B1</text></g><g id="edge5" class="edge"><title>B1-&gt;B2</title><path fill="none" stroke="#000" d="M67.1323,-95C75.1144,-95 84.0679,-95 92.6164,-95"/><polygon fill="#000" stroke="#000" points="92.75 -98.5 102.75 -95 92.75 -91.5 92.75 -98.5"/></g><g id="node7" class="node"><title>A</title><ellipse cx="128.5" cy="-18" fill="none" stroke="#000" rx="25.5" ry="18"/><text x="128.5" y="-13.8" fill="#000" font-family="Times,serif" font-size="14" text-anchor="middle">A</text></g><g id="edge7" class="edge"><title>A-&gt;D</title><path fill="none" stroke="#000" d="M153.9154,-15.975C164.9909,-15.1888 178.1297,-14.3856 190,-14 212.6547,-13.264 218.4249,-11.9644 241,-14 280.5706,-17.5681 325.3604,-26.381 355.3058,-32.9743"/><polygon fill="#000" stroke="#000" points="354.723 -36.43 365.246 -35.202 356.253 -29.6 354.723 -36.43"/></g><g id="edge6" class="edge"><title>A-&gt;C</title><path fill="none" stroke="#000" d="M152.7344,-24.4068C161.6902,-26.7744 172.0114,-29.503 181.6639,-32.0548"/><polygon fill="#000" stroke="#000" points="180.833 -35.455 191.396 -34.628 182.622 -28.688 180.833 -35.455"/></g><g id="edge10" class="edge"><title>E-&gt;X</title><path fill="none" stroke="#000" d="M410.1178,-84.0986C421.1692,-78.2553 434.9753,-70.9556 447.1302,-64.5289"/><polygon fill="#000" stroke="#000" points="448.826 -67.591 456.03 -59.823 445.554 -61.403 448.826 -67.591"/></g><g id="node11" class="node"><title>Z</title><ellipse cx="650.5" cy="-72" fill="none" stroke="#000" rx="25.5" ry="18"/><text x="650.5" y="-67.8" fill="#000" font-family="Times,serif" font-size="14" text-anchor="middle">Z</text></g><g id="edge13" class="edge"><title>E-&gt;Z</title><path fill="none" stroke="#000" d="M415.001,-92.7528C461.7796,-88.6305 561.398,-79.8519 614.85,-75.1416"/><polygon fill="#000" stroke="#000" points="615.241 -78.621 624.895 -74.256 614.627 -71.648 615.241 -78.621"/></g><g id="node10" class="node"><title>Y</title><ellipse cx="563.5" cy="-49" fill="none" stroke="#000" rx="25.5" ry="18"/><text x="563.5" y="-44.8" fill="#000" font-family="Times,serif" font-size="14" text-anchor="middle">Y</text></g><g id="edge11" class="edge"><title>X-&gt;Y</title><path fill="none" stroke="#000" d="M502.1323,-49C510.1144,-49 519.0679,-49 527.6164,-49"/><polygon fill="#000" stroke="#000" points="527.75 -52.5 537.75 -49 527.75 -45.5 527.75 -52.5"/></g><g id="edge12" class="edge"><title>Y-&gt;Z</title><path fill="none" stroke="#000" d="M587.7344,-55.4068C596.6902,-57.7744 607.0114,-60.503 616.6639,-63.0548"/><polygon fill="#000" stroke="#000" points="615.833 -66.455 626.396 -65.628 617.622 -59.688 615.833 -66.455"/></g></g></svg>