<svg xmlns="http://www.w3.org/2000/svg" xmlns:xlink="http://www.w3.org/1999/xlink" width="1108pt" height="172pt" viewBox="0 0 1108.36 172"><g id="graph0" class="graph" transform="scale(1 1) rotate(0) translate(4 168)"><title>Taskflow</title><polygon fill="#fff" stroke="transparent" points="-4 4 -4 -168 1104.359 -168 1104.359 4 -4 4"/><g id="node1" class="node"><title>p0x7fa9a4803e30</title><ellipse cx="27" cy="-93" fill="none" stroke="#000" rx="27" ry="18"/><text x="27" y="-88.8" fill="#000" font-family="Times,serif" font-size="14" text-anchor="middle">init</text></g><g id="node2" class="node"><title>p0x7fa9a4803f50</title><polygon fill="#7fffd4" stroke="#000" points="165.009 -111 90.991 -93 165.009 -75 239.028 -93 165.009 -111"/><text x="165.009" y="-88.8" fill="#000" font-family="Times,serif" font-size="14" text-anchor="middle">flip-coin-1</text></g><g id="edge1" class="edge"><title>p0x7fa9a4803e30-&gt;p0x7fa9a4803f50</title><path fill="none" stroke="#000" d="M54.2662,-93C62.1953,-93 71.3022,-93 80.8143,-93"/><polygon fill="#000" stroke="#000" points="80.841 -96.5 90.841 -93 80.841 -89.5 80.841 -96.5"/></g><g id="edge3" class="edge"><title>p0x7fa9a4803f50-&gt;p0x7fa9a4803f50</title><path fill="none" stroke="#000" stroke-dasharray="5 2" d="M149.7977,-107.4167C144.4857,-118.166 149.5562,-129 165.0093,-129 175.3919,-129 181.0876,-124.1094 182.0965,-117.6397"/><polygon fill="#000" stroke="#000" points="185.468 -116.621 180.221 -107.417 178.583 -117.884 185.468 -116.621"/><text x="165.009" y="-133.2" fill="#000" font-family="Times,serif" font-size="14" text-anchor="middle">1</text></g><g id="node3" class="node"><title>p0x7fa9a4804070</title><polygon fill="#7fffd4" stroke="#000" points="356.028 -164 282.009 -146 356.028 -128 430.047 -146 356.028 -164"/><text x="356.028" y="-141.8" fill="#000" font-family="Times,serif" font-size="14" text-anchor="middle">flip-coin-2</text></g><g id="edge2" class="edge"><title>p0x7fa9a4803f50-&gt;p0x7fa9a4804070</title><path fill="none" stroke="#000" stroke-dasharray="5 2" d="M183.2254,-106.6357C200.9988,-119.049 229.332,-136.5408 257.0187,-144 266.1977,-146.473 276.0305,-147.9709 285.8064,-148.7998"/><polygon fill="#000" stroke="#000" points="285.744 -152.303 295.943 -149.434 286.182 -145.316 285.744 -152.303"/><text x="260.519" y="-149.2" fill="#000" font-family="Times,serif" font-size="14" text-anchor="middle">0</text></g><g id="edge5" class="edge"><title>p0x7fa9a4804070-&gt;p0x7fa9a4803f50</title><path fill="none" stroke="#000" stroke-dasharray="5 2" d="M321.3711,-136.3841C289.9395,-127.6631 243.4399,-114.7613 209.3179,-105.2939"/><polygon fill="#000" stroke="#000" points="210.173 -101.899 199.601 -102.598 208.302 -108.644 210.173 -101.899"/><text x="260.519" y="-123.2" fill="#000" font-family="Times,serif" font-size="14" text-anchor="middle">1</text></g><g id="node4" class="node"><title>p0x7fa9a4804190</title><polygon fill="#7fffd4" stroke="#000" points="547.047 -111 473.028 -93 547.047 -75 621.065 -93 547.047 -111"/><text x="547.047" y="-88.8" fill="#000" font-family="Times,serif" font-size="14" text-anchor="middle">flip-coin-3</text></g><g id="edge4" class="edge"><title>p0x7fa9a4804070-&gt;p0x7fa9a4804190</title><path fill="none" stroke="#000" stroke-dasharray="5 2" d="M390.62,-136.4021C422.0309,-127.6869 468.5286,-114.7856 502.6676,-105.3134"/><polygon fill="#000" stroke="#000" points="503.69 -108.662 512.39 -102.616 501.818 -101.917 503.69 -108.662"/><text x="451.537" y="-123.2" fill="#000" font-family="Times,serif" font-size="14" text-anchor="middle">0</text></g><g id="edge7" class="edge"><title>p0x7fa9a4804190-&gt;p0x7fa9a4803f50</title><path fill="none" stroke="#000" stroke-dasharray="5 2" d="M472.8139,-93C408.6932,-93 316.0816,-93 249.2105,-93"/><polygon fill="#000" stroke="#000" points="249.123 -89.5 239.123 -93 249.123 -96.5 249.123 -89.5"/><text x="356.028" y="-97.2" fill="#000" font-family="Times,serif" font-size="14" text-anchor="middle">1</text></g><g id="node5" class="node"><title>p0x7fa9a48042b0</title><polygon fill="#7fffd4" stroke="#000" points="738.065 -66 664.047 -48 738.065 -30 812.084 -48 738.065 -66"/><text x="738.065" y="-43.8" fill="#000" font-family="Times,serif" font-size="14" text-anchor="middle">flip-coin-4</text></g><g id="edge6" class="edge"><title>p0x7fa9a4804190-&gt;p0x7fa9a48042b0</title><path fill="none" stroke="#000" stroke-dasharray="5 2" d="M584.7858,-84.1094C615.1345,-76.9599 657.9486,-66.8738 690.6169,-59.1779"/><polygon fill="#000" stroke="#000" points="691.474 -62.572 700.405 -56.872 689.868 -55.758 691.474 -62.572"/><text x="642.556" y="-75.2" fill="#000" font-family="Times,serif" font-size="14" text-anchor="middle">0</text></g><g id="edge9" class="edge"><title>p0x7fa9a48042b0-&gt;p0x7fa9a4803f50</title><path fill="none" stroke="#000" stroke-dasharray="5 2" d="M679.094,-51.6726C625.3698,-55.0976 543.8449,-60.4927 473.0373,-66 388.4982,-72.5753 291.0138,-81.3156 228.7439,-87.046"/><polygon fill="#000" stroke="#000" points="228.316 -83.57 218.68 -87.974 228.959 -90.541 228.316 -83.57"/><text x="451.537" y="-72.2" fill="#000" font-family="Times,serif" font-size="14" text-anchor="middle">1</text></g><g id="node6" class="node"><title>p0x7fa9a48043d0</title><polygon fill="#7fffd4" stroke="#000" points="929.084 -36 855.065 -18 929.084 0 1003.103 -18 929.084 -36"/><text x="929.084" y="-13.8" fill="#000" font-family="Times,serif" font-size="14" text-anchor="middle">flip-coin-5</text></g><g id="edge8" class="edge"><title>p0x7fa9a48042b0-&gt;p0x7fa9a48043d0</title><path fill="none" stroke="#000" stroke-dasharray="5 2" d="M783.3341,-40.8904C810.4738,-36.6281 845.1797,-31.1774 873.9162,-26.6642"/><polygon fill="#000" stroke="#000" points="874.474 -30.12 883.81 -25.11 873.388 -23.204 874.474 -30.12"/><text x="833.575" y="-37.2" fill="#000" font-family="Times,serif" font-size="14" text-anchor="middle">0</text></g><g id="edge11" class="edge"><title>p0x7fa9a48043d0-&gt;p0x7fa9a4803f50</title><path fill="none" stroke="#000" stroke-dasharray="5 2" d="M880.5007,-11.6764C841.9502,-7.2041 786.6528,-2 738.0653,-2 356.028,-2 356.028,-2 356.028,-2 291.009,-2 224.584,-45.5019 189.7791,-72.3507"/><polygon fill="#000" stroke="#000" points="187.313 -69.838 181.632 -78.781 191.65 -75.333 187.313 -69.838"/><text x="547.047" y="-6.2" fill="#000" font-family="Times,serif" font-size="14" text-anchor="middle">1</text></g><g id="node7" class="node"><title>p0x7fa9a48044f0</title><ellipse cx="1073.226" cy="-18" fill="none" stroke="#000" rx="27.266" ry="18"/><text x="1073.226" y="-13.8" fill="#000" font-family="Times,serif" font-size="14" text-anchor="middle">stop</text></g><g id="edge10" class="edge"><title>p0x7fa9a48043d0-&gt;p0x7fa9a48044f0</title><path fill="none" stroke="#000" stroke-dasharray="5 2" d="M1003.2662,-18C1014.6319,-18 1025.9275,-18 1036.0211,-18"/><polygon fill="#000" stroke="#000" points="1036.057 -21.5 1046.057 -18 1036.057 -14.5 1036.057 -21.5"/><text x="1024.593" y="-22.2" fill="#000" font-family="Times,serif" font-size="14" text-anchor="middle">0</text></g></g></svg>