<svg xmlns="http://www.w3.org/2000/svg" xmlns:xlink="http://www.w3.org/1999/xlink" width="1108pt" height="444" viewBox="0 0 1108.36 332.8"><g id="graph0" class="graph" transform="scale(1 1) rotate(0) translate(4 328.8)"><title>Taskflow</title><polygon fill="#fff" stroke="transparent" points="-4 4 -4 -328.8 1104.359 -328.8 1104.359 4 -4 4"/><g id="node1" class="node"><title>p0x7fca00803e30</title><ellipse cx="27" cy="-182" fill="none" stroke="#000" rx="27" ry="18"/><text x="27" y="-177.8" fill="#000" font-family="Times,serif" font-size="14" text-anchor="middle">init</text></g><g id="node2" class="node"><title>p0x7fca00803f50</title><polygon fill="#7fffd4" stroke="#000" points="165.009 -200 90.991 -182 165.009 -164 239.028 -182 165.009 -200"/><text x="165.009" y="-177.8" fill="#000" font-family="Times,serif" font-size="14" text-anchor="middle">flip-coin-1</text></g><g id="edge1" class="edge"><title>p0x7fca00803e30-&gt;p0x7fca00803f50</title><path fill="none" stroke="#000" d="M54.2662,-182C62.1953,-182 71.3022,-182 80.8143,-182"/><polygon fill="#000" stroke="#000" points="80.841 -185.5 90.841 -182 80.841 -178.5 80.841 -185.5"/></g><g id="edge3" class="edge"><title>p0x7fca00803f50-&gt;p0x7fca00803f50</title><path fill="none" stroke="#000" stroke-dasharray="5 2" d="M156.9929,-198.2903C155.0598,-208.3892 157.732,-218 165.0093,-218 169.6714,-218 172.4435,-214.0557 173.3256,-208.5656"/><polygon fill="#000" stroke="#000" points="176.816 -208.184 173.026 -198.29 169.819 -208.388 176.816 -208.184"/><text x="165.009" y="-222.2" fill="#000" font-family="Times,serif" font-size="14" text-anchor="middle">1</text></g><g id="edge4" class="edge"><title>p0x7fca00803f50-&gt;p0x7fca00803f50</title><path fill="none" stroke="#000" stroke-dasharray="5 2" d="M152.4856,-197.2026C143.3152,-215.1122 147.4898,-236 165.0093,-236 179.5177,-236 184.8742,-221.6754 181.0789,-206.58"/><polygon fill="#000" stroke="#000" points="184.344 -205.318 177.533 -197.203 177.796 -207.794 184.344 -205.318"/><text x="165.009" y="-240.2" fill="#000" font-family="Times,serif" font-size="14" text-anchor="middle">2</text></g><g id="node3" class="node"><title>p0x7fca00804070</title><polygon fill="#7fffd4" stroke="#000" points="356.028 -306 282.009 -288 356.028 -270 430.047 -288 356.028 -306"/><text x="356.028" y="-283.8" fill="#000" font-family="Times,serif" font-size="14" text-anchor="middle">flip-coin-2</text></g><g id="edge2" class="edge"><title>p0x7fca00803f50-&gt;p0x7fca00804070</title><path fill="none" stroke="#000" stroke-dasharray="5 2" d="M171.5071,-198.804C183.4814,-227.0911 212.0003,-283.3462 257.0187,-306 277.4044,-316.2584 302.7643,-311.3615 322.7146,-304.1046"/><polygon fill="#000" stroke="#000" points="324.024 -307.35 332.028 -300.409 321.442 -300.844 324.024 -307.35"/><text x="260.519" y="-312.2" fill="#000" font-family="Times,serif" font-size="14" text-anchor="middle">0</text></g><g id="edge6" class="edge"><title>p0x7fca00804070-&gt;p0x7fca00803f50</title><path fill="none" stroke="#000" stroke-dasharray="5 2" d="M305.9232,-282.096C289.691,-278.8378 272.018,-273.7952 257.0187,-266 227.9661,-250.9013 201.101,-224.2883 183.9944,-205.0572"/><polygon fill="#000" stroke="#000" points="186.48 -202.581 177.283 -197.322 181.193 -207.169 186.48 -202.581"/><text x="260.519" y="-273.2" fill="#000" font-family="Times,serif" font-size="14" text-anchor="middle">1</text></g><g id="edge7" class="edge"><title>p0x7fca00804070-&gt;p0x7fca00803f50</title><path fill="none" stroke="#000" stroke-dasharray="5 2" d="M327.4282,-276.8551C313.4894,-271.1173 296.6241,-263.7157 282.0187,-256 273.107,-251.2922 225.643,-220.9865 193.971,-200.6472"/><polygon fill="#000" stroke="#000" points="195.807 -197.667 185.502 -195.204 192.022 -203.555 195.807 -197.667"/><text x="260.519" y="-248.2" fill="#000" font-family="Times,serif" font-size="14" text-anchor="middle">2</text></g><g id="node4" class="node"><title>p0x7fca00804190</title><polygon fill="#7fffd4" stroke="#000" points="547.047 -237 473.028 -219 547.047 -201 621.065 -219 547.047 -237"/><text x="547.047" y="-214.8" fill="#000" font-family="Times,serif" font-size="14" text-anchor="middle">flip-coin-3</text></g><g id="edge5" class="edge"><title>p0x7fca00804070-&gt;p0x7fca00804190</title><path fill="none" stroke="#000" stroke-dasharray="5 2" d="M385.8747,-277.2188C418.5808,-265.4046 471.1977,-246.3983 507.3615,-233.3351"/><polygon fill="#000" stroke="#000" points="508.879 -236.508 517.095 -229.819 506.501 -229.925 508.879 -236.508"/><text x="451.537" y="-258.2" fill="#000" font-family="Times,serif" font-size="14" text-anchor="middle">0</text></g><g id="edge9" class="edge"><title>p0x7fca00804190-&gt;p0x7fca00803f50</title><path fill="none" stroke="#000" stroke-dasharray="5 2" d="M480.4135,-217.1411C426.7002,-215.1226 349.3004,-211.0404 282.0187,-203 259.8287,-200.3482 235.4765,-196.1827 214.7612,-192.2583"/><polygon fill="#000" stroke="#000" points="215.391 -188.815 204.909 -190.359 214.066 -195.689 215.391 -188.815"/><text x="356.028" y="-219.2" fill="#000" font-family="Times,serif" font-size="14" text-anchor="middle">1</text></g><g id="edge10" class="edge"><title>p0x7fca00804190-&gt;p0x7fca00803f50</title><path fill="none" stroke="#000" stroke-dasharray="5 2" d="M519.2462,-207.6175C495.8907,-198.7017 461.3977,-187.0273 430.0373,-182.2 362.3218,-171.7765 283.7157,-173.411 229.7977,-176.6029"/><polygon fill="#000" stroke="#000" points="229.451 -173.118 219.69 -177.237 229.889 -180.104 229.451 -173.118"/><text x="356.028" y="-187.2" fill="#000" font-family="Times,serif" font-size="14" text-anchor="middle">2</text></g><g id="node5" class="node"><title>p0x7fca008042b0</title><polygon fill="#7fffd4" stroke="#000" points="738.065 -142 664.047 -124 738.065 -106 812.084 -124 738.065 -142"/><text x="738.065" y="-119.8" fill="#000" font-family="Times,serif" font-size="14" text-anchor="middle">flip-coin-4</text></g><g id="edge8" class="edge"><title>p0x7fca00804190-&gt;p0x7fca008042b0</title><path fill="none" stroke="#000" stroke-dasharray="5 2" d="M571.628,-206.7749C605.4405,-189.9588 666.4239,-159.6297 704.4389,-140.7235"/><polygon fill="#000" stroke="#000" points="706.183 -143.765 713.578 -136.178 703.066 -137.497 706.183 -143.765"/><text x="642.556" y="-176.2" fill="#000" font-family="Times,serif" font-size="14" text-anchor="middle">0</text></g><g id="edge12" class="edge"><title>p0x7fca008042b0-&gt;p0x7fca00803f50</title><path fill="none" stroke="#000" stroke-dasharray="5 2" d="M685.0188,-129.1391C596.3657,-137.7622 412.4956,-155.7944 257.0187,-172 247.0703,-173.0369 236.5197,-174.1609 226.248,-175.2682"/><polygon fill="#000" stroke="#000" points="225.667 -171.81 216.102 -176.366 226.42 -178.77 225.667 -171.81"/><text x="451.537" y="-157.2" fill="#000" font-family="Times,serif" font-size="14" text-anchor="middle">1</text></g><g id="edge13" class="edge"><title>p0x7fca008042b0-&gt;p0x7fca00803f50</title><path fill="none" stroke="#000" stroke-dasharray="5 2" d="M669.4156,-122.6858C579.5877,-122.1882 417.6469,-125.496 282.0187,-151 257.0342,-155.6982 229.534,-162.8785 207.4748,-169.146"/><polygon fill="#000" stroke="#000" points="206.39 -165.816 197.751 -171.949 208.329 -172.542 206.39 -165.816"/><text x="451.537" y="-134.2" fill="#000" font-family="Times,serif" font-size="14" text-anchor="middle">2</text></g><g id="node6" class="node"><title>p0x7fca008043d0</title><polygon fill="#7fffd4" stroke="#000" points="929.084 -71 855.065 -53 929.084 -35 1003.103 -53 929.084 -71"/><text x="929.084" y="-48.8" fill="#000" font-family="Times,serif" font-size="14" text-anchor="middle">flip-coin-5</text></g><g id="edge11" class="edge"><title>p0x7fca008042b0-&gt;p0x7fca008043d0</title><path fill="none" stroke="#000" stroke-dasharray="5 2" d="M767.4934,-113.0618C800.3045,-100.8662 853.5239,-81.085 889.8543,-67.5813"/><polygon fill="#000" stroke="#000" points="891.468 -70.715 899.622 -63.951 889.03 -64.154 891.468 -70.715"/><text x="833.575" y="-93.2" fill="#000" font-family="Times,serif" font-size="14" text-anchor="middle">0</text></g><g id="edge15" class="edge"><title>p0x7fca008043d0-&gt;p0x7fca00803f50</title><path fill="none" stroke="#000" stroke-dasharray="5 2" d="M854.6981,-53C819.3612,-53 776.5344,-53 738.0653,-53 356.028,-53 356.028,-53 356.028,-53 281.2495,-53 213.8602,-121.7347 182.9167,-158.8583"/><polygon fill="#000" stroke="#000" points="180.135 -156.731 176.534 -166.695 185.563 -161.152 180.135 -156.731"/><text x="547.047" y="-57.2" fill="#000" font-family="Times,serif" font-size="14" text-anchor="middle">1</text></g><g id="edge16" class="edge"><title>p0x7fca008043d0-&gt;p0x7fca00803f50</title><path fill="none" stroke="#000" stroke-dasharray="5 2" d="M903.4477,-41.1058C867.3612,-25.4796 799.1534,0 738.0653,0 356.028,0 356.028,0 356.028,0 266.4921,0 202.321,-106.1075 176.9802,-156.2858"/><polygon fill="#000" stroke="#000" points="173.708 -155.01 172.434 -165.528 179.989 -158.1 173.708 -155.01"/><text x="547.047" y="-4.2" fill="#000" font-family="Times,serif" font-size="14" text-anchor="middle">2</text></g><g id="node7" class="node"><title>p0x7fca008044f0</title><ellipse cx="1073.226" cy="-53" fill="none" stroke="#000" rx="27.266" ry="18"/><text x="1073.226" y="-48.8" fill="#000" font-family="Times,serif" font-size="14" text-anchor="middle">stop</text></g><g id="edge14" class="edge"><title>p0x7fca008043d0-&gt;p0x7fca008044f0</title><path fill="none" stroke="#000" stroke-dasharray="5 2" d="M1003.2662,-53C1014.6319,-53 1025.9275,-53 1036.0211,-53"/><polygon fill="#000" stroke="#000" points="1036.057 -56.5 1046.057 -53 1036.057 -49.5 1036.057 -56.5"/><text x="1024.593" y="-57.2" fill="#000" font-family="Times,serif" font-size="14" text-anchor="middle">0</text></g></g></svg>