<svg xmlns="http://www.w3.org/2000/svg" xmlns:xlink="http://www.w3.org/1999/xlink" width="1178pt" height="1060" viewBox="0 0 1178.1 795"><g id="graph0" class="graph" transform="scale(1 1) rotate(0) translate(4 791)"><title>Taskflow</title><polygon fill="#fff" stroke="transparent" points="-4 4 -4 -791 1174.105 -791 1174.105 4 -4 4"/><g id="clust1" class="cluster"><title>cluster_p0x562f9807b550</title><polygon fill="none" stroke="#a020f0" points="256.132 -450 256.132 -689 629.453 -689 629.453 -450 256.132 -450"/><text x="442.792" y="-672.4" fill="#000" font-family="Times,serif" font-size="14" text-anchor="middle">cudaFlow: h2d</text></g><g id="clust2" class="cluster"><title>cluster_p0x562f9807b440</title><polygon fill="none" stroke="#a020f0" points="8 -159 8 -344 790.012 -344 790.012 -159 8 -159"/><text x="399.006" y="-327.4" fill="#000" font-family="Times,serif" font-size="14" text-anchor="middle">cudaFlow: update_means</text></g><g id="clust3" class="cluster"><title>cluster_p0x562f9807b220</title><polygon fill="none" stroke="#a020f0" points="683.279 -8 683.279 -139 1087.105 -139 1087.105 -8 683.279 -8"/><text x="885.192" y="-122.4" fill="#000" font-family="Times,serif" font-size="14" text-anchor="middle">cudaFlow: h2d</text></g><g id="node1" class="node"><title>p0x562f9807bcc0</title><ellipse cx="444.745" cy="-715" fill="none" stroke="#000" rx="55.597" ry="18"/><text x="444.745" y="-710.8" fill="#000" font-family="Times,serif" font-size="14" text-anchor="middle">allocate_px</text></g><g id="node2" class="node"><title>p0x562f9807b550</title><polygon fill="#0ff" stroke="#000" points="621.453 -548 618.453 -552 597.453 -552 594.453 -548 567.453 -548 567.453 -512 621.453 -512 621.453 -548"/><text x="594.453" y="-525.8" fill="#000" font-family="Times,serif" font-size="14" text-anchor="middle">h2d</text></g><g id="edge1" class="edge"><title>p0x562f9807bcc0-&gt;p0x562f9807b550</title><path fill="none" stroke="#000" d="M486.8361,-703.2112C492.6371,-700.4518 498.2251,-697.0873 502.9774,-693 545.8583,-656.1195 572.7519,-593.901 585.5506,-557.9424"/><polygon fill="#000" stroke="#000" points="588.989 -558.706 588.931 -548.111 582.37 -556.43 588.989 -558.706"/></g><g id="node7" class="node"><title>p0x562f9807b440</title><polygon fill="#0ff" stroke="#000" points="782.054 -203 779.054 -207 758.054 -207 755.054 -203 685.886 -203 685.886 -167 782.054 -167 782.054 -203"/><text x="733.97" y="-180.8" fill="#000" font-family="Times,serif" font-size="14" text-anchor="middle">update_means</text></g><g id="edge8" class="edge"><title>p0x562f9807b550-&gt;p0x562f9807b440</title><path fill="none" stroke="#000" d="M601.7574,-511.937C624.636,-455.3625 695.0253,-281.3034 722.6634,-212.9596"/><polygon fill="#000" stroke="#000" points="726.065 -213.883 726.57 -203.3 719.576 -211.259 726.065 -213.883"/></g><g id="node3" class="node"><title>p0x562f9807bbb0</title><ellipse cx="444.745" cy="-424" fill="none" stroke="#000" rx="55.597" ry="18"/><text x="444.745" y="-419.8" fill="#000" font-family="Times,serif" font-size="14" text-anchor="middle">allocate_py</text></g><g id="edge2" class="edge"><title>p0x562f9807bbb0-&gt;p0x562f9807b550</title><path fill="none" stroke="#000" d="M484.5559,-436.7001C490.9149,-439.384 497.2722,-442.4862 502.9774,-446 529.0007,-462.0276 554.2512,-486.0599 571.606,-504.3184"/><polygon fill="#000" stroke="#000" points="569.159 -506.826 578.54 -511.75 574.277 -502.05 569.159 -506.826"/></g><g id="node4" class="node"><title>p0x562f9807baa0</title><ellipse cx="444.745" cy="-370" fill="none" stroke="#000" rx="58.465" ry="18"/><text x="444.745" y="-365.8" fill="#000" font-family="Times,serif" font-size="14" text-anchor="middle">allocate_mx</text></g><g id="edge3" class="edge"><title>p0x562f9807baa0-&gt;p0x562f9807b550</title><path fill="none" stroke="#000" d="M482.249,-383.7718C489.5589,-387.4232 496.8471,-391.8236 502.9774,-397 538.1816,-426.7267 565.8979,-473.1291 581.2235,-502.526"/><polygon fill="#000" stroke="#000" points="578.285 -504.469 585.939 -511.795 584.524 -501.295 578.285 -504.469"/></g><g id="node5" class="node"><title>p0x562f9807b990</title><ellipse cx="444.745" cy="-769" fill="none" stroke="#000" rx="58.465" ry="18"/><text x="444.745" y="-764.8" fill="#000" font-family="Times,serif" font-size="14" text-anchor="middle">allocate_my</text></g><g id="edge4" class="edge"><title>p0x562f9807b990-&gt;p0x562f9807b550</title><path fill="none" stroke="#000" d="M483.9808,-755.6462C490.9111,-752.0103 497.6137,-747.5094 502.9774,-742 554.6221,-688.9521 579.3609,-602.1014 589.1356,-557.8341"/><polygon fill="#000" stroke="#000" points="592.56 -558.556 591.204 -548.048 585.712 -557.108 592.56 -558.556"/></g><g id="node6" class="node"><title>p0x562f9807b880</title><ellipse cx="594.453" cy="-133" fill="none" stroke="#000" rx="54.451" ry="18"/><text x="594.453" y="-128.8" fill="#000" font-family="Times,serif" font-size="14" text-anchor="middle">allocate_sx</text></g><g id="edge5" class="edge"><title>p0x562f9807b880-&gt;p0x562f9807b440</title><path fill="none" stroke="#000" d="M630.7451,-146.5266C644.6524,-151.7101 660.8854,-157.7603 676.3052,-163.5075"/><polygon fill="#000" stroke="#000" points="675.18 -166.823 685.773 -167.036 677.625 -160.264 675.18 -166.823"/></g><g id="node14" class="node"><title>p0x562f9807b330</title><polygon fill="#7fffd4" stroke="#000" points="903.558 -183 824.966 -165 903.558 -147 982.151 -165 903.558 -183"/><text x="903.558" y="-160.8" fill="#000" font-family="Times,serif" font-size="14" text-anchor="middle">converged?</text></g><g id="edge13" class="edge"><title>p0x562f9807b440-&gt;p0x562f9807b330</title><path fill="none" stroke="#000" d="M782.3677,-184.7435C790.6058,-184.3943 799.0651,-183.8444 807.0123,-183 822.1657,-181.39 838.506,-178.7102 853.3574,-175.9039"/><polygon fill="#000" stroke="#000" points="854.223 -179.301 863.368 -173.952 852.883 -172.43 854.223 -179.301"/></g><g id="node8" class="node"><title>p0x562f9807b770</title><ellipse cx="594.453" cy="-79" fill="none" stroke="#000" rx="54.451" ry="18"/><text x="594.453" y="-74.8" fill="#000" font-family="Times,serif" font-size="14" text-anchor="middle">allocate_sy</text></g><g id="edge6" class="edge"><title>p0x562f9807b770-&gt;p0x562f9807b440</title><path fill="none" stroke="#000" d="M628.1274,-93.3028C635.2822,-96.9853 642.5845,-101.2638 648.9281,-106 666.9085,-119.4243 666.9715,-127.5868 683.2792,-143 689.3529,-148.7406 696.0928,-154.6285 702.6228,-160.1113"/><polygon fill="#000" stroke="#000" points="700.777 -163.127 710.716 -166.798 705.236 -157.73 700.777 -163.127"/></g><g id="node9" class="node"><title>p0x562f9807b660</title><ellipse cx="594.453" cy="-25" fill="none" stroke="#000" rx="50.357" ry="18"/><text x="594.453" y="-20.8" fill="#000" font-family="Times,serif" font-size="14" text-anchor="middle">allocate_c</text></g><g id="edge7" class="edge"><title>p0x562f9807b660-&gt;p0x562f9807b440</title><path fill="none" stroke="#000" d="M629.9549,-37.7563C636.922,-41.5109 643.6855,-46.2097 648.9281,-52 677.9432,-84.0463 658.1639,-107.8139 683.2792,-143 687.7071,-149.2034 693.2679,-155.025 699.071,-160.2426"/><polygon fill="#000" stroke="#000" points="697.147 -163.198 707.051 -166.963 701.656 -157.844 697.147 -163.198"/></g><g id="node10" class="node"><title>p0x7fbc54000b20</title><ellipse cx="306.822" cy="-638" fill="none" stroke="#000" rx="40.015" ry="18"/><text x="306.822" y="-633.8" fill="#000" font-family="Times,serif" font-size="14" text-anchor="middle">h2d_px</text></g><g id="edge9" class="edge"><title>p0x7fbc54000b20-&gt;p0x562f9807b550</title><path fill="none" stroke="#000" d="M337.604,-626.4421C391.0331,-606.3804 500.6911,-565.2058 557.8989,-543.7253"/><polygon fill="#000" stroke="#000" points="559.148 -546.995 567.28 -540.203 556.688 -540.442 559.148 -546.995"/></g><g id="node11" class="node"><title>p0x7fbc54000c00</title><ellipse cx="306.822" cy="-584" fill="none" stroke="#000" rx="40.015" ry="18"/><text x="306.822" y="-579.8" fill="#000" font-family="Times,serif" font-size="14" text-anchor="middle">h2d_py</text></g><g id="edge10" class="edge"><title>p0x7fbc54000c00-&gt;p0x562f9807b550</title><path fill="none" stroke="#000" d="M343.8363,-577.051C398.9995,-566.6946 502.1899,-547.3215 557.3846,-536.9592"/><polygon fill="#000" stroke="#000" points="558.25 -540.358 567.433 -535.073 556.958 -533.478 558.25 -540.358"/></g><g id="node12" class="node"><title>p0x7fbc54000ce0</title><ellipse cx="306.822" cy="-530" fill="none" stroke="#000" rx="42.883" ry="18"/><text x="306.822" y="-525.8" fill="#000" font-family="Times,serif" font-size="14" text-anchor="middle">h2d_mx</text></g><g id="edge11" class="edge"><title>p0x7fbc54000ce0-&gt;p0x562f9807b550</title><path fill="none" stroke="#000" d="M349.5731,-530C405.7642,-530 503.5774,-530 556.9985,-530"/><polygon fill="#000" stroke="#000" points="557.065 -533.5 567.065 -530 557.065 -526.5 557.065 -533.5"/></g><g id="node13" class="node"><title>p0x7fbc54000db0</title><ellipse cx="306.822" cy="-476" fill="none" stroke="#000" rx="42.883" ry="18"/><text x="306.822" y="-471.8" fill="#000" font-family="Times,serif" font-size="14" text-anchor="middle">h2d_my</text></g><g id="edge12" class="edge"><title>p0x7fbc54000db0-&gt;p0x562f9807b550</title><path fill="none" stroke="#000" d="M345.9129,-483.3389C401.4686,-493.769 502.5627,-512.7485 557.1321,-522.9934"/><polygon fill="#000" stroke="#000" points="556.604 -526.455 567.078 -524.861 557.896 -519.576 556.604 -526.455"/></g><g id="edge19" class="edge"><title>p0x562f9807b330-&gt;p0x562f9807b440</title><path fill="none" stroke="#000" stroke-dasharray="5 2" d="M848.4712,-159.5823C832.7323,-159.0944 815.6196,-159.5817 800.0123,-162.2 796.6198,-162.7691 793.1685,-163.492 789.713,-164.3274"/><polygon fill="#000" stroke="#000" points="788.752 -160.962 780.009 -166.946 790.576 -167.72 788.752 -160.962"/><text x="803.512" y="-167.2" fill="#000" font-family="Times,serif" font-size="14" text-anchor="middle">0</text></g><g id="node20" class="node"><title>p0x562f9807b220</title><polygon fill="#0ff" stroke="#000" points="1079.105 -106 1076.105 -110 1055.105 -110 1052.105 -106 1025.105 -106 1025.105 -70 1079.105 -70 1079.105 -106"/><text x="1052.105" y="-83.8" fill="#000" font-family="Times,serif" font-size="14" text-anchor="middle">h2d</text></g><g id="edge20" class="edge"><title>p0x562f9807b330-&gt;p0x562f9807b220</title><path fill="none" stroke="#000" stroke-dasharray="5 2" d="M945.4695,-156.5198C957.6565,-153.1979 970.7388,-148.7668 982.1047,-143 997.7072,-135.0837 1013.1986,-123.4138 1025.6264,-112.858"/><polygon fill="#000" stroke="#000" points="1028.095 -115.349 1033.321 -106.133 1023.488 -110.078 1028.095 -115.349"/><text x="1003.605" y="-136.2" fill="#000" font-family="Times,serif" font-size="14" text-anchor="middle">1</text></g><g id="node15" class="node"><title>p0x7fbc540051d0</title><ellipse cx="57.066" cy="-293" fill="none" stroke="#000" rx="36.538" ry="18"/><text x="57.066" y="-288.8" fill="#000" font-family="Times,serif" font-size="14" text-anchor="middle">zero_c</text></g><g id="node16" class="node"><title>p0x7fbc540053d0</title><polygon fill="#000" stroke="#fff" points="227.131 -229 177.131 -229 173.131 -225 173.131 -193 223.131 -193 227.131 -197 227.131 -229"/><polyline fill="none" stroke="#fff" points="223.131 -225 173.131 -225"/><polyline fill="none" stroke="#fff" points="223.131 -225 223.131 -193"/><polyline fill="none" stroke="#fff" points="223.131 -225 227.131 -229"/><text x="200.131" y="-206.8" fill="#fff" font-family="Times,serif" font-size="14" text-anchor="middle">cluster</text></g><g id="edge14" class="edge"><title>p0x7fbc540051d0-&gt;p0x7fbc540053d0</title><path fill="none" stroke="#000" d="M81.0117,-279.275C103.7105,-266.265 138.1089,-246.5491 164.1149,-231.6434"/><polygon fill="#000" stroke="#000" points="165.995 -234.6 172.931 -226.59 162.514 -228.527 165.995 -234.6"/></g><g id="node19" class="node"><title>p0x7fbc54005470</title><polygon fill="#000" stroke="#fff" points="490.938 -216 402.553 -216 398.553 -212 398.553 -180 486.938 -180 490.938 -184 490.938 -216"/><polyline fill="none" stroke="#fff" points="486.938 -212 398.553 -212"/><polyline fill="none" stroke="#fff" points="486.938 -212 486.938 -180"/><polyline fill="none" stroke="#fff" points="486.938 -212 490.938 -216"/><text x="444.745" y="-193.8" fill="#fff" font-family="Times,serif" font-size="14" text-anchor="middle">new_centroid</text></g><g id="edge17" class="edge"><title>p0x7fbc540053d0-&gt;p0x7fbc54005470</title><path fill="none" stroke="#000" d="M227.2441,-209.5591C265.8801,-207.5058 337.6837,-203.6898 388.1943,-201.0054"/><polygon fill="#000" stroke="#000" points="388.513 -204.494 398.313 -200.468 388.141 -197.503 388.513 -204.494"/></g><g id="node17" class="node"><title>p0x7fbc54005270</title><ellipse cx="57.066" cy="-239" fill="none" stroke="#000" rx="41.132" ry="18"/><text x="57.066" y="-234.8" fill="#000" font-family="Times,serif" font-size="14" text-anchor="middle">zero_sx</text></g><g id="edge15" class="edge"><title>p0x7fbc54005270-&gt;p0x7fbc540053d0</title><path fill="none" stroke="#000" d="M94.6546,-231.6433C115.714,-227.5217 141.8832,-222.4 162.8866,-218.2894"/><polygon fill="#000" stroke="#000" points="163.596 -221.717 172.737 -216.361 162.251 -214.847 163.596 -221.717"/></g><g id="node18" class="node"><title>p0x7fbc54005330</title><ellipse cx="57.066" cy="-185" fill="none" stroke="#000" rx="41.132" ry="18"/><text x="57.066" y="-180.8" fill="#000" font-family="Times,serif" font-size="14" text-anchor="middle">zero_sy</text></g><g id="edge16" class="edge"><title>p0x7fbc54005330-&gt;p0x7fbc540053d0</title><path fill="none" stroke="#000" d="M95.0291,-191.8993C115.9909,-195.7087 141.9264,-200.4221 162.7887,-204.2135"/><polygon fill="#000" stroke="#000" points="162.415 -207.703 172.88 -206.047 163.667 -200.816 162.415 -207.703"/></g><g id="edge18" class="edge"><title>p0x7fbc54005470-&gt;p0x562f9807b440</title><path fill="none" stroke="#000" d="M490.8938,-195.9257C540.9364,-193.6764 620.9369,-190.0806 675.3812,-187.6334"/><polygon fill="#000" stroke="#000" points="675.742 -191.121 685.574 -187.175 675.427 -184.128 675.742 -191.121"/></g><g id="node21" class="node"><title>p0x562f9807b110</title><ellipse cx="1143.105" cy="-88" fill="none" stroke="#000" rx="27" ry="18"/><text x="1143.105" y="-83.8" fill="#000" font-family="Times,serif" font-size="14" text-anchor="middle">free</text></g><g id="edge21" class="edge"><title>p0x562f9807b220-&gt;p0x562f9807b110</title><path fill="none" stroke="#000" d="M1079.4077,-88C1087.686,-88 1096.9264,-88 1105.7452,-88"/><polygon fill="#000" stroke="#000" points="1105.821 -91.5 1115.821 -88 1105.821 -84.5 1105.821 -91.5"/></g><g id="node22" class="node"><title>p0x7fbc5400bf40</title><ellipse cx="733.97" cy="-88" fill="none" stroke="#000" rx="42.883" ry="18"/><text x="733.97" y="-83.8" fill="#000" font-family="Times,serif" font-size="14" text-anchor="middle">d2h_mx</text></g><g id="edge22" class="edge"><title>p0x7fbc5400bf40-&gt;p0x562f9807b220</title><path fill="none" stroke="#000" d="M776.8752,-88C839.5942,-88 955.2903,-88 1014.7191,-88"/><polygon fill="#000" stroke="#000" points="1014.792 -91.5 1024.792 -88 1014.792 -84.5 1014.792 -91.5"/></g><g id="node23" class="node"><title>p0x7fbc54008020</title><ellipse cx="733.97" cy="-34" fill="none" stroke="#000" rx="42.883" ry="18"/><text x="733.97" y="-29.8" fill="#000" font-family="Times,serif" font-size="14" text-anchor="middle">d2h_my</text></g><g id="edge23" class="edge"><title>p0x7fbc54008020-&gt;p0x562f9807b220</title><path fill="none" stroke="#000" d="M773.6189,-40.73C835.6568,-51.2602 954.8051,-71.4844 1015.145,-81.7265"/><polygon fill="#000" stroke="#000" points="1014.56 -85.177 1025.004 -83.4 1015.731 -78.276 1014.56 -85.177"/></g></g></svg>