<svg xmlns="http://www.w3.org/2000/svg" xmlns:xlink="http://www.w3.org/1999/xlink" width="1448pt" height="664" viewBox="0 0 1448.13 497.8"><g id="graph0" class="graph" transform="scale(1 1) rotate(0) translate(4 493.8)"><title>Taskflow</title><polygon fill="#fff" stroke="transparent" points="-4 4 -4 -493.8 1444.133 -493.8 1444.133 4 -4 4"/><g id="node1" class="node"><title>p0x55f65ae0eab0</title><ellipse cx="1073.587" cy="-471.8" fill="none" stroke="#000" rx="27" ry="18"/><text x="1073.587" y="-467.6" fill="#000" font-family="Times,serif" font-size="14" text-anchor="middle">init</text></g><g id="node2" class="node"><title>p0x55f65ae0ebc0</title><ellipse cx="1073.587" cy="-398.8" fill="none" stroke="#000" rx="45.789" ry="18"/><text x="1073.587" y="-394.6" fill="#000" font-family="Times,serif" font-size="14" text-anchor="middle">clean_up</text></g><g id="edge1" class="edge"><title>p0x55f65ae0eab0-&gt;p0x55f65ae0ebc0</title><path fill="none" stroke="#000" d="M1073.5866,-453.7551C1073.5866,-445.6828 1073.5866,-435.9764 1073.5866,-426.9817"/><polygon fill="#000" stroke="#000" points="1077.087 -426.89 1073.587 -416.89 1070.087 -426.89 1077.087 -426.89"/></g><g id="node3" class="node"><title>p0x55f65ae0ecd0</title><ellipse cx="738.587" cy="-325.8" fill="none" stroke="#000" rx="84.531" ry="18"/><text x="738.587" y="-321.6" fill="#000" font-family="Times,serif" font-size="14" text-anchor="middle">beg_assign_cluster</text></g><g id="edge2" class="edge"><title>p0x55f65ae0ebc0-&gt;p0x55f65ae0ecd0</title><path fill="none" stroke="#000" d="M1033.1777,-389.9945C977.281,-377.814 875.5763,-355.6515 807.538,-340.8252"/><polygon fill="#000" stroke="#000" points="808.269 -337.402 797.753 -338.693 806.779 -344.242 808.269 -337.402"/></g><g id="node4" class="node"><title>p0x55f65ae0eef0</title><ellipse cx="48.587" cy="-252.8" fill="none" stroke="#000" rx="48.673" ry="18"/><text x="48.587" y="-248.6" fill="#000" font-family="Times,serif" font-size="14" text-anchor="middle">partition0</text></g><g id="edge3" class="edge"><title>p0x55f65ae0ecd0-&gt;p0x55f65ae0eef0</title><path fill="none" stroke="#000" d="M657.1534,-320.9611C510.8099,-311.8929 208.9706,-291.392 105.5866,-270.8 101.6905,-270.024 97.685,-269.0775 93.69,-268.029"/><polygon fill="#000" stroke="#000" points="94.424 -264.599 83.849 -265.251 92.522 -271.336 94.424 -264.599"/></g><g id="node5" class="node"><title>p0x55f65ae0f000</title><ellipse cx="163.587" cy="-252.8" fill="none" stroke="#000" rx="48.673" ry="18"/><text x="163.587" y="-248.6" fill="#000" font-family="Times,serif" font-size="14" text-anchor="middle">partition1</text></g><g id="edge4" class="edge"><title>p0x55f65ae0ecd0-&gt;p0x55f65ae0f000</title><path fill="none" stroke="#000" d="M655.707,-322.1147C552.7628,-316.3694 372.1892,-302.4527 220.5866,-270.8 216.7533,-269.9997 212.8117,-269.0442 208.8769,-267.9967"/><polygon fill="#000" stroke="#000" points="209.752 -264.607 199.176 -265.239 207.838 -271.34 209.752 -264.607"/></g><g id="node6" class="node"><title>p0x55f65ae0f110</title><ellipse cx="278.587" cy="-252.8" fill="none" stroke="#000" rx="48.673" ry="18"/><text x="278.587" y="-248.6" fill="#000" font-family="Times,serif" font-size="14" text-anchor="middle">partition2</text></g><g id="edge5" class="edge"><title>p0x55f65ae0ecd0-&gt;p0x55f65ae0f110</title><path fill="none" stroke="#000" d="M659.873,-319.0577C578.1253,-311.1252 446.8603,-295.7716 335.5866,-270.8 331.7657,-269.9425 327.8328,-268.9468 323.9039,-267.8721"/><polygon fill="#000" stroke="#000" points="324.791 -264.485 314.212 -265.072 322.848 -271.21 324.791 -264.485"/></g><g id="node7" class="node"><title>p0x55f65ae0f220</title><ellipse cx="393.587" cy="-252.8" fill="none" stroke="#000" rx="48.673" ry="18"/><text x="393.587" y="-248.6" fill="#000" font-family="Times,serif" font-size="14" text-anchor="middle">partition3</text></g><g id="edge6" class="edge"><title>p0x55f65ae0ecd0-&gt;p0x55f65ae0f220</title><path fill="none" stroke="#000" d="M670.3019,-315.0793C611.6336,-305.3171 524.9894,-289.5835 450.5866,-270.8 447.0052,-269.8959 443.3178,-268.8952 439.6231,-267.8422"/><polygon fill="#000" stroke="#000" points="440.476 -264.445 429.894 -264.964 438.49 -271.157 440.476 -264.445"/></g><g id="node8" class="node"><title>p0x55f65ae0f330</title><ellipse cx="508.587" cy="-252.8" fill="none" stroke="#000" rx="48.673" ry="18"/><text x="508.587" y="-248.6" fill="#000" font-family="Times,serif" font-size="14" text-anchor="middle">partition4</text></g><g id="edge7" class="edge"><title>p0x55f65ae0ecd0-&gt;p0x55f65ae0f330</title><path fill="none" stroke="#000" d="M691.4876,-310.8512C651.748,-298.2382 595.1547,-280.276 555.4748,-267.6819"/><polygon fill="#000" stroke="#000" points="556.362 -264.291 545.772 -264.602 554.244 -270.964 556.362 -264.291"/></g><g id="node9" class="node"><title>p0x55f65ae0f440</title><ellipse cx="623.587" cy="-252.8" fill="none" stroke="#000" rx="48.673" ry="18"/><text x="623.587" y="-248.6" fill="#000" font-family="Times,serif" font-size="14" text-anchor="middle">partition5</text></g><g id="edge8" class="edge"><title>p0x55f65ae0ecd0-&gt;p0x55f65ae0f440</title><path fill="none" stroke="#000" d="M711.6242,-308.6847C695.3426,-298.3495 674.4591,-285.093 657.1181,-274.0853"/><polygon fill="#000" stroke="#000" points="658.734 -270.966 648.416 -268.561 654.983 -276.875 658.734 -270.966"/></g><g id="node10" class="node"><title>p0x55f65ae0f550</title><ellipse cx="738.587" cy="-252.8" fill="none" stroke="#000" rx="48.673" ry="18"/><text x="738.587" y="-248.6" fill="#000" font-family="Times,serif" font-size="14" text-anchor="middle">partition6</text></g><g id="edge9" class="edge"><title>p0x55f65ae0ecd0-&gt;p0x55f65ae0f550</title><path fill="none" stroke="#000" d="M738.5866,-307.7551C738.5866,-299.6828 738.5866,-289.9764 738.5866,-280.9817"/><polygon fill="#000" stroke="#000" points="742.087 -280.89 738.587 -270.89 735.087 -280.89 742.087 -280.89"/></g><g id="node11" class="node"><title>p0x55f65ae0f660</title><ellipse cx="853.587" cy="-252.8" fill="none" stroke="#000" rx="48.673" ry="18"/><text x="853.587" y="-248.6" fill="#000" font-family="Times,serif" font-size="14" text-anchor="middle">partition7</text></g><g id="edge10" class="edge"><title>p0x55f65ae0ecd0-&gt;p0x55f65ae0f660</title><path fill="none" stroke="#000" d="M765.549,-308.6847C781.8306,-298.3495 802.714,-285.093 820.055,-274.0853"/><polygon fill="#000" stroke="#000" points="822.19 -276.875 828.757 -268.561 818.439 -270.966 822.19 -276.875"/></g><g id="node12" class="node"><title>p0x55f65ae0f770</title><ellipse cx="968.587" cy="-252.8" fill="none" stroke="#000" rx="48.673" ry="18"/><text x="968.587" y="-248.6" fill="#000" font-family="Times,serif" font-size="14" text-anchor="middle">partition8</text></g><g id="edge11" class="edge"><title>p0x55f65ae0ecd0-&gt;p0x55f65ae0f770</title><path fill="none" stroke="#000" d="M785.6855,-310.8512C825.4251,-298.2382 882.0185,-280.276 921.6983,-267.6819"/><polygon fill="#000" stroke="#000" points="922.929 -270.964 931.402 -264.602 920.811 -264.291 922.929 -270.964"/></g><g id="node13" class="node"><title>p0x55f65ae0f880</title><ellipse cx="1083.587" cy="-252.8" fill="none" stroke="#000" rx="48.673" ry="18"/><text x="1083.587" y="-248.6" fill="#000" font-family="Times,serif" font-size="14" text-anchor="middle">partition9</text></g><g id="edge12" class="edge"><title>p0x55f65ae0ecd0-&gt;p0x55f65ae0f880</title><path fill="none" stroke="#000" d="M806.8712,-315.0793C865.5395,-305.3171 952.1838,-289.5835 1026.5866,-270.8 1030.168,-269.8959 1033.8553,-268.8952 1037.55,-267.8422"/><polygon fill="#000" stroke="#000" points="1038.683 -271.157 1047.279 -264.964 1036.697 -264.445 1038.683 -271.157"/></g><g id="node14" class="node"><title>p0x55f65ae0f990</title><ellipse cx="1203.587" cy="-252.8" fill="none" stroke="#000" rx="53.33" ry="18"/><text x="1203.587" y="-248.6" fill="#000" font-family="Times,serif" font-size="14" text-anchor="middle">partition10</text></g><g id="edge13" class="edge"><title>p0x55f65ae0ecd0-&gt;p0x55f65ae0f990</title><path fill="none" stroke="#000" d="M816.4272,-318.6039C898.0259,-310.263 1029.6838,-294.5456 1141.5866,-270.8 1145.8969,-269.8854 1150.3454,-268.8272 1154.7882,-267.691"/><polygon fill="#000" stroke="#000" points="1155.694 -271.072 1164.449 -265.105 1153.884 -264.31 1155.694 -271.072"/></g><g id="node15" class="node"><title>p0x55f65ae0faa0</title><ellipse cx="1328.587" cy="-252.8" fill="none" stroke="#000" rx="53.33" ry="18"/><text x="1328.587" y="-248.6" fill="#000" font-family="Times,serif" font-size="14" text-anchor="middle">partition11</text></g><g id="edge14" class="edge"><title>p0x55f65ae0ecd0-&gt;p0x55f65ae0faa0</title><path fill="none" stroke="#000" d="M820.9415,-321.6576C925.2113,-315.3965 1110.0196,-300.9032 1265.5866,-270.8 1270.2283,-269.9018 1275.0234,-268.8208 1279.7997,-267.64"/><polygon fill="#000" stroke="#000" points="1280.73 -271.014 1289.522 -265.103 1278.963 -264.241 1280.73 -271.014"/></g><g id="node16" class="node"><title>p0x55f65ae0ede0</title><ellipse cx="738.587" cy="-164" fill="none" stroke="#000" rx="84.531" ry="18"/><text x="738.587" y="-159.8" fill="#000" font-family="Times,serif" font-size="14" text-anchor="middle">end_assign_cluster</text></g><g id="edge16" class="edge"><title>p0x55f65ae0eef0-&gt;p0x55f65ae0ede0</title><path fill="none" stroke="#000" d="M84.5713,-240.663C91.5004,-238.5462 98.7342,-236.4859 105.5866,-234.8 191.0732,-213.7676 213.2856,-211.3518 300.5866,-200 419.5197,-184.5351 557.5365,-174.4888 646.3591,-169.0376"/><polygon fill="#000" stroke="#000" points="646.636 -172.527 656.406 -168.428 646.212 -165.54 646.636 -172.527"/></g><g id="edge17" class="edge"><title>p0x55f65ae0f000-&gt;p0x55f65ae0ede0</title><path fill="none" stroke="#000" d="M199.5666,-240.6437C206.4961,-238.5287 213.7313,-236.474 220.5866,-234.8 368.0015,-198.803 543.7946,-179.6271 648.0304,-170.6542"/><polygon fill="#000" stroke="#000" points="648.533 -174.124 658.202 -169.792 647.942 -167.149 648.533 -174.124"/></g><g id="edge18" class="edge"><title>p0x55f65ae0f110-&gt;p0x55f65ae0ede0</title><path fill="none" stroke="#000" d="M314.8942,-240.6377C321.7284,-238.5471 328.8453,-236.5027 335.5866,-234.8 445.1741,-207.1206 574.2185,-186.4981 656.1989,-174.853"/><polygon fill="#000" stroke="#000" points="656.793 -178.304 666.206 -173.443 655.816 -171.373 656.793 -178.304"/></g><g id="edge19" class="edge"><title>p0x55f65ae0f220-&gt;p0x55f65ae0ede0</title><path fill="none" stroke="#000" d="M430.2763,-240.8291C437.009,-238.7421 443.9919,-236.6498 450.5866,-234.8 525.335,-213.8336 611.9381,-193.0047 670.5022,-179.4243"/><polygon fill="#000" stroke="#000" points="671.422 -182.804 680.377 -177.142 669.846 -175.984 671.422 -182.804"/></g><g id="edge20" class="edge"><title>p0x55f65ae0f330-&gt;p0x55f65ae0ede0</title><path fill="none" stroke="#000" d="M542.5239,-239.6973C580.941,-224.8649 643.9149,-200.5515 688.1024,-183.4913"/><polygon fill="#000" stroke="#000" points="689.44 -186.727 697.509 -179.86 686.919 -180.196 689.44 -186.727"/></g><g id="edge21" class="edge"><title>p0x55f65ae0f440-&gt;p0x55f65ae0ede0</title><path fill="none" stroke="#000" d="M644.6793,-236.5127C662.3814,-222.8436 687.9043,-203.1356 707.8749,-187.7147"/><polygon fill="#000" stroke="#000" points="710.279 -190.28 716.055 -181.398 706.001 -184.74 710.279 -190.28"/></g><g id="edge22" class="edge"><title>p0x55f65ae0f550-&gt;p0x55f65ae0ede0</title><path fill="none" stroke="#000" d="M738.5866,-234.4006C738.5866,-222.2949 738.5866,-206.2076 738.5866,-192.4674"/><polygon fill="#000" stroke="#000" points="742.087 -192.072 738.587 -182.072 735.087 -192.072 742.087 -192.072"/></g><g id="edge23" class="edge"><title>p0x55f65ae0f660-&gt;p0x55f65ae0ede0</title><path fill="none" stroke="#000" d="M832.4938,-236.5127C814.7917,-222.8436 789.2689,-203.1356 769.2982,-187.7147"/><polygon fill="#000" stroke="#000" points="771.172 -184.74 761.118 -181.398 766.894 -190.28 771.172 -184.74"/></g><g id="edge24" class="edge"><title>p0x55f65ae0f770-&gt;p0x55f65ae0ede0</title><path fill="none" stroke="#000" d="M934.6493,-239.6973C896.2321,-224.8649 833.2582,-200.5515 789.0708,-183.4913"/><polygon fill="#000" stroke="#000" points="790.254 -180.196 779.664 -179.86 787.733 -186.727 790.254 -180.196"/></g><g id="edge25" class="edge"><title>p0x55f65ae0f880-&gt;p0x55f65ae0ede0</title><path fill="none" stroke="#000" d="M1046.8968,-240.8291C1040.1642,-238.7421 1033.1812,-236.6498 1026.5866,-234.8 951.8381,-213.8336 865.235,-193.0047 806.671,-179.4243"/><polygon fill="#000" stroke="#000" points="807.328 -175.984 796.796 -177.142 805.751 -182.804 807.328 -175.984"/></g><g id="edge26" class="edge"><title>p0x55f65ae0f990-&gt;p0x55f65ae0ede0</title><path fill="none" stroke="#000" d="M1164.0651,-240.6318C1156.6342,-238.5417 1148.9014,-236.4991 1141.5866,-234.8 1030.771,-209.0599 900.8872,-187.8169 819.1615,-175.518"/><polygon fill="#000" stroke="#000" points="819.353 -172.008 808.945 -173.989 818.317 -178.931 819.353 -172.008"/></g><g id="edge27" class="edge"><title>p0x55f65ae0faa0-&gt;p0x55f65ae0ede0</title><path fill="none" stroke="#000" d="M1289.1316,-240.666C1281.3725,-238.5244 1273.2591,-236.4542 1265.5866,-234.8 1113.4083,-201.9901 933.0408,-181.6841 827.6558,-171.6456"/><polygon fill="#000" stroke="#000" points="827.666 -168.131 817.381 -170.677 827.009 -175.1 827.666 -168.131"/></g><g id="node17" class="node"><title>p0x55f65ae0fbb0</title><ellipse cx="1170.587" cy="-91" fill="none" stroke="#000" rx="67.195" ry="18"/><text x="1170.587" y="-86.8" fill="#000" font-family="Times,serif" font-size="14" text-anchor="middle">update_cluster</text></g><g id="edge15" class="edge"><title>p0x55f65ae0ede0-&gt;p0x55f65ae0fbb0</title><path fill="none" stroke="#000" d="M805.1398,-152.7537C886.1685,-139.0614 1022.2317,-116.0692 1103.5007,-102.3363"/><polygon fill="#000" stroke="#000" points="1104.342 -105.744 1113.619 -100.626 1103.176 -98.842 1104.342 -105.744"/></g><g id="node18" class="node"><title>p0x55f65ae0fcc0</title><polygon fill="#7fffd4" stroke="#000" points="1361.587 -36 1282.994 -18 1361.587 0 1440.179 -18 1361.587 -36"/><text x="1361.587" y="-13.8" fill="#000" font-family="Times,serif" font-size="14" text-anchor="middle">converged?</text></g><g id="edge28" class="edge"><title>p0x55f65ae0fbb0-&gt;p0x55f65ae0fcc0</title><path fill="none" stroke="#000" d="M1209.2383,-76.2274C1242.2758,-63.6004 1289.5846,-45.5191 1322.6919,-32.8655"/><polygon fill="#000" stroke="#000" points="1323.962 -36.127 1332.054 -29.287 1321.463 -29.588 1323.962 -36.127"/></g><g id="edge29" class="edge"><title>p0x55f65ae0fcc0-&gt;p0x55f65ae0ebc0</title><path fill="none" stroke="#000" stroke-dasharray="5 2" d="M1378.3746,-32.4072C1392.2165,-45.9691 1409.5866,-67.6415 1409.5866,-91 1409.5866,-325.8 1409.5866,-325.8 1409.5866,-325.8 1409.5866,-354.2738 1222.9459,-380.8542 1127.8727,-392.547"/><polygon fill="#000" stroke="#000" points="1127.362 -389.083 1117.858 -393.765 1128.208 -396.032 1127.362 -389.083"/><text x="1413.087" y="-204.2" fill="#000" font-family="Times,serif" font-size="14" text-anchor="middle">0</text></g></g></svg>