<svg xmlns="http://www.w3.org/2000/svg" xmlns:xlink="http://www.w3.org/1999/xlink" width="307pt" height="152pt" viewBox="0 0 306.65 152"><g id="graph0" class="graph" transform="scale(1 1) rotate(0) translate(4 148)"><title>Taskflow</title><polygon fill="#fff" stroke="transparent" points="-4 4 -4 -148 302.649 -148 302.649 4 -4 4"/><g id="node1" class="node"><title>p0x55d923794f10</title><ellipse cx="50.72" cy="-126" fill="none" stroke="#000" rx="50.357" ry="18"/><text x="50.72" y="-121.8" fill="#000" font-family="Times,serif" font-size="14" text-anchor="middle">allocate_a</text></g><g id="node2" class="node"><title>p0x55d923795240</title><polygon fill="#0ff" stroke="#000" points="208.753 -90 205.753 -94 184.753 -94 181.753 -90 137.335 -90 137.335 -54 208.753 -54 208.753 -90"/><text x="173.044" y="-67.8" fill="#000" font-family="Times,serif" font-size="14" text-anchor="middle">cudaFlow</text></g><g id="edge1" class="edge"><title>p0x55d923794f10-&gt;p0x55d923795240</title><path fill="none" stroke="#000" d="M82.5397,-111.9531C96.3746,-105.8457 112.8345,-98.5795 127.8997,-91.929"/><polygon fill="#000" stroke="#000" points="129.329 -95.124 137.064 -87.883 126.502 -88.72 129.329 -95.124"/></g><g id="node5" class="node"><title>p0x55d923795350</title><ellipse cx="271.649" cy="-72" fill="none" stroke="#000" rx="27" ry="18"/><text x="271.649" y="-67.8" fill="#000" font-family="Times,serif" font-size="14" text-anchor="middle">free</text></g><g id="edge4" class="edge"><title>p0x55d923795240-&gt;p0x55d923795350</title><path fill="none" stroke="#000" d="M208.9215,-72C217.2071,-72 226.0403,-72 234.3836,-72"/><polygon fill="#000" stroke="#000" points="234.612 -75.5 244.612 -72 234.612 -68.5 234.612 -75.5"/></g><g id="node3" class="node"><title>p0x55d923795020</title><ellipse cx="50.72" cy="-72" fill="none" stroke="#000" rx="50.941" ry="18"/><text x="50.72" y="-67.8" fill="#000" font-family="Times,serif" font-size="14" text-anchor="middle">allocate_b</text></g><g id="edge2" class="edge"><title>p0x55d923795020-&gt;p0x55d923795240</title><path fill="none" stroke="#000" d="M101.5336,-72C109.9337,-72 118.6019,-72 126.8796,-72"/><polygon fill="#000" stroke="#000" points="127.106 -75.5 137.106 -72 127.106 -68.5 127.106 -75.5"/></g><g id="node4" class="node"><title>p0x55d923795130</title><ellipse cx="50.72" cy="-18" fill="none" stroke="#000" rx="50.357" ry="18"/><text x="50.72" y="-13.8" fill="#000" font-family="Times,serif" font-size="14" text-anchor="middle">allocate_c</text></g><g id="edge3" class="edge"><title>p0x55d923795130-&gt;p0x55d923795240</title><path fill="none" stroke="#000" d="M82.5397,-32.0469C96.3746,-38.1543 112.8345,-45.4205 127.8997,-52.071"/><polygon fill="#000" stroke="#000" points="126.502 -55.28 137.064 -56.117 129.329 -48.876 126.502 -55.28"/></g></g></svg>