<svg xmlns="http://www.w3.org/2000/svg" xmlns:xlink="http://www.w3.org/1999/xlink" width="242pt" height="98pt" viewBox="0 0 242 98"><g id="graph0" class="graph" transform="scale(1 1) rotate(0) translate(4 94)"><title>Taskflow</title><polygon fill="#fff" stroke="transparent" points="-4 4 -4 -94 238 -94 238 4 -4 4"/><g id="node1" class="node"><title>A</title><ellipse cx="27" cy="-45" fill="none" stroke="#000" rx="27" ry="18"/><text x="27" y="-40.8" fill="#000" font-family="Times,serif" font-size="14" text-anchor="middle">A</text></g><g id="node2" class="node"><title>B</title><ellipse cx="117" cy="-72" fill="none" stroke="#000" rx="27" ry="18"/><text x="117" y="-67.8" fill="#000" font-family="Times,serif" font-size="14" text-anchor="middle">B</text></g><g id="edge1" class="edge"><title>A-&gt;B</title><path fill="none" stroke="#000" d="M52.07,-52.521C61.5102,-55.3531 72.4169,-58.6251 82.564,-61.6692"/><polygon fill="#000" stroke="#000" points="81.791 -65.091 92.376 -64.613 83.803 -58.387 81.791 -65.091"/></g><g id="node3" class="node"><title>C</title><ellipse cx="117" cy="-18" fill="none" stroke="#000" rx="27" ry="18"/><text x="117" y="-13.8" fill="#000" font-family="Times,serif" font-size="14" text-anchor="middle">C</text></g><g id="edge2" class="edge"><title>A-&gt;C</title><path fill="none" stroke="#000" d="M52.07,-37.479C61.5102,-34.6469 72.4169,-31.3749 82.564,-28.3308"/><polygon fill="#000" stroke="#000" points="83.803 -31.613 92.376 -25.387 81.791 -24.909 83.803 -31.613"/></g><g id="node4" class="node"><title>D</title><ellipse cx="207" cy="-45" fill="none" stroke="#000" rx="27" ry="18"/><text x="207" y="-40.8" fill="#000" font-family="Times,serif" font-size="14" text-anchor="middle">D</text></g><g id="edge3" class="edge"><title>B-&gt;D</title><path fill="none" stroke="#000" d="M142.07,-64.479C151.5102,-61.6469 162.4169,-58.3749 172.564,-55.3308"/><polygon fill="#000" stroke="#000" points="173.803 -58.613 182.375 -52.387 171.792 -51.908 173.803 -58.613"/></g><g id="edge4" class="edge"><title>C-&gt;D</title><path fill="none" stroke="#000" d="M142.07,-25.521C151.5102,-28.3531 162.4169,-31.6251 172.564,-34.6692"/><polygon fill="#000" stroke="#000" points="171.792 -38.092 182.375 -37.613 173.803 -31.387 171.792 -38.092"/></g></g></svg>