<svg xmlns="http://www.w3.org/2000/svg" xmlns:xlink="http://www.w3.org/1999/xlink" width="244pt" height="350pt" viewBox="0 0 244 349.6"><g id="graph0" class="graph" transform="scale(1 1) rotate(0) translate(4 345.6)"><title>Taskflow</title><polygon fill="#fff" stroke="transparent" points="-4 4 -4 -345.6 240 -345.6 240 4 -4 4"/><g id="clust1" class="cluster"><title>cluster_p0x7ffee9781810</title><polygon fill="none" stroke="#000" points="8 -8 8 -333.6 228 -333.6 228 -8 8 -8"/><text x="118" y="-317" fill="#000" font-family="Times,serif" font-size="14" text-anchor="middle">Taskflow</text></g><g id="clust2" class="cluster"><title>cluster_p0x7f9866c01b70</title><polygon fill="none" stroke="#00f" points="78 -80 78 -300.8 220 -300.8 220 -80 78 -80"/><text x="149" y="-284.2" fill="#000" font-family="Times,serif" font-size="14" text-anchor="middle">Subflow: B</text></g><g id="node1" class="node"><title>p0x7f9866c01820</title><ellipse cx="43" cy="-178" fill="none" stroke="#000" rx="27" ry="18"/><text x="43" y="-173.8" fill="#000" font-family="Times,serif" font-size="14" text-anchor="middle">A</text></g><g id="node2" class="node"><title>p0x7f9866c01b70</title><ellipse cx="115" cy="-106" fill="none" stroke="#000" rx="27" ry="18"/><text x="115" y="-101.8" fill="#000" font-family="Times,serif" font-size="14" text-anchor="middle">B</text></g><g id="edge1" class="edge"><title>p0x7f9866c01820-&gt;p0x7f9866c01b70</title><path fill="none" stroke="#000" d="M58.2693,-162.7307C68.197,-152.803 81.3153,-139.6847 92.4363,-128.5637"/><polygon fill="#000" stroke="#000" points="95.156 -130.793 99.753 -121.247 90.207 -125.844 95.156 -130.793"/></g><g id="node3" class="node"><title>p0x7f9866c01930</title><ellipse cx="43" cy="-106" fill="none" stroke="#000" rx="27" ry="18"/><text x="43" y="-101.8" fill="#000" font-family="Times,serif" font-size="14" text-anchor="middle">C</text></g><g id="edge2" class="edge"><title>p0x7f9866c01820-&gt;p0x7f9866c01930</title><path fill="none" stroke="#000" d="M43,-159.8314C43,-152.131 43,-142.9743 43,-134.4166"/><polygon fill="#000" stroke="#000" points="46.5 -134.413 43 -124.413 39.5 -134.413 46.5 -134.413"/></g><g id="node4" class="node"><title>p0x7f9866c01a40</title><ellipse cx="79" cy="-34" fill="none" stroke="#000" rx="27" ry="18"/><text x="79" y="-29.8" fill="#000" font-family="Times,serif" font-size="14" text-anchor="middle">D</text></g><g id="edge4" class="edge"><title>p0x7f9866c01b70-&gt;p0x7f9866c01a40</title><path fill="none" stroke="#000" d="M106.2854,-88.5708C102.0403,-80.0807 96.8464,-69.6929 92.1337,-60.2674"/><polygon fill="#000" stroke="#000" points="95.237 -58.648 87.634 -51.269 88.976 -61.778 95.237 -58.648"/></g><g id="edge3" class="edge"><title>p0x7f9866c01930-&gt;p0x7f9866c01a40</title><path fill="none" stroke="#000" d="M51.7146,-88.5708C55.9597,-80.0807 61.1536,-69.6929 65.8663,-60.2674"/><polygon fill="#000" stroke="#000" points="69.024 -61.778 70.366 -51.269 62.763 -58.648 69.024 -61.778"/></g><g id="node5" class="node"><title>p0x7f9866d01880</title><ellipse cx="185" cy="-250" fill="none" stroke="#000" rx="27" ry="18"/><text x="185" y="-245.8" fill="#000" font-family="Times,serif" font-size="14" text-anchor="middle">B1</text></g><g id="node6" class="node"><title>p0x7f9866d01ac0</title><ellipse cx="115" cy="-178" fill="none" stroke="#000" rx="27" ry="18"/><text x="115" y="-173.8" fill="#000" font-family="Times,serif" font-size="14" text-anchor="middle">B3</text></g><g id="edge5" class="edge"><title>p0x7f9866d01880-&gt;p0x7f9866d01ac0</title><path fill="none" stroke="#000" d="M170.1548,-234.7307C160.5029,-224.803 147.749,-211.6847 136.9369,-200.5637"/><polygon fill="#000" stroke="#000" points="139.304 -197.977 129.824 -193.247 134.285 -202.857 139.304 -197.977"/></g><g id="edge7" class="edge"><title>p0x7f9866d01ac0-&gt;p0x7f9866c01b70</title><path fill="none" stroke="#000" d="M115,-159.8314C115,-152.131 115,-142.9743 115,-134.4166"/><polygon fill="#000" stroke="#000" points="118.5 -134.413 115 -124.413 111.5 -134.413 118.5 -134.413"/></g><g id="node7" class="node"><title>p0x7f9866d019a0</title><ellipse cx="113" cy="-250" fill="none" stroke="#000" rx="27" ry="18"/><text x="113" y="-245.8" fill="#000" font-family="Times,serif" font-size="14" text-anchor="middle">B2</text></g><g id="edge6" class="edge"><title>p0x7f9866d019a0-&gt;p0x7f9866d01ac0</title><path fill="none" stroke="#000" d="M113.5047,-231.8314C113.7186,-224.131 113.9729,-214.9743 114.2106,-206.4166"/><polygon fill="#000" stroke="#000" points="117.709 -206.507 114.489 -196.413 110.712 -206.312 117.709 -206.507"/></g></g></svg>