<svg xmlns="http://www.w3.org/2000/svg" xmlns:xlink="http://www.w3.org/1999/xlink" width="739pt" height="206pt" viewBox="0 0 739.07 206"><g id="graph0" class="graph" transform="scale(1 1) rotate(0) translate(4 202)"><title>Taskflow</title><polygon fill="#fff" stroke="transparent" points="-4 4 -4 -202 735.069 -202 735.069 4 -4 4"/><g id="node1" class="node"><title>p0x563eef67dc70</title><ellipse cx="36.791" cy="-99" fill="none" stroke="#000" rx="36.582" ry="18"/><text x="36.791" y="-94.8" fill="#000" font-family="Times,serif" font-size="14" text-anchor="middle">B_0_0</text></g><g id="node2" class="node"><title>p0x563eef67dd78</title><ellipse cx="146.372" cy="-126" fill="none" stroke="#000" rx="36.582" ry="18"/><text x="146.372" y="-121.8" fill="#000" font-family="Times,serif" font-size="14" text-anchor="middle">B_0_1</text></g><g id="edge1" class="edge"><title>p0x563eef67dc70-&gt;p0x563eef67dd78</title><path fill="none" stroke="#000" d="M69.6686,-107.1009C80.1908,-109.6935 92.0039,-112.6041 103.1481,-115.35"/><polygon fill="#000" stroke="#000" points="102.591 -118.817 113.138 -117.811 104.266 -112.021 102.591 -118.817"/></g><g id="node3" class="node"><title>p0x563eef67e090</title><ellipse cx="146.372" cy="-72" fill="none" stroke="#000" rx="36.582" ry="18"/><text x="146.372" y="-67.8" fill="#000" font-family="Times,serif" font-size="14" text-anchor="middle">B_1_0</text></g><g id="edge2" class="edge"><title>p0x563eef67dc70-&gt;p0x563eef67e090</title><path fill="none" stroke="#000" d="M69.6686,-90.8991C80.1908,-88.3065 92.0039,-85.3959 103.1481,-82.65"/><polygon fill="#000" stroke="#000" points="104.266 -85.979 113.138 -80.189 102.591 -79.183 104.266 -85.979"/></g><g id="node4" class="node"><title>p0x563eef67de80</title><ellipse cx="255.953" cy="-153" fill="none" stroke="#000" rx="36.582" ry="18"/><text x="255.953" y="-148.8" fill="#000" font-family="Times,serif" font-size="14" text-anchor="middle">B_0_2</text></g><g id="edge3" class="edge"><title>p0x563eef67dd78-&gt;p0x563eef67de80</title><path fill="none" stroke="#000" d="M179.2498,-134.1009C189.772,-136.6935 201.5852,-139.6041 212.7294,-142.35"/><polygon fill="#000" stroke="#000" points="212.173 -145.817 222.72 -144.811 213.847 -139.021 212.173 -145.817"/></g><g id="node5" class="node"><title>p0x563eef67e198</title><ellipse cx="255.953" cy="-99" fill="none" stroke="#000" rx="36.582" ry="18"/><text x="255.953" y="-94.8" fill="#000" font-family="Times,serif" font-size="14" text-anchor="middle">B_1_1</text></g><g id="edge4" class="edge"><title>p0x563eef67dd78-&gt;p0x563eef67e198</title><path fill="none" stroke="#000" d="M179.2498,-117.8991C189.772,-115.3065 201.5852,-112.3959 212.7294,-109.65"/><polygon fill="#000" stroke="#000" points="213.847 -112.979 222.72 -107.189 212.173 -106.183 213.847 -112.979"/></g><g id="edge8" class="edge"><title>p0x563eef67e090-&gt;p0x563eef67e198</title><path fill="none" stroke="#000" d="M179.2498,-80.1009C189.772,-82.6935 201.5852,-85.6041 212.7294,-88.35"/><polygon fill="#000" stroke="#000" points="212.173 -91.817 222.72 -90.811 213.847 -85.021 212.173 -91.817"/></g><g id="node9" class="node"><title>p0x563eef67e4b0</title><ellipse cx="255.953" cy="-45" fill="none" stroke="#000" rx="36.582" ry="18"/><text x="255.953" y="-40.8" fill="#000" font-family="Times,serif" font-size="14" text-anchor="middle">B_2_0</text></g><g id="edge9" class="edge"><title>p0x563eef67e090-&gt;p0x563eef67e4b0</title><path fill="none" stroke="#000" d="M179.2498,-63.8991C189.772,-61.3065 201.5852,-58.3959 212.7294,-55.65"/><polygon fill="#000" stroke="#000" points="213.847 -58.979 222.72 -53.188 212.173 -52.183 213.847 -58.979"/></g><g id="node6" class="node"><title>p0x563eef67df88</title><ellipse cx="365.534" cy="-180" fill="none" stroke="#000" rx="36.582" ry="18"/><text x="365.534" y="-175.8" fill="#000" font-family="Times,serif" font-size="14" text-anchor="middle">B_0_3</text></g><g id="edge5" class="edge"><title>p0x563eef67de80-&gt;p0x563eef67df88</title><path fill="none" stroke="#000" d="M288.831,-161.1009C299.3533,-163.6935 311.1664,-166.6041 322.3106,-169.35"/><polygon fill="#000" stroke="#000" points="321.754 -172.817 332.301 -171.811 323.428 -166.021 321.754 -172.817"/></g><g id="node7" class="node"><title>p0x563eef67e2a0</title><ellipse cx="365.534" cy="-126" fill="none" stroke="#000" rx="36.582" ry="18"/><text x="365.534" y="-121.8" fill="#000" font-family="Times,serif" font-size="14" text-anchor="middle">B_1_2</text></g><g id="edge6" class="edge"><title>p0x563eef67de80-&gt;p0x563eef67e2a0</title><path fill="none" stroke="#000" d="M288.831,-144.8991C299.3533,-142.3065 311.1664,-139.3959 322.3106,-136.65"/><polygon fill="#000" stroke="#000" points="323.428 -139.979 332.301 -134.189 321.754 -133.183 323.428 -139.979"/></g><g id="edge10" class="edge"><title>p0x563eef67e198-&gt;p0x563eef67e2a0</title><path fill="none" stroke="#000" d="M288.831,-107.1009C299.3533,-109.6935 311.1664,-112.6041 322.3106,-115.35"/><polygon fill="#000" stroke="#000" points="321.754 -118.817 332.301 -117.811 323.428 -112.021 321.754 -118.817"/></g><g id="node10" class="node"><title>p0x563eef67e5b8</title><ellipse cx="365.534" cy="-72" fill="none" stroke="#000" rx="36.582" ry="18"/><text x="365.534" y="-67.8" fill="#000" font-family="Times,serif" font-size="14" text-anchor="middle">B_2_1</text></g><g id="edge11" class="edge"><title>p0x563eef67e198-&gt;p0x563eef67e5b8</title><path fill="none" stroke="#000" d="M288.831,-90.8991C299.3533,-88.3065 311.1664,-85.3959 322.3106,-82.65"/><polygon fill="#000" stroke="#000" points="323.428 -85.979 332.301 -80.189 321.754 -79.183 323.428 -85.979"/></g><g id="node8" class="node"><title>p0x563eef67e3a8</title><ellipse cx="475.115" cy="-153" fill="none" stroke="#000" rx="36.582" ry="18"/><text x="475.115" y="-148.8" fill="#000" font-family="Times,serif" font-size="14" text-anchor="middle">B_1_3</text></g><g id="edge7" class="edge"><title>p0x563eef67df88-&gt;p0x563eef67e3a8</title><path fill="none" stroke="#000" d="M398.4123,-171.8991C408.9345,-169.3065 420.7476,-166.3959 431.8918,-163.65"/><polygon fill="#000" stroke="#000" points="433.01 -166.979 441.882 -161.189 431.335 -160.183 433.01 -166.979"/></g><g id="edge12" class="edge"><title>p0x563eef67e2a0-&gt;p0x563eef67e3a8</title><path fill="none" stroke="#000" d="M398.4123,-134.1009C408.9345,-136.6935 420.7476,-139.6041 431.8918,-142.35"/><polygon fill="#000" stroke="#000" points="431.335 -145.817 441.882 -144.811 433.01 -139.021 431.335 -145.817"/></g><g id="node11" class="node"><title>p0x563eef67e6c0</title><ellipse cx="475.115" cy="-99" fill="none" stroke="#000" rx="36.582" ry="18"/><text x="475.115" y="-94.8" fill="#000" font-family="Times,serif" font-size="14" text-anchor="middle">B_2_2</text></g><g id="edge13" class="edge"><title>p0x563eef67e2a0-&gt;p0x563eef67e6c0</title><path fill="none" stroke="#000" d="M398.4123,-117.8991C408.9345,-115.3065 420.7476,-112.3959 431.8918,-109.65"/><polygon fill="#000" stroke="#000" points="433.01 -112.979 441.882 -107.189 431.335 -106.183 433.01 -112.979"/></g><g id="node12" class="node"><title>p0x563eef67e7c8</title><ellipse cx="584.697" cy="-126" fill="none" stroke="#000" rx="36.582" ry="18"/><text x="584.697" y="-121.8" fill="#000" font-family="Times,serif" font-size="14" text-anchor="middle">B_2_3</text></g><g id="edge14" class="edge"><title>p0x563eef67e3a8-&gt;p0x563eef67e7c8</title><path fill="none" stroke="#000" d="M507.9935,-144.8991C518.5157,-142.3065 530.3288,-139.3959 541.473,-136.65"/><polygon fill="#000" stroke="#000" points="542.591 -139.979 551.463 -134.189 540.916 -133.183 542.591 -139.979"/></g><g id="edge15" class="edge"><title>p0x563eef67e4b0-&gt;p0x563eef67e5b8</title><path fill="none" stroke="#000" d="M288.831,-53.1009C299.3533,-55.6935 311.1664,-58.6041 322.3106,-61.35"/><polygon fill="#000" stroke="#000" points="321.754 -64.817 332.301 -63.812 323.428 -58.021 321.754 -64.817"/></g><g id="node13" class="node"><title>p0x563eef67e8d0</title><ellipse cx="365.534" cy="-18" fill="none" stroke="#000" rx="36.582" ry="18"/><text x="365.534" y="-13.8" fill="#000" font-family="Times,serif" font-size="14" text-anchor="middle">B_3_0</text></g><g id="edge16" class="edge"><title>p0x563eef67e4b0-&gt;p0x563eef67e8d0</title><path fill="none" stroke="#000" d="M288.831,-36.8991C299.3533,-34.3065 311.1664,-31.3959 322.3106,-28.65"/><polygon fill="#000" stroke="#000" points="323.428 -31.979 332.301 -26.189 321.754 -25.183 323.428 -31.979"/></g><g id="edge17" class="edge"><title>p0x563eef67e5b8-&gt;p0x563eef67e6c0</title><path fill="none" stroke="#000" d="M398.4123,-80.1009C408.9345,-82.6935 420.7476,-85.6041 431.8918,-88.35"/><polygon fill="#000" stroke="#000" points="431.335 -91.817 441.882 -90.811 433.01 -85.021 431.335 -91.817"/></g><g id="node14" class="node"><title>p0x563eef67e9d8</title><ellipse cx="475.115" cy="-45" fill="none" stroke="#000" rx="36.582" ry="18"/><text x="475.115" y="-40.8" fill="#000" font-family="Times,serif" font-size="14" text-anchor="middle">B_3_1</text></g><g id="edge18" class="edge"><title>p0x563eef67e5b8-&gt;p0x563eef67e9d8</title><path fill="none" stroke="#000" d="M398.4123,-63.8991C408.9345,-61.3065 420.7476,-58.3959 431.8918,-55.65"/><polygon fill="#000" stroke="#000" points="433.01 -58.979 441.882 -53.188 431.335 -52.183 433.01 -58.979"/></g><g id="edge19" class="edge"><title>p0x563eef67e6c0-&gt;p0x563eef67e7c8</title><path fill="none" stroke="#000" d="M507.9935,-107.1009C518.5157,-109.6935 530.3288,-112.6041 541.473,-115.35"/><polygon fill="#000" stroke="#000" points="540.916 -118.817 551.463 -117.811 542.591 -112.021 540.916 -118.817"/></g><g id="node15" class="node"><title>p0x563eef67eae0</title><ellipse cx="584.697" cy="-72" fill="none" stroke="#000" rx="36.582" ry="18"/><text x="584.697" y="-67.8" fill="#000" font-family="Times,serif" font-size="14" text-anchor="middle">B_3_2</text></g><g id="edge20" class="edge"><title>p0x563eef67e6c0-&gt;p0x563eef67eae0</title><path fill="none" stroke="#000" d="M507.9935,-90.8991C518.5157,-88.3065 530.3288,-85.3959 541.473,-82.65"/><polygon fill="#000" stroke="#000" points="542.591 -85.979 551.463 -80.189 540.916 -79.183 542.591 -85.979"/></g><g id="node16" class="node"><title>p0x563eef67ebe8</title><ellipse cx="694.278" cy="-99" fill="none" stroke="#000" rx="36.582" ry="18"/><text x="694.278" y="-94.8" fill="#000" font-family="Times,serif" font-size="14" text-anchor="middle">B_3_3</text></g><g id="edge21" class="edge"><title>p0x563eef67e7c8-&gt;p0x563eef67ebe8</title><path fill="none" stroke="#000" d="M617.5747,-117.8991C628.0969,-115.3065 639.9101,-112.3959 651.0543,-109.65"/><polygon fill="#000" stroke="#000" points="652.172 -112.979 661.044 -107.189 650.497 -106.183 652.172 -112.979"/></g><g id="edge22" class="edge"><title>p0x563eef67e8d0-&gt;p0x563eef67e9d8</title><path fill="none" stroke="#000" d="M398.4123,-26.1009C408.9345,-28.6935 420.7476,-31.6041 431.8918,-34.35"/><polygon fill="#000" stroke="#000" points="431.335 -37.817 441.882 -36.812 433.01 -31.021 431.335 -37.817"/></g><g id="edge23" class="edge"><title>p0x563eef67e9d8-&gt;p0x563eef67eae0</title><path fill="none" stroke="#000" d="M507.9935,-53.1009C518.5157,-55.6935 530.3288,-58.6041 541.473,-61.35"/><polygon fill="#000" stroke="#000" points="540.916 -64.817 551.463 -63.812 542.591 -58.021 540.916 -64.817"/></g><g id="edge24" class="edge"><title>p0x563eef67eae0-&gt;p0x563eef67ebe8</title><path fill="none" stroke="#000" d="M617.5747,-80.1009C628.0969,-82.6935 639.9101,-85.6041 651.0543,-88.35"/><polygon fill="#000" stroke="#000" points="650.497 -91.817 661.044 -90.811 652.172 -85.021 650.497 -91.817"/></g></g></svg>