<svg xmlns="http://www.w3.org/2000/svg" xmlns:xlink="http://www.w3.org/1999/xlink" width="278pt" height="116pt" viewBox="0 0 278 116"><g id="graph0" class="graph" transform="scale(1 1) rotate(0) translate(4 112)"><title>Taskflow</title><polygon fill="#fff" stroke="transparent" points="-4 4 -4 -112 274 -112 274 4 -4 4"/><g id="node1" class="node"><title>A</title><ellipse cx="135" cy="-90" fill="none" stroke="#000" rx="27" ry="18"/><text x="135" y="-85.8" fill="#000" font-family="Times,serif" font-size="14" text-anchor="middle">A</text></g><g id="node2" class="node"><title>B</title><ellipse cx="27" cy="-18" fill="none" stroke="#000" rx="27" ry="18"/><text x="27" y="-13.8" fill="#000" font-family="Times,serif" font-size="14" text-anchor="middle">B</text></g><g id="edge1" class="edge"><title>A-&gt;B</title><path fill="none" stroke="#000" d="M115.6918,-77.1278C98.6445,-65.763 73.5981,-49.0654 54.4656,-36.3104"/><polygon fill="#000" stroke="#000" points="56.403 -33.396 46.141 -30.761 52.52 -39.22 56.403 -33.396"/></g><g id="node3" class="node"><title>C</title><ellipse cx="99" cy="-18" fill="none" stroke="#000" rx="27" ry="18"/><text x="99" y="-13.8" fill="#000" font-family="Times,serif" font-size="14" text-anchor="middle">C</text></g><g id="edge2" class="edge"><title>A-&gt;C</title><path fill="none" stroke="#000" d="M126.2854,-72.5708C122.0403,-64.0807 116.8464,-53.6929 112.1337,-44.2674"/><polygon fill="#000" stroke="#000" points="115.237 -42.648 107.634 -35.269 108.976 -45.778 115.237 -42.648"/></g><g id="node4" class="node"><title>D</title><ellipse cx="171" cy="-18" fill="none" stroke="#000" rx="27" ry="18"/><text x="171" y="-13.8" fill="#000" font-family="Times,serif" font-size="14" text-anchor="middle">D</text></g><g id="edge3" class="edge"><title>A-&gt;D</title><path fill="none" stroke="#000" d="M143.7146,-72.5708C147.9597,-64.0807 153.1536,-53.6929 157.8663,-44.2674"/><polygon fill="#000" stroke="#000" points="161.024 -45.778 162.366 -35.269 154.763 -42.648 161.024 -45.778"/></g><g id="node5" class="node"><title>E</title><ellipse cx="243" cy="-18" fill="none" stroke="#000" rx="27" ry="18"/><text x="243" y="-13.8" fill="#000" font-family="Times,serif" font-size="14" text-anchor="middle">E</text></g><g id="edge4" class="edge"><title>A-&gt;E</title><path fill="none" stroke="#000" d="M154.3082,-77.1278C171.3555,-65.763 196.4019,-49.0654 215.5344,-36.3104"/><polygon fill="#000" stroke="#000" points="217.48 -39.22 223.859 -30.761 213.597 -33.396 217.48 -39.22"/></g></g></svg>