<svg xmlns="http://www.w3.org/2000/svg" xmlns:xlink="http://www.w3.org/1999/xlink" width="308" height="404pt" viewBox="0 0 231 404"><g id="graph0" class="graph" transform="scale(1 1) rotate(0) translate(4 400)"><title>Topology</title><polygon fill="#fff" stroke="transparent" points="-4 4 -4 -400 227 -400 227 4 -4 4"/><g id="node1" class="node"><title>S</title><ellipse cx="124" cy="-378" fill="none" stroke="#000" rx="27" ry="18"/><text x="124" y="-373.8" fill="#000" font-family="Times,serif" font-size="14" text-anchor="middle">S</text></g><g id="node2" class="node"><title>a0</title><ellipse cx="124" cy="-306" fill="none" stroke="#000" rx="27" ry="18"/><text x="124" y="-301.8" fill="#000" font-family="Times,serif" font-size="14" text-anchor="middle">a0</text></g><g id="edge1" class="edge"><title>S-&gt;a0</title><path fill="none" stroke="#000" d="M124,-359.8314C124,-352.131 124,-342.9743 124,-334.4166"/><polygon fill="#000" stroke="#000" points="127.5 -334.413 124 -324.413 120.5 -334.413 127.5 -334.413"/></g><g id="node3" class="node"><title>b0</title><ellipse cx="196" cy="-306" fill="none" stroke="#000" rx="27" ry="18"/><text x="196" y="-301.8" fill="#000" font-family="Times,serif" font-size="14" text-anchor="middle">b0</text></g><g id="edge2" class="edge"><title>S-&gt;b0</title><path fill="none" stroke="#000" d="M139.2693,-362.7307C149.197,-352.803 162.3153,-339.6847 173.4363,-328.5637"/><polygon fill="#000" stroke="#000" points="176.156 -330.793 180.753 -321.247 171.207 -325.844 176.156 -330.793"/></g><g id="node4" class="node"><title>a1</title><ellipse cx="73" cy="-234" fill="none" stroke="#000" rx="27" ry="18"/><text x="73" y="-229.8" fill="#000" font-family="Times,serif" font-size="14" text-anchor="middle">a1</text></g><g id="edge3" class="edge"><title>S-&gt;a1</title><path fill="none" stroke="#000" d="M110.6931,-362.0001C102.8697,-351.7555 93.4693,-337.8307 88,-324 80.1601,-304.1747 76.4177,-280.3199 74.6313,-262.1518"/><polygon fill="#000" stroke="#000" points="78.119 -261.855 73.789 -252.185 71.144 -262.445 78.119 -261.855"/></g><g id="edge4" class="edge"><title>a0-&gt;a1</title><path fill="none" stroke="#000" d="M112.4273,-289.6621C106.0628,-280.6768 98.0285,-269.3343 90.8756,-259.2362"/><polygon fill="#000" stroke="#000" points="93.517 -256.91 84.881 -250.773 87.805 -260.956 93.517 -256.91"/></g><g id="node5" class="node"><title>b2</title><ellipse cx="137" cy="-162" fill="none" stroke="#000" rx="27" ry="18"/><text x="137" y="-157.8" fill="#000" font-family="Times,serif" font-size="14" text-anchor="middle">b2</text></g><g id="edge5" class="edge"><title>a0-&gt;b2</title><path fill="none" stroke="#000" d="M125.6465,-287.7623C127.8638,-263.201 131.8318,-219.2474 134.4403,-190.3541"/><polygon fill="#000" stroke="#000" points="137.953 -190.364 135.367 -180.09 130.982 -189.734 137.953 -190.364"/></g><g id="node9" class="node"><title>b1</title><ellipse cx="192" cy="-234" fill="none" stroke="#000" rx="27" ry="18"/><text x="192" y="-229.8" fill="#000" font-family="Times,serif" font-size="14" text-anchor="middle">b1</text></g><g id="edge9" class="edge"><title>b0-&gt;b1</title><path fill="none" stroke="#000" d="M194.9906,-287.8314C194.5628,-280.131 194.0541,-270.9743 193.5787,-262.4166"/><polygon fill="#000" stroke="#000" points="197.072 -262.204 193.023 -252.413 190.083 -262.592 197.072 -262.204"/></g><g id="node6" class="node"><title>a2</title><ellipse cx="27" cy="-162" fill="none" stroke="#000" rx="27" ry="18"/><text x="27" y="-157.8" fill="#000" font-family="Times,serif" font-size="14" text-anchor="middle">a2</text></g><g id="edge6" class="edge"><title>a1-&gt;a2</title><path fill="none" stroke="#000" d="M62.3311,-217.3008C56.6414,-208.3952 49.5223,-197.2524 43.1684,-187.307"/><polygon fill="#000" stroke="#000" points="45.944 -185.151 37.611 -178.609 40.046 -188.92 45.944 -185.151"/></g><g id="node7" class="node"><title>b3</title><ellipse cx="137" cy="-90" fill="none" stroke="#000" rx="27" ry="18"/><text x="137" y="-85.8" fill="#000" font-family="Times,serif" font-size="14" text-anchor="middle">b3</text></g><g id="edge7" class="edge"><title>a1-&gt;b3</title><path fill="none" stroke="#000" d="M76.9393,-216.1871C81.4107,-197.614 89.5934,-167.9297 101,-144 105.7997,-133.9308 112.271,-123.5737 118.4032,-114.6572"/><polygon fill="#000" stroke="#000" points="121.412 -116.465 124.348 -106.285 115.705 -112.412 121.412 -116.465"/></g><g id="edge11" class="edge"><title>b2-&gt;b3</title><path fill="none" stroke="#000" d="M137,-143.8314C137,-136.131 137,-126.9743 137,-118.4166"/><polygon fill="#000" stroke="#000" points="140.5 -118.413 137 -108.413 133.5 -118.413 140.5 -118.413"/></g><g id="node8" class="node"><title>a3</title><ellipse cx="65" cy="-90" fill="none" stroke="#000" rx="27" ry="18"/><text x="65" y="-85.8" fill="#000" font-family="Times,serif" font-size="14" text-anchor="middle">a3</text></g><g id="edge12" class="edge"><title>b2-&gt;a3</title><path fill="none" stroke="#000" d="M121.7307,-146.7307C111.803,-136.803 98.6847,-123.6847 87.5637,-112.5637"/><polygon fill="#000" stroke="#000" points="89.793 -109.844 80.247 -105.247 84.844 -114.793 89.793 -109.844"/></g><g id="edge8" class="edge"><title>a2-&gt;a3</title><path fill="none" stroke="#000" d="M36.0055,-144.937C40.4828,-136.4537 45.9952,-126.0092 51.007,-116.513"/><polygon fill="#000" stroke="#000" points="54.223 -117.918 55.795 -107.441 48.032 -114.651 54.223 -117.918"/></g><g id="node10" class="node"><title>T</title><ellipse cx="137" cy="-18" fill="none" stroke="#000" rx="27" ry="18"/><text x="137" y="-13.8" fill="#000" font-family="Times,serif" font-size="14" text-anchor="middle">T</text></g><g id="edge15" class="edge"><title>b3-&gt;T</title><path fill="none" stroke="#000" d="M137,-71.8314C137,-64.131 137,-54.9743 137,-46.4166"/><polygon fill="#000" stroke="#000" points="140.5 -46.413 137 -36.413 133.5 -46.413 140.5 -46.413"/></g><g id="edge13" class="edge"><title>a3-&gt;T</title><path fill="none" stroke="#000" d="M80.2693,-74.7307C90.197,-64.803 103.3153,-51.6847 114.4363,-40.5637"/><polygon fill="#000" stroke="#000" points="117.156 -42.793 121.753 -33.247 112.207 -37.844 117.156 -42.793"/></g><g id="edge10" class="edge"><title>b1-&gt;b2</title><path fill="none" stroke="#000" d="M179.5196,-217.6621C172.4876,-208.4564 163.5653,-196.7764 155.7117,-186.4953"/><polygon fill="#000" stroke="#000" points="158.283 -184.095 149.431 -178.273 152.72 -188.345 158.283 -184.095"/></g><g id="edge14" class="edge"><title>b1-&gt;T</title><path fill="none" stroke="#000" d="M192.5863,-215.8694C192.99,-185.2324 191.2761,-121.7005 173,-72 169.1502,-61.5307 162.8941,-51.083 156.6686,-42.2059"/><polygon fill="#000" stroke="#000" points="159.299 -39.876 150.544 -33.91 153.667 -44.033 159.299 -39.876"/></g></g></svg>