<svg xmlns="http://www.w3.org/2000/svg" xmlns:xlink="http://www.w3.org/1999/xlink" width="332pt" height="245pt" viewBox="0 0 332 244.8"><g id="graph0" class="graph" transform="scale(1 1) rotate(0) translate(4 240.8)"><title>Taskflow</title><polygon fill="#fff" stroke="transparent" points="-4 4 -4 -240.8 328 -240.8 328 4 -4 4"/><g id="clust1" class="cluster"><title>cluster_p0x7ffeeb8ff970</title><polygon fill="none" stroke="#000" points="8 -8 8 -228.8 166 -228.8 166 -8 8 -8"/><text x="87" y="-212.2" fill="#000" font-family="Times,serif" font-size="14" text-anchor="middle">Taskflow: f2</text></g><g id="clust2" class="cluster"><title>cluster_p0x7ffeeb8ff8d0</title><polygon fill="none" stroke="#000" points="174 -152 174 -228.8 316 -228.8 316 -152 174 -152"/><text x="245" y="-212.2" fill="#000" font-family="Times,serif" font-size="14" text-anchor="middle">Taskflow: f1</text></g><g id="node1" class="node"><title>p0x7ffb03813838</title><ellipse cx="87" cy="-34" fill="none" stroke="#000" rx="27" ry="18"/><text x="87" y="-29.8" fill="#000" font-family="Times,serif" font-size="14" text-anchor="middle">f2C</text></g><g id="node2" class="node"><title>p0x7ffb03813938</title><ellipse cx="123" cy="-178" fill="none" stroke="#000" rx="27" ry="18"/><text x="123" y="-173.8" fill="#000" font-family="Times,serif" font-size="14" text-anchor="middle">f2B</text></g><g id="node3" class="node"><title>p0x7ffb03813b38</title><polygon fill="none" stroke="#00f" points="158.238 -124 19.762 -124 15.762 -120 15.762 -88 154.238 -88 158.238 -92 158.238 -124"/><polyline fill="none" stroke="#00f" points="154.238 -120 15.762 -120"/><polyline fill="none" stroke="#00f" points="154.238 -120 154.238 -88"/><polyline fill="none" stroke="#00f" points="154.238 -120 158.238 -124"/><text x="87" y="-101.8" fill="#000" font-family="Times,serif" font-size="14" text-anchor="middle">module [Taskflow: f1]</text></g><g id="edge1" class="edge"><title>p0x7ffb03813938-&gt;p0x7ffb03813b38</title><path fill="none" stroke="#000" d="M114.2854,-160.5708C110.1772,-152.3544 105.1804,-142.3608 100.5911,-133.1821"/><polygon fill="#000" stroke="#000" points="103.613 -131.4 96.01 -124.021 97.352 -134.53 103.613 -131.4"/></g><g id="edge3" class="edge"><title>p0x7ffb03813b38-&gt;p0x7ffb03813838</title><path fill="none" stroke="#000" d="M87,-87.8314C87,-80.131 87,-70.9743 87,-62.4166"/><polygon fill="#000" stroke="#000" points="90.5 -62.413 87 -52.413 83.5 -62.413 90.5 -62.413"/></g><g id="node4" class="node"><title>p0x7ffb03813a38</title><ellipse cx="51" cy="-178" fill="none" stroke="#000" rx="27" ry="18"/><text x="51" y="-173.8" fill="#000" font-family="Times,serif" font-size="14" text-anchor="middle">f2A</text></g><g id="edge2" class="edge"><title>p0x7ffb03813a38-&gt;p0x7ffb03813b38</title><path fill="none" stroke="#000" d="M59.7146,-160.5708C63.8228,-152.3544 68.8196,-142.3608 73.4089,-133.1821"/><polygon fill="#000" stroke="#000" points="76.648 -134.53 77.99 -124.021 70.387 -131.4 76.648 -134.53"/></g><g id="node5" class="node"><title>p0x7ffb03813638</title><ellipse cx="281" cy="-178" fill="none" stroke="#000" rx="27" ry="18"/><text x="281" y="-173.8" fill="#000" font-family="Times,serif" font-size="14" text-anchor="middle">f1B</text></g><g id="node6" class="node"><title>p0x7ffb03813738</title><ellipse cx="209" cy="-178" fill="none" stroke="#000" rx="27" ry="18"/><text x="209" y="-173.8" fill="#000" font-family="Times,serif" font-size="14" text-anchor="middle">f1A</text></g></g></svg>