<svg xmlns="http://www.w3.org/2000/svg" xmlns:xlink="http://www.w3.org/1999/xlink" width="156" height="206pt" viewBox="0 0 117.31 205.8"><g id="graph0" class="graph" transform="scale(1 1) rotate(0) translate(4 201.8)"><title>Taskflow</title><polygon fill="#fff" stroke="transparent" points="-4 4 -4 -201.8 113.312 -201.8 113.312 4 -4 4"/><g id="node1" class="node"><title>cond</title><polygon fill="#7fffd4" stroke="#000" points="42.156 -124.8 -.156 -106.8 42.156 -88.8 84.468 -106.8 42.156 -124.8"/><text x="42.156" y="-102.6" fill="#000" font-family="Times,serif" font-size="14" text-anchor="middle">cond</text></g><g id="edge2" class="edge"><title>cond-&gt;cond</title><path fill="none" stroke="#000" stroke-dasharray="5 2" d="M69.6891,-113.1013C86.4496,-114.5606 102.3116,-112.4602 102.3116,-106.8 102.3116,-102.3338 92.4356,-100.0839 80.035,-100.0504"/><polygon fill="#000" stroke="#000" points="79.528 -96.569 69.689 -100.499 79.831 -103.562 79.528 -96.569"/><text x="105.812" y="-102.6" fill="#000" font-family="Times,serif" font-size="14" text-anchor="middle">0</text></g><g id="node3" class="node"><title>stop</title><ellipse cx="42.156" cy="-18" fill="none" stroke="#000" rx="27.266" ry="18"/><text x="42.156" y="-13.8" fill="#000" font-family="Times,serif" font-size="14" text-anchor="middle">stop</text></g><g id="edge3" class="edge"><title>cond-&gt;stop</title><path fill="none" stroke="#000" stroke-dasharray="5 2" d="M42.1558,-88.4006C42.1558,-76.2949 42.1558,-60.2076 42.1558,-46.4674"/><polygon fill="#000" stroke="#000" points="45.656 -46.072 42.156 -36.072 38.656 -46.072 45.656 -46.072"/><text x="45.656" y="-58.2" fill="#000" font-family="Times,serif" font-size="14" text-anchor="middle">1</text></g><g id="node2" class="node"><title>init</title><ellipse cx="42.156" cy="-179.8" fill="none" stroke="#000" rx="27" ry="18"/><text x="42.156" y="-175.6" fill="#000" font-family="Times,serif" font-size="14" text-anchor="middle">init</text></g><g id="edge1" class="edge"><title>init-&gt;cond</title><path fill="none" stroke="#000" d="M42.1558,-161.7551C42.1558,-153.6828 42.1558,-143.9764 42.1558,-134.9817"/><polygon fill="#000" stroke="#000" points="45.656 -134.89 42.156 -124.89 38.656 -134.89 45.656 -134.89"/></g></g></svg>