<svg xmlns="http://www.w3.org/2000/svg" xmlns:xlink="http://www.w3.org/1999/xlink" width="1584" height="272" viewBox="0 0 1187.88 204"><g id="graph0" class="graph" transform="scale(1 1) rotate(0) translate(4 200)"><title>Taskflow</title><polygon fill="#fff" stroke="transparent" points="-4 4 -4 -200 1183.877 -200 1183.877 4 -4 4"/><g id="clust1" class="cluster"><title>cluster_p0x7ffc2daeebe0</title><polygon fill="none" stroke="transparent" points="8 -8 8 -188 1171.877 -188 1171.877 -8 8 -8"/></g><g id="node1" class="node"><title>p0x1676c20</title><ellipse cx="493.625" cy="-34" fill="none" stroke="#000" rx="27" ry="18"/><text x="493.625" y="-29.8" fill="#000" font-family="Times,serif" font-size="14" text-anchor="middle">H</text></g><g id="node11" class="node"><title>I</title><ellipse cx="651.438" cy="-34" fill="none" stroke="#000" rx="27" ry="18"/><text x="651.438" y="-29.8" fill="#000" font-family="Times,serif" font-size="14" text-anchor="middle">I</text></g><g id="edge11" class="edge"><title>p0x1676c20-&gt;I</title><path fill="none" stroke="#000" d="M520.7545,-34C546.5771,-34 585.6453,-34 614.3408,-34"/><polygon fill="#000" stroke="#000" points="614.4 -37.5 624.4 -34 614.4 -30.5 614.4 -37.5"/></g><g id="node2" class="node"><title>p0x1676d50</title><ellipse cx="493.625" cy="-88" fill="none" stroke="#000" rx="27" ry="18"/><text x="493.625" y="-83.8" fill="#000" font-family="Times,serif" font-size="14" text-anchor="middle">G</text></g><g id="node3" class="node"><title>p0x1676e80</title><ellipse cx="172" cy="-79" fill="none" stroke="#000" rx="27" ry="18"/><text x="172" y="-74.8" fill="#000" font-family="Times,serif" font-size="14" text-anchor="middle">F</text></g><g id="node4" class="node"><title>p0x1677700</title><polygon fill="#7fffd4" stroke="#000" points="329.813 -97 274.187 -79 329.813 -61 385.439 -79 329.813 -97"/><text x="329.813" y="-74.8" fill="#000" font-family="Times,serif" font-size="14" text-anchor="middle">cond_2</text></g><g id="edge1" class="edge"><title>p0x1676e80-&gt;p0x1677700</title><path fill="none" stroke="#000" d="M199.129,-79C216.9354,-79 241.0403,-79 263.6992,-79"/><polygon fill="#000" stroke="#000" points="263.981 -82.5 273.98 -79 263.98 -75.5 263.981 -82.5"/></g><g id="edge10" class="edge"><title>p0x1677700-&gt;p0x1676c20</title><path fill="none" stroke="#000" stroke-dasharray="5 2" d="M360.2408,-70.6413C388.1335,-62.9791 429.4206,-51.6373 458.6599,-43.6052"/><polygon fill="#000" stroke="#000" points="459.742 -46.938 468.458 -40.914 457.888 -40.188 459.742 -46.938"/><text x="426.125" y="-57.2" fill="#000" font-family="Times,serif" font-size="14" text-anchor="middle">1</text></g><g id="edge9" class="edge"><title>p0x1677700-&gt;p0x1676d50</title><path fill="none" stroke="#000" stroke-dasharray="5 2" d="M377.6346,-81.6274C402.6942,-83.0042 432.9349,-84.6656 456.2547,-85.9468"/><polygon fill="#000" stroke="#000" points="456.262 -89.452 466.439 -86.506 456.646 -82.463 456.262 -89.452"/><text x="426.125" y="-88.2" fill="#000" font-family="Times,serif" font-size="14" text-anchor="middle">0</text></g><g id="node5" class="node"><title>p0x1676fc0</title><ellipse cx="844.064" cy="-139" fill="none" stroke="#000" rx="27" ry="18"/><text x="844.064" y="-134.8" fill="#000" font-family="Times,serif" font-size="14" text-anchor="middle">E</text></g><g id="node13" class="node"><title>K</title><ellipse cx="1007.877" cy="-139" fill="none" stroke="#000" rx="27" ry="18"/><text x="1007.877" y="-134.8" fill="#000" font-family="Times,serif" font-size="14" text-anchor="middle">K</text></g><g id="edge13" class="edge"><title>p0x1676fc0-&gt;K</title><path fill="none" stroke="#000" d="M871.1142,-139C898.2649,-139 940.2989,-139 970.6008,-139"/><polygon fill="#000" stroke="#000" points="970.786 -142.5 980.786 -139 970.786 -135.5 970.786 -142.5"/></g><g id="node6" class="node"><title>p0x16770d0</title><ellipse cx="493.625" cy="-162" fill="none" stroke="#000" rx="27" ry="18"/><text x="493.625" y="-157.8" fill="#000" font-family="Times,serif" font-size="14" text-anchor="middle">D</text></g><g id="node7" class="node"><title>p0x1677560</title><polygon fill="#7fffd4" stroke="#000" points="651.438 -157 595.812 -139 651.438 -121 707.064 -139 651.438 -157"/><text x="651.438" y="-134.8" fill="#000" font-family="Times,serif" font-size="14" text-anchor="middle">cond_1</text></g><g id="edge2" class="edge"><title>p0x16770d0-&gt;p0x1677560</title><path fill="none" stroke="#000" d="M520.0398,-158.1503C542.5255,-154.8732 575.4194,-150.0792 602.6696,-146.1077"/><polygon fill="#000" stroke="#000" points="603.413 -149.536 612.804 -144.631 602.404 -142.609 603.413 -149.536"/></g><g id="edge8" class="edge"><title>p0x1677560-&gt;p0x1676fc0</title><path fill="none" stroke="#000" stroke-dasharray="5 2" d="M707.1536,-139C739.0759,-139 778.2813,-139 806.5451,-139"/><polygon fill="#000" stroke="#000" points="806.804 -142.5 816.804 -139 806.804 -135.5 806.804 -142.5"/><text x="747.751" y="-143.2" fill="#000" font-family="Times,serif" font-size="14" text-anchor="middle">1</text></g><g id="node9" class="node"><title>p0x1677340</title><ellipse cx="172" cy="-133" fill="none" stroke="#000" rx="27" ry="18"/><text x="172" y="-128.8" fill="#000" font-family="Times,serif" font-size="14" text-anchor="middle">B</text></g><g id="edge7" class="edge"><title>p0x1677560-&gt;p0x1677340</title><path fill="none" stroke="#000" stroke-dasharray="5 2" d="M601.1294,-137.1696C576.8129,-136.3595 547.2049,-135.4825 520.6255,-135 407.3561,-132.9436 273.355,-132.8251 209.4877,-132.91"/><polygon fill="#000" stroke="#000" points="209.119 -129.411 199.125 -132.927 209.131 -136.411 209.119 -129.411"/><text x="426.125" y="-137.2" fill="#000" font-family="Times,serif" font-size="14" text-anchor="middle">0</text></g><g id="node8" class="node"><title>p0x1677230</title><ellipse cx="329.813" cy="-162" fill="none" stroke="#000" rx="27" ry="18"/><text x="329.813" y="-157.8" fill="#000" font-family="Times,serif" font-size="14" text-anchor="middle">C</text></g><g id="edge3" class="edge"><title>p0x1677230-&gt;p0x16770d0</title><path fill="none" stroke="#000" d="M356.8631,-162C384.0138,-162 426.0479,-162 456.3498,-162"/><polygon fill="#000" stroke="#000" points="456.535 -165.5 466.535 -162 456.535 -158.5 456.535 -165.5"/></g><g id="edge4" class="edge"><title>p0x1677340-&gt;p0x1677230</title><path fill="none" stroke="#000" d="M198.0596,-137.7888C224.1016,-142.5743 264.3569,-149.9717 293.5192,-155.3306"/><polygon fill="#000" stroke="#000" points="293.247 -158.839 303.714 -157.204 294.512 -151.954 293.247 -158.839"/></g><g id="node10" class="node"><title>p0x1677450</title><ellipse cx="43" cy="-105" fill="none" stroke="#000" rx="27" ry="18"/><text x="43" y="-100.8" fill="#000" font-family="Times,serif" font-size="14" text-anchor="middle">A</text></g><g id="edge6" class="edge"><title>p0x1677450-&gt;p0x1676e80</title><path fill="none" stroke="#000" d="M69.1051,-99.7385C88.3387,-95.862 114.7339,-90.542 135.9745,-86.2609"/><polygon fill="#000" stroke="#000" points="136.822 -89.66 145.934 -84.254 135.439 -82.799 136.822 -89.66"/></g><g id="edge5" class="edge"><title>p0x1677450-&gt;p0x1677340</title><path fill="none" stroke="#000" d="M68.795,-110.5989C88.1302,-114.7957 114.8289,-120.5908 136.2266,-125.2352"/><polygon fill="#000" stroke="#000" points="135.735 -128.71 146.25 -127.411 137.22 -121.869 135.735 -128.71"/></g><g id="node12" class="node"><title>J</title><polygon fill="#7fffd4" stroke="#000" points="844.064 -52 788.438 -34 844.064 -16 899.69 -34 844.064 -52"/><text x="844.064" y="-29.8" fill="#000" font-family="Times,serif" font-size="14" text-anchor="middle">cond_3</text></g><g id="edge12" class="edge"><title>I-&gt;J</title><path fill="none" stroke="#000" d="M678.6283,-34C704.2857,-34 743.7758,-34 777.7392,-34"/><polygon fill="#000" stroke="#000" points="778.081 -37.5 788.081 -34 778.081 -30.5 778.081 -37.5"/></g><g id="edge14" class="edge"><title>J-&gt;J</title><path fill="none" stroke="#000" stroke-dasharray="5 2" d="M831.8284,-48.4167C827.5557,-59.166 831.6342,-70 844.0638,-70 852.415,-70 856.9964,-65.1094 857.8078,-58.6397"/><polygon fill="#000" stroke="#000" points="861.222 -57.799 856.299 -48.417 854.297 -58.821 861.222 -57.799"/><text x="844.064" y="-74.2" fill="#000" font-family="Times,serif" font-size="14" text-anchor="middle">0</text></g><g id="node14" class="node"><title>L</title><ellipse cx="1007.877" cy="-34" fill="none" stroke="#000" rx="27" ry="18"/><text x="1007.877" y="-29.8" fill="#000" font-family="Times,serif" font-size="14" text-anchor="middle">L</text></g><g id="edge15" class="edge"><title>J-&gt;L</title><path fill="none" stroke="#000" stroke-dasharray="5 2" d="M899.9807,-34C923.292,-34 949.7367,-34 970.6113,-34"/><polygon fill="#000" stroke="#000" points="970.673 -37.5 980.673 -34 970.673 -30.5 970.673 -37.5"/><text x="940.377" y="-38.2" fill="#000" font-family="Times,serif" font-size="14" text-anchor="middle">1</text></g><g id="node15" class="node"><title>M</title><ellipse cx="1136.877" cy="-34" fill="none" stroke="#000" rx="27" ry="18"/><text x="1136.877" y="-29.8" fill="#000" font-family="Times,serif" font-size="14" text-anchor="middle">M</text></g><g id="edge16" class="edge"><title>L-&gt;M</title><path fill="none" stroke="#000" d="M1034.9192,-34C1053.7536,-34 1079.109,-34 1099.8224,-34"/><polygon fill="#000" stroke="#000" points="1099.87 -37.5 1109.87 -34 1099.87 -30.5 1099.87 -37.5"/></g></g></svg>