<svg xmlns="http://www.w3.org/2000/svg" xmlns:xlink="http://www.w3.org/1999/xlink" width="988pt" height="229pt" viewBox="0 0 987.61 229"><g id="graph0" class="graph" transform="scale(1 1) rotate(0) translate(4 225)"><title>Taskflow</title><polygon fill="#fff" stroke="transparent" points="-4 4 -4 -225 983.611 -225 983.611 4 -4 4"/><g id="clust1" class="cluster"><title>cluster_p0x563fab6cd8a8</title><polygon fill="none" stroke="#a020f0" points="8 -46 8 -177 522.558 -177 522.558 -46 8 -46"/><text x="265.279" y="-160.4" fill="#000" font-family="Times,serif" font-size="14" text-anchor="middle">cudaFlow: saxpy</text></g><g id="node1" class="node"><title>p0x563fab6cd698</title><ellipse cx="220.279" cy="-203" fill="none" stroke="#000" rx="50.941" ry="18"/><text x="220.279" y="-198.8" fill="#000" font-family="Times,serif" font-size="14" text-anchor="middle">allocate_x</text></g><g id="node2" class="node"><title>init_x</title><ellipse cx="365.778" cy="-203" fill="none" stroke="#000" rx="33.646" ry="18"/><text x="365.778" y="-198.8" fill="#000" font-family="Times,serif" font-size="14" text-anchor="middle">init_x</text></g><g id="edge1" class="edge"><title>p0x563fab6cd698-&gt;init_x</title><path fill="none" stroke="#000" d="M271.1673,-203C287.7043,-203 305.9027,-203 321.884,-203"/><polygon fill="#000" stroke="#000" points="322.026 -206.5 332.026 -203 322.026 -199.5 322.026 -206.5"/></g><g id="node3" class="node"><title>p0x563fab6cd8a8</title><polygon fill="#0ff" stroke="#000" points="514.558 -117 511.558 -121 490.558 -121 487.558 -117 460.558 -117 460.558 -81 514.558 -81 514.558 -117"/><text x="487.558" y="-94.8" fill="#000" font-family="Times,serif" font-size="14" text-anchor="middle">saxpy</text></g><g id="edge2" class="edge"><title>init_x-&gt;p0x563fab6cd8a8</title><path fill="none" stroke="#000" d="M396.1046,-195.2511C405.7799,-191.8699 416.1481,-187.2209 424.5575,-181 444.4679,-166.2711 461.2143,-143.6043 472.4249,-125.832"/><polygon fill="#000" stroke="#000" points="475.56 -127.414 477.77 -117.052 469.58 -123.774 475.56 -127.414"/></g><g id="node6" class="node"><title>p0x563fab6cd9b0</title><ellipse cx="584.651" cy="-99" fill="none" stroke="#000" rx="34.187" ry="18"/><text x="584.651" y="-94.8" fill="#000" font-family="Times,serif" font-size="14" text-anchor="middle">verify</text></g><g id="edge5" class="edge"><title>p0x563fab6cd8a8-&gt;p0x563fab6cd9b0</title><path fill="none" stroke="#000" d="M514.6034,-99C522.5888,-99 531.5468,-99 540.3198,-99"/><polygon fill="#000" stroke="#000" points="540.464 -102.5 550.464 -99 540.464 -95.5 540.464 -102.5"/></g><g id="node4" class="node"><title>p0x563fab6cd7a0</title><ellipse cx="220.279" cy="-18" fill="none" stroke="#000" rx="50.941" ry="18"/><text x="220.279" y="-13.8" fill="#000" font-family="Times,serif" font-size="14" text-anchor="middle">allocate_y</text></g><g id="node5" class="node"><title>init_y</title><ellipse cx="365.778" cy="-18" fill="none" stroke="#000" rx="33.646" ry="18"/><text x="365.778" y="-13.8" fill="#000" font-family="Times,serif" font-size="14" text-anchor="middle">init_y</text></g><g id="edge3" class="edge"><title>p0x563fab6cd7a0-&gt;init_y</title><path fill="none" stroke="#000" d="M271.1673,-18C287.7043,-18 305.9027,-18 321.884,-18"/><polygon fill="#000" stroke="#000" points="322.026 -21.5 332.026 -18 322.026 -14.5 322.026 -21.5"/></g><g id="edge4" class="edge"><title>init_y-&gt;p0x563fab6cd8a8</title><path fill="none" stroke="#000" d="M394.5627,-27.4518C404.4376,-31.2835 415.3208,-36.1892 424.5575,-42 438.556,-50.8065 452.3777,-62.8332 463.492,-73.5699"/><polygon fill="#000" stroke="#000" points="461.158 -76.185 470.723 -80.742 466.087 -71.215 461.158 -76.185"/></g><g id="node12" class="node"><title>p0x563fab6cdab8</title><ellipse cx="714.579" cy="-126" fill="none" stroke="#000" rx="59.67" ry="18"/><text x="714.579" y="-121.8" fill="#000" font-family="Times,serif" font-size="14" text-anchor="middle">deallocate_x</text></g><g id="edge12" class="edge"><title>p0x563fab6cd9b0-&gt;p0x563fab6cdab8</title><path fill="none" stroke="#000" d="M616.435,-105.6049C628.109,-108.0309 641.7371,-110.8629 655.0579,-113.631"/><polygon fill="#000" stroke="#000" points="654.644 -117.12 665.147 -115.728 656.068 -110.266 654.644 -117.12"/></g><g id="node13" class="node"><title>p0x563fab6cdbc0</title><ellipse cx="714.579" cy="-72" fill="none" stroke="#000" rx="59.67" ry="18"/><text x="714.579" y="-67.8" fill="#000" font-family="Times,serif" font-size="14" text-anchor="middle">deallocate_y</text></g><g id="edge13" class="edge"><title>p0x563fab6cd9b0-&gt;p0x563fab6cdbc0</title><path fill="none" stroke="#000" d="M616.435,-92.3951C628.109,-89.9691 641.7371,-87.1371 655.0579,-84.369"/><polygon fill="#000" stroke="#000" points="656.068 -87.734 665.147 -82.272 654.644 -80.88 656.068 -87.734"/></g><g id="node7" class="node"><title>p0x7f5924401640</title><ellipse cx="74.779" cy="-126" fill="none" stroke="#000" rx="58.56" ry="18"/><text x="74.779" y="-121.8" fill="#000" font-family="Times,serif" font-size="14" text-anchor="middle">copy_h2d_x</text></g><g id="node8" class="node"><title>p0x7f59244027b0</title><polygon fill="#000" stroke="#fff" points="263.918 -117 180.639 -117 176.639 -113 176.639 -81 259.918 -81 263.918 -85 263.918 -117"/><polyline fill="none" stroke="#fff" points="259.918 -113 176.639 -113"/><polyline fill="none" stroke="#fff" points="259.918 -113 259.918 -81"/><polyline fill="none" stroke="#fff" points="259.918 -113 263.918 -117"/><text x="220.279" y="-94.8" fill="#fff" font-family="Times,serif" font-size="14" text-anchor="middle">saxpy kernel</text></g><g id="edge6" class="edge"><title>p0x7f5924401640-&gt;p0x7f59244027b0</title><path fill="none" stroke="#000" d="M125.2597,-116.6325C138.6024,-114.1565 153.0512,-111.4753 166.5586,-108.9687"/><polygon fill="#000" stroke="#000" points="167.477 -112.358 176.67 -107.092 166.2 -105.476 167.477 -112.358"/></g><g id="node10" class="node"><title>p0x7f5924401f00</title><ellipse cx="365.778" cy="-72" fill="none" stroke="#000" rx="58.56" ry="18"/><text x="365.778" y="-67.8" fill="#000" font-family="Times,serif" font-size="14" text-anchor="middle">copy_d2h_x</text></g><g id="edge10" class="edge"><title>p0x7f59244027b0-&gt;p0x7f5924401f00</title><path fill="none" stroke="#000" d="M263.9333,-90.8991C276.9333,-88.4867 291.4174,-85.799 305.289,-83.2248"/><polygon fill="#000" stroke="#000" points="306.058 -86.642 315.252 -81.376 304.781 -79.76 306.058 -86.642"/></g><g id="node11" class="node"><title>p0x7f5924402370</title><ellipse cx="365.778" cy="-126" fill="none" stroke="#000" rx="58.56" ry="18"/><text x="365.778" y="-121.8" fill="#000" font-family="Times,serif" font-size="14" text-anchor="middle">copy_d2h_y</text></g><g id="edge11" class="edge"><title>p0x7f59244027b0-&gt;p0x7f5924402370</title><path fill="none" stroke="#000" d="M263.9333,-107.1009C276.9333,-109.5133 291.4174,-112.201 305.289,-114.7752"/><polygon fill="#000" stroke="#000" points="304.781 -118.24 315.252 -116.624 306.058 -111.358 304.781 -118.24"/></g><g id="node9" class="node"><title>p0x7f5924401aa0</title><ellipse cx="74.779" cy="-72" fill="none" stroke="#000" rx="58.56" ry="18"/><text x="74.779" y="-67.8" fill="#000" font-family="Times,serif" font-size="14" text-anchor="middle">copy_h2d_y</text></g><g id="edge7" class="edge"><title>p0x7f5924401aa0-&gt;p0x7f59244027b0</title><path fill="none" stroke="#000" d="M125.2597,-81.3675C138.6024,-83.8435 153.0512,-86.5247 166.5586,-89.0313"/><polygon fill="#000" stroke="#000" points="166.2 -92.524 176.67 -90.908 167.477 -85.642 166.2 -92.524"/></g><g id="edge8" class="edge"><title>p0x7f5924401f00-&gt;p0x563fab6cd8a8</title><path fill="none" stroke="#000" d="M413.559,-82.5936C425.825,-85.3132 438.8362,-88.1979 450.4711,-90.7775"/><polygon fill="#000" stroke="#000" points="449.768 -94.207 460.288 -92.954 451.283 -87.372 449.768 -94.207"/></g><g id="edge9" class="edge"><title>p0x7f5924402370-&gt;p0x563fab6cd8a8</title><path fill="none" stroke="#000" d="M413.559,-115.4064C425.825,-112.6868 438.8362,-109.8021 450.4711,-107.2225"/><polygon fill="#000" stroke="#000" points="451.283 -110.628 460.288 -105.046 449.768 -103.793 451.283 -110.628"/></g><g id="node14" class="node"><title>host_x</title><ellipse cx="847.204" cy="-126" fill="none" stroke="#000" rx="36.581" ry="18"/><text x="847.204" y="-121.8" fill="#000" font-family="Times,serif" font-size="14" text-anchor="middle">host_x</text></g><g id="edge14" class="edge"><title>p0x563fab6cdab8-&gt;host_x</title><path fill="none" stroke="#000" d="M774.683,-126C783.1644,-126 791.7825,-126 799.9757,-126"/><polygon fill="#000" stroke="#000" points="800.084 -129.5 810.084 -126 800.084 -122.5 800.084 -129.5"/></g><g id="node15" class="node"><title>host_y</title><ellipse cx="847.204" cy="-72" fill="none" stroke="#000" rx="36.581" ry="18"/><text x="847.204" y="-67.8" fill="#000" font-family="Times,serif" font-size="14" text-anchor="middle">host_y</text></g><g id="edge15" class="edge"><title>p0x563fab6cdbc0-&gt;host_y</title><path fill="none" stroke="#000" d="M774.683,-72C783.1644,-72 791.7825,-72 799.9757,-72"/><polygon fill="#000" stroke="#000" points="800.084 -75.5 810.084 -72 800.084 -68.5 800.084 -75.5"/></g><g id="node16" class="node"><title>done</title><ellipse cx="949.802" cy="-99" fill="none" stroke="#000" rx="29.619" ry="18"/><text x="949.802" y="-94.8" fill="#000" font-family="Times,serif" font-size="14" text-anchor="middle">done</text></g><g id="edge16" class="edge"><title>host_x-&gt;done</title><path fill="none" stroke="#000" d="M879.6667,-117.457C890.0771,-114.7174 901.6894,-111.6615 912.4223,-108.837"/><polygon fill="#000" stroke="#000" points="913.595 -112.148 922.375 -106.218 911.814 -105.378 913.595 -112.148"/></g><g id="edge17" class="edge"><title>host_y-&gt;done</title><path fill="none" stroke="#000" d="M879.6667,-80.543C890.0771,-83.2826 901.6894,-86.3385 912.4223,-89.163"/><polygon fill="#000" stroke="#000" points="911.814 -92.622 922.375 -91.782 913.595 -85.852 911.814 -92.622"/></g></g></svg>