<svg xmlns="http://www.w3.org/2000/svg" xmlns:xlink="http://www.w3.org/1999/xlink" width="212" height="245pt" viewBox="0 0 159 244.8"><g id="graph0" class="graph" transform="scale(1 1) rotate(0) translate(4 240.8)"><title>Taskflow</title><polygon fill="#fff" stroke="transparent" points="-4 4 -4 -240.8 155 -240.8 155 4 -4 4"/><g id="clust1" class="cluster"><title>cluster_p0x7ffeeca03810</title><polygon fill="none" stroke="#00f" points="63 -8 63 -228.8 143 -228.8 143 -8 63 -8"/><text x="103" y="-212.2" fill="#000" font-family="Times,serif" font-size="14" text-anchor="middle">Subflow: B</text></g><g id="node1" class="node"><title>A</title><ellipse cx="27" cy="-106" fill="none" stroke="#000" rx="27" ry="18"/><text x="27" y="-101.8" fill="#000" font-family="Times,serif" font-size="14" text-anchor="middle">A</text></g><g id="node2" class="node"><title>B</title><ellipse cx="98" cy="-34" fill="none" stroke="#000" rx="27" ry="18"/><text x="98" y="-29.8" fill="#000" font-family="Times,serif" font-size="14" text-anchor="middle">B</text></g><g id="edge1" class="edge"><title>A-&gt;B</title><path fill="none" stroke="#000" d="M42.0573,-90.7307C51.847,-80.803 64.7831,-67.6847 75.7497,-56.5637"/><polygon fill="#000" stroke="#000" points="78.435 -58.825 82.964 -49.247 73.451 -53.91 78.435 -58.825"/></g><g id="node3" class="node"><title>B1</title><ellipse cx="99" cy="-178" fill="none" stroke="#000" rx="27" ry="18"/><text x="99" y="-173.8" fill="#000" font-family="Times,serif" font-size="14" text-anchor="middle">B1</text></g><g id="node4" class="node"><title>B2</title><ellipse cx="99" cy="-106" fill="none" stroke="#000" rx="27" ry="18"/><text x="99" y="-101.8" fill="#000" font-family="Times,serif" font-size="14" text-anchor="middle">B2</text></g><g id="edge2" class="edge"><title>B1-&gt;B2</title><path fill="none" stroke="#000" d="M99,-159.8314C99,-152.131 99,-142.9743 99,-134.4166"/><polygon fill="#000" stroke="#000" points="102.5 -134.413 99 -124.413 95.5 -134.413 102.5 -134.413"/></g><g id="edge3" class="edge"><title>B2-&gt;B</title><path fill="none" stroke="#000" d="M98.7477,-87.8314C98.6407,-80.131 98.5135,-70.9743 98.3947,-62.4166"/><polygon fill="#000" stroke="#000" points="101.894 -62.364 98.256 -52.413 94.895 -62.461 101.894 -62.364"/></g></g></svg>