<svg xmlns="http://www.w3.org/2000/svg" xmlns:xlink="http://www.w3.org/1999/xlink" width="278pt" height="116pt" viewBox="0 0 278 116"><g id="graph0" class="graph" transform="scale(1 1) rotate(0) translate(4 112)"><title>Taskflow</title><polygon fill="#fff" stroke="transparent" points="-4 4 -4 -112 274 -112 274 4 -4 4"/><g id="node1" class="node"><title>B</title><ellipse cx="27" cy="-90" fill="none" stroke="#000" rx="27" ry="18"/><text x="27" y="-85.8" fill="#000" font-family="Times,serif" font-size="14" text-anchor="middle">B</text></g><g id="node2" class="node"><title>A</title><ellipse cx="135" cy="-18" fill="none" stroke="#000" rx="27" ry="18"/><text x="135" y="-13.8" fill="#000" font-family="Times,serif" font-size="14" text-anchor="middle">A</text></g><g id="edge1" class="edge"><title>B-&gt;A</title><path fill="none" stroke="#000" d="M46.3082,-77.1278C63.3555,-65.763 88.4019,-49.0654 107.5344,-36.3104"/><polygon fill="#000" stroke="#000" points="109.48 -39.22 115.859 -30.761 105.597 -33.396 109.48 -39.22"/></g><g id="node3" class="node"><title>C</title><ellipse cx="99" cy="-90" fill="none" stroke="#000" rx="27" ry="18"/><text x="99" y="-85.8" fill="#000" font-family="Times,serif" font-size="14" text-anchor="middle">C</text></g><g id="edge2" class="edge"><title>C-&gt;A</title><path fill="none" stroke="#000" d="M107.7146,-72.5708C111.9597,-64.0807 117.1536,-53.6929 121.8663,-44.2674"/><polygon fill="#000" stroke="#000" points="125.024 -45.778 126.366 -35.269 118.763 -42.648 125.024 -45.778"/></g><g id="node4" class="node"><title>D</title><ellipse cx="171" cy="-90" fill="none" stroke="#000" rx="27" ry="18"/><text x="171" y="-85.8" fill="#000" font-family="Times,serif" font-size="14" text-anchor="middle">D</text></g><g id="edge3" class="edge"><title>D-&gt;A</title><path fill="none" stroke="#000" d="M162.2854,-72.5708C158.0403,-64.0807 152.8464,-53.6929 148.1337,-44.2674"/><polygon fill="#000" stroke="#000" points="151.237 -42.648 143.634 -35.269 144.976 -45.778 151.237 -42.648"/></g><g id="node5" class="node"><title>E</title><ellipse cx="243" cy="-90" fill="none" stroke="#000" rx="27" ry="18"/><text x="243" y="-85.8" fill="#000" font-family="Times,serif" font-size="14" text-anchor="middle">E</text></g><g id="edge4" class="edge"><title>E-&gt;A</title><path fill="none" stroke="#000" d="M223.6918,-77.1278C206.6445,-65.763 181.5981,-49.0654 162.4656,-36.3104"/><polygon fill="#000" stroke="#000" points="164.403 -33.396 154.141 -30.761 160.52 -39.22 164.403 -33.396"/></g></g></svg>