<svg xmlns="http://www.w3.org/2000/svg" xmlns:xlink="http://www.w3.org/1999/xlink" width="175pt" height="188pt" viewBox="0 0 175 188"><g id="graph0" class="graph" transform="scale(1 1) rotate(0) translate(4 184)"><title>Taskflow</title><polygon fill="#fff" stroke="transparent" points="-4 4 -4 -184 171 -184 171 4 -4 4"/><g id="node1" class="node"><title>A</title><ellipse cx="68" cy="-162" fill="none" stroke="#000" rx="27" ry="18"/><text x="68" y="-157.8" fill="#000" font-family="Times,serif" font-size="14" text-anchor="middle">A</text></g><g id="node2" class="node"><title>B</title><ellipse cx="68" cy="-90" fill="none" stroke="#000" rx="27" ry="18"/><text x="68" y="-85.8" fill="#000" font-family="Times,serif" font-size="14" text-anchor="middle">B</text></g><g id="edge1" class="edge"><title>A-&gt;B</title><path fill="none" stroke="#000" d="M68,-143.8314C68,-136.131 68,-126.9743 68,-118.4166"/><polygon fill="#000" stroke="#000" points="71.5 -118.413 68 -108.413 64.5 -118.413 71.5 -118.413"/></g><g id="node3" class="node"><title>C</title><ellipse cx="140" cy="-90" fill="none" stroke="#000" rx="27" ry="18"/><text x="140" y="-85.8" fill="#000" font-family="Times,serif" font-size="14" text-anchor="middle">C</text></g><g id="edge2" class="edge"><title>A-&gt;C</title><path fill="none" stroke="#000" d="M83.2693,-146.7307C93.197,-136.803 106.3153,-123.6847 117.4363,-112.5637"/><polygon fill="#000" stroke="#000" points="120.156 -114.793 124.753 -105.247 115.207 -109.844 120.156 -114.793"/></g><g id="node4" class="node"><title>E</title><ellipse cx="27" cy="-18" fill="none" stroke="#000" rx="27" ry="18"/><text x="27" y="-13.8" fill="#000" font-family="Times,serif" font-size="14" text-anchor="middle">E</text></g><g id="edge3" class="edge"><title>A-&gt;E</title><path fill="none" stroke="#000" d="M54.1539,-146.1964C46.1275,-136.0257 36.7032,-122.1097 32,-108 25.3709,-88.1127 24.3104,-64.3952 24.8058,-46.3014"/><polygon fill="#000" stroke="#000" points="28.311 -46.255 25.263 -36.108 21.318 -45.942 28.311 -46.255"/></g><g id="edge5" class="edge"><title>B-&gt;E</title><path fill="none" stroke="#000" d="M58.2836,-72.937C53.3307,-64.2393 47.2039,-53.4799 41.6887,-43.7948"/><polygon fill="#000" stroke="#000" points="44.637 -41.898 36.647 -34.941 38.554 -45.362 44.637 -41.898"/></g><g id="node5" class="node"><title>D</title><ellipse cx="126" cy="-18" fill="none" stroke="#000" rx="27" ry="18"/><text x="126" y="-13.8" fill="#000" font-family="Times,serif" font-size="14" text-anchor="middle">D</text></g><g id="edge4" class="edge"><title>B-&gt;D</title><path fill="none" stroke="#000" d="M80.8721,-74.0209C88.4562,-64.6061 98.1982,-52.5126 106.6884,-41.973"/><polygon fill="#000" stroke="#000" points="109.616 -43.918 113.164 -33.934 104.165 -39.526 109.616 -43.918"/></g><g id="edge6" class="edge"><title>C-&gt;D</title><path fill="none" stroke="#000" d="M136.4672,-71.8314C134.9302,-63.9266 133.0947,-54.4872 131.3932,-45.7365"/><polygon fill="#000" stroke="#000" points="134.828 -45.062 129.483 -35.913 127.956 -46.398 134.828 -45.062"/></g></g></svg>