<svg xmlns="http://www.w3.org/2000/svg" xmlns:xlink="http://www.w3.org/1999/xlink" width="205pt" height="520" viewBox="0 0 205 390.4"><g id="graph0" class="graph" transform="scale(1 1) rotate(0) translate(4 386.4)"><title>Taskflow</title><polygon fill="#fff" stroke="transparent" points="-4 4 -4 -386.4 201 -386.4 201 4 -4 4"/><g id="clust1" class="cluster"><title>cluster_p0x7ffeeca03810</title><polygon fill="none" stroke="#000" points="8 -8 8 -374.4 189 -374.4 189 -8 8 -8"/><text x="98.5" y="-357.8" fill="#000" font-family="Times,serif" font-size="14" text-anchor="middle">Taskflow</text></g><g id="clust2" class="cluster"><title>cluster_p0x7fbc40c02830</title><polygon fill="none" stroke="#00f" points="16 -16 16 -341.6 181 -341.6 181 -16 16 -16"/><text x="98.5" y="-325" fill="#000" font-family="Times,serif" font-size="14" text-anchor="middle">Subflow: A</text></g><g id="clust3" class="cluster"><title>cluster_p0x7fbc40d00240</title><polygon fill="none" stroke="#00f" points="86 -88 86 -308.8 173 -308.8 173 -88 86 -88"/><text x="129.5" y="-292.2" fill="#000" font-family="Times,serif" font-size="14" text-anchor="middle">Subflow: A2</text></g><g id="node1" class="node"><title>p0x7fbc40c02830</title><ellipse cx="124" cy="-42" fill="none" stroke="#000" rx="27" ry="18"/><text x="124" y="-37.8" fill="#000" font-family="Times,serif" font-size="14" text-anchor="middle">A</text></g><g id="node2" class="node"><title>p0x7fbc40d00120</title><ellipse cx="51" cy="-186" fill="none" stroke="#000" rx="27" ry="18"/><text x="51" y="-181.8" fill="#000" font-family="Times,serif" font-size="14" text-anchor="middle">A1</text></g><g id="node3" class="node"><title>p0x7fbc40d00240</title><ellipse cx="124" cy="-114" fill="none" stroke="#000" rx="27" ry="18"/><text x="124" y="-109.8" fill="#000" font-family="Times,serif" font-size="14" text-anchor="middle">A2</text></g><g id="edge1" class="edge"><title>p0x7fbc40d00120-&gt;p0x7fbc40d00240</title><path fill="none" stroke="#000" d="M66.1256,-171.0816C76.3345,-161.0125 89.9878,-147.5463 101.4693,-136.2221"/><polygon fill="#000" stroke="#000" points="103.981 -138.661 108.643 -129.147 99.065 -133.677 103.981 -138.661"/></g><g id="edge2" class="edge"><title>p0x7fbc40d00240-&gt;p0x7fbc40c02830</title><path fill="none" stroke="#000" d="M124,-95.8314C124,-88.131 124,-78.9743 124,-70.4166"/><polygon fill="#000" stroke="#000" points="127.5 -70.413 124 -60.413 120.5 -70.413 127.5 -70.413"/></g><g id="node4" class="node"><title>p0x7fbc40d00360</title><ellipse cx="128" cy="-258" fill="none" stroke="#000" rx="32.486" ry="18"/><text x="128" y="-253.8" fill="#000" font-family="Times,serif" font-size="14" text-anchor="middle">A2_1</text></g><g id="node5" class="node"><title>p0x7fbc40d00470</title><ellipse cx="128" cy="-186" fill="none" stroke="#000" rx="32.486" ry="18"/><text x="128" y="-181.8" fill="#000" font-family="Times,serif" font-size="14" text-anchor="middle">A2_2</text></g><g id="edge3" class="edge"><title>p0x7fbc40d00360-&gt;p0x7fbc40d00470</title><path fill="none" stroke="#000" d="M128,-239.8314C128,-232.131 128,-222.9743 128,-214.4166"/><polygon fill="#000" stroke="#000" points="131.5 -214.413 128 -204.413 124.5 -214.413 131.5 -214.413"/></g><g id="edge4" class="edge"><title>p0x7fbc40d00470-&gt;p0x7fbc40d00240</title><path fill="none" stroke="#000" d="M126.9906,-167.8314C126.5628,-160.131 126.0541,-150.9743 125.5787,-142.4166"/><polygon fill="#000" stroke="#000" points="129.072 -142.204 125.023 -132.413 122.083 -142.592 129.072 -142.204"/></g></g></svg>