<svg xmlns="http://www.w3.org/2000/svg" xmlns:xlink="http://www.w3.org/1999/xlink" width="192" height="188pt" viewBox="0 0 143.55 188"><g id="graph0" class="graph" transform="scale(1 1) rotate(0) translate(4 184)"><title>Taskflow</title><polygon fill="#fff" stroke="transparent" points="-4 4 -4 -184 139.553 -184 139.553 4 -4 4"/><g id="node1" class="node"><title>S</title><ellipse cx="67.276" cy="-162" fill="none" stroke="#000" rx="27" ry="18"/><text x="67.276" y="-157.8" fill="#000" font-family="Times,serif" font-size="14" text-anchor="middle">S</text></g><g id="node2" class="node"><title>A, B</title><ellipse cx="29.276" cy="-90" fill="none" stroke="#000" rx="29.055" ry="18"/><text x="29.276" y="-85.8" fill="#000" font-family="Times,serif" font-size="14" text-anchor="middle">A, B</text></g><g id="edge1" class="edge"><title>S-&gt;A, B</title><path fill="none" stroke="#000" d="M58.2711,-144.937C53.7938,-136.4537 48.2814,-126.0092 43.2695,-116.513"/><polygon fill="#000" stroke="#000" points="46.244 -114.651 38.481 -107.441 40.054 -117.918 46.244 -114.651"/></g><g id="node3" class="node"><title>C, D</title><ellipse cx="106.276" cy="-90" fill="none" stroke="#000" rx="29.055" ry="18"/><text x="106.276" y="-85.8" fill="#000" font-family="Times,serif" font-size="14" text-anchor="middle">C, D</text></g><g id="edge2" class="edge"><title>S-&gt;C, D</title><path fill="none" stroke="#000" d="M76.519,-144.937C81.1141,-136.4537 86.7716,-126.0092 91.9153,-116.513"/><polygon fill="#000" stroke="#000" points="95.144 -117.901 96.829 -107.441 88.989 -114.567 95.144 -117.901"/></g><g id="node4" class="node"><title>T</title><ellipse cx="67.276" cy="-18" fill="none" stroke="#000" rx="27" ry="18"/><text x="67.276" y="-13.8" fill="#000" font-family="Times,serif" font-size="14" text-anchor="middle">T</text></g><g id="edge3" class="edge"><title>A, B-&gt;T</title><path fill="none" stroke="#000" d="M38.4753,-72.5708C42.9562,-64.0807 48.4387,-53.6929 53.4132,-44.2674"/><polygon fill="#000" stroke="#000" points="56.59 -45.746 58.163 -35.269 50.4 -42.479 56.59 -45.746"/></g><g id="edge4" class="edge"><title>C, D-&gt;T</title><path fill="none" stroke="#000" d="M96.8357,-72.5708C92.2369,-64.0807 86.6102,-53.6929 81.5047,-44.2674"/><polygon fill="#000" stroke="#000" points="84.471 -42.395 76.63 -35.269 78.316 -45.729 84.471 -42.395"/></g></g></svg>