<svg xmlns="http://www.w3.org/2000/svg" xmlns:xlink="http://www.w3.org/1999/xlink" width="278pt" height="188pt" viewBox="0 0 278 188"><g id="graph0" class="graph" transform="scale(1 1) rotate(0) translate(4 184)"><title>Taskflow</title><polygon fill="#fff" stroke="transparent" points="-4 4 -4 -184 274 -184 274 4 -4 4"/><g id="node1" class="node"><title>S</title><ellipse cx="135" cy="-162" fill="none" stroke="#000" rx="27" ry="18"/><text x="135" y="-157.8" fill="#000" font-family="Times,serif" font-size="14" text-anchor="middle">S</text></g><g id="node2" class="node"><title>A</title><ellipse cx="27" cy="-90" fill="none" stroke="#000" rx="27" ry="18"/><text x="27" y="-85.8" fill="#000" font-family="Times,serif" font-size="14" text-anchor="middle">A</text></g><g id="edge1" class="edge"><title>S-&gt;A</title><path fill="none" stroke="#000" d="M115.6918,-149.1278C98.6445,-137.763 73.5981,-121.0654 54.4656,-108.3104"/><polygon fill="#000" stroke="#000" points="56.403 -105.396 46.141 -102.761 52.52 -111.22 56.403 -105.396"/></g><g id="node3" class="node"><title>B</title><ellipse cx="99" cy="-90" fill="none" stroke="#000" rx="27" ry="18"/><text x="99" y="-85.8" fill="#000" font-family="Times,serif" font-size="14" text-anchor="middle">B</text></g><g id="edge2" class="edge"><title>S-&gt;B</title><path fill="none" stroke="#000" d="M126.2854,-144.5708C122.0403,-136.0807 116.8464,-125.6929 112.1337,-116.2674"/><polygon fill="#000" stroke="#000" points="115.237 -114.648 107.634 -107.269 108.976 -117.778 115.237 -114.648"/></g><g id="node4" class="node"><title>C</title><ellipse cx="171" cy="-90" fill="none" stroke="#000" rx="27" ry="18"/><text x="171" y="-85.8" fill="#000" font-family="Times,serif" font-size="14" text-anchor="middle">C</text></g><g id="edge3" class="edge"><title>S-&gt;C</title><path fill="none" stroke="#000" d="M143.7146,-144.5708C147.9597,-136.0807 153.1536,-125.6929 157.8663,-116.2674"/><polygon fill="#000" stroke="#000" points="161.024 -117.778 162.366 -107.269 154.763 -114.648 161.024 -117.778"/></g><g id="node5" class="node"><title>D</title><ellipse cx="243" cy="-90" fill="none" stroke="#000" rx="27" ry="18"/><text x="243" y="-85.8" fill="#000" font-family="Times,serif" font-size="14" text-anchor="middle">D</text></g><g id="edge4" class="edge"><title>S-&gt;D</title><path fill="none" stroke="#000" d="M154.3082,-149.1278C171.3555,-137.763 196.4019,-121.0654 215.5344,-108.3104"/><polygon fill="#000" stroke="#000" points="217.48 -111.22 223.859 -102.761 213.597 -105.396 217.48 -111.22"/></g><g id="node6" class="node"><title>T</title><ellipse cx="135" cy="-18" fill="none" stroke="#000" rx="27" ry="18"/><text x="135" y="-13.8" fill="#000" font-family="Times,serif" font-size="14" text-anchor="middle">T</text></g><g id="edge5" class="edge"><title>A-&gt;T</title><path fill="none" stroke="#000" d="M46.3082,-77.1278C63.3555,-65.763 88.4019,-49.0654 107.5344,-36.3104"/><polygon fill="#000" stroke="#000" points="109.48 -39.22 115.859 -30.761 105.597 -33.396 109.48 -39.22"/></g><g id="edge6" class="edge"><title>B-&gt;T</title><path fill="none" stroke="#000" d="M107.7146,-72.5708C111.9597,-64.0807 117.1536,-53.6929 121.8663,-44.2674"/><polygon fill="#000" stroke="#000" points="125.024 -45.778 126.366 -35.269 118.763 -42.648 125.024 -45.778"/></g><g id="edge7" class="edge"><title>C-&gt;T</title><path fill="none" stroke="#000" d="M162.2854,-72.5708C158.0403,-64.0807 152.8464,-53.6929 148.1337,-44.2674"/><polygon fill="#000" stroke="#000" points="151.237 -42.648 143.634 -35.269 144.976 -45.778 151.237 -42.648"/></g><g id="edge8" class="edge"><title>D-&gt;T</title><path fill="none" stroke="#000" d="M223.6918,-77.1278C206.6445,-65.763 181.5981,-49.0654 162.4656,-36.3104"/><polygon fill="#000" stroke="#000" points="164.403 -33.396 154.141 -30.761 160.52 -39.22 164.403 -33.396"/></g></g></svg>