<svg xmlns="http://www.w3.org/2000/svg" xmlns:xlink="http://www.w3.org/1999/xlink" width="428pt" height="229pt" viewBox="0 0 427.8 229"><g id="graph0" class="graph" transform="scale(1 1) rotate(0) translate(4 225)"><title>Taskflow</title><polygon fill="#fff" stroke="transparent" points="-4 4 -4 -225 423.797 -225 423.797 4 -4 4"/><g id="clust1" class="cluster"><title>cluster_p0x55b2191178a8</title><polygon fill="none" stroke="#a020f0" points="8 -46 8 -177 411.797 -177 411.797 -46 8 -46"/><text x="209.899" y="-160.4" fill="#000" font-family="Times,serif" font-size="14" text-anchor="middle">cudaFlow: saxpy</text></g><g id="node1" class="node"><title>p0x55b219117698</title><ellipse cx="263.077" cy="-203" fill="none" stroke="#000" rx="50.941" ry="18"/><text x="263.077" y="-198.8" fill="#000" font-family="Times,serif" font-size="14" text-anchor="middle">allocate_x</text></g><g id="node2" class="node"><title>p0x55b2191178a8</title><polygon fill="#0ff" stroke="#000" points="403.797 -117 400.797 -121 379.797 -121 376.797 -117 349.797 -117 349.797 -81 403.797 -81 403.797 -117"/><text x="376.797" y="-94.8" fill="#000" font-family="Times,serif" font-size="14" text-anchor="middle">saxpy</text></g><g id="edge1" class="edge"><title>p0x55b219117698-&gt;p0x55b2191178a8</title><path fill="none" stroke="#000" d="M299.0247,-190.1549C304.2313,-187.5293 309.3323,-184.4831 313.7973,-181 333.2042,-165.8611 349.8937,-143.4185 361.2102,-125.8374"/><polygon fill="#000" stroke="#000" points="364.305 -127.489 366.624 -117.151 358.364 -123.786 364.305 -127.489"/></g><g id="node3" class="node"><title>p0x55b2191177a0</title><ellipse cx="263.077" cy="-18" fill="none" stroke="#000" rx="50.941" ry="18"/><text x="263.077" y="-13.8" fill="#000" font-family="Times,serif" font-size="14" text-anchor="middle">allocate_y</text></g><g id="edge2" class="edge"><title>p0x55b2191177a0-&gt;p0x55b2191178a8</title><path fill="none" stroke="#000" d="M296.0492,-31.8682C302.1271,-34.9041 308.2882,-38.3216 313.7973,-42 327.4518,-51.1169 341.143,-63.0821 352.2574,-73.6949"/><polygon fill="#000" stroke="#000" points="349.908 -76.293 359.508 -80.775 354.798 -71.284 349.908 -76.293"/></g><g id="node4" class="node"><title>p0x7f2870401a50</title><ellipse cx="51.179" cy="-126" fill="none" stroke="#000" rx="35.359" ry="18"/><text x="51.179" y="-121.8" fill="#000" font-family="Times,serif" font-size="14" text-anchor="middle">h2d_x</text></g><g id="node5" class="node"><title>p0x7f2870402bc0</title><polygon fill="#000" stroke="#fff" points="176.358 -117 126.358 -117 122.358 -113 122.358 -81 172.358 -81 176.358 -85 176.358 -117"/><polyline fill="none" stroke="#fff" points="172.358 -113 122.358 -113"/><polyline fill="none" stroke="#fff" points="172.358 -113 172.358 -81"/><polyline fill="none" stroke="#fff" points="172.358 -113 176.358 -117"/><text x="149.358" y="-94.8" fill="#fff" font-family="Times,serif" font-size="14" text-anchor="middle">saxpy</text></g><g id="edge3" class="edge"><title>p0x7f2870401a50-&gt;p0x7f2870402bc0</title><path fill="none" stroke="#000" d="M82.2433,-117.457C91.8498,-114.8152 102.5258,-111.8792 112.4853,-109.1402"/><polygon fill="#000" stroke="#000" points="113.426 -112.512 122.14 -106.485 111.57 -105.762 113.426 -112.512"/></g><g id="node7" class="node"><title>p0x7f2870402310</title><ellipse cx="263.077" cy="-72" fill="none" stroke="#000" rx="35.359" ry="18"/><text x="263.077" y="-67.8" fill="#000" font-family="Times,serif" font-size="14" text-anchor="middle">d2h_x</text></g><g id="edge7" class="edge"><title>p0x7f2870402bc0-&gt;p0x7f2870402310</title><path fill="none" stroke="#000" d="M176.5965,-92.5328C189.8368,-89.3892 206.0502,-85.5398 220.8458,-82.0269"/><polygon fill="#000" stroke="#000" points="221.887 -85.377 230.808 -79.662 220.27 -78.566 221.887 -85.377"/></g><g id="node8" class="node"><title>p0x7f2870402780</title><ellipse cx="263.077" cy="-126" fill="none" stroke="#000" rx="35.359" ry="18"/><text x="263.077" y="-121.8" fill="#000" font-family="Times,serif" font-size="14" text-anchor="middle">d2h_y</text></g><g id="edge8" class="edge"><title>p0x7f2870402bc0-&gt;p0x7f2870402780</title><path fill="none" stroke="#000" d="M176.5965,-105.4672C189.8368,-108.6108 206.0502,-112.4602 220.8458,-115.9731"/><polygon fill="#000" stroke="#000" points="220.27 -119.434 230.808 -118.338 221.887 -112.623 220.27 -119.434"/></g><g id="node6" class="node"><title>p0x7f2870401eb0</title><ellipse cx="51.179" cy="-72" fill="none" stroke="#000" rx="35.359" ry="18"/><text x="51.179" y="-67.8" fill="#000" font-family="Times,serif" font-size="14" text-anchor="middle">h2d_y</text></g><g id="edge4" class="edge"><title>p0x7f2870401eb0-&gt;p0x7f2870402bc0</title><path fill="none" stroke="#000" d="M82.2433,-80.543C91.8498,-83.1848 102.5258,-86.1208 112.4853,-88.8598"/><polygon fill="#000" stroke="#000" points="111.57 -92.238 122.14 -91.515 113.426 -85.488 111.57 -92.238"/></g><g id="edge5" class="edge"><title>p0x7f2870402310-&gt;p0x55b2191178a8</title><path fill="none" stroke="#000" d="M295.0575,-79.5929C308.9077,-82.8813 325.2112,-86.7521 339.5992,-90.1682"/><polygon fill="#000" stroke="#000" points="339.137 -93.656 349.675 -92.56 340.754 -86.845 339.137 -93.656"/></g><g id="edge6" class="edge"><title>p0x7f2870402780-&gt;p0x55b2191178a8</title><path fill="none" stroke="#000" d="M295.0575,-118.4071C308.9077,-115.1187 325.2112,-111.2479 339.5992,-107.8318"/><polygon fill="#000" stroke="#000" points="340.754 -111.155 349.675 -105.44 339.137 -104.344 340.754 -111.155"/></g></g></svg>