<svg xmlns="http://www.w3.org/2000/svg" xmlns:xlink="http://www.w3.org/1999/xlink" width="692pt" height="208" viewBox="0 0 692 156"><g id="graph0" class="graph" transform="scale(1 1) rotate(0) translate(4 152)"><title>Taskflow</title><polygon fill="#fff" stroke="transparent" points="-4 4 -4 -152 688 -152 688 4 -4 4"/><g id="node1" class="node"><title>T</title><ellipse cx="657" cy="-65" fill="none" stroke="#000" rx="27" ry="18"/><text x="657" y="-60.8" fill="#000" font-family="Times,serif" font-size="14" text-anchor="middle">T</text></g><g id="node2" class="node"><title>Z</title><ellipse cx="567" cy="-65" fill="none" stroke="#000" rx="27" ry="18"/><text x="567" y="-60.8" fill="#000" font-family="Times,serif" font-size="14" text-anchor="middle">Z</text></g><g id="edge1" class="edge"><title>Z-&gt;T</title><path fill="none" stroke="#000" d="M594.003,-65C602.0277,-65 610.9665,-65 619.5309,-65"/><polygon fill="#000" stroke="#000" points="619.705 -68.5 629.705 -65 619.705 -61.5 619.705 -68.5"/></g><g id="node3" class="node"><title>Y</title><ellipse cx="477" cy="-65" fill="none" stroke="#000" rx="27" ry="18"/><text x="477" y="-60.8" fill="#000" font-family="Times,serif" font-size="14" text-anchor="middle">Y</text></g><g id="edge2" class="edge"><title>Y-&gt;Z</title><path fill="none" stroke="#000" d="M504.003,-65C512.0277,-65 520.9665,-65 529.5309,-65"/><polygon fill="#000" stroke="#000" points="529.705 -68.5 539.705 -65 529.705 -61.5 529.705 -68.5"/></g><g id="node4" class="node"><title>X</title><ellipse cx="387" cy="-65" fill="none" stroke="#000" rx="27" ry="18"/><text x="387" y="-60.8" fill="#000" font-family="Times,serif" font-size="14" text-anchor="middle">X</text></g><g id="edge3" class="edge"><title>X-&gt;Y</title><path fill="none" stroke="#000" d="M414.003,-65C422.0277,-65 430.9665,-65 439.5309,-65"/><polygon fill="#000" stroke="#000" points="439.705 -68.5 449.705 -65 439.705 -61.5 439.705 -68.5"/></g><g id="node5" class="node"><title>S</title><ellipse cx="27" cy="-76" fill="none" stroke="#000" rx="27" ry="18"/><text x="27" y="-71.8" fill="#000" font-family="Times,serif" font-size="14" text-anchor="middle">S</text></g><g id="node6" class="node"><title>D</title><ellipse cx="117" cy="-130" fill="none" stroke="#000" rx="27" ry="18"/><text x="117" y="-125.8" fill="#000" font-family="Times,serif" font-size="14" text-anchor="middle">D</text></g><g id="edge4" class="edge"><title>S-&gt;D</title><path fill="none" stroke="#000" d="M47.4224,-88.2534C59.3897,-95.4338 74.7024,-104.6215 87.9143,-112.5486"/><polygon fill="#000" stroke="#000" points="86.283 -115.651 96.658 -117.795 89.884 -109.649 86.283 -115.651"/></g><g id="node7" class="node"><title>A</title><ellipse cx="117" cy="-76" fill="none" stroke="#000" rx="27" ry="18"/><text x="117" y="-71.8" fill="#000" font-family="Times,serif" font-size="14" text-anchor="middle">A</text></g><g id="edge5" class="edge"><title>S-&gt;A</title><path fill="none" stroke="#000" d="M54.003,-76C62.0277,-76 70.9665,-76 79.5309,-76"/><polygon fill="#000" stroke="#000" points="79.705 -79.5 89.705 -76 79.705 -72.5 79.705 -79.5"/></g><g id="node8" class="node"><title>E</title><ellipse cx="207" cy="-30" fill="none" stroke="#000" rx="27" ry="18"/><text x="207" y="-25.8" fill="#000" font-family="Times,serif" font-size="14" text-anchor="middle">E</text></g><g id="edge6" class="edge"><title>S-&gt;E</title><path fill="none" stroke="#000" d="M48.6749,-65.1531C60.6074,-59.5829 75.8311,-53.1195 90,-49 116.218,-41.3774 146.6873,-36.5524 169.9587,-33.6727"/><polygon fill="#000" stroke="#000" points="170.579 -37.124 180.103 -32.483 169.764 -30.172 170.579 -37.124"/></g><g id="edge10" class="edge"><title>D-&gt;T</title><path fill="none" stroke="#000" d="M144.1403,-130C179.376,-130 242.7813,-130 297,-130 297,-130 297,-130 477,-130 533.0323,-130 593.3556,-101.7916 627.9997,-82.5404"/><polygon fill="#000" stroke="#000" points="630.107 -85.368 637.065 -77.379 626.643 -79.285 630.107 -85.368"/></g><g id="node10" class="node"><title>B</title><ellipse cx="207" cy="-84" fill="none" stroke="#000" rx="27" ry="18"/><text x="207" y="-79.8" fill="#000" font-family="Times,serif" font-size="14" text-anchor="middle">B</text></g><g id="edge9" class="edge"><title>D-&gt;B</title><path fill="none" stroke="#000" d="M138.7865,-118.8647C150.0625,-113.1014 164.0163,-105.9694 176.3599,-99.6605"/><polygon fill="#000" stroke="#000" points="178.103 -102.701 185.414 -95.033 174.917 -96.467 178.103 -102.701"/></g><g id="edge14" class="edge"><title>A-&gt;B</title><path fill="none" stroke="#000" d="M144.003,-78.4003C152.1903,-79.128 161.3292,-79.9404 170.051,-80.7156"/><polygon fill="#000" stroke="#000" points="169.745 -84.202 180.016 -81.601 170.365 -77.23 169.745 -84.202"/></g><g id="edge8" class="edge"><title>E-&gt;T</title><path fill="none" stroke="#000" d="M232.1178,-23.1174C266.7081,-14.2604 331.0829,0 387,0 387,0 387,0 477,0 533.0323,0 593.3556,-28.2084 627.9997,-47.4596"/><polygon fill="#000" stroke="#000" points="626.643 -50.715 637.065 -52.621 630.107 -44.632 626.643 -50.715"/></g><g id="node9" class="node"><title>C</title><ellipse cx="297" cy="-46" fill="none" stroke="#000" rx="27" ry="18"/><text x="297" y="-41.8" fill="#000" font-family="Times,serif" font-size="14" text-anchor="middle">C</text></g><g id="edge7" class="edge"><title>E-&gt;C</title><path fill="none" stroke="#000" d="M233.5162,-34.714C242.0303,-36.2276 251.6129,-37.9312 260.7029,-39.5472"/><polygon fill="#000" stroke="#000" points="260.215 -43.015 270.673 -41.32 261.44 -36.123 260.215 -43.015"/></g><g id="edge11" class="edge"><title>C-&gt;X</title><path fill="none" stroke="#000" d="M323.0317,-51.4956C331.8005,-53.3468 341.7454,-55.4463 351.1362,-57.4287"/><polygon fill="#000" stroke="#000" points="350.519 -60.876 361.027 -59.517 351.965 -54.027 350.519 -60.876"/></g><g id="edge13" class="edge"><title>B-&gt;X</title><path fill="none" stroke="#000" d="M233.9784,-81.7147C257.7087,-79.6446 293.1764,-76.4051 324,-73 332.4921,-72.0619 341.6157,-70.9587 350.2103,-69.8763"/><polygon fill="#000" stroke="#000" points="350.878 -73.319 360.354 -68.579 349.99 -66.376 350.878 -73.319"/></g><g id="edge12" class="edge"><title>B-&gt;C</title><path fill="none" stroke="#000" d="M230.1772,-74.2141C240.6752,-69.7816 253.2638,-64.4664 264.67,-59.6504"/><polygon fill="#000" stroke="#000" points="266.05 -62.867 273.901 -55.753 263.327 -56.418 266.05 -62.867"/></g></g></svg>